<?xml version="1.0" encoding="utf-8"?>
<!-- Generator: Adobe Illustrator 21.0.0, SVG Export Plug-In . SVG Version: 6.00 Build 0)  -->
<svg version="1.1" id="Capa_1" xmlns="http://www.w3.org/2000/svg" xmlns:xlink="http://www.w3.org/1999/xlink" x="0px" y="0px"
	 viewBox="0 0 79 59" style="enable-background:new 0 0 79 59;" xml:space="preserve">
<style type="text/css">
	.st0{fill:none;stroke:#3398DC;stroke-width:2;stroke-miterlimit:10;}
</style>
<g>
	
		<image style="overflow:visible;opacity:0.5;enable-background:new    ;" width="78" height="58" xlink:href="CFD7721F1B1C3526.png"  transform="matrix(1 0 0 1 0 -1.220703e-05)">
	</image>
	<g>
		<g>
			<g>
				<path class="st0" d="M70,42.9c-0.1,0.7-0.2,1.5-0.4,2.2c-0.3,1.1-0.7,2.2-1.2,3.2c-1,1.9-2.7,2.6-4.8,2.2
					c-1.8-0.3-3.4-1-4.8-2.1c-2.4-1.7-4.7-3.5-7-5.3c-2-1.5-4-2.9-6.3-3.8c-6.2-2.4-12-1.7-17.3,2.2c-1.8,1.3-3.3,2.9-4.9,4.3
					c-1.9,1.8-3.8,3.5-6.4,4.3c-1.1,0.3-2.3,0.5-3.4,0.5c-2.1,0-3.4-1.3-4.2-3.1c-1.1-2.4-1.3-5-1.2-7.6c0.3-8.6,2.6-16.7,7.1-24.1
					c1.7-2.8,3.7-5.3,6.6-7c0.9-0.5,1.9-0.9,3-1.3c1.5-0.5,3.1-0.3,4.6,0.3c1.8,0.8,3.6,1.5,5.4,2.2c3,1.2,6,1.2,8.9,0
					c1.5-0.6,3-1.2,4.5-1.9c3.3-1.6,6.3-0.9,9.1,1c3,2.1,5.1,4.9,6.8,8.1c3.3,6,5.2,12.5,5.9,19.3c0,0.2,0.1,0.4,0.1,0.6
					C70,39.1,70,41,70,42.9z M25.9,31.7c4.8-0.1,8.5-3.9,8.5-8.5c-0.1-4.7-3.9-8.4-8.5-8.4c-4.7,0-8.5,3.9-8.4,8.6
					C17.5,28.1,21.3,31.8,25.9,31.7z M48.4,27c1,0,1.9-0.8,1.9-1.9c0-1-0.8-1.9-1.9-1.9c-1,0-1.9,0.8-1.9,1.8
					C46.5,26.2,47.3,27,48.4,27z M54.1,32.7c1.1,0,1.9-0.8,1.9-1.9s-0.8-1.9-1.9-1.9c-1,0-1.9,0.9-1.9,1.9
					C52.3,31.9,53.1,32.7,54.1,32.7z M56,19.5c0-1-0.9-1.9-1.9-1.9s-1.9,0.9-1.9,1.9s0.9,1.8,2,1.8C55.2,21.4,56.1,20.5,56,19.5z
					 M59.9,23.3c-1,0-1.9,0.8-1.9,1.9c0,1,0.8,1.9,1.9,1.9c1,0,1.8-0.8,1.9-1.8C61.7,24.2,60.9,23.3,59.9,23.3z"/>
				<path class="st0" d="M25.9,28c-2.6,0-4.7-2.1-4.7-4.7s2.1-4.7,4.7-4.7s4.7,2.1,4.7,4.7C30.6,25.9,28.5,28,25.9,28z"/>
			</g>
		</g>
	</g>
</g>
</svg>
