<?xml version="1.0" encoding="utf-8"?>
<!-- Generator: Adobe Illustrator 21.0.0, SVG Export Plug-In . SVG Version: 6.00 Build 0)  -->
<svg version="1.1" id="Capa_1" xmlns="http://www.w3.org/2000/svg" xmlns:xlink="http://www.w3.org/1999/xlink" x="0px" y="0px"
	 viewBox="0 0 80 58" style="enable-background:new 0 0 80 58;" xml:space="preserve">
<style type="text/css">
	.st0{fill:none;stroke:#3398DC;stroke-width:2;stroke-miterlimit:10;}
</style>
<g>
	
		<image style="overflow:visible;opacity:0.5;enable-background:new    ;" width="80" height="58" xlink:href="F28D40775E54EEA6.png"  transform="matrix(1 0 0 1 0 -1.220703e-05)">
	</image>
	<g>
		<g>
			<g>
				<polygon class="st0" points="19.3,38.1 19.3,30.7 8.4,39.5 19.3,48.4 19.3,41 				"/>
				<line class="st0" x1="19.7" y1="39.5" x2="28.2" y2="39.5"/>
				<line class="st0" x1="28.2" y1="27.2" x2="28.2" y2="51.9"/>
			</g>
			<g>
				<polygon class="st0" points="60.7,41 60.7,48.4 71.6,39.5 60.7,30.7 60.7,38.1 				"/>
				<line class="st0" x1="60.3" y1="39.5" x2="51.8" y2="39.5"/>
				<line class="st0" x1="51.8" y1="51.9" x2="51.8" y2="27.2"/>
			</g>
			<g>
				<polygon class="st0" points="41.5,19 48.8,19 40,8.1 31.2,19 38.5,19 				"/>
				<line class="st0" x1="40" y1="19.4" x2="40" y2="51.9"/>
			</g>
		</g>
	</g>
</g>
</svg>
