<?xml version="1.0" encoding="utf-8"?>
<!-- Generator: Adobe Illustrator 21.0.0, SVG Export Plug-In . SVG Version: 6.00 Build 0)  -->
<svg version="1.1" id="Capa_1" xmlns="http://www.w3.org/2000/svg" xmlns:xlink="http://www.w3.org/1999/xlink" x="0px" y="0px"
	 viewBox="0 0 75 51" style="enable-background:new 0 0 75 51;" xml:space="preserve">
<style type="text/css">
	.st0{fill:none;stroke:#3398DC;stroke-width:2;stroke-miterlimit:10;}
</style>
<g>
	
		<image style="overflow:visible;opacity:0.5;enable-background:new    ;" width="74" height="50" xlink:href="1F923D459B456C8B.png"  transform="matrix(1 0 0 1 0 -1.220703e-05)">
	</image>
	<g>
		<g>
			<g>
				<path class="st0" d="M51.3,9.6c0-0.7-0.2-1.3-0.6-1.7c-0.4-0.4-1-0.6-1.7-0.5c-0.4,0-0.8,0-1.2,0.1h-0.5L19,9.9
					c-3,0.3-6,0.5-9,0.7c-1.6,0.1-2.4,0.4-2.7,1.6v25.9c0.3,0.8,0.8,1.1,1.6,1.1c0.4,0,0.7,0,1.1,0.1c0.2,0,0.3,0,0.5,0.1l2.6,0.2
					c2,0.2,3.9,0.3,5.9,0.5c0.3,0,0.4,0,0.6-0.3c1.7-2.4,3.4-4.8,5.1-7.2c0.7-0.9,1.3-1.4,2.1-1.4l0,0c0.7,0,1.4,0.5,2,1.4l1,1.4
					c1.5,2.3,3.1,4.5,4.6,6.8c0.3,0.4,0.6,0.6,1.1,0.6c1.1,0.1,2.2,0.2,3.3,0.3c1,0.1,1.9,0.2,2.9,0.3c0.7,0.1,1.5,0.1,2.2,0.2
					c1.9,0.2,3.8,0.3,5.7,0.4l0,0c0.7,0,1.2-0.3,1.5-1c0.2-0.5,0.3-1.1,0.3-1.9V23.8v-9.5C51.3,12.7,51.3,11.2,51.3,9.6z M18.5,30.4
					c-0.8,1-1.9,1.5-3,1.6h-0.1c-1.1,0-2.1-0.5-3-1.4c-1-1.1-1.7-2.5-1.9-4.3c-0.4-2.6,0-4.8,1.2-6.6c0.6-1,1.6-2.2,3.5-2.4
					c1.5-0.1,2.8,0.6,3.9,2.2c1,1.4,1.4,3.1,1.4,5.1C20.4,27,19.8,28.9,18.5,30.4z M43.9,30.8c-1.1,1.4-2.6,2.1-4.2,2.1
					c0,0,0,0-0.1,0c-1.6,0-3-0.7-4.1-2.1c-1.5-1.9-2.2-4.2-2-7c0.2-2.1,0.8-3.8,2.1-5.3c1.1-1.3,2.5-2,4.1-2l0,0c1.6,0,3,0.7,4.1,2
					C46.6,21.8,46.6,27.4,43.9,30.8z"/>
				<path class="st0" d="M49.9,42.6c1.2-0.3,10.3-3.3,13.6-4.2c2-0.6,3.2-2.8,3.2-4.1c0-0.8,0-1.5,0-2.3s0-1.5,0-2.3l0,0l0,0
					c-1.2,0.2-2.3,0.4-3.5,0.7l-1.1,0.2c-0.7,0.1-1.4,0-1.9-0.4s-0.7-1-0.7-1.7c0-2.7,0-5.5,0-8.2c0-0.9,0.4-1.4,0.7-1.7
					c0.3-0.3,0.9-0.6,1.9-0.4l1.5,0.3c1,0.2,2,0.4,3,0.6c0-0.9,0-1.9,0-2.8v-2c0-0.7-0.3-1.2-0.9-1.6s-1.4-0.7-1.9-0.8
					c-4.5-1.3-9.7-3-14.2-4.3"/>
				<line class="st0" x1="66.7" y1="17.9" x2="66.7" y2="29.6"/>
			</g>
		</g>
	</g>
</g>
</svg>
