<?xml version="1.0" encoding="utf-8"?>
<!-- Generator: Adobe Illustrator 21.0.0, SVG Export Plug-In . SVG Version: 6.00 Build 0)  -->
<svg version="1.1" id="Capa_1" xmlns="http://www.w3.org/2000/svg" xmlns:xlink="http://www.w3.org/1999/xlink" x="0px" y="0px"
	 viewBox="0 0 105.9 23.2" style="enable-background:new 0 0 105.9 23.2;" xml:space="preserve">
<style type="text/css">
	.st0{fill:#22A94B;}
	.st1{fill:#231F20;}
	.st2{fill:#F89C1C;}
	.st3{fill:#EE4637;}
	.st4{fill:#FFDD00;}
	.st5{fill:#00A9E6;}
</style>
<g>
	<path class="st0" d="M8.7,17.4c-1.6,0-2.8-1.3-2.8-2.8c0-1.6,1.3-2.8,2.8-2.8c1.6,0,2.8,1.3,2.8,2.8C11.5,16.1,10.2,17.4,8.7,17.4"
		/>
	<rect x="17" y="7.1" class="st1" width="4.9" height="14.8"/>
	<rect x="22.9" y="1.3" class="st1" width="4.9" height="20.6"/>
	<rect x="28.8" y="1.3" class="st1" width="4.9" height="20.6"/>
	<path class="st1" d="M19.4,0.5c-1.6,0-2.8,1.3-2.8,2.8c0,1.6,1.3,2.8,2.8,2.8c1.6,0,2.8-1.3,2.8-2.8C22.3,1.7,21,0.5,19.4,0.5"/>
	<path class="st1" d="M8.7,17.4c-1.6,0-2.8-1.3-2.8-2.8c0-1.6,1.3-2.8,2.8-2.8c1.6,0,2.8,1.3,2.8,2.8C11.5,16.1,10.2,17.4,8.7,17.4
		 M9.2,6.9c-1.3,0-2.4,0.3-3.4,1V1.3H0.9v20.6h4.8v-1.4c1.2,1.1,2.4,1.6,3.9,1.6c3.7,0,6.8-3.3,6.8-7.6C16.4,10,13.3,6.9,9.2,6.9"/>
	<path class="st2" d="M97.3,17.4c-1.6,0-2.8-1.3-2.8-2.8c0-1.6,1.3-2.8,2.8-2.8c1.6,0,2.8,1.3,2.8,2.8
		C100.2,16.1,98.9,17.4,97.3,17.4"/>
	<path class="st3" d="M42.4,17.4c-1.6,0-2.8-1.3-2.8-2.8c0-1.6,1.3-2.8,2.8-2.8c1.6,0,2.8,1.3,2.8,2.8C45.3,16.1,44,17.4,42.4,17.4"
		/>
	<path class="st4" d="M57.5,17.2c-1.6,0-2.8-1.3-2.8-2.8c0-1.6,1.3-2.8,2.8-2.8c1.6,0,2.8,1.3,2.8,2.8
		C60.3,15.9,59.1,17.2,57.5,17.2"/>
	<path class="st5" d="M72.2,17.3c-1.6,0-2.8-1.3-2.8-2.8c0-1.6,1.3-2.8,2.8-2.8c1.6,0,2.8,1.3,2.8,2.8C75,16,73.7,17.3,72.2,17.3"/>
	<path class="st1" d="M86.1,8.6V7.1h-4.9v14.8h4.9v-7.1c0-1.8,1-2.8,2.7-2.8h0.6V6.9C87.9,7,86.9,7.5,86.1,8.6"/>
	<path class="st1" d="M72.2,17.3c-1.6,0-2.8-1.3-2.8-2.8c0-1.6,1.3-2.8,2.8-2.8c1.6,0,2.8,1.3,2.8,2.8C75,16,73.7,17.3,72.2,17.3
		 M57.5,17.2c-1.6,0-2.8-1.3-2.8-2.8c0-1.6,1.3-2.8,2.8-2.8c1.6,0,2.8,1.3,2.8,2.8C60.3,15.9,59.1,17.2,57.5,17.2 M42.4,17.4
		c-1.6,0-2.8-1.3-2.8-2.8c0-1.6,1.3-2.8,2.8-2.8c1.6,0,2.8,1.3,2.8,2.8C45.3,16.1,44,17.4,42.4,17.4 M75.4,8.2
		c-0.7-0.7-2.3-1.4-3.5-1.4c-3.7,0-6.3,2.4-7,6c-0.7-3.5-3.7-6.1-7.4-6.1c-3.7,0-6.8,2.7-7.4,6.2c-0.6-3.7-3.5-6.1-7.1-6.1
		c-1.3,0-2.4,0.3-3.4,1V1.3h-4.9v20.6h4.8v-1.4c1.2,1.1,2.4,1.6,3.9,1.6c3.3,0,6.1-2.6,6.7-6.1c0.7,3.5,3.7,6.1,7.4,6.1
		c3.7,0,6.6-2.6,7.4-6c0.6,3.7,3.6,6,7.1,6c1.2,0,2.5-0.4,3.4-1.1v0.8h4.9v-6.5c0-0.3,0-0.5,0-0.8c0-0.3,0-0.5,0-0.8V7.1h-4.9V8.2z"
		/>
	<path class="st1" d="M97.3,17.4c-1.6,0-2.8-1.3-2.8-2.8c0-1.6,1.3-2.8,2.8-2.8c1.6,0,2.8,1.3,2.8,2.8
		C100.2,16.1,98.9,17.4,97.3,17.4 M100.2,1.3v6.6c-1-0.7-2-1-3.4-1c-4.1,0-7.2,3.1-7.2,7.7c0,4.3,3.1,7.6,6.8,7.6
		c1.5,0,2.8-0.5,3.9-1.6v1.4h4.8V1.3H100.2z"/>
</g>
</svg>
