<?xml version="1.0" encoding="utf-8"?>
<!-- Generator: Adobe Illustrator 21.0.0, SVG Export Plug-In . SVG Version: 6.00 Build 0)  -->
<svg version="1.1" id="Capa_1" xmlns="http://www.w3.org/2000/svg" xmlns:xlink="http://www.w3.org/1999/xlink" x="0px" y="0px"
	 viewBox="0 0 150.3 32.3" style="enable-background:new 0 0 150.3 32.3;" xml:space="preserve">
<style type="text/css">
	.st0{fill-rule:evenodd;clip-rule:evenodd;fill:#2B00F7;}
</style>
<g>
	<path class="st0" d="M1.8,1.7h6.4c3.5,0,4.8,0.3,6.4,2.2c1,1,1.3,2.2,1.3,3.5c0,1.6-0.6,2.9-2.5,3.8c3.5,1.3,3.5,4.1,3.5,5.1
		c0,1.6-0.6,3.5-1.9,4.4c-1.9,1.6-2.9,1.9-6.4,1.9H1.8V1.7L1.8,1.7z M7.2,9.6h1.6c0.6,0,1.9,0,1.9-1.6c0-1.6-1.3-1.6-1.9-1.6H7.2
		V9.6L7.2,9.6z M7.2,17.9h2.2c0.6,0,2.2,0,2.2-1.9c0-1.9-1.6-1.9-2.2-1.9H7.2V17.9L7.2,17.9z"/>
	<polygon class="st0" points="17.9,1.7 22.7,1.7 22.7,22.6 17.9,22.6 17.9,1.7 	"/>
	<path class="st0" d="M32.6,6.4c5.7,0,8.3,4.4,8.3,8.3c0,3.8-2.5,8.6-8.3,8.6c-5.7,0-8.6-4.8-8.6-8.6C24,10.9,26.8,6.4,32.6,6.4
		L32.6,6.4z M32.6,18.8c1.9,0,3.5-1.6,3.5-4.1c0-2.2-1.6-3.8-3.5-3.8c-2.2,0-3.8,1.6-3.8,3.8C28.7,17.2,30.3,18.8,32.6,18.8
		L32.6,18.8z"/>
	<path class="st0" d="M50.3,6.4c5.7,0,8.6,4.4,8.6,8.3c0,3.8-2.9,8.6-8.6,8.6c-5.7,0-8.6-4.8-8.6-8.6C41.8,10.9,44.6,6.4,50.3,6.4
		L50.3,6.4z M50.3,18.8c1.9,0,3.8-1.6,3.8-4.1c0-2.2-1.9-3.8-3.8-3.8c-1.9,0-3.8,1.6-3.8,3.8C46.5,17.2,48.4,18.8,50.3,18.8
		L50.3,18.8z"/>
	<path class="st0" d="M59.9,7.1h4.4v1.6l0,0c0.3-0.6,1.6-2.2,4.4-2.2c1.3,0,3.2,0.6,4.4,2.9c1-1.6,2.5-2.9,5.1-2.9
		c1,0,2.9,0.3,4.1,1.6c1.3,1.6,1.6,2.5,1.6,6v8.6h-4.8v-8.3c0-1.3,0-3.5-2.2-3.5c-2.9,0-2.9,2.2-2.9,3.2v8.6h-4.4v-8.6
		c0-0.6,0-3.2-2.5-3.2c-2.5,0-2.5,2.5-2.5,3.5v8.3h-4.8V7.1L59.9,7.1z"/>
	<path class="st0" d="M85.9,1.7h4.8v6.7c1.6-1.9,3.8-1.9,4.4-1.9c3.5,0,7.9,2.2,7.9,8.3c0,5.7-4.1,8.6-7.9,8.6
		c-2.2,0-3.8-1.3-4.4-2.2h-0.3v1.6h-4.4V1.7L85.9,1.7z M94.5,18.8c2.2,0,3.8-1.9,3.8-4.1c0-1.9-1.6-3.8-3.8-3.8
		c-2.5,0-3.8,1.9-3.8,3.8C90.7,16.9,91.9,18.8,94.5,18.8L94.5,18.8z"/>
	<path class="st0" d="M120.5,17.9c-1,1.6-1.9,2.9-3.2,3.8c-1.6,1-2.9,1.6-4.8,1.6c-4.4,0-8.3-3.8-8.3-8.6c0-4.1,3.5-8.3,8.3-8.3
		c4.8,0,8.3,3.8,8.3,8.6c0,0.6,0,1,0,1.3h-11.7c0.3,1.9,1.9,2.9,3.5,2.9c1.6,0,2.2-0.6,2.9-1.3H120.5L120.5,17.9z M116.4,13.1
		c-0.3-1-1.3-2.9-3.8-2.9c-2.2,0-3.2,1.9-3.5,2.9H116.4L116.4,13.1z"/>
	<path class="st0" d="M122.7,7.1h4.4v1.6l0,0c0.6-0.3,2.5-1.9,4.4-1.6v4.4c-1.9,0-4.1,0-4.1,2.5v8.6h-4.8V7.1L122.7,7.1z"/>
	<path class="st0" d="M149.4,20.7c0,2.2-0.3,5.4-1,6.7c-1.3,1.9-4.1,3.8-7.9,3.2c-5.4-0.3-7-2.9-7.3-5.4h5.1
		c0.6,1.6,2.2,1.6,2.5,1.6c2.5,0,3.8-0.3,3.8-5.4V21l0,0c-0.6,0.6-1.9,2.2-4.4,2.2c-4.1,0-7.9-3.5-7.9-8.3c0-5.4,3.8-8.6,7.9-8.6
		c1.9,0,3.5,0.6,4.4,1.9l0,0V7.1h4.8V20.7L149.4,20.7z M140.8,18.8c2.2,0,3.8-1.6,3.8-3.8c0-2.5-1.6-4.1-3.8-4.1
		c-1.9,0-3.8,1.6-3.8,3.8C137,17.2,138.9,18.8,140.8,18.8L140.8,18.8z"/>
</g>
</svg>
