<?xml version="1.0" encoding="utf-8"?>
<!-- Generator: Adobe Illustrator 20.1.0, SVG Export Plug-In . SVG Version: 6.00 Build 0)  -->
<svg version="1.1" id="Capa_1" xmlns="http://www.w3.org/2000/svg" xmlns:xlink="http://www.w3.org/1999/xlink" x="0px" y="0px"
	 viewBox="0 0 131 62" style="enable-background:new 0 0 131 62;" xml:space="preserve">
<style type="text/css">
	.st0{fill:#CA0538;}
</style>
<g>
	<g>
		<path class="st0" d="M102.5,40.6H98c-8.6,0-11.2-1.8-11.2-8.6v-4.2c0-6.7,2.6-8.6,11.2-8.6h4.4c7.5,0,10.5,1.5,11.1,6.7h-3.7
			c-0.6-2.9-2.3-3.5-7.4-3.5h-4.2c-6.1,0-7.5,1.1-7.5,5.5v3.9c0,4.4,1.4,5.5,7.5,5.5h3.8c6.2,0,7.6-1.2,7.6-5.2h-11V29h15v2.9
			C113.7,38.5,111,40.6,102.5,40.6"/>
	</g>
	<g>
		<path class="st0" d="M23,28.2h13c2.1,0,3.5-1.1,3.5-2.9s-1.4-2.9-3.5-2.9H23V28.2z M23,31.3v6.2h13.9c2.1,0,3.5-1.3,3.5-3.1
			s-1.4-3.1-3.5-3.1L23,31.3z M36.2,19.2c5.1,0,7.4,2.6,7.4,6.1c0,1.8-0.9,3.3-2.5,4.2c2.3,0.9,3.5,2.7,3.5,4.9
			c0,3.5-2.2,6.3-7.4,6.3H19V19.2H36.2z"/>
	</g>
	<g>
		<path class="st0" d="M72.9,19.2c5.2,0,9.4,3.3,9.4,8v13.4h-4V27.3c0-3-2.2-4.9-5.4-4.9c-3.2,0-5.4,1.9-5.4,4.9l-0.1,13.3h-3.9
			l-0.1-13.3c0-3-2.2-4.9-5.4-4.9s-5.4,1.9-5.4,4.9v13.3h-4V27.2c0-4.8,4.1-8,9.4-8c3.2,0,5.8,1.3,7.4,3.1
			C67.1,20.5,69.7,19.2,72.9,19.2"/>
	</g>
</g>
</svg>
