<?xml version="1.0" encoding="utf-8"?>
<!-- Generator: Adobe Illustrator 20.1.0, SVG Export Plug-In . SVG Version: 6.00 Build 0)  -->
<svg version="1.1" id="Capa_1" xmlns="http://www.w3.org/2000/svg" xmlns:xlink="http://www.w3.org/1999/xlink" x="0px" y="0px"
	 viewBox="0 0 96 62" style="enable-background:new 0 0 96 62;" xml:space="preserve">
<style type="text/css">
	.st0{fill:#C20336;}
</style>
<g id="layer1" transform="translate(-46.42857,-320.29074)">
	<path id="path2830" class="st0" d="M76.9,337.2c-0.3,0-0.6,0-0.9,0c-3.9,0.3-7.6,2.4-9.6,6c-3.3,5.8-1.3,13.2,4.4,16.5
		c5.7,3.3,13,1.4,16.4-4.2h10.2l2.1,5.2h0.2h4h0.2l2.1-5.2h10.2l2.2,5.2h4.3l-9.7-23.2h-3.9l-7.5,18.3l-7.5-18.3h-3.9L84,352.2
		c-2,4.8-7.5,6.4-11.5,4.1c-3.9-2.3-5.2-7.2-3-11.1c2.3-3.9,7.2-5.2,11.1-3c0.3,0.1,0.5,0.3,0.7,0.5l1.7-3.6
		c-0.1-0.1-0.3-0.2-0.5-0.3C81,337.8,78.9,337.2,76.9,337.2z M92.3,343.2l3.4,8.4h-6.9L92.3,343.2z M111.2,343.2l3.5,8.4h-6.9
		L111.2,343.2z"/>
</g>
</svg>
