<?xml version="1.0" encoding="utf-8"?>
<!-- Generator: Adobe Illustrator 20.1.0, SVG Export Plug-In . SVG Version: 6.00 Build 0)  -->
<svg version="1.1" id="Capa_1" xmlns="http://www.w3.org/2000/svg" xmlns:xlink="http://www.w3.org/1999/xlink" x="0px" y="0px"
	 viewBox="0 0 118 62" style="enable-background:new 0 0 118 62;" xml:space="preserve">
<style type="text/css">
	.st0{fill:#DE356E;}
	.st1{fill:#0190B9;}
	.st2{fill:#0290BA;}
	.st3{fill:#818285;}
	.st4{fill:#0190BA;}
	.st5{fill:#0090B9;}
	.st6{fill:#0391BA;}
	.st7{fill:#0491BA;}
	.st8{fill:#0592BB;}
	.st9{fill:#0D95BD;}
	.st10{fill:#0B94BC;}
	.st11{fill:#0793BB;}
	.st12{fill:#FCFDFE;}
	.st13{fill:#FCFDFD;}
	.st14{fill:#FBFDFD;}
	.st15{fill:#F2F9FB;}
	.st16{fill:#FEC323;}
</style>
<g>
	<path class="st0" d="M21.3,23.5c0.1-0.6,0.2-0.7,0.3-0.9c1.3-4.2,6.3-6.9,10.4-5.6c1.7,0.5,2.8,1.7,3.6,3.2c0.1,0,0.1,0,0.1-0.1
		c1.6-3.2,4.9-4,8.1-3.1c3.5,1,5.8,3.7,6.1,7.1c0.2,2.4-0.7,4.3-2.2,6.1c-1.6,1.9-3.6,3.4-5.6,4.9c-1.4,1.1-2.8,2.2-4,3.5
		c-1,1.1-1.8,2.2-2.4,3.6c-0.6-1.7-1.8-3.1-3.1-4.3c-2-1.9-4.2-3.4-6.3-5.2c-1.3-1.1-2.6-2.2-3.6-3.6c-0.7-0.9-1-2-1.5-3.1
		C21.3,25.2,21.3,24.5,21.3,23.5z"/>
	<path class="st1" d="M74.5,15.5c0.3,0.2,0.3,0.5,0.3,0.8c0,1,0,1.9,0,3.1c0.4-0.6,0.7-1,1-1.4c0.2-0.2,0.3-0.4,0.6-0.4
		c0.3,0,0.8-0.2,1,0.1c0.3,0.3-0.1,0.6-0.3,0.8c-0.9,0.9-1,1.9-0.1,2.9c0.4,0.4,0.6,0.9,0.9,1.4c0.2,0.4,0.1,0.6-0.3,0.6
		c-0.6,0.1-1.1,0-1.4-0.6c-0.3-0.5-0.6-1-0.9-1.6c-0.6,0.4-0.4,1-0.4,1.5c0,0.6-0.3,0.7-0.8,0.7c-0.5,0-0.7-0.2-0.7-0.7
		c0-2.1,0-4.3,0-6.5c0-0.3,0-0.5,0.2-0.7C73.9,15.5,74.2,15.5,74.5,15.5z"/>
	<path class="st2" d="M79.8,15.5c0.2,0.8,0.1,1.6,0.1,2.5c0,1.1,0,2.2,0,3.3c0,0.5,0.1,0.8,0.7,0.7c0.3-0.1,0.6,0.1,0.6,0.5
		c0,0.4,0,0.7-0.4,0.9c-1.1,0.3-2.2-0.3-2.3-1.5c-0.1-2,0-3.9-0.1-5.9c0-0.2,0.1-0.3,0.2-0.5C79,15.5,79.4,15.5,79.8,15.5z"/>
	<path class="st3" d="M54.2,44.1c-0.1-0.2-0.1-0.5-0.1-0.8c0-8.6,0-17.3,0-25.9c0-0.3-0.2-0.7,0.2-0.7c0.4,0,0.2,0.5,0.2,0.8
		c0,8.6,0,17.2,0,25.7c0,0.3,0,0.6-0.2,0.9C54.3,44.1,54.3,44.1,54.2,44.1z"/>
	<path class="st1" d="M61.8,20.3c0-1.2,0-2.4,0-3.7c0-0.6,0.2-0.8,0.7-0.8c0.5,0,0.8,0.2,0.8,0.8c0,1.9,0,3.9,0,5.8
		c0,0.3,0.1,0.7-0.4,0.8c-0.5,0.1-0.9,0-1.2-0.4c-0.7-1-1.3-2.1-2-3.1c-0.2-0.4-0.5-0.7-0.8-1c0,1.3,0,2.6,0,3.8
		c0,0.5-0.2,0.7-0.6,0.7c-0.5,0-0.8-0.1-0.8-0.7c0-1.9,0-3.9,0-5.8c0-0.3-0.2-0.7,0.3-0.8c0.5-0.1,0.9-0.1,1.3,0.4
		c0.6,0.9,1.2,1.9,1.8,2.8c0.3,0.4,0.5,0.8,0.8,1.2C61.7,20.4,61.8,20.4,61.8,20.3z"/>
	<path class="st4" d="M62.9,37.7c0,0.9,0,1.9,0,2.8c0,0.5-0.1,0.9-0.7,0.9c-0.6,0-0.8-0.3-0.8-0.8c0-0.7,0-1.3,0-2
		c0-0.3-0.1-0.5-0.4-0.4c0,0,0,0-0.1,0c-0.7,0.1-1.6-0.3-2,0.2c-0.3,0.4-0.1,1.3-0.1,2c0,1-0.2,1.2-0.9,1.1c-0.4,0-0.6-0.2-0.6-0.6
		c0-2.1,0-4.1,0-6.2c0-0.5,0.3-0.6,0.7-0.6c0.5,0,0.8,0.1,0.8,0.7c0,0.7,0,1.3,0,2c0,0.3,0.1,0.5,0.4,0.5c0,0,0,0,0.1,0
		c0.7,0,1.5,0.2,1.9-0.1c0.4-0.3,0.1-1.2,0.1-1.9c0-0.5-0.2-1.1,0.6-1.1c0.6,0,0.9,0.1,0.9,0.8C62.9,35.7,62.9,36.7,62.9,37.7z"/>
	<path class="st4" d="M81.3,28.4c0,1,0,2.1,0,3.1c0,0.8-0.6,1.2-1.3,0.7c-0.2-0.1-0.3-0.2-0.6-0.1c-1.4,0.7-2.8,0-3.1-1.5
		c-0.2-0.8-0.2-1.7,0.2-2.5c0.5-1.2,1.5-1.7,2.8-1.5c0.5,0.1,0.6,0,0.5-0.5c0-0.3,0-0.6,0-0.9c0-0.6,0.1-0.8,0.7-0.8
		c0.6,0,0.8,0.3,0.8,0.8C81.3,26.3,81.3,27.3,81.3,28.4z"/>
	<path class="st5" d="M74.1,39.5c0-1.1,0-2.1,0-3.2c0-0.3,0-0.6,0.3-0.7c0.4-0.1,0.8-0.2,1,0.2c0.2,0.3,0.3,0.2,0.5,0.1
		c1.2-0.7,2.6-0.1,3.1,1.2c0.2,0.8,0.2,1.5,0,2.3c-0.4,1.3-1.4,2-2.9,1.9c-0.5,0-0.6,0.1-0.6,0.5c0,0.3,0,0.5,0,0.8
		c0.1,0.6-0.2,0.8-0.7,0.8c-0.6,0-0.8-0.3-0.7-0.9C74.1,41.6,74.1,40.6,74.1,39.5z"/>
	<path class="st1" d="M65.4,27.1c0.7-0.5,1.4-0.6,2.1-0.4c0.8,0.2,1.2,0.8,1.4,1.5c0.2,1.2,0.1,2.4,0.1,3.6c0,0.5-0.4,0.5-0.8,0.5
		c-0.4,0-0.7-0.1-0.7-0.6c0-0.8,0-1.7,0-2.5c0-0.9-0.3-1.3-0.9-1.4c-0.7,0-1.2,0.6-1.3,1.4c0,0.8,0,1.6,0,2.3c0,0.5-0.2,0.7-0.7,0.7
		c-0.5,0-0.7-0.1-0.7-0.7c0-2.2,0-4.4,0-6.6c0-0.5,0.2-0.6,0.7-0.6c0.5,0,0.8,0.1,0.8,0.7C65.4,25.7,65.4,26.3,65.4,27.1z"/>
	<path class="st1" d="M91.7,38.8c0,0.6,0,1.1,0,1.7c0,0.3,0.1,0.7-0.3,0.8c-0.4,0.1-0.8,0.2-1.1-0.1C90.1,41,90,41,89.8,41.1
		c-1.5,0.8-2.9,0.1-3.2-1.6c-0.1-0.6-0.1-1.1,0-1.7c0.4-2,2.6-2.9,4.4-1.9c0.4,0.2,0.7,0.5,0.6,1.1C91.7,37.6,91.7,38.2,91.7,38.8z"
		/>
	<path class="st1" d="M86.8,20.8c0,0.6,0,1.2,0,1.8c0,0.3,0.1,0.6-0.3,0.8c-0.4,0.1-0.8,0.2-1.1-0.1C85.2,23,85.2,23,85,23.1
		c-1.5,0.8-2.9,0.2-3.2-1.5c-0.1-0.6-0.1-1.2,0-1.8c0.5-1.9,2.7-2.8,4.4-1.8c0.4,0.3,0.6,0.6,0.6,1.1C86.7,19.6,86.8,20.2,86.8,20.8
		z"/>
	<path class="st1" d="M57,28.7c0.1-0.4,0.1-0.9,0.2-1.3c0.4-2.1,2.8-3.1,4.6-2c0.2,0.1,0.5,0.3,0.6,0.6c0.2,0.2,0.5,0.5,0.1,0.8
		c-0.3,0.3-0.7,0.5-1.1,0.1c-0.5-0.6-1.2-0.7-1.9-0.4c-0.7,0.3-0.9,1-1,1.7c-0.1,0.7-0.1,1.3,0.1,2c0.4,1.2,1.7,1.5,2.6,0.6
		c0.4-0.4,0.8-0.3,1.2,0c0.4,0.4,0,0.7-0.2,0.9c-1.4,1.5-4.3,0.9-5-1C57.1,30,57.1,29.3,57,28.7z"/>
	<path class="st4" d="M93.6,27.2c1.2-1.1,2.9-0.7,3.4,0.8c0.4,1.3,0.2,2.7,0.2,4c0,0.5-0.5,0.4-0.8,0.4c-0.4,0-0.6-0.1-0.6-0.6
		c0-0.8,0-1.7,0-2.5c0-0.9-0.3-1.3-0.9-1.4c-0.7,0-1.2,0.6-1.3,1.4c0,0.8,0,1.5,0,2.3c0,0.6-0.3,0.7-0.8,0.7c-0.5,0-0.7-0.2-0.7-0.7
		c0-1.4,0-2.8,0-4.2c0-0.3-0.1-0.8,0.4-0.8C92.9,26.6,93.4,26.5,93.6,27.2z"/>
	<path class="st1" d="M63.7,38.4c0-2,1-2.9,3-2.8c1.4,0.1,2.2,1.1,2.3,2.7c0,1.8-0.7,2.8-2.1,3C64.8,41.5,63.7,40.5,63.7,38.4z"/>
	<path class="st1" d="M88.9,32.3c-1.1,0-2-0.4-2.4-1.4c-0.5-1.2-0.2-2.8,0.5-3.6c0.7-0.7,2-0.9,3-0.5c0.6,0.2,1,0.7,1,1.3
		c0,0.6-0.2,1.2-0.8,1.5c-0.7,0.4-1.4,0.5-2.1,0.5c-0.4,0-0.4,0.1-0.3,0.4c0.3,0.7,1.3,0.8,1.9,0.3c0.2-0.2,0.4-0.4,0.7-0.2
		c0.3,0.1,0.7,0.2,0.7,0.5c0,0.3-0.2,0.5-0.4,0.7C90.3,32.2,89.6,32.3,88.9,32.3z"/>
	<path class="st1" d="M92.7,20.5c0,0.7,0,1.4,0,2.1c0,0.3,0.1,0.6-0.2,0.8c-0.4,0.2-0.8,0.2-1.1-0.1c-0.2-0.2-0.3-0.2-0.5,0
		c-1.2,0.7-2.6,0-2.9-1.3c-0.3-1.3-0.1-2.5-0.1-3.8c0-0.5,0.5-0.4,0.8-0.4c0.4,0,0.6,0.1,0.6,0.6c0,0.7,0,1.5,0,2.2
		c0,0.2,0,0.4,0,0.6c0.1,0.5,0,1.2,0.8,1.2c0.5,0,1.1-0.6,1.1-1.3c0-0.8,0-1.6,0-2.3c0-0.5,0-0.9,0.7-0.9c0.8,0,0.8,0.4,0.7,1
		C92.7,19.2,92.7,19.8,92.7,20.5z"/>
	<path class="st4" d="M70,23.3c-1.7,0-2.6-0.9-2.7-2.6c-0.1-2.3,1.6-3.7,3.8-2.9c0.3,0.1,0.6,0.2,0.8,0.5c0.2,0.2,0.6,0.5,0.3,0.8
		c-0.3,0.3-0.8,0.7-1.2,0.2c-0.4-0.4-0.9-0.5-1.4-0.3c-0.6,0.2-0.7,0.8-0.7,1.3c-0.1,1.3,0.5,2,1.5,1.8c0.3-0.1,0.5-0.2,0.7-0.4
		c0.2-0.2,0.3-0.3,0.6-0.2c0.3,0.1,0.7,0.1,0.8,0.5c0.1,0.4-0.2,0.6-0.5,0.8C71.4,23.1,70.8,23.3,70,23.3z"/>
	<path class="st1" d="M95.6,17.6c0.5,0,0.9,0.1,1.3,0.4c0.2,0.2,0.5,0.4,0.2,0.8c-0.2,0.3-0.5,0.5-0.9,0.3c-0.1,0-0.2-0.1-0.3-0.2
		c-0.2-0.1-0.4-0.2-0.5,0c-0.1,0.2,0,0.4,0.2,0.5c0.3,0.2,0.6,0.4,0.8,0.5c0.8,0.4,1.1,1,1,1.8c-0.1,0.8-0.5,1.3-1.2,1.5
		c-0.9,0.2-1.7,0.1-2.4-0.5c-0.3-0.3-0.2-0.5,0.1-0.7c0.3-0.2,0.7-0.3,1-0.2c0.3,0.2,0.7,0.5,0.9,0c0.3-0.5-0.2-0.7-0.5-0.9
		c-0.2-0.1-0.5-0.2-0.7-0.4c-0.8-0.5-1.1-1.1-0.8-1.9C94,18,94.7,17.6,95.6,17.6z"/>
	<path class="st4" d="M71.3,35.6c0.5,0,0.9,0.1,1.3,0.4c0.2,0.2,0.5,0.4,0.3,0.8c-0.2,0.3-0.5,0.5-0.9,0.4c-0.1,0-0.2-0.1-0.3-0.2
		c-0.2-0.1-0.4-0.2-0.5,0c-0.2,0.2,0,0.4,0.2,0.5c0.3,0.2,0.6,0.4,0.9,0.5c0.8,0.4,1.1,1.1,0.9,2c-0.1,0.8-0.6,1.2-1.6,1.4
		c-0.6,0.1-1.1,0-1.6-0.3c-0.3-0.2-0.7-0.4-0.4-0.8c0.2-0.4,0.7-0.6,1.2-0.3c0.1,0,0.2,0.1,0.2,0.2c0.3,0.2,0.5,0.2,0.7-0.1
		c0.2-0.3,0.1-0.5-0.1-0.7c-0.3-0.3-0.7-0.5-1.1-0.7c-0.8-0.5-1.1-1.1-0.9-1.8C69.8,36,70.4,35.6,71.3,35.6z"/>
	<path class="st4" d="M101.7,26.6c0.4,0,0.8,0.1,1.1,0.3c0.3,0.2,0.6,0.4,0.4,0.9c-0.2,0.3-0.6,0.5-1,0.3c-0.1,0-0.1-0.1-0.2-0.2
		c-0.2-0.1-0.3-0.1-0.4,0.1c-0.1,0.2,0,0.3,0.1,0.4c0.3,0.2,0.6,0.4,0.9,0.6c0.8,0.5,1.2,1.1,1,1.9c-0.1,0.7-0.5,1.2-1.2,1.4
		c-0.9,0.2-1.7,0.1-2.4-0.5c-0.3-0.3-0.2-0.5,0.1-0.7c0.3-0.2,0.6-0.4,1-0.2c0.3,0.2,0.7,0.5,0.9,0c0.3-0.5-0.2-0.7-0.5-0.9
		c-0.2-0.1-0.4-0.2-0.6-0.3c-0.9-0.5-1.2-1.1-1-1.9C100.1,27,100.6,26.6,101.7,26.6z"/>
	<path class="st6" d="M73,27.7c0-0.8,0-1.7,0-2.5c0-0.5,0.2-0.8,0.7-0.8c0.5,0,0.8,0.2,0.8,0.7c0,1.7,0,3.4,0,5.2
		c0,0.5,0.1,0.7,0.7,0.6c0.4-0.1,0.6,0.1,0.6,0.5c0,0.4,0,0.8-0.5,0.9c-1.2,0.3-2.2-0.4-2.2-1.7C73,29.7,73,28.7,73,27.7
		C73,27.7,73,27.7,73,27.7z"/>
	<path class="st1" d="M83.3,38.5c0-0.4,0-0.9,0-1.3c0-0.3,0-0.6-0.4-0.6c-0.4,0-0.4-0.2-0.4-0.5c0-0.3,0.1-0.5,0.4-0.5
		c0.5,0,0.4-0.3,0.4-0.5c-0.1-0.6,0.3-0.6,0.8-0.6c0.5,0,0.7,0.1,0.7,0.6c0,0.4,0,0.6,0.5,0.5c0.4-0.1,0.6,0.1,0.6,0.5
		c0,0.4-0.2,0.5-0.5,0.5c-0.4,0-0.5,0.2-0.5,0.5c0,0.7,0,1.5,0,2.2c0,0.4,0.1,0.7,0.6,0.6c0.4-0.1,0.7,0.1,0.7,0.6
		c0,0.5-0.2,0.7-0.7,0.8c-1.3,0.1-2-0.5-2-1.8C83.3,39.2,83.3,38.8,83.3,38.5z"/>
	<path class="st2" d="M92.7,36.8c0-0.9,0-1.8,0-2.7c0-0.5,0.2-0.7,0.7-0.7c0.5,0,0.7,0.1,0.7,0.7c0,1.6,0,3.3,0,4.9
		c0,0.6,0,1.1,0.9,1c0.3-0.1,0.5,0.2,0.5,0.5c0,0.4,0,0.8-0.5,0.8c-1.1,0.1-2.2-0.1-2.3-1.7C92.7,38.7,92.7,37.8,92.7,36.8z"/>
	<path class="st2" d="M84.2,27.2c0.3-0.2,0.4-0.4,0.6-0.5c0.4-0.1,0.9-0.4,1,0.1c0.1,0.4-0.1,0.9-0.6,1.1c-0.1,0-0.1,0-0.2,0
		c-0.7,0.1-0.9,0.5-0.9,1.1c0,0.8,0,1.6,0,2.3c0,0.5,0,0.9-0.7,0.9c-0.7,0-0.8-0.3-0.8-0.9c0-1.3,0-2.7,0-4c0-0.3-0.1-0.8,0.4-0.8
		C83.5,26.6,84.1,26.5,84.2,27.2z"/>
	<path class="st7" d="M81.8,38.5c0,0.7,0,1.5,0,2.2c0,0.5-0.3,0.7-0.7,0.7c-0.5,0-0.8-0.1-0.8-0.7c0-1.5,0-2.9,0-4.4
		c0-0.6,0.3-0.7,0.8-0.7c0.5,0,0.7,0.2,0.7,0.7C81.7,37,81.8,37.8,81.8,38.5z"/>
	<path class="st7" d="M70.3,29.5c0-0.7,0-1.5,0-2.2c0-0.5,0.2-0.7,0.7-0.7c0.5,0,0.8,0.1,0.8,0.6c0,1.5,0,3,0,4.5
		c0,0.5-0.3,0.7-0.8,0.7c-0.5,0-0.8-0.1-0.7-0.7C70.3,31,70.3,30.2,70.3,29.5z"/>
	<path class="st2" d="M64.7,20.4c0-0.7,0-1.5,0-2.2c0-0.5,0.3-0.6,0.7-0.6c0.5,0,0.8,0.1,0.8,0.7c0,1.5,0,3,0,4.5
		c0,0.5-0.3,0.7-0.7,0.7c-0.4,0-0.8-0.1-0.7-0.7C64.7,21.9,64.7,21.2,64.7,20.4z"/>
	<path class="st8" d="M98.9,24.9c0.6,0,0.9,0.3,0.9,0.8c0,0.6-0.3,1.1-0.7,1.6c-0.2,0.2-0.4,0.3-0.7,0.1c-0.3-0.2-0.1-0.4,0-0.6
		c0.1-0.2,0.3-0.4-0.1-0.7c-0.3-0.2-0.2-0.7-0.1-1C98.3,24.9,98.7,25,98.9,24.9z"/>
	<path class="st9" d="M81,33.6c0.5,0,0.8,0.1,0.8,0.6c0,0.6-0.3,0.7-0.8,0.7c-0.5,0-0.8-0.2-0.8-0.7C80.2,33.8,80.5,33.6,81,33.6z"
		/>
	<path class="st10" d="M65,15.6c0.2,0,0.5,0,0.7,0c0.6,0.3,0.5,0.8,0.3,1.2c-0.1,0.3-1.1,0.3-1.2,0C64.6,16.4,64.5,15.9,65,15.6z"/>
	<path class="st11" d="M71,26c-0.5,0-0.8-0.1-0.8-0.6c0-0.5,0.2-0.7,0.7-0.7c0.5,0,0.8,0.1,0.8,0.7C71.8,25.9,71.5,26,71,26z"/>
	<path class="st12" d="M79.8,29c0,0.5,0,1-0.2,1.4c-0.3,0.5-0.7,0.7-1.2,0.6c-0.5-0.1-0.7-0.5-0.7-1c-0.1-0.7,0-1.3,0.5-1.8
		c0.4-0.4,0.9-0.5,1.4-0.3C80.1,28.2,79.7,28.7,79.8,29z"/>
	<path class="st13" d="M75.5,38.7c0-0.2,0-0.6,0.2-1c0.3-0.5,0.7-0.8,1.2-0.7c0.6,0.1,0.7,0.5,0.8,1c0.1,0.8-0.2,1.7-0.8,2
		C76,40.4,75.5,40,75.5,38.7z"/>
	<path class="st14" d="M90.2,38.1c0,0.5,0,1-0.4,1.5c-0.3,0.4-0.7,0.5-1.1,0.4c-0.5-0.1-0.6-0.4-0.7-0.8c-0.2-0.9,0.1-1.9,0.8-2.2
		C89.7,36.6,90.2,37,90.2,38.1z"/>
	<path class="st13" d="M85.3,20.1c0,0.4,0,0.9-0.3,1.4c-0.3,0.4-0.6,0.6-1.1,0.5c-0.5-0.1-0.7-0.4-0.8-0.8c-0.2-0.9,0.1-1.9,0.8-2.2
		C84.8,18.6,85.3,18.9,85.3,20.1z"/>
	<path class="st13" d="M67.5,38.5c0,0.3-0.1,0.5-0.2,0.8c-0.2,0.5-0.5,0.8-1.1,0.8c-0.5,0-0.8-0.3-1-0.8c-0.2-0.5-0.2-1-0.1-1.5
		c0.1-0.6,0.4-1,1-1c0.7,0,1,0.4,1.1,1C67.5,38,67.5,38.3,67.5,38.5z"/>
	<path class="st15" d="M88.3,28.9c-0.1,0-0.4,0.1-0.5-0.1c-0.1-0.2,0.1-0.4,0.3-0.6c0-0.1,0.1-0.1,0.2-0.1c0.4-0.2,0.8-0.3,1.3-0.1
		c0.2,0.1,0.3,0.2,0.2,0.5c-0.2,0.5-0.6,0.5-1.1,0.6C88.5,28.9,88.4,28.9,88.3,28.9z"/>
	<g>
		<g>
			<path class="st16" d="M28.6,32.9c0,0-0.2-1.8-0.3-2.8c-0.2-1-1-4-0.6-5.4c0.4-1.4,0.8-2.1,1.9-2.6c1-0.5,2.4-0.6,4.1-0.4
				c1.7,0.3,1.7,0.5,2.4,0.4c0.6-0.2,1.4-0.8,1.9-0.8s1.8,0.3,2.5,0.4c0.7,0.1,1.5,0,1.5,0s0.2-0.7,0.7-0.7c0.5,0,0.5,0.2,0.8,0.5
				c0.3,0.4,0.5,0.5,0.9,0.4c0.4,0,0.8-0.1,1.1,0.2c0.4,0.3,0.3,0.6,0.9,0.7c0.5,0.1,1.1,0.2,1.3,0.2s0.3-0.1,0.2,0.3
				c-0.1,0.3-0.4,0.8-0.4,0.8H47c0,0-0.2,1-0.4,1s-0.9,0.1-1.4,0.3c-0.5,0.2-0.9,0.6-1.5,0.8c-0.6,0.2-1.9,0.6-2.1,0.8
				c-0.2,0.1-0.5,0.7-0.5,1.1s0,2.3,0,2.3s1.7,0.4,1.6,2.6l-5.5,0l-1-3.5l-2.2,0.2l-0.5,1.3c0,0,0.9,0.4,1,2.1
				C34.3,32.9,28.5,32.8,28.6,32.9z"/>
			<path d="M28.6,33.1c0,0-0.1,0-0.1-0.1c0,0,0-0.1-0.1-0.1c0-0.1-0.2-1.8-0.3-2.8c0-0.2-0.1-0.6-0.2-0.9c-0.3-1.4-0.7-3.4-0.4-4.5
				c0.4-1.4,0.9-2.2,2-2.7c1.1-0.6,2.5-0.7,4.2-0.4c0.7,0.1,1.1,0.2,1.4,0.3c0.4,0.1,0.5,0.1,0.9,0c0.3-0.1,0.6-0.2,0.8-0.4
				c0.4-0.2,0.8-0.4,1.1-0.4c0.3,0,0.9,0.1,1.5,0.2c0.4,0.1,0.8,0.2,1.1,0.2c0.6,0.1,1.1,0.1,1.4,0c0.1-0.2,0.4-0.7,0.8-0.7
				c0.5,0,0.6,0.2,0.8,0.5c0,0,0,0.1,0.1,0.1c0.2,0.3,0.4,0.4,0.7,0.3l0.1,0c0.4,0,0.8-0.1,1.2,0.2c0.1,0.1,0.2,0.2,0.3,0.4
				c0.1,0.2,0.2,0.3,0.5,0.3c0.2,0,0.4,0.1,0.6,0.1c0.3,0,0.6,0.1,0.7,0.1c0.2,0,0.3,0.1,0.3,0.2c0.1,0.1,0.1,0.3,0,0.5
				c-0.1,0.3-0.4,1.2-0.4,1.2c0,0.1-0.1,0.3-0.2,0.3h-0.2c-0.1,0-0.3,0.5-0.6,0.5c-0.7,0-1.1,0-1.4,0.1c-0.2,0.1-0.4,0.2-0.7,0.3
				c-0.3,0.2-0.5,0.3-0.9,0.4c-0.2,0.1-0.6,0.2-0.9,0.3c-0.5,0.2-1,0.3-1.2,0.4c-0.2,0.1-0.5,0.6-0.5,1c0,0.4,0,1.7,0,2.1
				c0.4,0.2,1.7,0.8,1.6,2.7c0,0.1-0.1,0.2-0.2,0.2c0,0,0,0,0,0l-5.5,0c-0.1,0-0.1,0-0.2-0.1l-1-3.4l-2,0.1l-0.4,1.1
				c0.3,0.2,0.9,0.8,0.9,2.2c0,0,0,0.1,0,0.1c0,0-0.1,0.1-0.1,0.1c0,0,0,0,0,0C32.2,33,29,33,28.6,33.1
				C28.6,33.1,28.6,33.1,28.6,33.1z M31.9,21.7c-0.9,0-1.7,0.2-2.3,0.5c-1,0.5-1.4,1.1-1.8,2.5c-0.3,1,0.2,3,0.4,4.4
				c0.1,0.4,0.1,0.7,0.2,1c0.1,0.8,0.3,2.2,0.3,2.7c0.2,0,0.4,0,0.7,0c0.5,0,1.1,0,2,0c1.1,0,2.2,0,2.7,0c-0.1-1.4-0.8-1.8-0.9-1.8
				c-0.1,0-0.1-0.1-0.1-0.2l0.5-1.3c0-0.1,0.1-0.1,0.1-0.1l2.2-0.2c0.1,0,0.2,0,0.2,0.1l1,3.4l5.2,0c-0.1-1.8-1.5-2.2-1.5-2.2
				c-0.1,0-0.1-0.1-0.1-0.2c0,0,0-1.8,0-2.3c0-0.5,0.4-1.1,0.6-1.3c0.1-0.1,0.6-0.2,1.2-0.5c0.3-0.1,0.7-0.2,0.9-0.3
				c0.3-0.1,0.6-0.3,0.8-0.4c0.2-0.1,0.4-0.3,0.7-0.4c0.4-0.2,0.9-0.2,1.5-0.2c0.1-0.1,0.2-0.5,0.3-0.7c0-0.1,0.1-0.2,0.2-0.2h0.3
				c0.1,0,0.2-0.5,0.3-0.8c0.1-0.1,0-0.1,0-0.2c0,0,0,0,0,0c-0.1,0-0.4,0-0.7-0.1c-0.2,0-0.4-0.1-0.6-0.1c-0.4-0.1-0.6-0.3-0.7-0.5
				c-0.1-0.1-0.1-0.2-0.2-0.3C45,22,44.7,22,44.4,22.1l-0.1,0c-0.5,0-0.8-0.1-1.1-0.5c0,0-0.1-0.1-0.1-0.1c-0.2-0.3-0.2-0.3-0.6-0.3
				c-0.3,0-0.5,0.4-0.5,0.6c0,0.1-0.1,0.1-0.1,0.1c0,0-0.8,0.1-1.5,0c-0.3,0-0.7-0.1-1.1-0.2c-0.6-0.1-1.1-0.2-1.4-0.2
				c-0.2,0-0.6,0.2-0.9,0.4c-0.3,0.2-0.6,0.4-0.9,0.4c-0.4,0.1-0.6,0.1-1.1,0c-0.3-0.1-0.7-0.2-1.4-0.3C33,21.8,32.5,21.7,31.9,21.7
				z"/>
		</g>
		<path d="M32.7,33c-0.1,0-0.2-0.1-0.2-0.2c-0.2-1.7-1.1-2-1.1-2c-0.1,0-0.1-0.1-0.1-0.1c0-0.1,0-0.1,0.1-0.2c1-0.9,1.5-3.3,1.5-3.3
			c0-0.1,0.1-0.2,0.2-0.1c0.1,0,0.2,0.1,0.1,0.2c0,0.1-0.5,2.2-1.4,3.3c0.3,0.2,1,0.8,1.1,2.2C32.9,32.9,32.8,33,32.7,33
			C32.7,33,32.7,33,32.7,33z"/>
		<path d="M36,29.5c-0.1,0-0.2-0.1-0.2-0.2c0-1.1,0.6-1.9,0.6-1.9c0.1-0.1,0.2-0.1,0.3,0c0.1,0.1,0.1,0.2,0,0.3c0,0-0.5,0.7-0.5,1.7
			C36.2,29.4,36.1,29.5,36,29.5z"/>
		<path d="M40.7,33C40.7,33,40.7,33,40.7,33c-0.1,0-0.2-0.1-0.2-0.2c0,0,0-0.3,0-0.9c0-0.4-0.3-0.6-0.9-0.9c-0.1,0-0.1-0.1-0.2-0.1
			c-0.8-0.4-0.4-2-0.4-2.2c0-0.1,0.1-0.2,0.2-0.1c0.1,0,0.2,0.1,0.1,0.2c-0.1,0.4-0.3,1.5,0.2,1.8c0.1,0,0.1,0.1,0.2,0.1
			c0.6,0.3,1.1,0.5,1.1,1.2c0,0.6,0,0.9,0,0.9C40.9,32.9,40.8,33,40.7,33z"/>
		<circle cx="44.8" cy="23" r="0.3"/>
	</g>
</g>
</svg>
