<?xml version="1.0" encoding="utf-8"?>
<!-- Generator: Adobe Illustrator 21.0.0, SVG Export Plug-In . SVG Version: 6.00 Build 0)  -->
<svg version="1.1" id="Capa_1" xmlns="http://www.w3.org/2000/svg" xmlns:xlink="http://www.w3.org/1999/xlink" x="0px" y="0px"
	 viewBox="0 0 98.2 27" style="enable-background:new 0 0 98.2 27;" xml:space="preserve">
<style type="text/css">
	.st0{fill:#333333;}
</style>
<g>
	<path class="st0" d="M57.3,24.3c-0.4,0-1,0-1.3-0.1c-0.1-1.5-0.2-8-0.1-13.7c0.7-0.2,1.1-0.3,1.6-0.3c2.4,0,3.7,2.9,3.7,6.4
		C61.2,20.9,59.6,24.3,57.3,24.3 M59.8,8.4c-1.5,0-2.7,0.3-3.9,1c0-3.5,0-6.7,0.1-7.8l-7.4,1.3v0.7l0.8,0.1c1,0.2,1.3,0.8,1.5,2.1
		c0.2,2.6,0.1,16.7,0,19c2,0.4,4.1,0.8,6.1,0.8c5.8,0,9.3-3.6,9.3-9.3C66.4,11.7,63.5,8.4,59.8,8.4z"/>
	<path class="st0" d="M21,2.1H1.7v1l1.1,0.1c1.4,0.2,2,1.1,2.2,3.2c0.3,3.9,0.2,11.1,0,14.5C4.8,23,4.2,24,2.8,24.1l-1.1,0.2v0.9H14
		v-0.9L12.7,24c-1.4-0.1-2-1.1-2.2-3.2c-0.1-1.4-0.2-3.7-0.2-6.6l2.6,0.1c1.6,0,2.4,1.3,2.7,3.2h1V9.7h-1c-0.3,1.9-1.1,3.2-2.7,3.2
		L10.3,13c0-3.7,0.1-7.2,0.2-9.3h3.8c3,0,4.5,1.9,5.6,5.2L21,8.6V2.1"/>
	<path class="st0" d="M26.9,9.3c-2.4,0-3.1,3.3-3.1,7.6c0,4.2,1.1,7.6,3.3,7.6c2.5,0,3.2-3.3,3.2-7.6C30.3,12.7,29.2,9.3,26.9,9.3
		 M27.2,8.2c5.5,0,8.2,3.7,8.2,8.7c0,4.7-3.1,8.7-8.6,8.7s-8.2-3.7-8.2-8.7C18.7,12.2,21.7,8.2,27.2,8.2z"/>
	<path class="st0" d="M72.9,14.9l5.2-0.1c0-2.2-0.3-5.5-2.2-5.5C74,9.3,73,12.4,72.9,14.9 M67.8,17c0-4.5,2.9-8.8,8.4-8.8
		c4.6,0,6.8,3.4,6.8,7.9H72.9c-0.1,4.1,1.9,7,5.8,7c1.8,0,2.6-0.4,3.7-1.2l0.4,0.5c-1.1,1.5-3.5,3.1-6.6,3.1
		C71.3,25.5,67.8,22,67.8,17z"/>
	<path class="st0" d="M96.1,9.1c-1.3-0.5-3.1-0.9-5-0.9c-4.1,0-6.6,2.4-6.6,5.3s1.9,4.1,4.5,4.9c2.7,1,3.5,1.8,3.5,3.1
		c0,1.3-1,2.5-2.7,2.5c-2.1,0-3.6-1.2-4.8-4.5l-0.8,0.2l0.1,4.8c1.3,0.5,3.7,1,5.8,1c4.3,0,7-2.2,7-5.6c0-2.3-1.2-3.6-4.1-4.7
		c-3.1-1.2-4.2-2-4.2-3.4s1-2.4,2.3-2.4c2,0,3.3,1.2,4.3,4.2l0.8-0.2L96.1,9.1"/>
	<path class="st0" d="M49.7,8.6c-1.9-1.1-5.2-0.5-6.9,3.4l0.1-3.8l-7.4,1.4v0.7l0.8,0.1c1,0.1,1.4,0.7,1.5,2.1
		c0.2,2.6,0.1,7.2,0,9.5c-0.1,1.3-0.5,2-1.5,2.1l-0.8,0.1v0.9h10.2v-0.9l-1.3-0.1C43.3,24,43,23.3,42.9,22c-0.2-2.1-0.2-6.3-0.1-8.9
		c0.5-0.8,3-1.4,5.2,0L49.7,8.6"/>
</g>
</svg>
