<?xml version="1.0" encoding="utf-8"?>
<!-- Generator: Adobe Illustrator 20.1.0, SVG Export Plug-In . SVG Version: 6.00 Build 0)  -->
<svg version="1.1" id="Capa_1" xmlns="http://www.w3.org/2000/svg" xmlns:xlink="http://www.w3.org/1999/xlink" x="0px" y="0px"
	 viewBox="0 0 123.5 62" style="enable-background:new 0 0 123.5 62;" xml:space="preserve">
<style type="text/css">
	.st0{fill:#4885ED;}
	.st1{fill:#DB3236;}
	.st2{fill:#F4C20D;}
	.st3{fill:#3CBA54;}
</style>
<g>
	<path id="path2998" class="st0" d="M34.6,27.1H24.1v3.1h7.5c-0.4,4.4-4,6.3-7.5,6.3c-4.4,0-8.3-3.5-8.3-8.3c0-4.7,3.7-8.4,8.3-8.4
		c3.5,0,5.6,2.3,5.6,2.3l2.2-2.3c0,0-2.8-3.1-7.9-3.1c-6.5,0-11.6,5.5-11.6,11.5c0,5.8,4.8,11.5,11.8,11.5c6.2,0,10.7-4.2,10.7-10.5
		C34.8,27.9,34.6,27.1,34.6,27.1L34.6,27.1z"/>
	<path id="path3000" class="st1" d="M43.2,24.8c-4.3,0-7.4,3.4-7.4,7.3c0,4,3,7.5,7.5,7.5c4,0,7.4-3.1,7.4-7.4
		C50.6,27.4,46.8,24.8,43.2,24.8L43.2,24.8z M43.2,27.7c2.1,0,4.1,1.7,4.1,4.5c0,2.7-2,4.5-4.2,4.5c-2.4,0-4.2-1.9-4.2-4.5
		C39,29.7,40.9,27.7,43.2,27.7L43.2,27.7z"/>
	<path id="path3005" class="st2" d="M59.4,24.8c-4.3,0-7.4,3.4-7.4,7.3c0,4,3,7.5,7.5,7.5c4,0,7.4-3.1,7.4-7.4
		C66.8,27.4,62.9,24.8,59.4,24.8L59.4,24.8z M59.4,27.7c2.1,0,4.1,1.7,4.1,4.5c0,2.7-2,4.5-4.2,4.5c-2.4,0-4.2-1.9-4.2-4.5
		C55.2,29.7,57,27.7,59.4,27.7L59.4,27.7z"/>
	<path id="path3007" class="st0" d="M75.2,24.9c-4,0-7.1,3.5-7.1,7.4c0,4.4,3.6,7.4,7,7.4c2.1,0,3.2-0.8,4.1-1.8v1.5
		c0,2.6-1.5,4.1-3.9,4.1c-2.3,0-3.4-1.7-3.8-2.6l-2.8,1.2c1,2.1,3,4.4,6.6,4.4c4,0,7-2.5,7-7.7V25.3h-3.1v1.3
		C78.2,25.5,76.9,24.9,75.2,24.9L75.2,24.9z M75.5,27.7c1.9,0,3.9,1.7,3.9,4.5c0,2.9-2,4.5-4,4.5c-2.1,0-4.1-1.7-4.1-4.5
		C71.4,29.4,73.4,27.7,75.5,27.7L75.5,27.7z"/>
	<path id="path3011" class="st1" d="M96.1,24.8c-3.7,0-6.9,3-6.9,7.4c0,4.7,3.5,7.4,7.3,7.4c3.1,0,5-1.7,6.2-3.2l-2.6-1.7
		c-0.7,1-1.8,2-3.6,2c-2.1,0-3-1.1-3.6-2.2l9.9-4.1l-0.5-1.2C101.3,26.8,99,24.8,96.1,24.8L96.1,24.8z M96.2,27.7
		c1.4,0,2.3,0.7,2.7,1.6l-6.6,2.8C92,29.9,94.1,27.7,96.2,27.7L96.2,27.7z"/>
	<path id="path3015" class="st3" d="M84.5,39.2h3.3V17.4h-3.3V39.2z"/>
</g>
</svg>
