<?xml version="1.0" encoding="utf-8"?>
<!-- Generator: Adobe Illustrator 21.0.0, SVG Export Plug-In . SVG Version: 6.00 Build 0)  -->
<svg version="1.1" id="Capa_1" xmlns="http://www.w3.org/2000/svg" xmlns:xlink="http://www.w3.org/1999/xlink" x="0px" y="0px"
	 viewBox="0 0 991 45" style="enable-background:new 0 0 991 45;" xml:space="preserve">
<style type="text/css">
	.st0{fill-rule:evenodd;clip-rule:evenodd;fill:#333333;}
	.st1{fill:#EC412E;}
	.st2{fill:#231F20;}
	.st3{fill-rule:evenodd;clip-rule:evenodd;fill:#2B00F7;}
	.st4{fill:#22A94B;}
	.st5{fill:#F89C1C;}
	.st6{fill:#EE4637;}
	.st7{fill:#FFDD00;}
	.st8{fill:#00A9E6;}
	.st9{fill-rule:evenodd;clip-rule:evenodd;fill:#231F20;}
	.st10{fill-rule:evenodd;clip-rule:evenodd;fill:#E82D32;}
</style>
<g>
	<g>
		<path class="st0" d="M59.7,30.4c-0.4,0-1,0-1.3-0.1c-0.1-1.5-0.2-8-0.1-13.7c0.7-0.2,1.1-0.3,1.6-0.3c2.4,0,3.7,2.9,3.7,6.4
			C63.6,27,62,30.4,59.7,30.4 M62.2,14.4c-1.5,0-2.7,0.3-3.9,1c0-3.5,0-6.7,0.1-7.8L51,9v0.7l0.8,0.1c1,0.2,1.3,0.8,1.5,2.1
			c0.2,2.6,0.1,16.7,0,19c2,0.4,4.1,0.8,6.1,0.8c5.8,0,9.3-3.6,9.3-9.3C68.8,17.7,65.9,14.4,62.2,14.4z"/>
		<path class="st0" d="M23.4,8.1H4.1v1l1.1,0.1c1.4,0.2,2,1.1,2.2,3.2c0.3,3.9,0.2,11.1,0,14.5c-0.2,2.1-0.8,3.1-2.2,3.2l-1.1,0.2
			v0.9h12.4v-0.9L15.1,30c-1.4-0.1-2-1.1-2.2-3.2c-0.1-1.4-0.2-3.7-0.2-6.6l2.6,0.1c1.6,0,2.4,1.3,2.7,3.2h1v-7.8h-1
			c-0.3,1.9-1.1,3.2-2.7,3.2l-2.6,0.1c0-3.7,0.1-7.2,0.2-9.3h3.8c3,0,4.5,1.9,5.6,5.2l1.1-0.3L23.4,8.1"/>
		<path class="st0" d="M29.3,15.3c-2.4,0-3.1,3.3-3.1,7.6c0,4.2,1.1,7.6,3.3,7.6c2.5,0,3.2-3.3,3.2-7.6
			C32.7,18.7,31.6,15.3,29.3,15.3 M29.6,14.2c5.5,0,8.2,3.7,8.2,8.7c0,4.7-3.1,8.7-8.6,8.7s-8.2-3.7-8.2-8.7
			C21.1,18.2,24.1,14.2,29.6,14.2z"/>
		<path class="st0" d="M75.3,20.9l5.2-0.1c0-2.2-0.3-5.5-2.2-5.5C76.4,15.3,75.4,18.4,75.3,20.9 M70.2,23c0-4.5,2.9-8.8,8.4-8.8
			c4.6,0,6.8,3.4,6.8,7.9H75.3c-0.1,4.1,1.9,7,5.8,7c1.8,0,2.6-0.4,3.7-1.2l0.4,0.5c-1.1,1.5-3.5,3.1-6.6,3.1
			C73.7,31.6,70.2,28,70.2,23z"/>
		<path class="st0" d="M98.5,15.1c-1.3-0.5-3.1-0.9-5-0.9c-4.1,0-6.6,2.4-6.6,5.3s1.9,4.1,4.5,4.9c2.7,1,3.5,1.8,3.5,3.1
			c0,1.3-1,2.5-2.7,2.5c-2.1,0-3.6-1.2-4.8-4.5l-0.8,0.2l0.1,4.8c1.3,0.5,3.7,1,5.8,1c4.3,0,7-2.2,7-5.6c0-2.3-1.2-3.6-4.1-4.7
			c-3.1-1.2-4.2-2-4.2-3.4c0-1.4,1-2.4,2.3-2.4c2,0,3.3,1.2,4.3,4.2l0.8-0.2L98.5,15.1"/>
		<path class="st0" d="M52.1,14.7c-1.9-1.1-5.2-0.5-6.9,3.4l0.1-3.8L38,15.7v0.7l0.8,0.1c1,0.1,1.4,0.7,1.5,2.1
			c0.2,2.6,0.1,7.2,0,9.5c-0.1,1.3-0.5,2-1.5,2.1L38,30.2v0.9h10.2v-0.9l-1.3-0.1c-1.1-0.1-1.4-0.8-1.5-2.1
			c-0.2-2.1-0.2-6.3-0.1-8.9c0.5-0.8,3-1.4,5.2,0L52.1,14.7"/>
	</g>
	<g>
		<path class="st1" d="M470.4,31.6c-1.4,0-2.8,0-4.3,0c-1.1-3.6-2.3-7.2-3.4-10.8c0,0,0,0-0.1,0c0,3.6,0,7.2,0,10.8
			c-1.3,0-2.5,0-3.8,0c-0.1-0.2-0.1-22.3,0-22.6c1.3,0,2.5,0,3.8,0c1.3,4,2.5,8,3.8,12c0,0,0,0,0.1,0c0-0.1,0-0.2,0-0.2
			c0-2.9,0-5.8,0-8.7c0-0.9,0-1.8,0-2.7c0-0.1,0-0.2,0-0.3c1.3,0,2.6,0,3.8,0C470.4,16.5,470.4,24,470.4,31.6z"/>
		<path class="st1" d="M424.6,31.5c-1.3,0-2.6,0-4,0c-0.9-3.5-1.9-7.1-2.8-10.7c0.2-0.1,0.3-0.2,0.5-0.2c0.6-0.2,1-0.6,1.4-1.1
			c0.3-0.4,0.5-0.9,0.5-1.4c0-1.3,0-2.6,0-3.9c0-0.8-0.7-1.4-1.4-1.4c-0.4,0-0.9,0-1.3,0c-0.1,0-0.1,0-0.2,0c0,6.3,0,12.5,0,18.7
			c-1.3,0-2.6,0-3.8,0c0-7.5,0-15.1,0-22.6c0.1,0,0.1,0,0.2,0c1.7,0,3.3,0,5,0c0.8,0,1.5,0.1,2.3,0.5c1.7,0.8,2.7,2,3.1,3.8
			c0.1,0.4,0.1,0.9,0.1,1.4c0,1.2,0,2.5,0,3.7c0,1.3-0.4,2.5-1.3,3.6c-0.2,0.2-0.4,0.4-0.6,0.6c-0.1,0.1-0.2,0.2-0.1,0.3
			c0.6,1.9,1.1,3.8,1.7,5.8c0.3,0.9,0.5,1.8,0.8,2.7C424.6,31.4,424.6,31.4,424.6,31.5z"/>
		<path class="st1" d="M408.4,20.2c0,1.8,0,3.6,0,5.4c0,0.5,0,0.9,0,1.4c0,0.7-0.2,1.4-0.5,2c-0.8,1.6-2.1,2.5-3.8,2.8
			c-1.3,0.2-2.5,0-3.6-0.7c-1.4-0.9-2.3-2.1-2.5-3.7c-0.1-0.4-0.1-0.8-0.1-1.2c0-3.3,0-6.6,0-9.9c0-0.9,0-1.8,0-2.8
			c0-0.6,0.2-1.2,0.4-1.8c0.6-1.4,1.7-2.4,3.2-2.9c1.2-0.4,2.4-0.4,3.6,0.1c1.7,0.7,2.7,1.9,3.2,3.7c0.1,0.3,0.1,0.5,0.1,0.8
			C408.4,15.7,408.4,17.9,408.4,20.2C408.4,20.2,408.4,20.2,408.4,20.2z M404.5,20.3L404.5,20.3c0-1.7,0-3.4,0-5.1c0-0.5,0-1,0-1.5
			c0-0.5-0.4-1-0.9-1.2c-0.7-0.2-1.4,0-1.8,0.7c-0.1,0.1-0.2,0.3-0.2,0.5c0,4.3,0,8.6,0,13c0,0.1,0,0.1,0,0.2
			c0.3,1.2,1.7,1.4,2.4,0.7c0.3-0.3,0.5-0.6,0.4-1c0-0.5,0-0.9,0-1.4C404.5,23.6,404.5,21.9,404.5,20.3z"/>
		<path class="st1" d="M443.3,8.9c1.3,0,2.5,0,3.8,0c0,0.1,0,0.2,0,0.3c0,0.5,0,1.1,0,1.6c0,4.7,0,9.4,0,14.2c0,0.6,0,1.2,0,1.8
			c0,0.5,0.7,1.2,1.2,1.2c0.5,0,1-0.1,1.4-0.5c0.2-0.2,0.3-0.5,0.3-0.8c0-1.3,0-2.7,0-4c0-4.5,0-9,0-13.5c0-0.1,0-0.2,0-0.3
			c0.2-0.1,3.4-0.1,3.8,0c0,0.1,0,0.2,0,0.3c0,0.5,0,0.9,0,1.4c0,4,0,8.1,0,12.1c0,1.4,0,2.7,0,4.1c0,0.9-0.2,1.7-0.7,2.4
			c-0.6,1-1.4,1.8-2.5,2.2c-1.5,0.6-3.1,0.6-4.6-0.2c-1.5-0.8-2.4-2.1-2.8-3.8c-0.1-0.5-0.1-0.9-0.1-1.4c0-5.6,0-11.3,0-16.9
			C443.3,9.1,443.3,9,443.3,8.9z"/>
		<path class="st1" d="M484.7,8.9c0,1.3,0,2.5,0,3.8c-1.8,0-3.6,0-5.4,0c-0.1,0.2-0.1,4.9,0,5.2c1.2,0,2.3,0,3.5,0
			c0,1.3,0,2.6,0,3.9c-0.6,0-1.2,0-1.7,0c-0.6,0-1.2,0-1.8,0c0,2,0,3.9,0,5.8c0.1,0,0.2,0,0.3,0c1.6,0,3.3,0,4.9,0
			c0.1,0,0.2,0,0.3,0c0,1.3,0,2.6,0,3.8c-3.1,0-6.2,0-9.3,0c-0.1-0.2-0.1-22.2,0-22.6C475.6,8.9,484.1,8.9,484.7,8.9z"/>
		<path class="st1" d="M384.7,8.9c3.1,0,6.2,0,9.3,0c0,1.3,0,2.5,0,3.8c-0.3,0-0.5,0-0.8,0c-0.3,0-0.5,0-0.8,0c-0.3,0-0.5,0-0.8,0
			c-0.3,0-0.5,0-0.8,0c-0.3,0-0.5,0-0.8,0c-0.3,0-0.5,0-0.8,0c-0.3,0-0.5,0-0.8,0c0,1.7,0,3.5,0,5.2c1.2,0,2.3,0,3.5,0
			c0,1.3,0,2.5,0,3.8c-1.2,0-2.3,0-3.5,0c0,3.2,0,6.5,0,9.7c-0.2,0.1-3.4,0.1-3.8,0c0,0,0,0,0,0c0,0,0,0,0,0c0-0.1,0-0.1,0-0.2
			C384.7,23.9,384.7,16.4,384.7,8.9C384.7,9,384.7,9,384.7,8.9z"/>
		<path class="st1" d="M431.6,12.8c-1.1,0-2.2,0-3.3,0c0-1.3,0-2.5,0-3.8c0.2,0,10.2-0.1,10.6,0c0,1.3,0,2.5,0,3.8
			c-1.1,0-2.2,0-3.4,0c0,6.3,0,12.5,0,18.8c-1.3,0-2.6,0-3.8,0c0,0,0,0,0,0c0,0,0,0,0,0c0,0,0,0,0,0c0,0,0,0,0,0
			C431.6,25.2,431.6,19,431.6,12.8C431.6,12.8,431.6,12.8,431.6,12.8z"/>
	</g>
	<g id="layer1_1_" transform="translate(-67.092411,-701.4412)">
		<path id="path13406_1_" class="st2" d="M811.6,730.4c-0.7,0-1.3,0.6-1.3,1.4c0,0.8,0.6,1.4,1.3,1.4s1.3-0.6,1.3-1.4
			C812.9,731,812.3,730.4,811.6,730.4 M763.8,733.1h6.1v-0.5l-0.7-0.2c-0.6-0.2-0.9-0.5-0.9-1.3V723h1.4c0.9,0,1.3,0.2,1.4,2
			l0.2,3.8c0.1,3.5,1.1,4.4,2.8,4.4c1.7,0,2.2-1.2,2.2-2.8v-0.7h-0.6v0.5c0,1.1-0.1,1.9-0.6,1.9c-0.4,0-0.4-0.3-0.5-1.7l-0.2-2.6
			c-0.2-3.5-0.7-4.8-3.3-5.3c2.5-0.7,4-2.5,4-5.1c0-3.4-2.7-5-5.2-5h-10.2v0.5l0.6,0.1c1.1,0.2,1.1,0.8,1.1,3.2v11.9
			c0,2.7-0.8,4-2.5,4c-1.5,0-2.4-0.8-2.4-3.7v-14.2c0-0.8,0.3-1.1,0.9-1.2l0.8-0.2v-0.5h-6.3v0.5l0.7,0.2c0.6,0.2,0.8,0.4,0.8,1.3
			v14c0,3.2,1.8,4.9,4.6,4.9c2.8,0,4.2-1.7,4.2-5v-13c0-1.6,0.3-2.2,1.7-2.2c1.1,0,1.5,0.4,1.5,1.4v16.7c0,0.8-0.3,1.1-0.9,1.3
			l-0.7,0.2V733.1L763.8,733.1z M804.1,714.4c0-0.8,0.3-1.1,0.9-1.2l0.8-0.2v-0.6h-6.2v0.5l0.7,0.2c0.6,0.2,0.9,0.4,0.9,1.3v16.8
			c0,0.8-0.3,1.3-1.3,1.3c-1.1,0-1.2-0.4-1.6-2.1l-3.8-18h-1.2l-3.7,17.4c-0.4,2-0.6,2.4-1.4,2.6l-0.5,0.2v0.5h4.3v-0.5l-0.6-0.1
			c-0.9-0.2-1.1-0.7-0.7-2.9l2.2-11.1l2.4,11.8c0.4,1.7,0.3,2-1,2.3l-0.6,0.1v0.5h15.9v-6.8h-0.6c-0.3,3.2-0.9,6.1-3.5,6.1h-1.2
			V714.4L804.1,714.4z M794.7,727.5v-0.8h-4.1l-0.1,0.8H794.7z M778,714.8v14.4c0,2.2,0,3.2-1.1,3.4l-0.5,0.1v0.5h4.4v-0.5
			c-1.9-0.3-1.9-0.9-1.9-3.3v-13.6l-0.7-0.7l7.4,18.1h1.3v-16.7c0-2.5,0-3,1.2-3.3l0.4-0.1v-0.5h-4.5v0.5l0.5,0.1
			c1.5,0.3,1.5,0.9,1.5,3.2v10.4l0.3-0.1l-5.6-14.2h-4.3v0.5l0.4,0.1C777.2,713.3,777.4,713.8,778,714.8 M768.3,713.2h1.2
			c1.2,0,2.3,0.8,2.3,4.7c0,4-0.8,4.4-2.5,4.4h-1V713.2z M748.3,722.6c0,8.7-0.7,9.9-2.3,9.9c-1.6,0-2.3-1.2-2.3-9.8
			c0-8.3,0.8-9.5,2.3-9.5C747.6,713.1,748.3,714.3,748.3,722.6 M751.6,722.8c0-5.7-1.8-10.5-5.6-10.5c-3.8,0-5.5,4.7-5.5,10.5
			c0,5.8,1.8,10.5,5.5,10.5C749.9,733.3,751.6,728.5,751.6,722.8 M738.7,714.4c0-0.8,0.2-1.1,0.8-1.3l0.7-0.2v-0.5H734v0.5l0.8,0.2
			c0.6,0.2,0.9,0.4,0.9,1.2v14.4c0,2-0.2,3.6-1.7,3.6c-1,0-1.7-0.8-1.7-1.3c0.1-0.9,1.7-0.9,1.8-2.4c0.1-1.1-0.6-1.5-1.2-1.6
			c-0.9-0.1-2.1,0.7-2.1,2.2c0,2,1.3,3.8,3.5,3.8c2.5,0,4.4-1.7,4.4-4.9V714.4L738.7,714.4z M638.5,714.4c0-0.8,0.3-1.1,0.9-1.2
			l0.8-0.2v-0.6h-6.2v0.5l0.7,0.2c0.6,0.2,0.9,0.4,0.9,1.3v16.8c0,0.8-0.3,1.3-1.3,1.3c-1.1,0-1.3-0.4-1.7-2.1l-3.8-18h-1.2
			l-3.7,17.4c-0.4,2-0.6,2.4-1.4,2.6l-0.5,0.2v0.5h4.3v-0.5l-0.6-0.1c-0.9-0.2-1.1-0.7-0.7-2.9l2.2-11.2l2.4,11.9
			c0.3,1.7,0.3,2-1,2.3l-0.6,0.1v0.5h15.9v-6.8h-0.6c-0.3,3.2-0.9,6.1-3.5,6.1h-1.2V714.4z M722.1,713.2h0.7c1.9,0,2.5,3,2.7,6.1
			h0.6v-6.8h-10.9v6.8h0.6c0.2-3.2,0.8-6.1,2.7-6.1h0.7v18c0,0.8-0.3,1.1-0.9,1.3l-0.8,0.2v0.5h6.5v-0.5l-0.9-0.2
			c-0.6-0.2-0.9-0.3-0.9-1.3L722.1,713.2L722.1,713.2z M708.3,722.7l0.9,0c1.4,0,1.7,0.5,2,3.8h0.6v-8.3h-0.6
			c-0.3,2.6-0.7,3.7-2,3.8l-1,0v-8.9h2.1c2.3,0,2.8,2.9,3.2,6.1h0.6v-6.8h-10.4v0.5l0.7,0.2c0.7,0.2,0.9,0.6,0.9,1.3v16.7
			c0,0.8-0.3,1.1-0.9,1.3l-0.7,0.2v0.5h10.7v-6.8h-0.6c-0.4,3.1-0.8,6.1-3.5,6.1h-2.1L708.3,722.7L708.3,722.7z M697,722.7l0.9,0
			c1.4,0,1.7,0.5,2,3.8h0.6v-8.3H700c-0.3,2.6-0.7,3.7-2,3.8l-1,0v-8.9h2.1c2.3,0,2.8,3,3.2,6.1h0.6v-6.8h-10.7v0.5l1,0.2
			c0.7,0.2,0.9,0.6,0.9,1.3v16.7c0,0.8-0.3,1.1-0.9,1.3l-0.7,0.2v0.5h10.7v-6.8h-0.6c-0.4,3.1-0.8,6.1-3.5,6.1H697V722.7L697,722.7z
			 M684.7,713.2h0.9c1.2,0,2.3,0.8,2.3,4.7c0,3.9-0.8,4.4-2.5,4.4h-0.7V713.2z M680.1,733.1h6.1v-0.5l-0.7-0.2
			c-0.6-0.2-0.9-0.5-0.9-1.3V723h1.1c0.9,0,1.3,0.4,1.4,2l0.1,3.8c0.1,3.5,1.1,4.4,2.8,4.4c1.7,0,2.2-1.2,2.2-2.8v-0.7h-0.6v0.5
			c0,1.1-0.1,1.9-0.6,1.9c-0.4,0-0.4-0.3-0.5-1.7l-0.2-2.6c-0.2-3.6-0.7-4.8-3.3-5.3c2.5-0.7,4-2.5,4-5.1c0-3.4-2.7-5-5.2-5h-5.7
			v0.5l0.7,0.2c0.6,0.2,0.9,0.4,0.9,1.3v16.7c0,0.8-0.3,1.1-0.9,1.3l-0.7,0.2V733.1L680.1,733.1z M675.5,713.2h0.7
			c1.9,0,2.5,3,2.7,6.1h0.6v-6.8h-10.9v6.8h0.6c0.2-3.2,0.8-6.1,2.7-6.1h0.7v18c0,0.8-0.3,1.1-0.9,1.3l-0.8,0.2v0.5h6.3v-0.5
			l-0.8-0.2c-0.8-0.2-0.9-0.8-0.9-1.3V713.2z M668.6,727.8c0-6.2-6.8-7.8-6.8-12.2c0-1,0.4-2.4,1.9-2.4c2.2,0,3,2.8,3.3,6.2h0.6
			v-6.8h-0.4c-0.2,0.7-0.4,1-0.8,1c-0.7,0-1.1-1.1-2.7-1.1c-2.6,0-4.3,2.1-4.3,4.9c0,5.1,6.8,7.2,6.8,11.9c0,2.1-1,3.3-2.3,3.3
			c-2,0-3.3-2.4-3.7-6.2h-0.6v6.8h0.4c0.3-1,0.7-1.1,1-1.1c0.6,0,1.2,1.2,2.9,1.2C666.6,733.3,668.6,730.9,668.6,727.8 M648.9,714.4
			c0-0.8,0.3-1.1,0.9-1.2l0.8-0.2v-0.6h-6.2v0.5l0.7,0.2c0.6,0.2,0.9,0.4,0.9,1.3v16.7c0,0.8-0.3,1.1-0.9,1.3l-0.7,0.2v0.5h9.8v-6.8
			h-0.6c-0.3,3.2-0.9,6.1-3.5,6.1h-1.2V714.4z M629.1,727.5v-0.8H625l-0.1,0.8H629.1L629.1,727.5z M611.7,733.2h1.2l2.8-14.8h-0.4
			l3.1,14.8h1.1l3.7-17.4c0.4-1.8,0.6-2.5,1.3-2.6l0.6-0.1v-0.5h-4.2v0.5l0.6,0.1c0.9,0.2,1.1,0.7,0.7,2.9l-2.4,11.7h0.4l-2.4-12.3
			c-0.2-1.2-0.4-2.1,0.6-2.3l0.7-0.1v-0.5h-5.8v0.5l0.4,0.1c0.6,0.1,0.7,0.5,0.9,1.7l0.9,4.5l-0.2-2.7l-2.1,10.9h0.3l-2.4-12
			c-0.3-1.2-0.4-2.2,0.6-2.3l0.5-0.1v-0.5h-5.9v0.5l0.6,0.1c0.5,0.2,0.8,0.4,1.2,2.1L611.7,733.2L611.7,733.2z M595.7,722.7l0.9,0
			c1.4,0,1.7,0.5,2,3.8h0.6v-8.3h-0.6c-0.3,2.6-0.7,3.7-2,3.8l-1,0v-8.9h2.1c2.3,0,2.8,3,3.2,6.1h0.6v-6.8h-10.4v0.5l0.7,0.2
			c0.7,0.2,0.9,0.6,0.9,1.3v16.7c0,0.8-0.3,1.1-0.9,1.3l-0.7,0.2v0.5h10.7v-6.8h-0.6c-0.4,3.1-0.8,6.1-3.5,6.1h-2.1V722.7
			L595.7,722.7z M576.8,733.1h6.2v-0.5l-0.7-0.2c-0.5-0.1-0.9-0.5-0.9-1.3v-8.2h4.5v8.2c0,0.8-0.4,1.2-0.9,1.3l-0.7,0.2v0.5h6.2
			v-0.5l-0.7-0.2c-0.6-0.2-0.9-0.5-0.9-1.3v-16.7c0-0.8,0.3-1.1,0.9-1.3l0.7-0.2v-0.5h-6.2v0.5l0.7,0.2c0.5,0.2,0.9,0.4,0.9,1.2v7.7
			h-4.5v-7.7c0-0.8,0.3-1.1,0.9-1.2l0.7-0.2v-0.5h-6.2v0.5l0.7,0.2c0.6,0.2,0.9,0.4,0.9,1.3v16.7c0,0.8-0.3,1.1-0.9,1.3l-0.7,0.2
			V733.1L576.8,733.1z M572.2,713.2h0.7c1.9,0,2.5,3,2.7,6.1h0.6v-6.8h-10.9v6.8h0.6c0.2-3.2,0.8-6.1,2.7-6.1h0.7v18
			c0,0.8-0.3,1.1-0.9,1.3l-0.8,0.2v0.5h6.5v-0.5l-0.9-0.2c-0.6-0.2-0.9-0.3-0.9-1.3V713.2L572.2,713.2z"/>
	</g>
	<g>
		<path class="st3" d="M759.7,10.9h6.4c3.5,0,4.8,0.3,6.4,2.2c1,1,1.3,2.2,1.3,3.5c0,1.6-0.6,2.9-2.5,3.8c3.5,1.3,3.5,4.1,3.5,5.1
			c0,1.6-0.6,3.5-1.9,4.4c-1.9,1.6-2.9,1.9-6.4,1.9h-6.7V10.9L759.7,10.9z M765.1,18.9h1.6c0.6,0,1.9,0,1.9-1.6
			c0-1.6-1.3-1.6-1.9-1.6h-1.6V18.9L765.1,18.9z M765.1,27.1h2.2c0.6,0,2.2,0,2.2-1.9c0-1.9-1.6-1.9-2.2-1.9h-2.2V27.1L765.1,27.1z"
			/>
		<polygon class="st3" points="775.9,10.9 780.7,10.9 780.7,31.9 775.9,31.9 775.9,10.9 		"/>
		<path class="st3" d="M790.5,15.7c5.7,0,8.3,4.4,8.3,8.3c0,3.8-2.5,8.6-8.3,8.6c-5.7,0-8.6-4.8-8.6-8.6
			C782,20.1,784.8,15.7,790.5,15.7L790.5,15.7z M790.5,28.1c1.9,0,3.5-1.6,3.5-4.1c0-2.2-1.6-3.8-3.5-3.8c-2.2,0-3.8,1.6-3.8,3.8
			C786.7,26.5,788.3,28.1,790.5,28.1L790.5,28.1z"/>
		<path class="st3" d="M808.3,15.7c5.7,0,8.6,4.4,8.6,8.3c0,3.8-2.9,8.6-8.6,8.6c-5.7,0-8.6-4.8-8.6-8.6
			C799.7,20.1,802.6,15.7,808.3,15.7L808.3,15.7z M808.3,28.1c1.9,0,3.8-1.6,3.8-4.1c0-2.2-1.9-3.8-3.8-3.8c-1.9,0-3.8,1.6-3.8,3.8
			C804.5,26.5,806.4,28.1,808.3,28.1L808.3,28.1z"/>
		<path class="st3" d="M817.8,16.3h4.4v1.6l0,0c0.3-0.6,1.6-2.2,4.4-2.2c1.3,0,3.2,0.6,4.4,2.9c1-1.6,2.5-2.9,5.1-2.9
			c1,0,2.9,0.3,4.1,1.6c1.3,1.6,1.6,2.5,1.6,6v8.6h-4.8v-8.3c0-1.3,0-3.5-2.2-3.5c-2.9,0-2.9,2.2-2.9,3.2v8.6h-4.4v-8.6
			c0-0.6,0-3.2-2.5-3.2c-2.5,0-2.5,2.5-2.5,3.5v8.3h-4.8V16.3L817.8,16.3z"/>
		<path class="st3" d="M843.9,10.9h4.8v6.7c1.6-1.9,3.8-1.9,4.4-1.9c3.5,0,7.9,2.2,7.9,8.3c0,5.7-4.1,8.6-7.9,8.6
			c-2.2,0-3.8-1.3-4.4-2.2h-0.3v1.6h-4.4V10.9L843.9,10.9z M852.4,28.1c2.2,0,3.8-1.9,3.8-4.1c0-1.9-1.6-3.8-3.8-3.8
			c-2.5,0-3.8,1.9-3.8,3.8C848.6,26.2,849.9,28.1,852.4,28.1L852.4,28.1z"/>
		<path class="st3" d="M878.5,27.1c-1,1.6-1.9,2.9-3.2,3.8c-1.6,1-2.9,1.6-4.8,1.6c-4.4,0-8.3-3.8-8.3-8.6c0-4.1,3.5-8.3,8.3-8.3
			c4.8,0,8.3,3.8,8.3,8.6c0,0.6,0,1,0,1.3h-11.7c0.3,1.9,1.9,2.9,3.5,2.9c1.6,0,2.2-0.6,2.9-1.3H878.5L878.5,27.1z M874.4,22.4
			c-0.3-1-1.3-2.9-3.8-2.9c-2.2,0-3.2,1.9-3.5,2.9H874.4L874.4,22.4z"/>
		<path class="st3" d="M880.7,16.3h4.4v1.6l0,0c0.6-0.3,2.5-1.9,4.4-1.6v4.4c-1.9,0-4.1,0-4.1,2.5v8.6h-4.8V16.3L880.7,16.3z"/>
		<path class="st3" d="M907.4,30c0,2.2-0.3,5.4-1,6.7c-1.3,1.9-4.1,3.8-7.9,3.2c-5.4-0.3-7-2.9-7.3-5.4h5.1c0.6,1.6,2.2,1.6,2.5,1.6
			c2.5,0,3.8-0.3,3.8-5.4v-0.3l0,0c-0.6,0.6-1.9,2.2-4.4,2.2c-4.1,0-7.9-3.5-7.9-8.3c0-5.4,3.8-8.6,7.9-8.6c1.9,0,3.5,0.6,4.4,1.9
			l0,0v-1.3h4.8V30L907.4,30z M898.8,28.1c2.2,0,3.8-1.6,3.8-3.8c0-2.5-1.6-4.1-3.8-4.1c-1.9,0-3.8,1.6-3.8,3.8
			C895,26.5,896.9,28.1,898.8,28.1L898.8,28.1z"/>
	</g>
	<g>
		<g>
			<path class="st2" d="M970.5,4L970.5,4L970.5,4c0,0-0.1,0-0.1,0c-0.3,0-0.5,0.2-0.5,0.6c-0.2,2-0.3,4.1-0.6,6l0,0l0,0l0,0l0,0
				c0.2,0,0.3,0,0.4,0.1l0,0c0.3-2,1.1-4.9,1.2-5.8c0-0.1,0.1-0.3,0.1-0.4C971,4.2,970.8,4,970.5,4z"/>
			<path class="st2" d="M950.9,4.8c0.1,1.1,0.1,2.1,0.1,3.2c-1.3,0-2.5,0-3.8,0l0,0c0-1.1,0-2.1,0.1-3.2c-0.4,0.1-0.7,0.1-1.1,0
				c0.1,2.3,0.1,4.5,0,6.8c0.4-0.1,0.7-0.1,1.1,0l0,0l0,0c-0.1-1.1-0.1-2.1-0.1-3.2l0,0c1.3,0,2.5,0,3.8,0c0,1,0,2.1-0.1,3.2l0,0
				l0,0c0.4-0.1,0.8-0.1,1.1,0c-0.1-2.3-0.1-4.5,0-6.8C951.6,4.9,951.3,4.9,950.9,4.8z"/>
			<path class="st2" d="M942.8,4.8L942.8,4.8L942.8,4.8c-0.3,0.1-0.5,0.1-0.8,0l0,0c-0.9,2.3-2,4.9-2.9,6.8l0,0l0,0l0,0l0,0l0,0l0,0
				c0.4-0.1,0.8-0.1,1.1,0l0,0l0,0c0.2-0.6,0.5-1.3,0.8-2l0,0c0.9,0,1.9,0,2.8,0l0,0c0.3,0.7,0.5,1.3,0.8,2l0,0
				c0.4-0.1,0.8-0.1,1.1,0l0,0C945.1,10.3,943.7,7,942.8,4.8z M942.4,6c0.4,1,0.8,2.1,1.2,3.1l0,0c-0.8,0-1.6,0-2.4,0l0,0
				C941.7,7.9,942.2,6.7,942.4,6z"/>
			<path class="st2" d="M940.8,3.9L940.8,3.9L940.8,3.9c-0.4,0.1-0.8,0.1-1.1,0c-0.3,0.6-1.5,2.5-2.3,3.8c-0.8-1.3-1.7-2.7-2.3-3.8
				c-0.5,0.1-0.7,0.1-1.1,0c0.9,1.4,2.4,4,2.9,4.9l-0.1,3.6c0,0,0.3-0.1,0.5-0.1c0.2,0,0.5,0.1,0.5,0.1l-0.1-3.6
				C938.8,7.2,940.4,4.5,940.8,3.9z"/>
			<path class="st2" d="M956,4.7c-2.4,0-3.7,1.5-3.7,3.5c0,2.2,1.4,3.5,3.6,3.5c2.5,0,3.7-1.5,3.7-3.4C959.7,6,958.2,4.7,956,4.7z
				 M956,11.3c-1.6,0-2.5-1.1-2.5-3.1c0-2.2,1.2-3.1,2.5-3.1c0,0,0,0,0.1,0c1.5,0,2.5,1,2.5,3.1C958.5,10.3,957.5,11.3,956,11.3z"/>
			<path class="st2" d="M964.3,4.3c-2.4,0-4.2,1.4-4.2,3.9c0,2.1,1.2,3.9,4.2,3.9c2.6,0,4.2-1.4,4.2-3.9
				C968.5,5.9,966.9,4.3,964.3,4.3z M961.2,8.1c0-2.7,1.6-3.4,3.1-3.4c1.8,0,3.1,1.1,3.1,3.5c0,2.6-1.6,3.5-3.1,3.5
				C962.7,11.7,961.2,10.7,961.2,8.1z"/>
			<path class="st2" d="M969.2,11.4c-0.4,0-0.5,0.3-0.5,0.6c0,0.3,0.3,0.5,0.6,0.5c0.2,0,0.5-0.1,0.5-0.6
				C969.8,11.6,969.6,11.4,969.2,11.4z"/>
		</g>
		<g>
			<polygon class="st2" points="918.4,15.9 924.8,15.9 924.8,32.1 927.7,32.1 927.7,15.9 933.9,15.9 933.9,14.7 918.4,14.7 			"/>
			<polygon class="st2" points="936.8,14.8 936.6,14.8 936.6,32.1 939.4,32.1 939.4,32.1 948.6,32.1 948.6,30.9 939.4,30.9 
				939.4,23.2 945.6,23.2 945.6,22.1 939.4,22.1 939.4,15.9 948.6,15.9 948.6,14.7 936.8,14.7 			"/>
			<polygon class="st2" points="982.7,14.8 982.7,22.7 973.9,22.7 973.9,14.8 971,14.8 971,32.1 973.9,32.1 973.9,23.8 982.7,23.8 
				982.7,32.1 985.5,32.1 985.5,14.8 			"/>
			<path class="st2" d="M960.7,31.2c-3.7,0-6.8-3.5-6.8-7.8s3-7.8,6.8-7.8c1.8,0,3.5,0.8,4.7,2.2l1.1-0.8c-1.6-1.6-3.8-2.7-6.3-2.7
				c-1.3,0-2.6,0.3-3.7,0.8c-3.5,1.2-6.1,4.5-6.1,8.4c0,4.9,4,8.9,8.9,8.9c0.2,0,0.4,0,0.5,0c0.2,0,0.4,0,0.5,0c2.8,0,5.4-1.3,7-3.4
				l-1.1-0.9C964.9,30,962.9,31.2,960.7,31.2z"/>
		</g>
	</g>
	<g>
		<path class="st4" d="M121.8,26.7c-1.6,0-2.8-1.3-2.8-2.8c0-1.6,1.3-2.8,2.8-2.8c1.6,0,2.8,1.3,2.8,2.8
			C124.6,25.4,123.4,26.7,121.8,26.7"/>
		<rect x="130.1" y="16.4" class="st2" width="4.9" height="14.8"/>
		<rect x="136" y="10.6" class="st2" width="4.9" height="20.6"/>
		<rect x="141.9" y="10.6" class="st2" width="4.9" height="20.6"/>
		<path class="st2" d="M132.6,9.8c-1.6,0-2.8,1.3-2.8,2.8c0,1.6,1.3,2.8,2.8,2.8c1.6,0,2.8-1.3,2.8-2.8
			C135.4,11,134.1,9.8,132.6,9.8"/>
		<path class="st2" d="M121.8,26.7c-1.6,0-2.8-1.3-2.8-2.8c0-1.6,1.3-2.8,2.8-2.8c1.6,0,2.8,1.3,2.8,2.8
			C124.6,25.4,123.4,26.7,121.8,26.7 M122.3,16.2c-1.3,0-2.4,0.3-3.4,1v-6.6h-4.9v20.6h4.8v-1.4c1.2,1.1,2.4,1.6,3.9,1.6
			c3.7,0,6.8-3.3,6.8-7.6C129.6,19.3,126.4,16.2,122.3,16.2"/>
		<path class="st5" d="M210.5,26.6c-1.6,0-2.8-1.3-2.8-2.8c0-1.6,1.3-2.8,2.8-2.8c1.6,0,2.8,1.3,2.8,2.8
			C213.3,25.4,212,26.6,210.5,26.6"/>
		<path class="st6" d="M155.6,26.7c-1.6,0-2.8-1.3-2.8-2.8c0-1.6,1.3-2.8,2.8-2.8c1.6,0,2.8,1.3,2.8,2.8
			C158.4,25.4,157.1,26.7,155.6,26.7"/>
		<path class="st7" d="M170.6,26.5c-1.6,0-2.8-1.3-2.8-2.8c0-1.6,1.3-2.8,2.8-2.8c1.6,0,2.8,1.3,2.8,2.8
			C173.5,25.2,172.2,26.5,170.6,26.5"/>
		<path class="st8" d="M185.3,26.5c-1.6,0-2.8-1.3-2.8-2.8c0-1.6,1.3-2.8,2.8-2.8c1.6,0,2.8,1.3,2.8,2.8
			C188.1,25.3,186.9,26.5,185.3,26.5"/>
		<path class="st2" d="M199.3,17.9v-1.5h-4.9v14.8h4.9v-7.1c0-1.8,1-2.8,2.7-2.8h0.6v-5.1C201.1,16.3,200,16.7,199.3,17.9"/>
		<path class="st2" d="M185.3,26.5c-1.6,0-2.8-1.3-2.8-2.8c0-1.6,1.3-2.8,2.8-2.8c1.6,0,2.8,1.3,2.8,2.8
			C188.1,25.3,186.8,26.5,185.3,26.5 M170.6,26.5c-1.6,0-2.8-1.3-2.8-2.8c0-1.6,1.3-2.8,2.8-2.8c1.6,0,2.8,1.3,2.8,2.8
			C173.5,25.2,172.2,26.5,170.6,26.5 M155.6,26.7c-1.6,0-2.8-1.3-2.8-2.8c0-1.6,1.3-2.8,2.8-2.8c1.6,0,2.8,1.3,2.8,2.8
			C158.4,25.4,157.1,26.7,155.6,26.7 M188.5,17.5c-0.7-0.7-2.3-1.4-3.5-1.4c-3.7,0-6.3,2.4-7,6c-0.7-3.5-3.7-6.1-7.4-6.1
			c-3.7,0-6.8,2.7-7.4,6.2c-0.6-3.7-3.5-6.1-7.1-6.1c-1.3,0-2.4,0.3-3.4,1v-6.6h-4.9v20.6h4.8v-1.4c1.2,1.1,2.4,1.6,3.9,1.6
			c3.3,0,6.1-2.6,6.7-6.1c0.7,3.5,3.7,6.1,7.4,6.1c3.7,0,6.6-2.6,7.4-6c0.6,3.7,3.6,6,7.1,6c1.2,0,2.5-0.4,3.4-1.1v0.8h4.9v-6.5
			c0-0.3,0-0.5,0-0.8c0-0.3,0-0.5,0-0.8v-6.8h-4.9V17.5z"/>
		<path class="st2" d="M210.5,26.6c-1.6,0-2.8-1.3-2.8-2.8c0-1.6,1.3-2.8,2.8-2.8c1.6,0,2.8,1.3,2.8,2.8
			C213.3,25.4,212,26.6,210.5,26.6 M213.4,10.6v6.6c-1-0.7-2-1-3.4-1c-4.1,0-7.2,3.1-7.2,7.7c0,4.3,3.1,7.6,6.8,7.6
			c1.5,0,2.8-0.5,3.9-1.6v1.4h4.8V10.6H213.4z"/>
	</g>
	<g>
		<polygon class="st9" points="292.7,32.1 292.7,32.2 292.7,32.1 		"/>
		<path class="st9" d="M368.4,26.7l-1.9,0.9c0,0.2,0,0.3,0.1,0.5c0.9,0.1,1.7-0.4,2.1-1.1L368.4,26.7L368.4,26.7z M355.1,24
			c-0.4,0.4-0.7,1-0.8,1.6l-0.5,3c0.2-0.1,0.4-0.3,0.6-0.5c0.2-0.4,0.2-0.8,0.3-1.2L355.1,24L355.1,24z M342.3,21.9
			c-0.3,0.3-0.6,0.7-0.8,1.1c-0.6,1.5-0.9,3.2-1.1,4.9l0,0.6c0.4-0.3,0.7-0.8,0.9-1.3c0.5-1.3,0.7-2.7,0.9-4.1
			C342.3,22.6,342.3,22.3,342.3,21.9L342.3,21.9z M334.4,22.8l-0.7,0l-0.1,0.1l-0.8,4.8l0.4-0.2l1.1-0.7
			C334,25.5,334,24.1,334.4,22.8L334.4,22.8z M326.7,24.8l0.5-2.9l-1.6-1.6c0.1-0.5,0.2-1,0.3-1.4l0.1-0.1l-1.5-1.5
			c0-0.6,0.1-1.2,0.1-1.8c-0.3,0-0.6,0-0.9,0c-0.9,0.1-1.7,0.7-2,1.6c-0.2,0.7-0.1,1.5,0.2,2.1c0.8,1.4,2,2.5,3.1,3.7
			C325.6,23.5,326.2,24.1,326.7,24.8L326.7,24.8z M320.6,25.4c-1-2-3-3.5-4.3-5.4l-0.7,2.5c-0.1,0-0.3,0-0.4,0c-0.9,0-1.8,0.3-2.2,1
			c-0.5,0.7-0.6,1.5-0.9,2.3l2.3,2.3c0.1,0.4,0.3,0.8,0.6,1.2c0.8,0.4,1.6,0.7,2.5,0.7c1.2,0.1,2.3-0.4,3-1.3
			C321.1,27.9,321.2,26.4,320.6,25.4L320.6,25.4z M311.6,30.9l-1-2.9c-0.4,0.4-0.7,0.6-1.2,0.9c0.2,0.1,0.5,0.3,0.7,0.5L311.6,30.9
			L311.6,30.9z M306.5,21.8c-0.5,0.6-0.7,1.4-0.9,2.2l-0.1,0.7c0.1-0.1,0.2-0.2,0.2-0.3c0.3-0.6,0.5-1.2,0.6-1.9
			C306.4,22.3,306.4,22.1,306.5,21.8L306.5,21.8z M304.7,34.3c-1.3,0-2.4-0.2-3.4-0.8c-0.5,0.5-0.9,1.2-1.1,1.9c0.4,0,0.7,0,1.1,0
			C302.5,35.2,303.7,34.9,304.7,34.3L304.7,34.3z M299.6,26.5c0.3-0.2,0.6-0.3,0.9-0.4c-0.2-0.3-0.5-0.6-0.7-0.9L299.6,26.5
			L299.6,26.5z M293.3,24.1c-0.5,0.5-0.9,1.2-1,1.9l-0.4,2.5c0.3-0.1,0.5-0.3,0.7-0.6l0.1-0.4L293.3,24.1L293.3,24.1z M286.1,23.8
			l-0.8-0.8l-1,5.7c0.4-0.1,0.9-0.3,1.1-0.7l0.1-0.4L286.1,23.8L286.1,23.8z M278.4,23.9l-0.8-0.8l-0.2,1.1l-0.7,4
			c0,0.1,0,0.3-0.1,0.4c0.4-0.1,0.8-0.4,1-0.8l0.1-0.4L278.4,23.9L278.4,23.9z M271.8,18.1l-0.8-0.8l-1.1,6.2l-0.8,5
			c0.5-0.1,0.9-0.3,1.1-0.8l0.1-0.6L271.8,18.1L271.8,18.1z M262.9,32.4l-1.2-1.2c-0.7,0.6-1.5,1-2.5,1.2c-1.3,0.3-2.7,0.2-3.8-0.5
			c-0.5-0.3-0.9-0.6-1.2-1l-2.3-2.3c-1.1-1.1-1.8-2.7-1.8-4.4l-0.3,0.1c0,0.3,0.1,0.7,0.1,1c0.4,2.2,1.4,4.2,2.7,6
			c2.4,1.9,5.3,3.1,8.6,2.4C262,33.5,262.6,33.1,262.9,32.4L262.9,32.4z M256.6,28c0.4-0.2,0.7-0.6,0.9-1c0.3-0.7,0.5-1.5,0.7-2.3
			l0.3-1.4c0.1-0.6,0.2-1.2,0.2-1.8c-0.3,0.2-0.5,0.5-0.7,0.8c-0.7,1.4-1.1,2.9-1.3,4.4C256.7,27.1,256.7,27.5,256.6,28L256.6,28z
			 M247.8,15.8c0-0.2,0-0.4-0.1-0.6c-0.8-0.2-1.6-0.3-2.4-0.2l-0.3,1.6l-0.7,3.6l0.2,0c0.4-0.2,0.8-0.4,1.2-0.6
			C246.8,18.7,247.8,17.4,247.8,15.8L247.8,15.8z M237.6,15.7c-0.2,0.1-0.4,0.2-0.6,0.4c0.1,0.2,0.3,0.4,0.4,0.5L237.6,15.7
			L237.6,15.7z M373,26.8c0.5,0.5,0.7,1.5,0.4,2.2c-0.6,2.1-2.4,3.4-4.5,3.8c-1.8,0.2-3.5-0.2-4.8-1.4l-2.2-2.3
			c-0.2-0.2-0.3-0.3-0.5-0.5c-0.2-0.2-0.3-0.4-0.5-0.7l-0.2,1.3c0,0.1-0.1,0.3-0.1,0.5l0,0l1.4,1.4l0,0c-0.1,0.6-0.2,1.1-0.3,1.7
			l-6.8,0l-0.6-0.6l-0.1,0.6l-0.1,0h-6.9l-1.6-1.6l-0.4,0.4c-1.1,0.9-2.4,1.4-3.9,1.2c-1.5-0.1-2.8-1-3.8-2l-0.1-0.1l0,0
			c-0.7,0.5-1.3,1-2.1,1.4c-1.5,0.8-3.3,1.5-5,0.9c-0.3-0.2-0.6-0.4-0.8-0.6l-1.6-1.6c-0.5,1.7-1.7,3.3-3.4,3.9
			c-1.4,0.6-3.3,0.6-4.7,0.1c-1-0.3-1.9-0.8-2.9-1c-0.3,0-0.7,0.1-0.8,0.4c-0.1,0.1-0.1,0.3-0.2,0.4c-0.5,0.2-0.9,0.4-1.4,0.5
			l-1.9-1.9c-0.2,1-0.8,1.8-1.4,2.5c-1.7,1.8-3.8,3.3-6.3,3.7c-2.7,0.5-5.6,0-7.7-1.5c-0.1-0.1-0.2-0.2-0.4-0.3l-2.2-2.2
			c-0.4-0.4-0.7-1-0.6-1.6c0.1-0.5,0.3-0.9,0.5-1.3h-1.5l0,0l-0.4-0.4l0-0.1h-0.1l0,0l-0.1,0.5H286l-0.5-0.5l-0.1,0.5l-7.3,0
			l-0.5-0.5l-0.1,0.5l-0.2,0l-6.8-0.1L270,32l-0.1,0.5c-1,0-1.8,0-2.8,0l0.9,1c0.3,0.3,0.6,0.7,0.7,1.2c0.2,1.2-0.3,2.3-1.2,3
			c-3,2.3-7.8,1.6-11.1,0.4c-2.5-1-4.6-2.4-6.5-4.3l-2.2-2.3c-0.5-0.5-0.9-0.9-1.3-1.4c-1.2-1.5-2.2-3.2-2.9-5l-0.1,0.6l-0.8,4.3
			l1.8,1.8c-0.1,0.6-0.2,1.3-0.3,1.9l-0.1,0h-9.6c-0.1,0-0.1,0-0.2-0.1l-2.3-2.4c0.1-0.7,0.2-1.4,0.3-2c1.1,0.1,2.4,0,3-1l0.1-0.5
			L237,19c-0.5,0.4-1.3,0.6-2.1,0.4c-0.5-0.1-0.9-0.3-1.2-0.7l-2.3-2.3c-0.3-0.3-0.5-0.6-0.6-1c-0.3-1.4,0.4-2.6,1.5-3.3
			c0.9-0.7,2.1-0.9,3.2-1.2c2.8-0.6,5.9-0.8,8.9-0.6c0.4,0,0.8,0.1,1.3,0.1c1,0.1,2.1,0.3,3,0.7c0,0,0.1,0,0.1,0
			c0.8,0.3,1.5,0.8,2.1,1.4l2.3,2.2c0.6,0.6,1.1,1.4,1.4,2.2c0,0.1,0.1,0.3,0.1,0.4c1-0.5,2.1-0.7,3.3-0.8c1.2,0,2.4,0.6,3.2,1.4
			l2.5,2.5l0.5-2.9l-1.2-1.2l-0.8-1.4l0,0l4-2.5l2.8-1.8l0.2-0.1l2.3,2.4l0,0l-0.1,0.5l-0.1,0.5l5.4-3.5l0.1,0l2.4,2.4
			c0,0.8-0.3,1.6-0.4,2.4l-0.8,4.6l3.5-2.1l-1.9-1.9c-0.3-0.2-0.4-0.6-0.4-1c0-1.3,1.1-2.3,2.2-2.7c0.7-0.2,1.8-0.4,2.4,0.2l2.4,2.4
			c0.4,0.4,0.5,0.9,0.4,1.5c-0.1,0.6-0.5,1-0.9,1.5c-0.2,0.2-0.5,0.4-0.8,0.6l0.9,0.9l0,0.4l-0.1,0.5l5.3-3.3h0l1.5,1.5
			c0.9-0.7,1.8-1.2,3-1.2c0.7,0.1,1.3,0.4,1.8,0.8l2.2,2.2l0.1-0.2c0.8-1.6,2.4-2.7,4.2-3c1.8-0.3,3.7,0,5.1,1.2l0.3,0.3l0.8,0.8
			c0.6-1,1.5-2,2.7-2.3c0.5-0.1,0.9-0.2,1.4-0.2l1.2,1.2l-0.1-0.3c-0.3-1-0.2-2.2,0.1-3.1c0.6-1.8,2.2-3.3,4.1-3.6
			c0.8-0.2,1.8-0.2,2.6,0c0.9,0.2,1.7,0.6,2.6,0.7c0.5,0,0.9-0.2,1.1-0.6l0.1-0.2l1.7,0l2.4,2.4c0,0.1,0,0.3,0,0.4l-0.5,3.2
			c1-0.6,1.9-1.2,2.9-1.8l2.3,2.4l0,0.3l-0.1,0.6l1.1,0l1,1c1.7-1.7,4.3-2.8,6.7-1.8c0.5,0.2,1,0.5,1.4,0.9l2.3,2.3l4.1-2.7
			c0.6-0.4,1.2-0.8,1.9-1.2l1.3,1.3c1.2-0.9,2.7-1.6,4.2-0.8c0.1,0.1,0.3,0.2,0.4,0.3l2.2,2.2c0.1,0.1,0.2,0.2,0.3,0.4
			c0.6-1,1.4-1.9,2.5-2.5c1.5-0.9,3.8-1.3,5.4-0.3c0.3,0.2,0.6,0.4,0.8,0.6l2.3,2.3c1,0.9,1.5,2.3,1.6,3.6l-2.5,1.2L373,26.8
			L373,26.8z"/>
		<path class="st10" d="M281.9,28.2c0.3,0.4,0.8,0.6,1.4,0.6l0,0.1l-0.2,1.4l-7.3,0l0,0l0.2-1.4c0.7,0,1.5-0.2,1.8-0.9l0.1-0.4
			l0.7-3.9c0-0.3,0-0.5-0.2-0.7c-0.2-0.2-0.7-0.1-0.9,0c-0.3-0.5-0.6-1.1-0.8-1.6l0-0.1l6.4-3.9l0.5-0.3l0,0l0,0.4l-1.7,9.7
			C281.7,27.5,281.6,27.9,281.9,28.2L281.9,28.2z"/>
		<path class="st10" d="M275.6,18.7c-0.2,1.1-0.4,2.1-0.6,3.2l-0.7,4c-0.1,0.6-0.3,1.2-0.2,1.9c0.1,0.4,0.5,0.8,0.9,0.9
			c0.1,0,0.2,0,0.2,0.1l-0.2,1.4l-0.2,0l-6.8-0.1l0-0.1l0.2-1.5c0.7-0.1,1.5-0.2,1.7-0.9l0.1-0.6l1.6-9.3c0-0.4,0.1-0.8-0.3-1
			c-0.3-0.2-0.7-0.1-1,0l-0.1,0l-0.8-1.4l0-0.1l7.2-4.6l0.1,0c0,0.8-0.3,1.6-0.4,2.4L275.6,18.7L275.6,18.7z"/>
		<path class="st10" d="M342,19.7c-0.3-0.4-0.8-0.6-1.3-0.5c-0.8,0.1-1.2,0.8-1.5,1.5c-0.6,1.5-0.9,3.2-1.1,4.9c0,1-0.1,2.1,0.5,2.8
			c0.4,0.4,1,0.4,1.5,0.3c0.6-0.2,1-0.9,1.2-1.5c0.5-1.3,0.7-2.7,0.9-4.1C342.3,21.9,342.5,20.6,342,19.7L342,19.7z M352.7,30.5
			L352.7,30.5l0.2-1.7c0.6,0,1.1-0.2,1.4-0.7c0.2-0.4,0.2-0.8,0.3-1.2l0.7-4.6c0-0.5-0.2-0.9-0.6-1.1c-0.6-0.3-1.3-0.2-1.8,0.2
			c-0.6,0.4-0.9,1.1-1.1,1.8l-0.8,4.5c0,0.4,0.3,0.7,0.7,0.9c0.1,0,0.3,0,0.4,0.1c-0.1,0.6-0.2,1.2-0.3,1.8l-0.1,0H345
			c0-0.6,0.2-1.2,0.2-1.7l0,0c0.7,0,1.3,0,1.8-0.5l0.2-0.4c0.3-1.5,0.5-3.1,0.8-4.6c0-0.3-0.1-0.5-0.4-0.6c-0.6-0.2-1.2,0.3-1.6,0.7
			c-0.2,1.2-0.5,2.3-1,3.4c-0.5,1-1.1,1.8-2,2.7c-1.1,0.9-2.4,1.4-3.9,1.2c-1.6-0.1-2.9-1.1-4-2.2c-0.7,0.5-1.4,1-2.1,1.4
			c-1.5,0.8-3.3,1.5-5,0.9c-1.6-0.8-1.8-2.7-1.6-4.4l0.1-0.9l0.9-5l0,0c-0.6,0-1.2,0-1.8,0c0.1-0.5,0.2-1,0.3-1.4
			c2.1-1.3,4.1-2.7,6.2-4l0,0.3l-0.5,3l0.1,0l3.8,0v0.1l-0.9,2.4c-0.2,0-0.3-0.1-0.4-0.2l-0.4-0.1l-2.4,0l-0.1,0.1l-1,5.8
			c0,0.7,0.2,1.3,0.8,1.6c0.8,0.3,1.5-0.2,2.1-0.5l1.1-0.7c-0.6-2.7,0.2-5.6,2.1-7.4c1.7-1.7,4.3-2.9,6.8-1.9
			c1.6,0.7,2.4,2.1,2.9,3.7l0.1,0l4.8-3.1c0.6-0.4,1.2-0.8,1.9-1.2l0,0.1c-0.1,0.9-0.3,1.7-0.4,2.5c0.3-0.1,0.5-0.4,0.8-0.6
			c1.3-1.1,3.2-2.5,5.1-1.5c1,0.7,1.4,2.1,1.2,3.5l-0.4,2.2l-0.7,3.9c-0.1,0.5-0.2,1.1,0.2,1.5c0.3,0.3,0.7,0.4,1.2,0.4l0,0
			c-0.1,0.6-0.2,1.1-0.3,1.7L352.7,30.5L352.7,30.5z"/>
		<path class="st10" d="M326.4,17.4l-1.8,0c0.1-1,0.3-2.2-0.3-2.9c-0.6-0.9-1.7-1.3-2.8-1.2c-0.9,0.1-1.7,0.7-2,1.6
			c-0.2,0.7-0.1,1.5,0.2,2.1c0.8,1.4,2,2.5,3.1,3.7c1.6,1.9,3.6,3.7,3.3,6.5c-0.2,2.3-1.5,4.6-3.7,5.5c-1.4,0.6-3.3,0.6-4.7,0.1
			c-1-0.3-1.9-0.8-2.9-1c-0.3,0-0.7,0.1-0.8,0.4c-0.1,0.1-0.1,0.3-0.2,0.4c-0.5,0.2-0.9,0.4-1.4,0.5l-0.5-1.3l-1.8-5.2l0,0
			c0.6-0.2,1.3-0.4,1.9-0.6c0.8,2.3,2.9,4.2,5.5,4.3c1.2,0.1,2.3-0.4,3-1.3c0.7-0.9,0.7-2.4,0.1-3.4c-1.4-2.8-4.6-4.5-5.3-7.7
			c-0.3-1-0.2-2.2,0.1-3.1c0.6-1.8,2.2-3.3,4.1-3.6c0.8-0.2,1.8-0.2,2.6,0c0.9,0.2,1.7,0.6,2.6,0.7c0.5,0,0.9-0.2,1.1-0.6l0.1-0.2
			l1.7,0c0,0.1,0,0.3,0,0.4L326.4,17.4L326.4,17.4L326.4,17.4z"/>
		<path class="st10" d="M305.9,32.3c-0.2-0.3-0.5-0.5-0.8-0.5c-0.9-0.1-1.8,0.2-2.6,0.2c-1.3,0-2.5-0.2-3.6-0.8
			c-0.6,0.6-1,1.3-1.2,2.2c0,0.6,0.2,1.2,0.7,1.5c0.8,0.5,1.8,0.7,2.9,0.6c1.5-0.2,2.9-0.7,4.1-1.5c0.3-0.3,0.5-0.5,0.6-0.9
			C306.1,32.7,306,32.5,305.9,32.3L305.9,32.3z M306.5,19.9c-0.1-0.5-0.5-0.8-0.9-0.9c-0.4-0.1-0.8,0-1.1,0.2
			c-0.8,0.6-1,1.6-1.3,2.5c-0.1,1-0.4,2.2,0.2,3c0.3,0.3,0.6,0.5,1.1,0.5c0.6,0,1-0.4,1.3-0.8c0.3-0.6,0.5-1.2,0.6-1.9
			C306.5,21.7,306.7,20.7,306.5,19.9L306.5,19.9z M312.8,20.2c-0.9,0-1.8,0.3-2.2,1c-0.6,0.9-0.7,2-1.2,3c-0.9,1.7-2.6,2.9-4.6,3
			c-1,0.1-1.9-0.2-2.8-0.4c-0.3,0.4-0.3,1-0.1,1.5c0.4,0.6,1.2,0.5,1.9,0.5c1.6-0.1,3.3-0.4,5-0.1c0.8,0.2,1.7,0.7,1.8,1.7
			c0.1,1.3-0.7,2.3-1.5,3.3c-1.7,1.9-3.8,3.3-6.3,3.7c-2.7,0.5-5.6,0-7.7-1.5c-0.6-0.4-1-1-0.9-1.8c0.4-1.9,2-2.7,3.5-3.6
			c-0.8,0-0.8,0-0.8,0l-6,0l0,0l0.2-1.4c0.6-0.1,1.2-0.3,1.6-0.9l0.1-0.4l0.8-5c0-0.4,0-0.9-0.3-1.2c-0.3-0.3-0.8-0.4-1.2-0.3
			c-1.1,0.4-1.9,1.5-2.1,2.7l-0.6,3.8c0,0.3,0.1,0.6,0.3,0.8c0.2,0.2,0.5,0.3,0.8,0.4l0,0.1l-0.2,1.5h-6.6c0-0.5,0.2-1,0.2-1.5
			c0.6-0.1,1.2-0.2,1.4-0.7l0.1-0.4l0.7-4.3c0-0.3-0.1-0.6-0.4-0.7c-0.3-0.1-0.6-0.1-0.9,0.1l-0.1,0l-0.8-1.4l0.1-0.1l6.9-4.3h0
			l0,0.3c-0.2,1-0.4,2-0.5,3c0.3-0.2,0.4-0.4,0.7-0.6c1.2-1.2,2.5-2.4,4.3-2.4c0.9,0.1,1.7,0.5,2.1,1.3c0.2,0.5,0.2,1.1,0.2,1.7
			l-0.9,5.9l-0.2,1.4c0,0.4,0.2,0.7,0.5,0.9c0.2,0.1,0.6,0.2,0.9,0.2c0.2-0.7,0.5-1.4,1.2-1.9c0.4-0.2,0.8-0.4,1.2-0.6
			c-0.2-0.3-0.5-0.7-0.8-1c-1-1.3-0.9-3.6-0.1-5c0.8-1.6,2.4-2.7,4.2-3c1.8-0.3,3.7,0,5.1,1.2c0.4,0.4,0.8,0.8,1.2,1.2
			c0.6-1,1.5-2,2.7-2.3c0.5-0.1,0.9-0.2,1.4-0.2l0,0l-0.9,3.3C313.1,20.2,313,20.2,312.8,20.2L312.8,20.2z"/>
		<path class="st10" d="M280,16.3c-0.5-0.2-0.7-0.7-0.7-1.2c0-1.3,1.1-2.3,2.2-2.7c0.7-0.3,1.8-0.5,2.4,0.2c0.4,0.4,0.5,0.9,0.4,1.5
			c-0.1,0.6-0.5,1-0.9,1.5C282.6,16.3,281.2,16.8,280,16.3L280,16.3z"/>
		<path class="st10" d="M258.4,19.5c-0.2-0.4-0.7-0.7-1.2-0.7c-0.7,0-1.2,0.5-1.5,1.1c-0.7,1.4-1.1,2.9-1.3,4.4
			c0,1.1-0.4,2.3,0.2,3.2c0.3,0.5,0.9,0.7,1.4,0.6c0.7-0.1,1.2-0.6,1.5-1.2c0.3-0.7,0.5-1.5,0.7-2.3l0.3-1.4
			C258.7,22.1,259,20.6,258.4,19.5L258.4,19.5z M256.9,30c-1.3,0.3-2.8,0.2-3.8-0.5c-1.9-1.1-2.9-3.2-2.9-5.4c0-0.4,0-0.6,0.1-1
			c0-0.1,0.1-0.6,0.1-0.7c0.2-0.7,0.2-0.6,0.3-0.9c0.7-1.7,2.1-2.9,3.6-3.9c1.1-0.6,2.3-0.9,3.7-0.9c1.9,0.1,3.6,1.3,4.3,3
			c0.7,1.6,0.7,3.9-0.1,5.5l-0.5,1C260.5,27.9,258.9,29.6,256.9,30L256.9,30z"/>
		<path class="st10" d="M245.7,10.5c1,0.1,2.1,0.3,3,0.7c0,0,0.1,0,0.1,0c1.6,0.6,2.8,1.9,3.4,3.5c0.6,2.1-0.1,4.2-1.5,5.6
			c-0.9,0.8-2,1.4-3.2,1.7c0,0.3,0.1,0.7,0.1,1c0.5,2.8,1.9,5.3,3.9,7.3c2.5,2.5,6,4.3,9.8,3.5c0.8-0.3,1.7-0.9,1.8-1.9
			c0-0.5-0.1-1-0.5-1.3c-0.2-0.2-0.5-0.3-0.8-0.4l0,0c-0.4,0-0.7,0-1.1-0.1l0-0.1l0.3-1.5c0.3-0.1,0.7,0,1-0.2
			c0.2-0.1,0.5-0.3,0.6-0.6l0.3-1.6l1.6-9c0-0.2,0-0.4-0.1-0.5c-0.2-0.2-0.4-0.2-0.7-0.2c-0.2,0-0.3,0.1-0.5,0.1l-0.8-1.4l0,0l4-2.5
			l2.8-1.8l0.2-0.1l0,0l-0.1,0.5l-1.7,9.8l-1,6.2c0,0.5,0.2,0.8,0.6,1.1c0.2,0.1,0.4,0.2,0.7,0.2l0,0.1l-0.2,1.4
			c-1.1,0-2.2,0-3.3,0.1c0.9,0.4,1.9,1.1,2.1,2.1c0.3,1.2-0.3,2.3-1.2,3c-3,2.3-7.8,1.6-11.1,0.4c-3-1.2-5.6-3.1-7.7-5.7
			c-1.8-2.2-2.9-4.7-3.8-7.4c-0.5,0-1-0.1-1.4,0l-0.2,0.7l-0.8,4.6c0,0.6,0.5,1.1,1,1.3c0.3,0.1,0.5,0.1,0.8,0.2
			c-0.1,0.6-0.2,1.3-0.3,1.9l-0.1,0h-9.6c-0.1,0-0.2,0-0.2-0.1c0.1-0.7,0.2-1.4,0.3-2c1.1,0.1,2.4,0,3-1l0.1-0.5l2.8-15.1
			c0,0,0,0,0,0c-1.3-0.1-2.5,0.4-3.5,1.1c0.2,0.3,0.4,0.5,0.6,0.8c0.3,0.5,0.2,1.2-0.2,1.7c-0.5,0.7-1.5,1-2.5,0.8
			c-0.8-0.1-1.5-0.7-1.7-1.5c-0.3-1.4,0.4-2.6,1.5-3.3c0.9-0.7,2.1-0.9,3.2-1.2c2.8-0.6,5.9-0.8,8.9-0.6
			C244.9,10.4,245.3,10.4,245.7,10.5L245.7,10.5z M245.6,12.9c-0.8-0.2-1.8-0.3-2.7-0.3l-0.3,1.6l-1.1,5.9l0,0.4c1,0,2.1-0.1,3-0.4
			c0.4-0.2,0.8-0.4,1.2-0.6c1.2-0.8,2.1-2.2,2.1-3.7c0-0.2,0-0.4-0.1-0.7C247.4,14.1,246.6,13.2,245.6,12.9L245.6,12.9z"/>
		<path class="st10" d="M368,23.4l-3.8,1.8c0,0.2,0.1,0.5,0.2,0.7c0.3,1,1.1,2,2.3,2.1c1,0.1,1.8-0.4,2.3-1.2
			c-0.1-0.2-0.3-0.1-0.5-0.2c-0.3-0.2-0.6-0.6-0.6-1c0-0.7,0.5-1.3,1.1-1.6c0.6-0.2,1.4-0.1,1.8,0.4c0.5,0.5,0.7,1.5,0.4,2.2
			c-0.6,2.1-2.4,3.4-4.5,3.8c-2,0.3-3.9-0.3-5.1-1.9c-1.3-1.6-1.8-4-1.1-6.1c0.6-1.9,1.6-3.7,3.4-4.7c1.5-0.9,3.8-1.3,5.4-0.3
			c1.4,0.9,2.1,2.5,2.3,4.2L368,23.4L368,23.4z M367.5,21.6l0-0.2c-0.1-0.8-0.1-1.7-0.9-2.1c-0.4-0.2-1.1-0.2-1.5,0.1
			c-1.2,0.8-1.4,2.4-1.3,3.9l0.1,0L367.5,21.6L367.5,21.6z"/>
	</g>
</g>
</svg>
