<?xml version="1.0" encoding="utf-8"?>
<!-- Generator: Adobe Illustrator 21.0.0, SVG Export Plug-In . SVG Version: 6.00 Build 0)  -->
<svg version="1.1" id="Capa_1" xmlns="http://www.w3.org/2000/svg" xmlns:xlink="http://www.w3.org/1999/xlink" x="0px" y="0px"
	 viewBox="0 0 557 94" style="enable-background:new 0 0 557 94;" xml:space="preserve">
<style type="text/css">
	.st0{fill:#FFFFFF;}
</style>
<g>
	<path class="st0" d="M61.8,28.7c-0.4,0-1,0-1.3-0.1c-0.1-1.5-0.2-8-0.1-13.7c0.7-0.2,1.1-0.3,1.6-0.3c2.4,0,3.7,2.9,3.7,6.4
		C65.7,25.3,64.1,28.7,61.8,28.7 M64.3,12.8c-1.5,0-2.7,0.3-3.9,1c0-3.5,0-6.7,0.1-7.8l-7.4,1.3V8l0.8,0.1c1,0.2,1.3,0.8,1.5,2.1
		c0.2,2.6,0.1,16.7,0,19c2,0.4,4.1,0.8,6.1,0.8c5.8,0,9.3-3.6,9.3-9.3C70.9,16.1,68,12.8,64.3,12.8z"/>
	<path class="st0" d="M25.5,6.4H6.2v1l1.1,0.1c1.4,0.2,2,1.1,2.2,3.2c0.3,3.9,0.2,11.1,0,14.5c-0.2,2.1-0.8,3.1-2.2,3.2l-1.1,0.2
		v0.9h12.4v-0.9l-1.3-0.2c-1.4-0.1-2-1.1-2.2-3.2c-0.1-1.4-0.2-3.7-0.2-6.6l2.6,0.1c1.6,0,2.4,1.3,2.7,3.2h1v-7.8h-1
		c-0.3,1.9-1.1,3.2-2.7,3.2l-2.6,0.1c0-3.7,0.1-7.2,0.2-9.3h3.8c3,0,4.5,1.9,5.6,5.2l1.1-0.3L25.5,6.4"/>
	<path class="st0" d="M31.4,13.7c-2.4,0-3.1,3.3-3.1,7.6c0,4.2,1.1,7.6,3.3,7.6c2.5,0,3.2-3.3,3.2-7.6
		C34.8,17.1,33.7,13.7,31.4,13.7 M31.7,12.6c5.5,0,8.2,3.7,8.2,8.7c0,4.7-3.1,8.7-8.6,8.7s-8.2-3.7-8.2-8.7
		C23.2,16.5,26.2,12.6,31.7,12.6z"/>
	<path class="st0" d="M77.4,19.2l5.2-0.1c0-2.2-0.3-5.5-2.2-5.5C78.5,13.7,77.5,16.7,77.4,19.2 M72.3,21.3c0-4.5,2.9-8.8,8.4-8.8
		c4.6,0,6.8,3.4,6.8,7.9H77.4c-0.1,4.1,1.9,7,5.8,7c1.8,0,2.6-0.4,3.7-1.2l0.4,0.5c-1.1,1.5-3.5,3.1-6.6,3.1
		C75.8,29.9,72.3,26.4,72.3,21.3z"/>
	<path class="st0" d="M100.6,13.4c-1.3-0.5-3.1-0.9-5-0.9c-4.1,0-6.6,2.4-6.6,5.3s1.9,4.1,4.5,4.9c2.7,1,3.5,1.8,3.5,3.1
		c0,1.3-1,2.5-2.7,2.5c-2.1,0-3.6-1.2-4.8-4.5L88.7,24l0.1,4.8c1.3,0.5,3.7,1,5.8,1c4.3,0,7-2.2,7-5.6c0-2.3-1.2-3.6-4.1-4.7
		c-3.1-1.2-4.2-2-4.2-3.4s1-2.4,2.3-2.4c2,0,3.3,1.2,4.3,4.2l0.8-0.2L100.6,13.4"/>
	<path class="st0" d="M54.2,13c-1.9-1.1-5.2-0.5-6.9,3.4l0.1-3.8L40.1,14v0.7l0.8,0.1c1,0.1,1.4,0.7,1.5,2.1c0.2,2.6,0.1,7.2,0,9.5
		c-0.1,1.3-0.5,2-1.5,2.1l-0.8,0.1v0.9h10.2v-0.9L49,28.5c-1.1-0.1-1.4-0.8-1.5-2.1c-0.2-2.1-0.2-6.3-0.1-8.9c0.5-0.8,3-1.4,5.2,0
		L54.2,13"/>
</g>
<g>
	<path class="st0" d="M536.8,29.9c-1.4,0-2.8,0-4.3,0c-1.1-3.6-2.3-7.2-3.4-10.8c0,0,0,0-0.1,0c0,3.6,0,7.2,0,10.8
		c-1.3,0-2.5,0-3.8,0c-0.1-0.2-0.1-22.3,0-22.6c1.3,0,2.5,0,3.8,0c1.3,4,2.5,8,3.8,12c0,0,0,0,0.1,0c0-0.1,0-0.2,0-0.2
		c0-2.9,0-5.8,0-8.7c0-0.9,0-1.8,0-2.7c0-0.1,0-0.2,0-0.3c1.3,0,2.6,0,3.8,0C536.8,14.8,536.8,22.3,536.8,29.9z"/>
	<path class="st0" d="M491,29.9c-1.3,0-2.6,0-4,0c-0.9-3.5-1.9-7.1-2.8-10.7c0.2-0.1,0.3-0.2,0.5-0.2c0.6-0.2,1-0.6,1.4-1.1
		c0.3-0.4,0.5-0.9,0.5-1.4c0-1.3,0-2.6,0-3.9c0-0.8-0.7-1.4-1.4-1.4c-0.4,0-0.9,0-1.3,0c-0.1,0-0.1,0-0.2,0c0,6.3,0,12.5,0,18.7
		c-1.3,0-2.6,0-3.8,0c0-7.5,0-15.1,0-22.6c0.1,0,0.1,0,0.2,0c1.7,0,3.3,0,5,0c0.8,0,1.5,0.1,2.3,0.5c1.7,0.8,2.7,2,3.1,3.8
		c0.1,0.4,0.1,0.9,0.1,1.4c0,1.2,0,2.5,0,3.7c0,1.3-0.4,2.5-1.3,3.6c-0.2,0.2-0.4,0.4-0.6,0.6c-0.1,0.1-0.2,0.2-0.1,0.3
		c0.6,1.9,1.1,3.8,1.7,5.8c0.3,0.9,0.5,1.8,0.8,2.7C491,29.7,491,29.8,491,29.9z"/>
	<path class="st0" d="M474.8,18.5c0,1.8,0,3.6,0,5.4c0,0.5,0,0.9,0,1.4c0,0.7-0.2,1.4-0.5,2c-0.8,1.6-2.1,2.5-3.8,2.8
		c-1.3,0.2-2.5,0-3.6-0.7c-1.4-0.9-2.3-2.1-2.5-3.7c-0.1-0.4-0.1-0.8-0.1-1.2c0-3.3,0-6.6,0-9.9c0-0.9,0-1.8,0-2.8
		c0-0.6,0.2-1.2,0.4-1.8c0.6-1.4,1.7-2.4,3.2-2.9c1.2-0.4,2.4-0.4,3.6,0.1c1.7,0.7,2.7,1.9,3.2,3.7c0.1,0.3,0.1,0.5,0.1,0.8
		C474.8,14,474.8,16.3,474.8,18.5L474.8,18.5z M471,18.6L471,18.6c0-1.7,0-3.4,0-5.1c0-0.5,0-1,0-1.5s-0.4-1-0.9-1.2
		c-0.7-0.2-1.4,0-1.8,0.7c-0.1,0.1-0.2,0.3-0.2,0.5c0,4.3,0,8.6,0,13c0,0.1,0,0.1,0,0.2c0.3,1.2,1.7,1.4,2.4,0.7
		c0.3-0.3,0.5-0.6,0.4-1c0-0.5,0-0.9,0-1.4C471,21.9,471,20.3,471,18.6z"/>
	<path class="st0" d="M509.7,7.3c1.3,0,2.5,0,3.8,0c0,0.1,0,0.2,0,0.3c0,0.5,0,1.1,0,1.6c0,4.7,0,9.4,0,14.2c0,0.6,0,1.2,0,1.8
		c0,0.5,0.7,1.2,1.2,1.2s1-0.1,1.4-0.5c0.2-0.2,0.3-0.5,0.3-0.8c0-1.3,0-2.7,0-4c0-4.5,0-9,0-13.5c0-0.1,0-0.2,0-0.3
		c0.2-0.1,3.4-0.1,3.8,0c0,0.1,0,0.2,0,0.3c0,0.5,0,0.9,0,1.4c0,4,0,8.1,0,12.1c0,1.4,0,2.7,0,4.1c0,0.9-0.2,1.7-0.7,2.4
		c-0.6,1-1.4,1.8-2.5,2.2c-1.5,0.6-3.1,0.6-4.6-0.2c-1.5-0.8-2.4-2.1-2.8-3.8c-0.1-0.5-0.1-0.9-0.1-1.4c0-5.6,0-11.3,0-16.9
		C509.7,7.4,509.7,7.4,509.7,7.3z"/>
	<path class="st0" d="M551.1,7.3c0,1.3,0,2.5,0,3.8c-1.8,0-3.6,0-5.4,0c-0.1,0.2-0.1,4.9,0,5.2c1.2,0,2.3,0,3.5,0c0,1.3,0,2.6,0,3.9
		c-0.6,0-1.2,0-1.7,0c-0.6,0-1.2,0-1.8,0c0,2,0,3.9,0,5.8c0.1,0,0.2,0,0.3,0c1.6,0,3.3,0,4.9,0c0.1,0,0.2,0,0.3,0c0,1.3,0,2.6,0,3.8
		c-3.1,0-6.2,0-9.3,0c-0.1-0.2-0.1-22.2,0-22.6C542,7.2,550.6,7.2,551.1,7.3z"/>
	<path class="st0" d="M451.1,7.3c3.1,0,6.2,0,9.3,0c0,1.3,0,2.5,0,3.8c-0.3,0-0.5,0-0.8,0s-0.5,0-0.8,0s-0.5,0-0.8,0s-0.5,0-0.8,0
		s-0.5,0-0.8,0s-0.5,0-0.8,0s-0.5,0-0.8,0c0,1.7,0,3.5,0,5.2c1.2,0,2.3,0,3.5,0c0,1.3,0,2.5,0,3.8c-1.2,0-2.3,0-3.5,0
		c0,3.2,0,6.5,0,9.7c-0.2,0.1-3.4,0.1-3.8,0l0,0l0,0c0-0.1,0-0.1,0-0.2C451.1,22.2,451.1,14.8,451.1,7.3L451.1,7.3z"/>
	<path class="st0" d="M498,11.1c-1.1,0-2.2,0-3.3,0c0-1.3,0-2.5,0-3.8c0.2,0,10.2-0.1,10.6,0c0,1.3,0,2.5,0,3.8c-1.1,0-2.2,0-3.4,0
		c0,6.3,0,12.5,0,18.8c-1.3,0-2.6,0-3.8,0l0,0l0,0l0,0l0,0C498.1,23.6,498.1,17.4,498,11.1C498,11.2,498,11.2,498,11.1z"/>
</g>
<g id="layer1_3_" transform="translate(-67.092411,-701.4412)">
	<path id="path13406_3_" class="st0" d="M318.4,780.7c-0.7,0-1.3,0.6-1.3,1.4c0,0.8,0.6,1.4,1.3,1.4c0.7,0,1.3-0.6,1.3-1.4
		C319.7,781.3,319.1,780.7,318.4,780.7 M270.6,783.5h6.1V783l-0.7-0.2c-0.6-0.2-0.9-0.5-0.9-1.3v-8.2h1.4c0.9,0,1.3,0.2,1.4,2
		l0.2,3.8c0.1,3.5,1.1,4.4,2.8,4.4c1.7,0,2.2-1.2,2.2-2.8V780h-0.6v0.5c0,1.1-0.1,1.9-0.6,1.9c-0.4,0-0.4-0.3-0.5-1.7l-0.2-2.6
		c-0.2-3.5-0.7-4.8-3.3-5.3c2.5-0.7,4-2.5,4-5.1c0-3.4-2.7-5-5.2-5h-10.2v0.5l0.6,0.1c1.1,0.2,1.1,0.8,1.1,3.2v11.9
		c0,2.7-0.8,4-2.5,4c-1.5,0-2.4-0.8-2.4-3.7v-14.2c0-0.8,0.3-1.1,0.9-1.2l0.8-0.2v-0.5h-6.3v0.5l0.7,0.2c0.6,0.2,0.8,0.4,0.8,1.3v14
		c0,3.2,1.8,4.9,4.6,4.9c2.8,0,4.2-1.7,4.2-5v-13c0-1.6,0.3-2.2,1.7-2.2c1.1,0,1.5,0.4,1.5,1.4v16.7c0,0.8-0.3,1.1-0.9,1.3l-0.7,0.2
		V783.5L270.6,783.5z M310.9,764.8c0-0.8,0.3-1.1,0.9-1.2l0.8-0.2v-0.6h-6.2v0.5l0.7,0.2c0.6,0.2,0.9,0.4,0.9,1.3v16.8
		c0,0.8-0.3,1.3-1.3,1.3c-1.1,0-1.2-0.4-1.6-2.1l-3.8-18h-1.2l-3.7,17.4c-0.4,2-0.6,2.4-1.4,2.6l-0.5,0.2v0.5h4.3V783l-0.6-0.1
		c-0.9-0.2-1.1-0.7-0.7-2.9l2.2-11.1l2.4,11.8c0.4,1.7,0.3,2-1,2.3l-0.6,0.1v0.5h15.9v-6.8h-0.6c-0.3,3.2-0.9,6.1-3.5,6.1h-1.2
		L310.9,764.8L310.9,764.8z M301.5,777.9v-0.8h-4.1l-0.1,0.8H301.5z M284.8,765.1v14.4c0,2.2,0,3.2-1.1,3.4l-0.5,0.1v0.5h4.4V783
		c-1.9-0.3-1.9-0.9-1.9-3.3V766l-0.7-0.7l7.4,18.1h1.3v-16.7c0-2.5,0-3,1.2-3.3l0.4-0.1v-0.5h-4.5v0.5l0.5,0.1
		c1.5,0.3,1.5,0.9,1.5,3.2V777l0.3-0.1l-5.6-14.2h-4.3v0.5l0.4,0.1C284,763.6,284.3,764.1,284.8,765.1 M275.1,763.5h1.2
		c1.2,0,2.3,0.8,2.3,4.7c0,4-0.8,4.4-2.5,4.4h-1V763.5z M255.2,772.9c0,8.7-0.7,9.9-2.3,9.9s-2.3-1.2-2.3-9.8c0-8.3,0.8-9.5,2.3-9.5
		C254.4,763.4,255.2,764.6,255.2,772.9 M258.4,773.1c0-5.7-1.8-10.5-5.6-10.5c-3.8,0-5.5,4.7-5.5,10.5s1.8,10.5,5.5,10.5
		C256.7,783.6,258.4,778.9,258.4,773.1 M245.6,764.8c0-0.8,0.2-1.1,0.8-1.3l0.7-0.2v-0.5h-6.2v0.5l0.8,0.2c0.6,0.2,0.9,0.4,0.9,1.2
		v14.4c0,2-0.2,3.6-1.7,3.6c-1,0-1.7-0.8-1.7-1.3c0.1-0.9,1.7-0.9,1.8-2.4c0.1-1.1-0.6-1.5-1.2-1.6c-0.9-0.1-2.1,0.7-2.1,2.2
		c0,2,1.3,3.8,3.5,3.8c2.5,0,4.4-1.7,4.4-4.9V764.8L245.6,764.8z M145.3,764.8c0-0.8,0.3-1.1,0.9-1.2l0.8-0.2v-0.6h-6.2v0.5l0.7,0.2
		c0.6,0.2,0.9,0.4,0.9,1.3v16.8c0,0.8-0.3,1.3-1.3,1.3c-1.1,0-1.3-0.4-1.7-2.1l-3.8-18h-1.2l-3.7,17.4c-0.4,2-0.6,2.4-1.4,2.6
		l-0.5,0.2v0.5h4.3V783l-0.6-0.1c-0.9-0.2-1.1-0.7-0.7-2.9l2.2-11.2l2.4,11.9c0.3,1.7,0.3,2-1,2.3l-0.6,0.1v0.5h15.9v-6.8H150
		c-0.3,3.2-0.9,6.1-3.5,6.1h-1.2V764.8z M228.9,763.5h0.7c1.9,0,2.5,3,2.7,6.1h0.6v-6.8H222v6.8h0.6c0.2-3.2,0.8-6.1,2.7-6.1h0.7v18
		c0,0.8-0.3,1.1-0.9,1.3l-0.8,0.2v0.5h6.5V783l-0.9-0.2c-0.6-0.2-0.9-0.3-0.9-1.3L228.9,763.5L228.9,763.5z M215.2,773.1h0.9
		c1.4,0,1.7,0.5,2,3.8h0.6v-8.3h-0.6c-0.3,2.6-0.7,3.7-2,3.8h-1v-8.9h2.1c2.3,0,2.8,2.9,3.2,6.1h0.6v-6.8h-10.4v0.5l0.7,0.2
		c0.7,0.2,0.9,0.6,0.9,1.3v16.7c0,0.8-0.3,1.1-0.9,1.3l-0.7,0.2v0.5h10.7v-6.8h-0.6c-0.4,3.1-0.8,6.1-3.5,6.1h-2.1L215.2,773.1
		L215.2,773.1z M203.8,773.1h0.9c1.4,0,1.7,0.5,2,3.8h0.6v-8.3h-0.6c-0.3,2.6-0.7,3.7-2,3.8h-1v-8.9h2.1c2.3,0,2.8,3,3.2,6.1h0.6
		v-6.8H199v0.5l1,0.2c0.7,0.2,0.9,0.6,0.9,1.3v16.7c0,0.8-0.3,1.1-0.9,1.3l-0.7,0.2v0.5H210v-6.8h-0.6c-0.4,3.1-0.8,6.1-3.5,6.1
		h-2.1L203.8,773.1L203.8,773.1z M191.5,763.5h0.9c1.2,0,2.3,0.8,2.3,4.7s-0.8,4.4-2.5,4.4h-0.7V763.5z M187,783.5h6.1V783l-0.7-0.2
		c-0.6-0.2-0.9-0.5-0.9-1.3v-8.2h1.1c0.9,0,1.3,0.4,1.4,2l0.1,3.8c0.1,3.5,1.1,4.4,2.8,4.4s2.2-1.2,2.2-2.8V780h-0.6v0.5
		c0,1.1-0.1,1.9-0.6,1.9c-0.4,0-0.4-0.3-0.5-1.7l-0.2-2.6c-0.2-3.6-0.7-4.8-3.3-5.3c2.5-0.7,4-2.5,4-5.1c0-3.4-2.7-5-5.2-5H187v0.5
		l0.7,0.2c0.6,0.2,0.9,0.4,0.9,1.3v16.7c0,0.8-0.3,1.1-0.9,1.3l-0.7,0.2V783.5L187,783.5z M182.4,763.5h0.7c1.9,0,2.5,3,2.7,6.1h0.6
		v-6.8h-10.9v6.8h0.6c0.2-3.2,0.8-6.1,2.7-6.1h0.7v18c0,0.8-0.3,1.1-0.9,1.3l-0.8,0.2v0.5h6.3V783l-0.8-0.2
		c-0.8-0.2-0.9-0.8-0.9-1.3L182.4,763.5L182.4,763.5z M175.4,778.1c0-6.2-6.8-7.8-6.8-12.2c0-1,0.4-2.4,1.9-2.4c2.2,0,3,2.8,3.3,6.2
		h0.6v-6.8H174c-0.2,0.7-0.4,1-0.8,1c-0.7,0-1.1-1.1-2.7-1.1c-2.6,0-4.3,2.1-4.3,4.9c0,5.1,6.8,7.2,6.8,11.9c0,2.1-1,3.3-2.3,3.3
		c-2,0-3.3-2.4-3.7-6.2h-0.6v6.8h0.4c0.3-1,0.7-1.1,1-1.1c0.6,0,1.2,1.2,2.9,1.2C173.4,783.6,175.4,781.3,175.4,778.1 M155.8,764.8
		c0-0.8,0.3-1.1,0.9-1.2l0.8-0.2v-0.6h-6.2v0.5l0.7,0.2c0.6,0.2,0.9,0.4,0.9,1.3v16.7c0,0.8-0.3,1.1-0.9,1.3l-0.7,0.2v0.5h9.8v-6.8
		h-0.6c-0.3,3.2-0.9,6.1-3.5,6.1h-1.2V764.8z M135.9,777.9v-0.8h-4.1l-0.1,0.8H135.9L135.9,777.9z M118.5,783.5h1.2l2.8-14.8h-0.4
		l3.1,14.8h1.1l3.7-17.4c0.4-1.8,0.6-2.5,1.3-2.6l0.6-0.1v-0.5h-4.2v0.5l0.6,0.1c0.9,0.2,1.1,0.7,0.7,2.9l-2.4,11.7h0.4l-2.4-12.3
		c-0.2-1.2-0.4-2.1,0.6-2.3l0.7-0.1v-0.5H120v0.5l0.4,0.1c0.6,0.1,0.7,0.5,0.9,1.7l0.9,4.5L122,767l-2.1,10.9h0.3l-2.4-12
		c-0.3-1.2-0.4-2.2,0.6-2.3l0.5-0.1V763H113v0.5l0.6,0.1c0.5,0.2,0.8,0.4,1.2,2.1L118.5,783.5L118.5,783.5z M102.5,773.1h0.9
		c1.4,0,1.7,0.5,2,3.8h0.6v-8.3h-0.6c-0.3,2.6-0.7,3.7-2,3.8h-1v-8.9h2.1c2.3,0,2.8,3,3.2,6.1h0.6v-6.8H97.9v0.5l0.7,0.2
		c0.7,0.2,0.9,0.6,0.9,1.3v16.7c0,0.8-0.3,1.1-0.9,1.3l-0.7,0.2v0.5h10.7v-6.8H108c-0.4,3.1-0.8,6.1-3.5,6.1h-2.1L102.5,773.1
		L102.5,773.1z M83.6,783.5h6.2V783l-0.7-0.2c-0.5-0.1-0.9-0.5-0.9-1.3v-8.2h4.5v8.2c0,0.8-0.4,1.2-0.9,1.3l-0.7,0.2v0.5h6.2V783
		l-0.7-0.2c-0.6-0.2-0.9-0.5-0.9-1.3v-16.7c0-0.8,0.3-1.1,0.9-1.3l0.7-0.2v-0.5h-6.2v0.5l0.7,0.2c0.5,0.2,0.9,0.4,0.9,1.2v7.7h-4.5
		v-7.7c0-0.8,0.3-1.1,0.9-1.2l0.7-0.2v-0.5h-6.2v0.5l0.7,0.2c0.6,0.2,0.9,0.4,0.9,1.3v16.7c0,0.8-0.3,1.1-0.9,1.3l-0.7,0.2V783.5
		L83.6,783.5z M79,763.5h0.7c1.9,0,2.5,3,2.7,6.1H83v-6.8H72.1v6.8h0.6c0.2-3.2,0.8-6.1,2.7-6.1H76v18c0,0.8-0.3,1.1-0.9,1.3
		l-0.8,0.2v0.5h6.5V783l-0.9-0.2c-0.6-0.2-0.9-0.3-0.9-1.3L79,763.5L79,763.5z"/>
</g>
<g>
	<path class="st0" d="M296.1,61.3h6.4c3.5,0,4.8,0.3,6.4,2.2c1,1,1.3,2.2,1.3,3.5c0,1.6-0.6,2.9-2.5,3.8c3.5,1.3,3.5,4.1,3.5,5.1
		c0,1.6-0.6,3.5-1.9,4.4c-1.9,1.6-2.9,1.9-6.4,1.9h-6.7L296.1,61.3L296.1,61.3z M301.5,69.2h1.6c0.6,0,1.9,0,1.9-1.6
		s-1.3-1.6-1.9-1.6h-1.6V69.2L301.5,69.2z M301.5,77.5h2.2c0.6,0,2.2,0,2.2-1.9s-1.6-1.9-2.2-1.9h-2.2V77.5L301.5,77.5z"/>
	<polygon class="st0" points="312.2,61.3 317,61.3 317,82.2 312.2,82.2 	"/>
	<path class="st0" d="M326.9,66c5.7,0,8.3,4.4,8.3,8.3c0,3.8-2.5,8.6-8.3,8.6c-5.7,0-8.6-4.8-8.6-8.6C318.3,70.5,321.1,66,326.9,66
		L326.9,66z M326.9,78.4c1.9,0,3.5-1.6,3.5-4.1c0-2.2-1.6-3.8-3.5-3.8c-2.2,0-3.8,1.6-3.8,3.8C323,76.8,324.6,78.4,326.9,78.4
		L326.9,78.4z"/>
	<path class="st0" d="M344.6,66c5.7,0,8.6,4.4,8.6,8.3c0,3.8-2.9,8.6-8.6,8.6s-8.6-4.8-8.6-8.6C336.1,70.5,338.9,66,344.6,66
		L344.6,66z M344.6,78.4c1.9,0,3.8-1.6,3.8-4.1c0-2.2-1.9-3.8-3.8-3.8s-3.8,1.6-3.8,3.8C340.8,76.8,342.7,78.4,344.6,78.4
		L344.6,78.4z"/>
	<path class="st0" d="M354.2,66.7h4.4v1.6l0,0c0.3-0.6,1.6-2.2,4.4-2.2c1.3,0,3.2,0.6,4.4,2.9c1-1.6,2.5-2.9,5.1-2.9
		c1,0,2.9,0.3,4.1,1.6c1.3,1.6,1.6,2.5,1.6,6v8.6h-4.8V74c0-1.3,0-3.5-2.2-3.5c-2.9,0-2.9,2.2-2.9,3.2v8.6H364v-8.6
		c0-0.6,0-3.2-2.5-3.2S359,73,359,74v8.3h-4.8V66.7L354.2,66.7z"/>
	<path class="st0" d="M380.2,61.3h4.8V68c1.6-1.9,3.8-1.9,4.4-1.9c3.5,0,7.9,2.2,7.9,8.3c0,5.7-4.1,8.6-7.9,8.6
		c-2.2,0-3.8-1.3-4.4-2.2h-0.3v1.6h-4.4V61.3H380.2z M388.8,78.4c2.2,0,3.8-1.9,3.8-4.1c0-1.9-1.6-3.8-3.8-3.8
		c-2.5,0-3.8,1.9-3.8,3.8C385,76.5,386.2,78.4,388.8,78.4L388.8,78.4z"/>
	<path class="st0" d="M414.8,77.5c-1,1.6-1.9,2.9-3.2,3.8c-1.6,1-2.9,1.6-4.8,1.6c-4.4,0-8.3-3.8-8.3-8.6c0-4.1,3.5-8.3,8.3-8.3
		s8.3,3.8,8.3,8.6c0,0.6,0,1,0,1.3h-11.7c0.3,1.9,1.9,2.9,3.5,2.9s2.2-0.6,2.9-1.3H414.8L414.8,77.5z M410.7,72.7
		c-0.3-1-1.3-2.9-3.8-2.9c-2.2,0-3.2,1.9-3.5,2.9H410.7L410.7,72.7z"/>
	<path class="st0" d="M417,66.7h4.4v1.6l0,0c0.6-0.3,2.5-1.9,4.4-1.6v4.4c-1.9,0-4.1,0-4.1,2.5v8.6H417V66.7L417,66.7z"/>
	<path class="st0" d="M443.7,80.3c0,2.2-0.3,5.4-1,6.7c-1.3,1.9-4.1,3.8-7.9,3.2c-5.4-0.3-7-2.9-7.3-5.4h5.1
		c0.6,1.6,2.2,1.6,2.5,1.6c2.5,0,3.8-0.3,3.8-5.4v-0.3l0,0c-0.6,0.6-1.9,2.2-4.4,2.2c-4.1,0-7.9-3.5-7.9-8.3c0-5.4,3.8-8.6,7.9-8.6
		c1.9,0,3.5,0.6,4.4,1.9l0,0v-1.3h4.8V80.3L443.7,80.3z M435.1,78.4c2.2,0,3.8-1.6,3.8-3.8c0-2.5-1.6-4.1-3.8-4.1
		c-1.9,0-3.8,1.6-3.8,3.8C431.3,76.8,433.2,78.4,435.1,78.4L435.1,78.4z"/>
</g>
<g>
	<g>
		<path class="st0" d="M536.5,54.3L536.5,54.3L536.5,54.3L536.5,54.3c-0.4,0-0.6,0.2-0.6,0.6c-0.2,2-0.3,4.1-0.6,6l0,0l0,0l0,0l0,0
			c0.2,0,0.3,0,0.4,0.1l0,0c0.3-2,1.1-4.9,1.2-5.8c0-0.1,0.1-0.3,0.1-0.4C537,54.5,536.8,54.4,536.5,54.3z"/>
		<path class="st0" d="M516.9,55.1c0.1,1.1,0.1,2.1,0.1,3.2c-1.3,0-2.5,0-3.8,0l0,0c0-1.1,0-2.1,0.1-3.2c-0.4,0.1-0.7,0.1-1.1,0
			c0.1,2.3,0.1,4.5,0,6.8c0.4-0.1,0.7-0.1,1.1,0l0,0l0,0c-0.1-1.1-0.1-2.1-0.1-3.2l0,0c1.3,0,2.5,0,3.8,0c0,1,0,2.1-0.1,3.2l0,0l0,0
			c0.4-0.1,0.8-0.1,1.1,0c-0.1-2.3-0.1-4.5,0-6.8C517.6,55.2,517.3,55.2,516.9,55.1z"/>
		<path class="st0" d="M508.8,55.1L508.8,55.1L508.8,55.1c-0.3,0.1-0.5,0.1-0.8,0l0,0c-0.9,2.3-2,4.9-2.9,6.8l0,0l0,0l0,0l0,0l0,0
			l0,0c0.4-0.1,0.8-0.1,1.1,0l0,0l0,0c0.2-0.6,0.5-1.3,0.8-2l0,0c0.9,0,1.9,0,2.8,0l0,0c0.3,0.7,0.5,1.3,0.8,2l0,0
			c0.4-0.1,0.8-0.1,1.1,0l0,0C511.1,60.6,509.7,57.3,508.8,55.1z M508.4,56.3c0.4,1,0.8,2.1,1.2,3.1l0,0c-0.8,0-1.6,0-2.4,0l0,0
			C507.7,58.2,508.2,57,508.4,56.3z"/>
		<path class="st0" d="M506.8,54.2L506.8,54.2L506.8,54.2c-0.4,0.1-0.8,0.1-1.1,0c-0.3,0.6-1.5,2.5-2.3,3.8
			c-0.8-1.3-1.7-2.7-2.3-3.8c-0.5,0.1-0.7,0.1-1.1,0c0.9,1.4,2.4,4,2.9,4.9l-0.1,3.6c0,0,0.3-0.1,0.5-0.1s0.5,0.1,0.5,0.1l-0.1-3.6
			C504.8,57.5,506.4,54.8,506.8,54.2z"/>
		<path class="st0" d="M522,55c-2.4,0-3.7,1.5-3.7,3.5c0,2.2,1.4,3.5,3.6,3.5c2.5,0,3.7-1.5,3.7-3.4C525.7,56.3,524.2,55,522,55z
			 M522,61.6c-1.6,0-2.5-1.1-2.5-3.1c0-2.2,1.2-3.1,2.5-3.1c0,0,0,0,0.1,0c1.5,0,2.5,1,2.5,3.1C524.5,60.6,523.5,61.6,522,61.6z"/>
		<path class="st0" d="M530.3,54.6c-2.4,0-4.2,1.4-4.2,3.9c0,2.1,1.2,3.9,4.2,3.9c2.6,0,4.2-1.4,4.2-3.9
			C534.5,56.2,532.9,54.6,530.3,54.6z M527.2,58.5c0-2.7,1.6-3.4,3.1-3.4c1.8,0,3.1,1.1,3.1,3.5c0,2.6-1.6,3.5-3.1,3.5
			C528.6,62,527.2,61,527.2,58.5z"/>
		<path class="st0" d="M535.2,61.7c-0.4,0-0.5,0.3-0.5,0.6s0.3,0.5,0.6,0.5c0.2,0,0.5-0.1,0.5-0.6C535.8,61.9,535.6,61.7,535.2,61.7
			z"/>
	</g>
	<g>
		<polygon class="st0" points="484.4,66.2 490.8,66.2 490.8,82.4 493.7,82.4 493.7,66.2 499.9,66.2 499.9,65.1 484.4,65.1 		"/>
		<polygon class="st0" points="502.8,65.1 502.6,65.1 502.6,82.4 505.4,82.4 505.4,82.4 514.6,82.4 514.6,81.3 505.4,81.3 
			505.4,73.6 511.6,73.6 511.6,72.4 505.4,72.4 505.4,66.2 514.6,66.2 514.6,65.1 		"/>
		<polygon class="st0" points="548.7,65.1 548.7,73 539.9,73 539.9,65.1 537,65.1 537,82.4 539.9,82.4 539.9,74.1 548.7,74.1 
			548.7,82.4 551.5,82.4 551.5,65.1 		"/>
		<path class="st0" d="M526.7,81.6c-3.7,0-6.8-3.5-6.8-7.8s3-7.8,6.8-7.8c1.8,0,3.5,0.8,4.7,2.2l1.1-0.8c-1.6-1.6-3.8-2.7-6.3-2.7
			c-1.3,0-2.6,0.3-3.7,0.8c-3.5,1.2-6.1,4.5-6.1,8.4c0,4.9,4,8.9,8.9,8.9c0.2,0,0.4,0,0.5,0c0.2,0,0.4,0,0.5,0c2.8,0,5.4-1.3,7-3.4
			l-1.1-0.9C530.9,80.3,528.9,81.6,526.7,81.6z"/>
	</g>
</g>
<g>
	<rect x="152.2" y="14.7" class="st0" width="4.9" height="14.8"/>
	<rect x="158.1" y="8.9" class="st0" width="4.9" height="20.6"/>
	<rect x="164" y="8.9" class="st0" width="4.9" height="20.6"/>
	<path class="st0" d="M154.7,8.1c-1.6,0-2.8,1.3-2.8,2.8c0,1.6,1.3,2.8,2.8,2.8c1.6,0,2.8-1.3,2.8-2.8S156.2,8.1,154.7,8.1"/>
	<path class="st0" d="M143.9,25c-1.6,0-2.8-1.3-2.8-2.8c0-1.6,1.3-2.8,2.8-2.8c1.6,0,2.8,1.3,2.8,2.8S145.5,25,143.9,25 M144.4,14.5
		c-1.3,0-2.4,0.3-3.4,1V8.9h-4.9v20.6h4.8v-1.4c1.2,1.1,2.4,1.6,3.9,1.6c3.7,0,6.8-3.3,6.8-7.6C151.7,17.6,148.5,14.5,144.4,14.5"/>
	<path class="st0" d="M221.4,16.2v-1.5h-4.9v14.8h4.9v-7.1c0-1.8,1-2.8,2.7-2.8h0.6v-5.1C223.2,14.6,222.1,15.1,221.4,16.2"/>
	<path class="st0" d="M207.4,24.9c-1.6,0-2.8-1.3-2.8-2.8c0-1.6,1.3-2.8,2.8-2.8c1.6,0,2.8,1.3,2.8,2.8S208.9,24.9,207.4,24.9
		 M192.7,24.8c-1.6,0-2.8-1.3-2.8-2.8c0-1.6,1.3-2.8,2.8-2.8c1.6,0,2.8,1.3,2.8,2.8C195.6,23.5,194.3,24.8,192.7,24.8 M177.7,25
		c-1.6,0-2.8-1.3-2.8-2.8c0-1.6,1.3-2.8,2.8-2.8c1.6,0,2.8,1.3,2.8,2.8S179.2,25,177.7,25 M210.6,15.8c-0.7-0.7-2.3-1.4-3.5-1.4
		c-3.7,0-6.3,2.4-7,6c-0.7-3.5-3.7-6.1-7.4-6.1s-6.8,2.7-7.4,6.2c-0.6-3.7-3.5-6.1-7.1-6.1c-1.3,0-2.4,0.3-3.4,1V8.9h-4.9v20.6h4.8
		v-1.4c1.2,1.1,2.4,1.6,3.9,1.6c3.3,0,6.1-2.6,6.7-6.1c0.7,3.5,3.7,6.1,7.4,6.1s6.6-2.6,7.4-6c0.6,3.7,3.6,6,7.1,6
		c1.2,0,2.5-0.4,3.4-1.1v0.8h4.9V23c0-0.3,0-0.5,0-0.8s0-0.5,0-0.8v-6.8h-4.9V15.8z"/>
	<path class="st0" d="M232.6,25c-1.6,0-2.8-1.3-2.8-2.8c0-1.6,1.3-2.8,2.8-2.8c1.6,0,2.8,1.3,2.8,2.8C235.4,23.7,234.1,25,232.6,25
		 M235.5,8.9v6.6c-1-0.7-2-1-3.4-1c-4.1,0-7.2,3.1-7.2,7.7c0,4.3,3.1,7.6,6.8,7.6c1.5,0,2.8-0.5,3.9-1.6v1.4h4.8V8.9H235.5z"/>
</g>
<path class="st0" d="M324.7,26.6c0.3,0.4,0.8,0.6,1.4,0.6v0.1l-0.2,1.4h-7.3l0,0l0.2-1.4c0.7,0,1.5-0.2,1.8-0.9l0.1-0.4l0.7-3.9
	c0-0.3,0-0.5-0.2-0.7s-0.7-0.1-0.9,0c-0.3-0.5-0.6-1.1-0.8-1.6v-0.1l6.4-3.9l0.5-0.3l0,0v0.4l-1.7,9.7
	C324.4,25.8,324.4,26.3,324.7,26.6L324.7,26.6z"/>
<path class="st0" d="M318.4,17c-0.2,1.1-0.4,2.1-0.6,3.2l-0.7,4c-0.1,0.6-0.3,1.2-0.2,1.9c0.1,0.4,0.5,0.8,0.9,0.9
	c0.1,0,0.2,0,0.2,0.1l-0.2,1.4h-0.2l-6.8-0.1v-0.1l0.2-1.5c0.7-0.1,1.5-0.2,1.7-0.9l0.1-0.6l1.6-9.3c0-0.4,0.1-0.8-0.3-1
	c-0.3-0.2-0.7-0.1-1,0H313l-0.8-1.4v-0.1l7.2-4.6h0.1c0,0.8-0.3,1.6-0.4,2.4L318.4,17L318.4,17z"/>
<path class="st0" d="M384.8,18c-0.3-0.4-0.8-0.6-1.3-0.5c-0.8,0.1-1.2,0.8-1.5,1.5c-0.6,1.5-0.9,3.2-1.1,4.9c0,1-0.1,2.1,0.5,2.8
	c0.4,0.4,1,0.4,1.5,0.3c0.6-0.2,1-0.9,1.2-1.5c0.5-1.3,0.7-2.7,0.9-4.1C385.1,20.2,385.3,18.9,384.8,18L384.8,18z M395.4,28.9
	L395.4,28.9l0.2-1.7c0.6,0,1.1-0.2,1.4-0.7c0.2-0.4,0.2-0.8,0.3-1.2l0.7-4.6c0-0.5-0.2-0.9-0.6-1.1c-0.6-0.3-1.3-0.2-1.8,0.2
	c-0.6,0.4-0.9,1.1-1.1,1.8l-0.8,4.5c0,0.4,0.3,0.7,0.7,0.9c0.1,0,0.3,0,0.4,0.1c-0.1,0.6-0.2,1.2-0.3,1.8h-0.1h-6.9
	c0-0.6,0.2-1.2,0.2-1.7l0,0c0.7,0,1.3,0,1.8-0.5l0.2-0.4c0.3-1.5,0.5-3.1,0.8-4.6c0-0.3-0.1-0.5-0.4-0.6c-0.6-0.2-1.2,0.3-1.6,0.7
	c-0.2,1.2-0.5,2.3-1,3.4c-0.5,1-1.1,1.8-2,2.7c-1.1,0.9-2.4,1.4-3.9,1.2c-1.6-0.1-2.9-1.1-4-2.2c-0.7,0.5-1.4,1-2.1,1.4
	c-1.5,0.8-3.3,1.5-5,0.9c-1.6-0.8-1.8-2.7-1.6-4.4l0.1-0.9l0.9-5l0,0c-0.6,0-1.2,0-1.8,0c0.1-0.5,0.2-1,0.3-1.4
	c2.1-1.3,4.1-2.7,6.2-4v0.3l-0.5,3h0.1h3.8v0.1l-0.9,2.4c-0.2,0-0.3-0.1-0.4-0.2l-0.4-0.1h-2.4l-0.1,0.1l-1,5.8
	c0,0.7,0.2,1.3,0.8,1.6c0.8,0.3,1.5-0.2,2.1-0.5l1.1-0.7c-0.6-2.7,0.2-5.6,2.1-7.4c1.7-1.7,4.3-2.9,6.8-1.9c1.6,0.7,2.4,2.1,2.9,3.7
	h0.1l4.8-3.1c0.6-0.4,1.2-0.8,1.9-1.2v0.1c-0.1,0.9-0.3,1.7-0.4,2.5c0.3-0.1,0.5-0.4,0.8-0.6c1.3-1.1,3.2-2.5,5.1-1.5
	c1,0.7,1.4,2.1,1.2,3.5l-0.4,2.2l-0.7,3.9c-0.1,0.5-0.2,1.1,0.2,1.5c0.3,0.3,0.7,0.4,1.2,0.4l0,0c-0.1,0.6-0.2,1.1-0.3,1.7
	L395.4,28.9L395.4,28.9z"/>
<path class="st0" d="M369.1,15.7h-1.8c0.1-1,0.3-2.2-0.3-2.9c-0.6-0.9-1.7-1.3-2.8-1.2c-0.9,0.1-1.7,0.7-2,1.6
	c-0.2,0.7-0.1,1.5,0.2,2.1c0.8,1.4,2,2.5,3.1,3.7c1.6,1.9,3.6,3.7,3.3,6.5c-0.2,2.3-1.5,4.6-3.7,5.5c-1.4,0.6-3.3,0.6-4.7,0.1
	c-1-0.3-1.9-0.8-2.9-1c-0.3,0-0.7,0.1-0.8,0.4c-0.1,0.1-0.1,0.3-0.2,0.4c-0.5,0.2-0.9,0.4-1.4,0.5l-0.5-1.3l-1.8-5.2l0,0
	c0.6-0.2,1.3-0.4,1.9-0.6c0.8,2.3,2.9,4.2,5.5,4.3c1.2,0.1,2.3-0.4,3-1.3s0.7-2.4,0.1-3.4c-1.4-2.8-4.6-4.5-5.3-7.7
	c-0.3-1-0.2-2.2,0.1-3.1c0.6-1.8,2.2-3.3,4.1-3.6c0.8-0.2,1.8-0.2,2.6,0c0.9,0.2,1.7,0.6,2.6,0.7c0.5,0,0.9-0.2,1.1-0.6l0.1-0.2h1.7
	c0,0.1,0,0.3,0,0.4L369.1,15.7L369.1,15.7L369.1,15.7z"/>
<path class="st0" d="M348.7,30.6c-0.2-0.3-0.5-0.5-0.8-0.5c-0.9-0.1-1.8,0.2-2.6,0.2c-1.3,0-2.5-0.2-3.6-0.8c-0.6,0.6-1,1.3-1.2,2.2
	c0,0.6,0.2,1.2,0.7,1.5c0.8,0.5,1.8,0.7,2.9,0.6c1.5-0.2,2.9-0.7,4.1-1.5c0.3-0.3,0.5-0.5,0.6-0.9C348.8,31.1,348.8,30.8,348.7,30.6
	L348.7,30.6z M349.2,18.2c-0.1-0.5-0.5-0.8-0.9-0.9s-0.8,0-1.1,0.2c-0.8,0.6-1,1.6-1.3,2.5c-0.1,1-0.4,2.2,0.2,3
	c0.3,0.3,0.6,0.5,1.1,0.5c0.6,0,1-0.4,1.3-0.8c0.3-0.6,0.5-1.2,0.6-1.9C349.3,20,349.4,19.1,349.2,18.2L349.2,18.2z M355.6,18.5
	c-0.9,0-1.8,0.3-2.2,1c-0.6,0.9-0.7,2-1.2,3c-0.9,1.7-2.6,2.9-4.6,3c-1,0.1-1.9-0.2-2.8-0.4c-0.3,0.4-0.3,1-0.1,1.5
	c0.4,0.6,1.2,0.5,1.9,0.5c1.6-0.1,3.3-0.4,5-0.1c0.8,0.2,1.7,0.7,1.8,1.7c0.1,1.3-0.7,2.3-1.5,3.3c-1.7,1.9-3.8,3.3-6.3,3.7
	c-2.7,0.5-5.6,0-7.7-1.5c-0.6-0.4-1-1-0.9-1.8c0.4-1.9,2-2.7,3.5-3.6c-0.8,0-0.8,0-0.8,0h-6l0,0l0.2-1.4c0.6-0.1,1.2-0.3,1.6-0.9
	l0.1-0.4l0.8-5c0-0.4,0-0.9-0.3-1.2c-0.3-0.3-0.8-0.4-1.2-0.3c-1.1,0.4-1.9,1.5-2.1,2.7l-0.6,3.8c0,0.3,0.1,0.6,0.3,0.8
	c0.2,0.2,0.5,0.3,0.8,0.4v0.1l-0.2,1.5h-6.6c0-0.5,0.2-1,0.2-1.5c0.6-0.1,1.2-0.2,1.4-0.7l0.1-0.4l0.7-4.3c0-0.3-0.1-0.6-0.4-0.7
	s-0.6-0.1-0.9,0.1h-0.1l-0.8-1.4l0.1-0.1l6.9-4.3l0,0v0.3c-0.2,1-0.4,2-0.5,3c0.3-0.2,0.4-0.4,0.7-0.6c1.2-1.2,2.5-2.4,4.3-2.4
	c0.9,0.1,1.7,0.5,2.1,1.3c0.2,0.5,0.2,1.1,0.2,1.7l-0.9,5.9l-0.2,1.4c0,0.4,0.2,0.7,0.5,0.9c0.2,0.1,0.6,0.2,0.9,0.2
	c0.2-0.7,0.5-1.4,1.2-1.9c0.4-0.2,0.8-0.4,1.2-0.6c-0.2-0.3-0.5-0.7-0.8-1c-1-1.3-0.9-3.6-0.1-5c0.8-1.6,2.4-2.7,4.2-3
	c1.8-0.3,3.7,0,5.1,1.2c0.4,0.4,0.8,0.8,1.2,1.2c0.6-1,1.5-2,2.7-2.3c0.5-0.1,0.9-0.2,1.4-0.2l0,0L356,19
	C355.9,18.6,355.8,18.5,355.6,18.5L355.6,18.5z"/>
<path class="st0" d="M322.8,14.6c-0.5-0.2-0.7-0.7-0.7-1.2c0-1.3,1.1-2.3,2.2-2.7c0.7-0.3,1.8-0.5,2.4,0.2c0.4,0.4,0.5,0.9,0.4,1.5
	s-0.5,1-0.9,1.5C325.3,14.7,324,15.1,322.8,14.6L322.8,14.6z"/>
<path class="st0" d="M301.2,17.8c-0.2-0.4-0.7-0.7-1.2-0.7c-0.7,0-1.2,0.5-1.5,1.1c-0.7,1.4-1.1,2.9-1.3,4.4c0,1.1-0.4,2.3,0.2,3.2
	c0.3,0.5,0.9,0.7,1.4,0.6c0.7-0.1,1.2-0.6,1.5-1.2c0.3-0.7,0.5-1.5,0.7-2.3l0.3-1.4C301.4,20.5,301.8,19,301.2,17.8L301.2,17.8z
	 M299.7,28.4c-1.3,0.3-2.8,0.2-3.8-0.5c-1.9-1.1-2.9-3.2-2.9-5.4c0-0.4,0-0.6,0.1-1c0-0.1,0.1-0.6,0.1-0.7c0.2-0.7,0.2-0.6,0.3-0.9
	c0.7-1.7,2.1-2.9,3.6-3.9c1.1-0.6,2.3-0.9,3.7-0.9c1.9,0.1,3.6,1.3,4.3,3c0.7,1.6,0.7,3.9-0.1,5.5l-0.5,1
	C303.3,26.3,301.7,27.9,299.7,28.4L299.7,28.4z"/>
<path class="st0" d="M288.5,8.8c1,0.1,2.1,0.3,3,0.7h0.1c1.6,0.6,2.8,1.9,3.4,3.5c0.6,2.1-0.1,4.2-1.5,5.6c-0.9,0.8-2,1.4-3.2,1.7
	c0,0.3,0.1,0.7,0.1,1c0.5,2.8,1.9,5.3,3.9,7.3c2.5,2.5,6,4.3,9.8,3.5c0.8-0.3,1.7-0.9,1.8-1.9c0-0.5-0.1-1-0.5-1.3
	c-0.2-0.2-0.5-0.3-0.8-0.4l0,0c-0.4,0-0.7,0-1.1-0.1v-0.1l0.3-1.5c0.3-0.1,0.7,0,1-0.2c0.2-0.1,0.5-0.3,0.6-0.6l0.3-1.6l1.6-9
	c0-0.2,0-0.4-0.1-0.5c-0.2-0.2-0.4-0.2-0.7-0.2c-0.2,0-0.3,0.1-0.5,0.1l-0.8-1.4l0,0l4-2.5l2.8-1.8l0.2-0.1l0,0L312,9.6l-1.7,9.8
	l-1,6.2c0,0.5,0.2,0.8,0.6,1.1c0.2,0.1,0.4,0.2,0.7,0.2V27l-0.2,1.4c-1.1,0-2.2,0-3.3,0.1c0.9,0.4,1.9,1.1,2.1,2.1
	c0.3,1.2-0.3,2.3-1.2,3c-3,2.3-7.8,1.6-11.1,0.4c-3-1.2-5.6-3.1-7.7-5.7c-1.8-2.2-2.9-4.7-3.8-7.4c-0.5,0-1-0.1-1.4,0l-0.2,0.7
	l-0.8,4.6c0,0.6,0.5,1.1,1,1.3c0.3,0.1,0.5,0.1,0.8,0.2c-0.1,0.6-0.2,1.3-0.3,1.9h-0.1h-9.6c-0.1,0-0.2,0-0.2-0.1
	c0.1-0.7,0.2-1.4,0.3-2c1.1,0.1,2.4,0,3-1L278,26l2.8-15.1l0,0c-1.3-0.1-2.5,0.4-3.5,1.1c0.2,0.3,0.4,0.5,0.6,0.8
	c0.3,0.5,0.2,1.2-0.2,1.7c-0.5,0.7-1.5,1-2.5,0.8c-0.8-0.1-1.5-0.7-1.7-1.5c-0.3-1.4,0.4-2.6,1.5-3.3c0.9-0.7,2.1-0.9,3.2-1.2
	c2.8-0.6,5.9-0.8,8.9-0.6C287.6,8.7,288.1,8.7,288.5,8.8L288.5,8.8z M288.4,11.3c-0.8-0.2-1.8-0.3-2.7-0.3l-0.3,1.6l-1.1,5.9v0.4
	c1,0,2.1-0.1,3-0.4c0.4-0.2,0.8-0.4,1.2-0.6c1.2-0.8,2.1-2.2,2.1-3.7c0-0.2,0-0.4-0.1-0.7C290.2,12.4,289.4,11.6,288.4,11.3
	L288.4,11.3z"/>
<path class="st0" d="M410.7,21.7l-3.8,1.8c0,0.2,0.1,0.5,0.2,0.7c0.3,1,1.1,2,2.3,2.1c1,0.1,1.8-0.4,2.3-1.2
	c-0.1-0.2-0.3-0.1-0.5-0.2c-0.3-0.2-0.6-0.6-0.6-1c0-0.7,0.5-1.3,1.1-1.6c0.6-0.2,1.4-0.1,1.8,0.4c0.5,0.5,0.7,1.5,0.4,2.2
	c-0.6,2.1-2.4,3.4-4.5,3.8c-2,0.3-3.9-0.3-5.1-1.9c-1.3-1.6-1.8-4-1.1-6.1c0.6-1.9,1.6-3.7,3.4-4.7c1.5-0.9,3.8-1.3,5.4-0.3
	c1.4,0.9,2.1,2.5,2.3,4.2L410.7,21.7L410.7,21.7z M410.3,19.9v-0.2c-0.1-0.8-0.1-1.7-0.9-2.1c-0.4-0.2-1.1-0.2-1.5,0.1
	c-1.2,0.8-1.4,2.4-1.3,3.9h0.1L410.3,19.9L410.3,19.9z"/>
</svg>
