<?xml version="1.0" encoding="utf-8"?>
<!-- Generator: Adobe Illustrator 21.0.0, SVG Export Plug-In . SVG Version: 6.00 Build 0)  -->
<svg version="1.1" id="Capa_1" xmlns="http://www.w3.org/2000/svg" xmlns:xlink="http://www.w3.org/1999/xlink" x="0px" y="0px"
	 viewBox="0 0 499 88" style="enable-background:new 0 0 499 88;" xml:space="preserve">
<style type="text/css">
	.st0{fill-rule:evenodd;clip-rule:evenodd;fill:#333333;}
	.st1{fill:#EC412E;}
	.st2{fill:#231F20;}
	.st3{fill-rule:evenodd;clip-rule:evenodd;fill:#2B00F7;}
	.st4{fill:#22A94B;}
	.st5{fill:#F89C1C;}
	.st6{fill:#EE4637;}
	.st7{fill:#FFDD00;}
	.st8{fill:#00A9E6;}
	.st9{fill-rule:evenodd;clip-rule:evenodd;fill:#231F20;}
	.st10{fill-rule:evenodd;clip-rule:evenodd;fill:#E82D32;}
</style>
<g>
	<path class="st0" d="M59.7,30.4c-0.4,0-1,0-1.3-0.1c-0.1-1.5-0.2-8-0.1-13.7c0.7-0.2,1.1-0.3,1.6-0.3c2.4,0,3.7,2.9,3.7,6.4
		C63.6,27,62,30.4,59.7,30.4 M62.2,14.4c-1.5,0-2.7,0.3-3.9,1c0-3.5,0-6.7,0.1-7.8L51,9v0.7l0.8,0.1c1,0.2,1.3,0.8,1.5,2.1
		c0.2,2.6,0.1,16.7,0,19c2,0.4,4.1,0.8,6.1,0.8c5.8,0,9.3-3.6,9.3-9.3C68.8,17.7,65.9,14.4,62.2,14.4z"/>
	<path class="st0" d="M23.4,8.1H4.1v1l1.1,0.1c1.4,0.2,2,1.1,2.2,3.2c0.3,3.9,0.2,11.1,0,14.5c-0.2,2.1-0.8,3.1-2.2,3.2l-1.1,0.2
		v0.9h12.4v-0.9L15.1,30c-1.4-0.1-2-1.1-2.2-3.2c-0.1-1.4-0.2-3.7-0.2-6.6l2.6,0.1c1.6,0,2.4,1.3,2.7,3.2h1v-7.8h-1
		c-0.3,1.9-1.1,3.2-2.7,3.2l-2.6,0.1c0-3.7,0.1-7.2,0.2-9.3h3.8c3,0,4.5,1.9,5.6,5.2l1.1-0.3L23.4,8.1"/>
	<path class="st0" d="M29.3,15.3c-2.4,0-3.1,3.3-3.1,7.6c0,4.2,1.1,7.6,3.3,7.6c2.5,0,3.2-3.3,3.2-7.6
		C32.7,18.7,31.6,15.3,29.3,15.3 M29.6,14.2c5.5,0,8.2,3.7,8.2,8.7c0,4.7-3.1,8.7-8.6,8.7s-8.2-3.7-8.2-8.7
		C21.1,18.2,24.1,14.2,29.6,14.2z"/>
	<path class="st0" d="M75.3,20.9l5.2-0.1c0-2.2-0.3-5.5-2.2-5.5C76.4,15.3,75.4,18.4,75.3,20.9 M70.2,23c0-4.5,2.9-8.8,8.4-8.8
		c4.6,0,6.8,3.4,6.8,7.9H75.3c-0.1,4.1,1.9,7,5.8,7c1.8,0,2.6-0.4,3.7-1.2l0.4,0.5c-1.1,1.5-3.5,3.1-6.6,3.1
		C73.7,31.6,70.2,28,70.2,23z"/>
	<path class="st0" d="M98.5,15.1c-1.3-0.5-3.1-0.9-5-0.9c-4.1,0-6.6,2.4-6.6,5.3s1.9,4.1,4.5,4.9c2.7,1,3.5,1.8,3.5,3.1
		c0,1.3-1,2.5-2.7,2.5c-2.1,0-3.6-1.2-4.8-4.5l-0.8,0.2l0.1,4.8c1.3,0.5,3.7,1,5.8,1c4.3,0,7-2.2,7-5.6c0-2.3-1.2-3.6-4.1-4.7
		c-3.1-1.2-4.2-2-4.2-3.4c0-1.4,1-2.4,2.3-2.4c2,0,3.3,1.2,4.3,4.2l0.8-0.2L98.5,15.1"/>
	<path class="st0" d="M52.1,14.7c-1.9-1.1-5.2-0.5-6.9,3.4l0.1-3.8L38,15.7v0.7l0.8,0.1c1,0.1,1.4,0.7,1.5,2.1
		c0.2,2.6,0.1,7.2,0,9.5c-0.1,1.3-0.5,2-1.5,2.1L38,30.2v0.9h10.2v-0.9l-1.3-0.1c-1.1-0.1-1.4-0.8-1.5-2.1c-0.2-2.1-0.2-6.3-0.1-8.9
		c0.5-0.8,3-1.4,5.2,0L52.1,14.7"/>
</g>
<g>
	<path class="st1" d="M476.4,31.6c-1.4,0-2.8,0-4.3,0c-1.1-3.6-2.3-7.2-3.4-10.8c0,0,0,0-0.1,0c0,3.6,0,7.2,0,10.8
		c-1.3,0-2.5,0-3.8,0c-0.1-0.2-0.1-22.3,0-22.6c1.3,0,2.5,0,3.8,0c1.3,4,2.5,8,3.8,12c0,0,0,0,0.1,0c0-0.1,0-0.2,0-0.2
		c0-2.9,0-5.8,0-8.7c0-0.9,0-1.8,0-2.7c0-0.1,0-0.2,0-0.3c1.3,0,2.6,0,3.8,0C476.4,16.5,476.4,24,476.4,31.6z"/>
	<path class="st1" d="M430.6,31.5c-1.3,0-2.6,0-4,0c-0.9-3.5-1.9-7.1-2.8-10.7c0.2-0.1,0.3-0.2,0.5-0.2c0.6-0.2,1-0.6,1.4-1.1
		c0.3-0.4,0.5-0.9,0.5-1.4c0-1.3,0-2.6,0-3.9c0-0.8-0.7-1.4-1.4-1.4c-0.4,0-0.9,0-1.3,0c-0.1,0-0.1,0-0.2,0c0,6.3,0,12.5,0,18.7
		c-1.3,0-2.6,0-3.8,0c0-7.5,0-15.1,0-22.6c0.1,0,0.1,0,0.2,0c1.7,0,3.3,0,5,0c0.8,0,1.5,0.1,2.3,0.5c1.7,0.8,2.7,2,3.1,3.8
		c0.1,0.4,0.1,0.9,0.1,1.4c0,1.2,0,2.5,0,3.7c0,1.3-0.4,2.5-1.3,3.6c-0.2,0.2-0.4,0.4-0.6,0.6c-0.1,0.1-0.2,0.2-0.1,0.3
		c0.6,1.9,1.1,3.8,1.7,5.8c0.3,0.9,0.5,1.8,0.8,2.7C430.6,31.4,430.6,31.4,430.6,31.5z"/>
	<path class="st1" d="M414.4,20.2c0,1.8,0,3.6,0,5.4c0,0.5,0,0.9,0,1.4c0,0.7-0.2,1.4-0.5,2c-0.8,1.6-2.1,2.5-3.8,2.8
		c-1.3,0.2-2.5,0-3.6-0.7c-1.4-0.9-2.3-2.1-2.5-3.7c-0.1-0.4-0.1-0.8-0.1-1.2c0-3.3,0-6.6,0-9.9c0-0.9,0-1.8,0-2.8
		c0-0.6,0.2-1.2,0.4-1.8c0.6-1.4,1.7-2.4,3.2-2.9c1.2-0.4,2.4-0.4,3.6,0.1c1.7,0.7,2.7,1.9,3.2,3.7c0.1,0.3,0.1,0.5,0.1,0.8
		C414.4,15.7,414.4,17.9,414.4,20.2C414.4,20.2,414.4,20.2,414.4,20.2z M410.5,20.3L410.5,20.3c0-1.7,0-3.4,0-5.1c0-0.5,0-1,0-1.5
		c0-0.5-0.4-1-0.9-1.2c-0.7-0.2-1.4,0-1.8,0.7c-0.1,0.1-0.2,0.3-0.2,0.5c0,4.3,0,8.6,0,13c0,0.1,0,0.1,0,0.2
		c0.3,1.2,1.7,1.4,2.4,0.7c0.3-0.3,0.5-0.6,0.4-1c0-0.5,0-0.9,0-1.4C410.5,23.6,410.5,21.9,410.5,20.3z"/>
	<path class="st1" d="M449.3,8.9c1.3,0,2.5,0,3.8,0c0,0.1,0,0.2,0,0.3c0,0.5,0,1.1,0,1.6c0,4.7,0,9.4,0,14.2c0,0.6,0,1.2,0,1.8
		c0,0.5,0.7,1.2,1.2,1.2c0.5,0,1-0.1,1.4-0.5c0.2-0.2,0.3-0.5,0.3-0.8c0-1.3,0-2.7,0-4c0-4.5,0-9,0-13.5c0-0.1,0-0.2,0-0.3
		c0.2-0.1,3.4-0.1,3.8,0c0,0.1,0,0.2,0,0.3c0,0.5,0,0.9,0,1.4c0,4,0,8.1,0,12.1c0,1.4,0,2.7,0,4.1c0,0.9-0.2,1.7-0.7,2.4
		c-0.6,1-1.4,1.8-2.5,2.2c-1.5,0.6-3.1,0.6-4.6-0.2c-1.5-0.8-2.4-2.1-2.8-3.8c-0.1-0.5-0.1-0.9-0.1-1.4c0-5.6,0-11.3,0-16.9
		C449.3,9.1,449.3,9,449.3,8.9z"/>
	<path class="st1" d="M490.7,8.9c0,1.3,0,2.5,0,3.8c-1.8,0-3.6,0-5.4,0c-0.1,0.2-0.1,4.9,0,5.2c1.2,0,2.3,0,3.5,0c0,1.3,0,2.6,0,3.9
		c-0.6,0-1.2,0-1.7,0c-0.6,0-1.2,0-1.8,0c0,2,0,3.9,0,5.8c0.1,0,0.2,0,0.3,0c1.6,0,3.3,0,4.9,0c0.1,0,0.2,0,0.3,0c0,1.3,0,2.6,0,3.8
		c-3.1,0-6.2,0-9.3,0c-0.1-0.2-0.1-22.2,0-22.6C481.6,8.9,490.1,8.9,490.7,8.9z"/>
	<path class="st1" d="M390.7,8.9c3.1,0,6.2,0,9.3,0c0,1.3,0,2.5,0,3.8c-0.3,0-0.5,0-0.8,0c-0.3,0-0.5,0-0.8,0c-0.3,0-0.5,0-0.8,0
		c-0.3,0-0.5,0-0.8,0c-0.3,0-0.5,0-0.8,0c-0.3,0-0.5,0-0.8,0c-0.3,0-0.5,0-0.8,0c0,1.7,0,3.5,0,5.2c1.2,0,2.3,0,3.5,0
		c0,1.3,0,2.5,0,3.8c-1.2,0-2.3,0-3.5,0c0,3.2,0,6.5,0,9.7c-0.2,0.1-3.4,0.1-3.8,0c0,0,0,0,0,0c0,0,0,0,0,0c0-0.1,0-0.1,0-0.2
		C390.7,23.9,390.7,16.4,390.7,8.9C390.7,9,390.7,9,390.7,8.9z"/>
	<path class="st1" d="M437.6,12.8c-1.1,0-2.2,0-3.3,0c0-1.3,0-2.5,0-3.8c0.2,0,10.2-0.1,10.6,0c0,1.3,0,2.5,0,3.8
		c-1.1,0-2.2,0-3.4,0c0,6.3,0,12.5,0,18.8c-1.3,0-2.6,0-3.8,0c0,0,0,0,0,0c0,0,0,0,0,0c0,0,0,0,0,0c0,0,0,0,0,0
		C437.6,25.2,437.6,19,437.6,12.8C437.6,12.8,437.6,12.8,437.6,12.8z"/>
</g>
<g id="layer1_1_" transform="translate(-67.092411,-701.4412)">
	<path id="path13406_1_" class="st2" d="M316.6,773.4c-0.7,0-1.3,0.6-1.3,1.4c0,0.8,0.6,1.4,1.3,1.4s1.3-0.6,1.3-1.4
		C317.9,774,317.3,773.4,316.6,773.4 M268.8,776.1h6.1v-0.5l-0.7-0.2c-0.6-0.2-0.9-0.5-0.9-1.3V766h1.4c0.9,0,1.3,0.2,1.4,2l0.2,3.8
		c0.1,3.5,1.1,4.4,2.8,4.4c1.7,0,2.2-1.2,2.2-2.8v-0.7h-0.6v0.5c0,1.1-0.1,1.9-0.6,1.9c-0.4,0-0.4-0.3-0.5-1.7l-0.2-2.6
		c-0.2-3.5-0.7-4.8-3.3-5.3c2.5-0.7,4-2.5,4-5.1c0-3.4-2.7-5-5.2-5h-10.2v0.5l0.6,0.1c1.1,0.2,1.1,0.8,1.1,3.2v11.9
		c0,2.7-0.8,4-2.5,4c-1.5,0-2.4-0.8-2.4-3.7v-14.2c0-0.8,0.3-1.1,0.9-1.2l0.8-0.2v-0.5h-6.3v0.5l0.7,0.2c0.6,0.2,0.8,0.4,0.8,1.3v14
		c0,3.2,1.8,4.9,4.6,4.9c2.8,0,4.2-1.7,4.2-5v-13c0-1.6,0.3-2.2,1.7-2.2c1.1,0,1.5,0.4,1.5,1.4v16.7c0,0.8-0.3,1.1-0.9,1.3l-0.7,0.2
		L268.8,776.1L268.8,776.1z M309.1,757.4c0-0.8,0.3-1.1,0.9-1.2l0.8-0.2v-0.6h-6.2v0.5l0.7,0.2c0.6,0.2,0.9,0.4,0.9,1.3v16.8
		c0,0.8-0.3,1.3-1.3,1.3c-1.1,0-1.2-0.4-1.6-2.1l-3.8-18h-1.2l-3.7,17.4c-0.4,2-0.6,2.4-1.4,2.6l-0.5,0.2v0.5h4.3v-0.5l-0.6-0.1
		c-0.9-0.2-1.1-0.7-0.7-2.9l2.2-11.1l2.4,11.8c0.4,1.7,0.3,2-1,2.3l-0.6,0.1v0.5h15.9v-6.8h-0.6c-0.3,3.2-0.9,6.1-3.5,6.1h-1.2
		L309.1,757.4L309.1,757.4z M299.7,770.5v-0.8h-4.1l-0.1,0.8H299.7z M283,757.8v14.4c0,2.2,0,3.2-1.1,3.4l-0.5,0.1v0.5h4.4v-0.5
		c-1.9-0.3-1.9-0.9-1.9-3.3v-13.6l-0.7-0.7l7.4,18.1h1.3v-16.7c0-2.5,0-3,1.2-3.3l0.4-0.1v-0.5h-4.5v0.5l0.5,0.1
		c1.5,0.3,1.5,0.9,1.5,3.2v10.4l0.3-0.1l-5.6-14.2h-4.3v0.5l0.4,0.1C282.2,756.3,282.4,756.8,283,757.8 M273.3,756.2h1.2
		c1.2,0,2.3,0.8,2.3,4.7c0,4-0.8,4.4-2.5,4.4h-1V756.2z M253.3,765.6c0,8.7-0.7,9.9-2.3,9.9c-1.6,0-2.3-1.2-2.3-9.8
		c0-8.3,0.8-9.5,2.3-9.5C252.6,756.1,253.3,757.3,253.3,765.6 M256.6,765.8c0-5.7-1.8-10.5-5.6-10.5c-3.8,0-5.5,4.7-5.5,10.5
		c0,5.8,1.8,10.5,5.5,10.5C254.9,776.3,256.6,771.5,256.6,765.8 M243.7,757.4c0-0.8,0.2-1.1,0.8-1.3l0.7-0.2v-0.5H239v0.5l0.8,0.2
		c0.6,0.2,0.9,0.4,0.9,1.2v14.4c0,2-0.2,3.6-1.7,3.6c-1,0-1.7-0.8-1.7-1.3c0.1-0.9,1.7-0.9,1.8-2.4c0.1-1.1-0.6-1.5-1.2-1.6
		c-0.9-0.1-2.1,0.7-2.1,2.2c0,2,1.3,3.8,3.5,3.8c2.5,0,4.4-1.7,4.4-4.9L243.7,757.4L243.7,757.4z M143.5,757.4
		c0-0.8,0.3-1.1,0.9-1.2l0.8-0.2v-0.6h-6.2v0.5l0.7,0.2c0.6,0.2,0.9,0.4,0.9,1.3v16.8c0,0.8-0.3,1.3-1.3,1.3c-1.1,0-1.3-0.4-1.7-2.1
		l-3.8-18h-1.2l-3.7,17.4c-0.4,2-0.6,2.4-1.4,2.6l-0.5,0.2v0.5h4.3v-0.5l-0.6-0.1c-0.9-0.2-1.1-0.7-0.7-2.9l2.2-11.2l2.4,11.9
		c0.3,1.7,0.3,2-1,2.3l-0.6,0.1v0.5h15.9v-6.8h-0.6c-0.3,3.2-0.9,6.1-3.5,6.1h-1.2V757.4z M227.1,756.2h0.7c1.9,0,2.5,3,2.7,6.1h0.6
		v-6.8h-10.9v6.8h0.6c0.2-3.2,0.8-6.1,2.7-6.1h0.7v18c0,0.8-0.3,1.1-0.9,1.3l-0.8,0.2v0.5h6.5v-0.5l-0.9-0.2
		c-0.6-0.2-0.9-0.3-0.9-1.3L227.1,756.2L227.1,756.2z M213.3,765.7l0.9,0c1.4,0,1.7,0.5,2,3.8h0.6v-8.3h-0.6c-0.3,2.6-0.7,3.7-2,3.8
		l-1,0v-8.9h2.1c2.3,0,2.8,2.9,3.2,6.1h0.6v-6.8h-10.4v0.5l0.7,0.2c0.7,0.2,0.9,0.6,0.9,1.3v16.7c0,0.8-0.3,1.1-0.9,1.3l-0.7,0.2
		v0.5h10.7v-6.8h-0.6c-0.4,3.1-0.8,6.1-3.5,6.1h-2.1L213.3,765.7L213.3,765.7z M202,765.7l0.9,0c1.4,0,1.7,0.5,2,3.8h0.6v-8.3H205
		c-0.3,2.6-0.7,3.7-2,3.8l-1,0v-8.9h2.1c2.3,0,2.8,3,3.2,6.1h0.6v-6.8h-10.7v0.5l1,0.2c0.7,0.2,0.9,0.6,0.9,1.3v16.7
		c0,0.8-0.3,1.1-0.9,1.3l-0.7,0.2v0.5h10.7v-6.8h-0.6c-0.4,3.1-0.8,6.1-3.5,6.1H202V765.7L202,765.7z M189.7,756.2h0.9
		c1.2,0,2.3,0.8,2.3,4.7c0,3.9-0.8,4.4-2.5,4.4h-0.7V756.2z M185.1,776.1h6.1v-0.5l-0.7-0.2c-0.6-0.2-0.9-0.5-0.9-1.3V766h1.1
		c0.9,0,1.3,0.4,1.4,2l0.1,3.8c0.1,3.5,1.1,4.4,2.8,4.4c1.7,0,2.2-1.2,2.2-2.8v-0.7h-0.6v0.5c0,1.1-0.1,1.9-0.6,1.9
		c-0.4,0-0.4-0.3-0.5-1.7l-0.2-2.6c-0.2-3.6-0.7-4.8-3.3-5.3c2.5-0.7,4-2.5,4-5.1c0-3.4-2.7-5-5.2-5h-5.7v0.5l0.7,0.2
		c0.6,0.2,0.9,0.4,0.9,1.3v16.7c0,0.8-0.3,1.1-0.9,1.3l-0.7,0.2L185.1,776.1L185.1,776.1z M180.5,756.2h0.7c1.9,0,2.5,3,2.7,6.1h0.6
		v-6.8h-10.9v6.8h0.6c0.2-3.2,0.8-6.1,2.7-6.1h0.7v18c0,0.8-0.3,1.1-0.9,1.3l-0.8,0.2v0.5h6.3v-0.5l-0.8-0.2
		c-0.8-0.2-0.9-0.8-0.9-1.3V756.2z M173.6,770.8c0-6.2-6.8-7.8-6.8-12.2c0-1,0.4-2.4,1.9-2.4c2.2,0,3,2.8,3.3,6.2h0.6v-6.8h-0.4
		c-0.2,0.7-0.4,1-0.8,1c-0.7,0-1.1-1.1-2.7-1.1c-2.6,0-4.3,2.1-4.3,4.9c0,5.1,6.8,7.2,6.8,11.9c0,2.1-1,3.3-2.3,3.3
		c-2,0-3.3-2.4-3.7-6.2h-0.6v6.8h0.4c0.3-1,0.7-1.1,1-1.1c0.6,0,1.2,1.2,2.9,1.2C171.6,776.3,173.6,773.9,173.6,770.8 M153.9,757.4
		c0-0.8,0.3-1.1,0.9-1.2l0.8-0.2v-0.6h-6.2v0.5l0.7,0.2c0.6,0.2,0.9,0.4,0.9,1.3v16.7c0,0.8-0.3,1.1-0.9,1.3l-0.7,0.2v0.5h9.8v-6.8
		h-0.6c-0.3,3.2-0.9,6.1-3.5,6.1h-1.2V757.4z M134.1,770.5v-0.8H130l-0.1,0.8H134.1L134.1,770.5z M116.7,776.2h1.2l2.8-14.8h-0.4
		l3.1,14.8h1.1l3.7-17.4c0.4-1.8,0.6-2.5,1.3-2.6l0.6-0.1v-0.5h-4.2v0.5l0.6,0.1c0.9,0.2,1.1,0.7,0.7,2.9l-2.4,11.7h0.4l-2.4-12.3
		c-0.2-1.2-0.4-2.1,0.6-2.3l0.7-0.1v-0.5h-5.8v0.5l0.4,0.1c0.6,0.1,0.7,0.5,0.9,1.7l0.9,4.5l-0.2-2.7l-2.1,10.9h0.3l-2.4-12
		c-0.3-1.2-0.4-2.2,0.6-2.3l0.5-0.1v-0.5h-5.9v0.5l0.6,0.1c0.5,0.2,0.8,0.4,1.2,2.1L116.7,776.2L116.7,776.2z M100.7,765.7l0.9,0
		c1.4,0,1.7,0.5,2,3.8h0.6v-8.3h-0.6c-0.3,2.6-0.7,3.7-2,3.8l-1,0v-8.9h2.1c2.3,0,2.8,3,3.2,6.1h0.6v-6.8H96.1v0.5l0.7,0.2
		c0.7,0.2,0.9,0.6,0.9,1.3v16.7c0,0.8-0.3,1.1-0.9,1.3l-0.7,0.2v0.5h10.7v-6.8h-0.6c-0.4,3.1-0.8,6.1-3.5,6.1h-2.1V765.7
		L100.7,765.7z M81.8,776.1H88v-0.5l-0.7-0.2c-0.5-0.1-0.9-0.5-0.9-1.3v-8.2h4.5v8.2c0,0.8-0.4,1.2-0.9,1.3l-0.7,0.2v0.5h6.2v-0.5
		l-0.7-0.2c-0.6-0.2-0.9-0.5-0.9-1.3v-16.7c0-0.8,0.3-1.1,0.9-1.3l0.7-0.2v-0.5h-6.2v0.5l0.7,0.2c0.5,0.2,0.9,0.4,0.9,1.2v7.7h-4.5
		v-7.7c0-0.8,0.3-1.1,0.9-1.2L88,756v-0.5h-6.2v0.5l0.7,0.2c0.6,0.2,0.9,0.4,0.9,1.3v16.7c0,0.8-0.3,1.1-0.9,1.3l-0.7,0.2V776.1
		L81.8,776.1z M77.2,756.2h0.7c1.9,0,2.5,3,2.7,6.1h0.6v-6.8H70.2v6.8h0.6c0.2-3.2,0.8-6.1,2.7-6.1h0.7v18c0,0.8-0.3,1.1-0.9,1.3
		l-0.8,0.2v0.5H79v-0.5l-0.9-0.2c-0.6-0.2-0.9-0.3-0.9-1.3L77.2,756.2L77.2,756.2z"/>
</g>
<g>
	<path class="st3" d="M264.7,53.9h6.4c3.5,0,4.8,0.3,6.4,2.2c1,1,1.3,2.2,1.3,3.5c0,1.6-0.6,2.9-2.5,3.8c3.5,1.3,3.5,4.1,3.5,5.1
		c0,1.6-0.6,3.5-1.9,4.4c-1.9,1.6-2.9,1.9-6.4,1.9h-6.7V53.9L264.7,53.9z M270.1,61.9h1.6c0.6,0,1.9,0,1.9-1.6
		c0-1.6-1.3-1.6-1.9-1.6h-1.6V61.9L270.1,61.9z M270.1,70.1h2.2c0.6,0,2.2,0,2.2-1.9c0-1.9-1.6-1.9-2.2-1.9h-2.2V70.1L270.1,70.1z"
		/>
	<polygon class="st3" points="280.9,53.9 285.7,53.9 285.7,74.9 280.9,74.9 280.9,53.9 	"/>
	<path class="st3" d="M295.5,58.7c5.7,0,8.3,4.4,8.3,8.3c0,3.8-2.5,8.6-8.3,8.6c-5.7,0-8.6-4.8-8.6-8.6
		C287,63.1,289.8,58.7,295.5,58.7L295.5,58.7z M295.5,71.1c1.9,0,3.5-1.6,3.5-4.1c0-2.2-1.6-3.8-3.5-3.8c-2.2,0-3.8,1.6-3.8,3.8
		C291.7,69.5,293.3,71.1,295.5,71.1L295.5,71.1z"/>
	<path class="st3" d="M313.3,58.7c5.7,0,8.6,4.4,8.6,8.3c0,3.8-2.9,8.6-8.6,8.6c-5.7,0-8.6-4.8-8.6-8.6
		C304.7,63.1,307.6,58.7,313.3,58.7L313.3,58.7z M313.3,71.1c1.9,0,3.8-1.6,3.8-4.1c0-2.2-1.9-3.8-3.8-3.8c-1.9,0-3.8,1.6-3.8,3.8
		C309.5,69.5,311.4,71.1,313.3,71.1L313.3,71.1z"/>
	<path class="st3" d="M322.8,59.3h4.4v1.6l0,0c0.3-0.6,1.6-2.2,4.4-2.2c1.3,0,3.2,0.6,4.4,2.9c1-1.6,2.5-2.9,5.1-2.9
		c1,0,2.9,0.3,4.1,1.6c1.3,1.6,1.6,2.5,1.6,6v8.6h-4.8v-8.3c0-1.3,0-3.5-2.2-3.5c-2.9,0-2.9,2.2-2.9,3.2v8.6h-4.4v-8.6
		c0-0.6,0-3.2-2.5-3.2c-2.5,0-2.5,2.5-2.5,3.5v8.3h-4.8V59.3L322.8,59.3z"/>
	<path class="st3" d="M348.9,53.9h4.8v6.7c1.6-1.9,3.8-1.9,4.4-1.9c3.5,0,7.9,2.2,7.9,8.3c0,5.7-4.1,8.6-7.9,8.6
		c-2.2,0-3.8-1.3-4.4-2.2h-0.3v1.6h-4.4V53.9L348.9,53.9z M357.4,71.1c2.2,0,3.8-1.9,3.8-4.1c0-1.9-1.6-3.8-3.8-3.8
		c-2.5,0-3.8,1.9-3.8,3.8C353.6,69.2,354.9,71.1,357.4,71.1L357.4,71.1z"/>
	<path class="st3" d="M383.5,70.1c-1,1.6-1.9,2.9-3.2,3.8c-1.6,1-2.9,1.6-4.8,1.6c-4.4,0-8.3-3.8-8.3-8.6c0-4.1,3.5-8.3,8.3-8.3
		c4.8,0,8.3,3.8,8.3,8.6c0,0.6,0,1,0,1.3h-11.7c0.3,1.9,1.9,2.9,3.5,2.9c1.6,0,2.2-0.6,2.9-1.3H383.5L383.5,70.1z M379.4,65.4
		c-0.3-1-1.3-2.9-3.8-2.9c-2.2,0-3.2,1.9-3.5,2.9H379.4L379.4,65.4z"/>
	<path class="st3" d="M385.7,59.3h4.4v1.6l0,0c0.6-0.3,2.5-1.9,4.4-1.6v4.4c-1.9,0-4.1,0-4.1,2.5v8.6h-4.8V59.3L385.7,59.3z"/>
	<path class="st3" d="M412.4,73c0,2.2-0.3,5.4-1,6.7c-1.3,1.9-4.1,3.8-7.9,3.2c-5.4-0.3-7-2.9-7.3-5.4h5.1c0.6,1.6,2.2,1.6,2.5,1.6
		c2.5,0,3.8-0.3,3.8-5.4v-0.3l0,0c-0.6,0.6-1.9,2.2-4.4,2.2c-4.1,0-7.9-3.5-7.9-8.3c0-5.4,3.8-8.6,7.9-8.6c1.9,0,3.5,0.6,4.4,1.9
		l0,0v-1.3h4.8V73L412.4,73z M403.8,71.1c2.2,0,3.8-1.6,3.8-3.8c0-2.5-1.6-4.1-3.8-4.1c-1.9,0-3.8,1.6-3.8,3.8
		C400,69.5,401.9,71.1,403.8,71.1L403.8,71.1z"/>
</g>
<g>
	<g>
		<path class="st2" d="M475.5,47L475.5,47L475.5,47c0,0-0.1,0-0.1,0c-0.3,0-0.5,0.2-0.5,0.6c-0.2,2-0.3,4.1-0.6,6l0,0l0,0l0,0l0,0
			c0.2,0,0.3,0,0.4,0.1l0,0c0.3-2,1.1-4.9,1.2-5.8c0-0.1,0.1-0.3,0.1-0.4C476,47.2,475.8,47,475.5,47z"/>
		<path class="st2" d="M455.9,47.8c0.1,1.1,0.1,2.1,0.1,3.2c-1.3,0-2.5,0-3.8,0l0,0c0-1.1,0-2.1,0.1-3.2c-0.4,0.1-0.7,0.1-1.1,0
			c0.1,2.3,0.1,4.5,0,6.8c0.4-0.1,0.7-0.1,1.1,0l0,0l0,0c-0.1-1.1-0.1-2.1-0.1-3.2l0,0c1.3,0,2.5,0,3.8,0c0,1,0,2.1-0.1,3.2l0,0l0,0
			c0.4-0.1,0.8-0.1,1.1,0c-0.1-2.3-0.1-4.5,0-6.8C456.6,47.9,456.3,47.9,455.9,47.8z"/>
		<path class="st2" d="M447.8,47.8L447.8,47.8L447.8,47.8c-0.3,0.1-0.5,0.1-0.8,0l0,0c-0.9,2.3-2,4.9-2.9,6.8l0,0l0,0l0,0l0,0l0,0
			l0,0c0.4-0.1,0.8-0.1,1.1,0l0,0l0,0c0.2-0.6,0.5-1.3,0.8-2l0,0c0.9,0,1.9,0,2.8,0l0,0c0.3,0.7,0.5,1.3,0.8,2l0,0
			c0.4-0.1,0.8-0.1,1.1,0l0,0C450.1,53.3,448.7,50,447.8,47.8z M447.4,49c0.4,1,0.8,2.1,1.2,3.1l0,0c-0.8,0-1.6,0-2.4,0l0,0
			C446.7,50.9,447.2,49.7,447.4,49z"/>
		<path class="st2" d="M445.8,46.9L445.8,46.9L445.8,46.9c-0.4,0.1-0.8,0.1-1.1,0c-0.3,0.6-1.5,2.5-2.3,3.8
			c-0.8-1.3-1.7-2.7-2.3-3.8c-0.5,0.1-0.7,0.1-1.1,0c0.9,1.4,2.4,4,2.9,4.9l-0.1,3.6c0,0,0.3-0.1,0.5-0.1c0.2,0,0.5,0.1,0.5,0.1
			l-0.1-3.6C443.8,50.2,445.4,47.5,445.8,46.9z"/>
		<path class="st2" d="M461,47.7c-2.4,0-3.7,1.5-3.7,3.5c0,2.2,1.4,3.5,3.6,3.5c2.5,0,3.7-1.5,3.7-3.4C464.7,49,463.2,47.7,461,47.7
			z M461,54.3c-1.6,0-2.5-1.1-2.5-3.1c0-2.2,1.2-3.1,2.5-3.1c0,0,0,0,0.1,0c1.5,0,2.5,1,2.5,3.1C463.5,53.3,462.5,54.3,461,54.3z"/>
		<path class="st2" d="M469.3,47.3c-2.4,0-4.2,1.4-4.2,3.9c0,2.1,1.2,3.9,4.2,3.9c2.6,0,4.2-1.4,4.2-3.9
			C473.5,48.9,471.9,47.3,469.3,47.3z M466.2,51.1c0-2.7,1.6-3.4,3.1-3.4c1.8,0,3.1,1.1,3.1,3.5c0,2.6-1.6,3.5-3.1,3.5
			C467.7,54.7,466.2,53.7,466.2,51.1z"/>
		<path class="st2" d="M474.2,54.4c-0.4,0-0.5,0.3-0.5,0.6c0,0.3,0.3,0.5,0.6,0.5c0.2,0,0.5-0.1,0.5-0.6
			C474.8,54.6,474.6,54.4,474.2,54.4z"/>
	</g>
	<g>
		<polygon class="st2" points="423.4,58.9 429.8,58.9 429.8,75.1 432.7,75.1 432.7,58.9 438.9,58.9 438.9,57.7 423.4,57.7 		"/>
		<polygon class="st2" points="441.8,57.8 441.6,57.8 441.6,75.1 444.4,75.1 444.4,75.1 453.6,75.1 453.6,73.9 444.4,73.9 
			444.4,66.2 450.6,66.2 450.6,65.1 444.4,65.1 444.4,58.9 453.6,58.9 453.6,57.7 441.8,57.7 		"/>
		<polygon class="st2" points="487.7,57.8 487.7,65.7 478.9,65.7 478.9,57.8 476,57.8 476,75.1 478.9,75.1 478.9,66.8 487.7,66.8 
			487.7,75.1 490.5,75.1 490.5,57.8 		"/>
		<path class="st2" d="M465.7,74.2c-3.7,0-6.8-3.5-6.8-7.8s3-7.8,6.8-7.8c1.8,0,3.5,0.8,4.7,2.2l1.1-0.8c-1.6-1.6-3.8-2.7-6.3-2.7
			c-1.3,0-2.6,0.3-3.7,0.8c-3.5,1.2-6.1,4.5-6.1,8.4c0,4.9,4,8.9,8.9,8.9c0.2,0,0.4,0,0.5,0c0.2,0,0.4,0,0.5,0c2.8,0,5.4-1.3,7-3.4
			l-1.1-0.9C469.9,73,467.9,74.2,465.7,74.2z"/>
	</g>
</g>
<g>
	<path class="st4" d="M124.8,26.7c-1.6,0-2.8-1.3-2.8-2.8c0-1.6,1.3-2.8,2.8-2.8c1.6,0,2.8,1.3,2.8,2.8
		C127.6,25.4,126.4,26.7,124.8,26.7"/>
	<rect x="133.1" y="16.4" class="st2" width="4.9" height="14.8"/>
	<rect x="139" y="10.6" class="st2" width="4.9" height="20.6"/>
	<rect x="144.9" y="10.6" class="st2" width="4.9" height="20.6"/>
	<path class="st2" d="M135.6,9.8c-1.6,0-2.8,1.3-2.8,2.8c0,1.6,1.3,2.8,2.8,2.8c1.6,0,2.8-1.3,2.8-2.8C138.4,11,137.1,9.8,135.6,9.8
		"/>
	<path class="st2" d="M124.8,26.7c-1.6,0-2.8-1.3-2.8-2.8c0-1.6,1.3-2.8,2.8-2.8c1.6,0,2.8,1.3,2.8,2.8
		C127.6,25.4,126.4,26.7,124.8,26.7 M125.3,16.2c-1.3,0-2.4,0.3-3.4,1v-6.6h-4.9v20.6h4.8v-1.4c1.2,1.1,2.4,1.6,3.9,1.6
		c3.7,0,6.8-3.3,6.8-7.6C132.6,19.3,129.4,16.2,125.3,16.2"/>
	<path class="st5" d="M213.5,26.6c-1.6,0-2.8-1.3-2.8-2.8c0-1.6,1.3-2.8,2.8-2.8c1.6,0,2.8,1.3,2.8,2.8
		C216.3,25.4,215,26.6,213.5,26.6"/>
	<path class="st6" d="M158.6,26.7c-1.6,0-2.8-1.3-2.8-2.8c0-1.6,1.3-2.8,2.8-2.8c1.6,0,2.8,1.3,2.8,2.8
		C161.4,25.4,160.1,26.7,158.6,26.7"/>
	<path class="st7" d="M173.6,26.5c-1.6,0-2.8-1.3-2.8-2.8c0-1.6,1.3-2.8,2.8-2.8c1.6,0,2.8,1.3,2.8,2.8
		C176.5,25.2,175.2,26.5,173.6,26.5"/>
	<path class="st8" d="M188.3,26.5c-1.6,0-2.8-1.3-2.8-2.8c0-1.6,1.3-2.8,2.8-2.8c1.6,0,2.8,1.3,2.8,2.8
		C191.1,25.3,189.9,26.5,188.3,26.5"/>
	<path class="st2" d="M202.3,17.9v-1.5h-4.9v14.8h4.9v-7.1c0-1.8,1-2.8,2.7-2.8h0.6v-5.1C204.1,16.3,203,16.7,202.3,17.9"/>
	<path class="st2" d="M188.3,26.5c-1.6,0-2.8-1.3-2.8-2.8c0-1.6,1.3-2.8,2.8-2.8c1.6,0,2.8,1.3,2.8,2.8
		C191.1,25.3,189.8,26.5,188.3,26.5 M173.6,26.5c-1.6,0-2.8-1.3-2.8-2.8c0-1.6,1.3-2.8,2.8-2.8c1.6,0,2.8,1.3,2.8,2.8
		C176.5,25.2,175.2,26.5,173.6,26.5 M158.6,26.7c-1.6,0-2.8-1.3-2.8-2.8c0-1.6,1.3-2.8,2.8-2.8c1.6,0,2.8,1.3,2.8,2.8
		C161.4,25.4,160.1,26.7,158.6,26.7 M191.5,17.5c-0.7-0.7-2.3-1.4-3.5-1.4c-3.7,0-6.3,2.4-7,6c-0.7-3.5-3.7-6.1-7.4-6.1
		c-3.7,0-6.8,2.7-7.4,6.2c-0.6-3.7-3.5-6.1-7.1-6.1c-1.3,0-2.4,0.3-3.4,1v-6.6h-4.9v20.6h4.8v-1.4c1.2,1.1,2.4,1.6,3.9,1.6
		c3.3,0,6.1-2.6,6.7-6.1c0.7,3.5,3.7,6.1,7.4,6.1c3.7,0,6.6-2.6,7.4-6c0.6,3.7,3.6,6,7.1,6c1.2,0,2.5-0.4,3.4-1.1v0.8h4.9v-6.5
		c0-0.3,0-0.5,0-0.8c0-0.3,0-0.5,0-0.8v-6.8h-4.9V17.5z"/>
	<path class="st2" d="M213.5,26.6c-1.6,0-2.8-1.3-2.8-2.8c0-1.6,1.3-2.8,2.8-2.8c1.6,0,2.8,1.3,2.8,2.8
		C216.3,25.4,215,26.6,213.5,26.6 M216.4,10.6v6.6c-1-0.7-2-1-3.4-1c-4.1,0-7.2,3.1-7.2,7.7c0,4.3,3.1,7.6,6.8,7.6
		c1.5,0,2.8-0.5,3.9-1.6v1.4h4.8V10.6H216.4z"/>
</g>
<g>
	<polygon class="st9" points="297.7,32.1 297.7,32.2 297.7,32.1 	"/>
	<path class="st9" d="M373.4,26.7l-1.9,0.9c0,0.2,0,0.3,0.1,0.5c0.9,0.1,1.7-0.4,2.1-1.1L373.4,26.7L373.4,26.7z M360.1,24
		c-0.4,0.4-0.7,1-0.8,1.6l-0.5,3c0.2-0.1,0.4-0.3,0.6-0.5c0.2-0.4,0.2-0.8,0.3-1.2L360.1,24L360.1,24z M347.3,21.9
		c-0.3,0.3-0.6,0.7-0.8,1.1c-0.6,1.5-0.9,3.2-1.1,4.9l0,0.6c0.4-0.3,0.7-0.8,0.9-1.3c0.5-1.3,0.7-2.7,0.9-4.1
		C347.3,22.6,347.3,22.3,347.3,21.9L347.3,21.9z M339.4,22.8l-0.7,0l-0.1,0.1l-0.8,4.8l0.4-0.2l1.1-0.7
		C339,25.5,339,24.1,339.4,22.8L339.4,22.8z M331.7,24.8l0.5-2.9l-1.6-1.6c0.1-0.5,0.2-1,0.3-1.4l0.1-0.1l-1.5-1.5
		c0-0.6,0.1-1.2,0.1-1.8c-0.3,0-0.6,0-0.9,0c-0.9,0.1-1.7,0.7-2,1.6c-0.2,0.7-0.1,1.5,0.2,2.1c0.8,1.4,2,2.5,3.1,3.7
		C330.6,23.5,331.2,24.1,331.7,24.8L331.7,24.8z M325.6,25.4c-1-2-3-3.5-4.3-5.4l-0.7,2.5c-0.1,0-0.3,0-0.4,0c-0.9,0-1.8,0.3-2.2,1
		c-0.5,0.7-0.6,1.5-0.9,2.3l2.3,2.3c0.1,0.4,0.3,0.8,0.6,1.2c0.8,0.4,1.6,0.7,2.5,0.7c1.2,0.1,2.3-0.4,3-1.3
		C326.1,27.9,326.2,26.4,325.6,25.4L325.6,25.4z M316.6,30.9l-1-2.9c-0.4,0.4-0.7,0.6-1.2,0.9c0.2,0.1,0.5,0.3,0.7,0.5L316.6,30.9
		L316.6,30.9z M311.5,21.8c-0.5,0.6-0.7,1.4-0.9,2.2l-0.1,0.7c0.1-0.1,0.2-0.2,0.2-0.3c0.3-0.6,0.5-1.2,0.6-1.9
		C311.4,22.3,311.4,22.1,311.5,21.8L311.5,21.8z M309.7,34.3c-1.3,0-2.4-0.2-3.4-0.8c-0.5,0.5-0.9,1.2-1.1,1.9c0.4,0,0.7,0,1.1,0
		C307.5,35.2,308.7,34.9,309.7,34.3L309.7,34.3z M304.6,26.5c0.3-0.2,0.6-0.3,0.9-0.4c-0.2-0.3-0.5-0.6-0.7-0.9L304.6,26.5
		L304.6,26.5z M298.3,24.1c-0.5,0.5-0.9,1.2-1,1.9l-0.4,2.5c0.3-0.1,0.5-0.3,0.7-0.6l0.1-0.4L298.3,24.1L298.3,24.1z M291.1,23.8
		l-0.8-0.8l-1,5.7c0.4-0.1,0.9-0.3,1.1-0.7l0.1-0.4L291.1,23.8L291.1,23.8z M283.4,23.9l-0.8-0.8l-0.2,1.1l-0.7,4
		c0,0.1,0,0.3-0.1,0.4c0.4-0.1,0.8-0.4,1-0.8l0.1-0.4L283.4,23.9L283.4,23.9z M276.8,18.1l-0.8-0.8l-1.1,6.2l-0.8,5
		c0.5-0.1,0.9-0.3,1.1-0.8l0.1-0.6L276.8,18.1L276.8,18.1z M267.9,32.4l-1.2-1.2c-0.7,0.6-1.5,1-2.5,1.2c-1.3,0.3-2.7,0.2-3.8-0.5
		c-0.5-0.3-0.9-0.6-1.2-1l-2.3-2.3c-1.1-1.1-1.8-2.7-1.8-4.4l-0.3,0.1c0,0.3,0.1,0.7,0.1,1c0.4,2.2,1.4,4.2,2.7,6
		c2.4,1.9,5.3,3.1,8.6,2.4C267,33.5,267.6,33.1,267.9,32.4L267.9,32.4z M261.6,28c0.4-0.2,0.7-0.6,0.9-1c0.3-0.7,0.5-1.5,0.7-2.3
		l0.3-1.4c0.1-0.6,0.2-1.2,0.2-1.8c-0.3,0.2-0.5,0.5-0.7,0.8c-0.7,1.4-1.1,2.9-1.3,4.4C261.7,27.1,261.7,27.5,261.6,28L261.6,28z
		 M252.8,15.8c0-0.2,0-0.4-0.1-0.6c-0.8-0.2-1.6-0.3-2.4-0.2l-0.3,1.6l-0.7,3.6l0.2,0c0.4-0.2,0.8-0.4,1.2-0.6
		C251.8,18.7,252.8,17.4,252.8,15.8L252.8,15.8z M242.6,15.7c-0.2,0.1-0.4,0.2-0.6,0.4c0.1,0.2,0.3,0.4,0.4,0.5L242.6,15.7
		L242.6,15.7z M378,26.8c0.5,0.5,0.7,1.5,0.4,2.2c-0.6,2.1-2.4,3.4-4.5,3.8c-1.8,0.2-3.5-0.2-4.8-1.4l-2.2-2.3
		c-0.2-0.2-0.3-0.3-0.5-0.5c-0.2-0.2-0.3-0.4-0.5-0.7l-0.2,1.3c0,0.1-0.1,0.3-0.1,0.5l0,0l1.4,1.4l0,0c-0.1,0.6-0.2,1.1-0.3,1.7
		l-6.8,0l-0.6-0.6l-0.1,0.6l-0.1,0h-6.9l-1.6-1.6l-0.4,0.4c-1.1,0.9-2.4,1.4-3.9,1.2c-1.5-0.1-2.8-1-3.8-2l-0.1-0.1l0,0
		c-0.7,0.5-1.3,1-2.1,1.4c-1.5,0.8-3.3,1.5-5,0.9c-0.3-0.2-0.6-0.4-0.8-0.6l-1.6-1.6c-0.5,1.7-1.7,3.3-3.4,3.9
		c-1.4,0.6-3.3,0.6-4.7,0.1c-1-0.3-1.9-0.8-2.9-1c-0.3,0-0.7,0.1-0.8,0.4c-0.1,0.1-0.1,0.3-0.2,0.4c-0.5,0.2-0.9,0.4-1.4,0.5
		l-1.9-1.9c-0.2,1-0.8,1.8-1.4,2.5c-1.7,1.8-3.8,3.3-6.3,3.7c-2.7,0.5-5.6,0-7.7-1.5c-0.1-0.1-0.2-0.2-0.4-0.3l-2.2-2.2
		c-0.4-0.4-0.7-1-0.6-1.6c0.1-0.5,0.3-0.9,0.5-1.3h-1.5l0,0l-0.4-0.4l0-0.1h-0.1l0,0l-0.1,0.5H291l-0.5-0.5l-0.1,0.5l-7.3,0
		l-0.5-0.5l-0.1,0.5l-0.2,0l-6.8-0.1L275,32l-0.1,0.5c-1,0-1.8,0-2.8,0l0.9,1c0.3,0.3,0.6,0.7,0.7,1.2c0.2,1.2-0.3,2.3-1.2,3
		c-3,2.3-7.8,1.6-11.1,0.4c-2.5-1-4.6-2.4-6.5-4.3l-2.2-2.3c-0.5-0.5-0.9-0.9-1.3-1.4c-1.2-1.5-2.2-3.2-2.9-5l-0.1,0.6l-0.8,4.3
		l1.8,1.8c-0.1,0.6-0.2,1.3-0.3,1.9l-0.1,0h-9.6c-0.1,0-0.1,0-0.2-0.1l-2.3-2.4c0.1-0.7,0.2-1.4,0.3-2c1.1,0.1,2.4,0,3-1l0.1-0.5
		L242,19c-0.5,0.4-1.3,0.6-2.1,0.4c-0.5-0.1-0.9-0.3-1.2-0.7l-2.3-2.3c-0.3-0.3-0.5-0.6-0.6-1c-0.3-1.4,0.4-2.6,1.5-3.3
		c0.9-0.7,2.1-0.9,3.2-1.2c2.8-0.6,5.9-0.8,8.9-0.6c0.4,0,0.8,0.1,1.3,0.1c1,0.1,2.1,0.3,3,0.7c0,0,0.1,0,0.1,0
		c0.8,0.3,1.5,0.8,2.1,1.4l2.3,2.2c0.6,0.6,1.1,1.4,1.4,2.2c0,0.1,0.1,0.3,0.1,0.4c1-0.5,2.1-0.7,3.3-0.8c1.2,0,2.4,0.6,3.2,1.4
		l2.5,2.5l0.5-2.9l-1.2-1.2l-0.8-1.4l0,0l4-2.5l2.8-1.8l0.2-0.1l2.3,2.4l0,0l-0.1,0.5l-0.1,0.5l5.4-3.5l0.1,0l2.4,2.4
		c0,0.8-0.3,1.6-0.4,2.4l-0.8,4.6l3.5-2.1l-1.9-1.9c-0.3-0.2-0.4-0.6-0.4-1c0-1.3,1.1-2.3,2.2-2.7c0.7-0.2,1.8-0.4,2.4,0.2l2.4,2.4
		c0.4,0.4,0.5,0.9,0.4,1.5c-0.1,0.6-0.5,1-0.9,1.5c-0.2,0.2-0.5,0.4-0.8,0.6l0.9,0.9l0,0.4l-0.1,0.5l5.3-3.3h0l1.5,1.5
		c0.9-0.7,1.8-1.2,3-1.2c0.7,0.1,1.3,0.4,1.8,0.8l2.2,2.2l0.1-0.2c0.8-1.6,2.4-2.7,4.2-3c1.8-0.3,3.7,0,5.1,1.2l0.3,0.3l0.8,0.8
		c0.6-1,1.5-2,2.7-2.3c0.5-0.1,0.9-0.2,1.4-0.2l1.2,1.2l-0.1-0.3c-0.3-1-0.2-2.2,0.1-3.1c0.6-1.8,2.2-3.3,4.1-3.6
		c0.8-0.2,1.8-0.2,2.6,0c0.9,0.2,1.7,0.6,2.6,0.7c0.5,0,0.9-0.2,1.1-0.6l0.1-0.2l1.7,0l2.4,2.4c0,0.1,0,0.3,0,0.4l-0.5,3.2
		c1-0.6,1.9-1.2,2.9-1.8l2.3,2.4l0,0.3l-0.1,0.6l1.1,0l1,1c1.7-1.7,4.3-2.8,6.7-1.8c0.5,0.2,1,0.5,1.4,0.9l2.3,2.3l4.1-2.7
		c0.6-0.4,1.2-0.8,1.9-1.2l1.3,1.3c1.2-0.9,2.7-1.6,4.2-0.8c0.1,0.1,0.3,0.2,0.4,0.3l2.2,2.2c0.1,0.1,0.2,0.2,0.3,0.4
		c0.6-1,1.4-1.9,2.5-2.5c1.5-0.9,3.8-1.3,5.4-0.3c0.3,0.2,0.6,0.4,0.8,0.6l2.3,2.3c1,0.9,1.5,2.3,1.6,3.6l-2.5,1.2L378,26.8
		L378,26.8z"/>
	<path class="st10" d="M286.9,28.2c0.3,0.4,0.8,0.6,1.4,0.6l0,0.1l-0.2,1.4l-7.3,0l0,0l0.2-1.4c0.7,0,1.5-0.2,1.8-0.9l0.1-0.4
		l0.7-3.9c0-0.3,0-0.5-0.2-0.7c-0.2-0.2-0.7-0.1-0.9,0c-0.3-0.5-0.6-1.1-0.8-1.6l0-0.1l6.4-3.9l0.5-0.3l0,0l0,0.4l-1.7,9.7
		C286.7,27.5,286.6,27.9,286.9,28.2L286.9,28.2z"/>
	<path class="st10" d="M280.6,18.7c-0.2,1.1-0.4,2.1-0.6,3.2l-0.7,4c-0.1,0.6-0.3,1.2-0.2,1.9c0.1,0.4,0.5,0.8,0.9,0.9
		c0.1,0,0.2,0,0.2,0.1l-0.2,1.4l-0.2,0l-6.8-0.1l0-0.1l0.2-1.5c0.7-0.1,1.5-0.2,1.7-0.9l0.1-0.6l1.6-9.3c0-0.4,0.1-0.8-0.3-1
		c-0.3-0.2-0.7-0.1-1,0l-0.1,0l-0.8-1.4l0-0.1l7.2-4.6l0.1,0c0,0.8-0.3,1.6-0.4,2.4L280.6,18.7L280.6,18.7z"/>
	<path class="st10" d="M347,19.7c-0.3-0.4-0.8-0.6-1.3-0.5c-0.8,0.1-1.2,0.8-1.5,1.5c-0.6,1.5-0.9,3.2-1.1,4.9c0,1-0.1,2.1,0.5,2.8
		c0.4,0.4,1,0.4,1.5,0.3c0.6-0.2,1-0.9,1.2-1.5c0.5-1.3,0.7-2.7,0.9-4.1C347.3,21.9,347.5,20.6,347,19.7L347,19.7z M357.7,30.5
		L357.7,30.5l0.2-1.7c0.6,0,1.1-0.2,1.4-0.7c0.2-0.4,0.2-0.8,0.3-1.2l0.7-4.6c0-0.5-0.2-0.9-0.6-1.1c-0.6-0.3-1.3-0.2-1.8,0.2
		c-0.6,0.4-0.9,1.1-1.1,1.8l-0.8,4.5c0,0.4,0.3,0.7,0.7,0.9c0.1,0,0.3,0,0.4,0.1c-0.1,0.6-0.2,1.2-0.3,1.8l-0.1,0H350
		c0-0.6,0.2-1.2,0.2-1.7l0,0c0.7,0,1.3,0,1.8-0.5l0.2-0.4c0.3-1.5,0.5-3.1,0.8-4.6c0-0.3-0.1-0.5-0.4-0.6c-0.6-0.2-1.2,0.3-1.6,0.7
		c-0.2,1.2-0.5,2.3-1,3.4c-0.5,1-1.1,1.8-2,2.7c-1.1,0.9-2.4,1.4-3.9,1.2c-1.6-0.1-2.9-1.1-4-2.2c-0.7,0.5-1.4,1-2.1,1.4
		c-1.5,0.8-3.3,1.5-5,0.9c-1.6-0.8-1.8-2.7-1.6-4.4l0.1-0.9l0.9-5l0,0c-0.6,0-1.2,0-1.8,0c0.1-0.5,0.2-1,0.3-1.4
		c2.1-1.3,4.1-2.7,6.2-4l0,0.3l-0.5,3l0.1,0l3.8,0v0.1l-0.9,2.4c-0.2,0-0.3-0.1-0.4-0.2l-0.4-0.1l-2.4,0l-0.1,0.1l-1,5.8
		c0,0.7,0.2,1.3,0.8,1.6c0.8,0.3,1.5-0.2,2.1-0.5l1.1-0.7c-0.6-2.7,0.2-5.6,2.1-7.4c1.7-1.7,4.3-2.9,6.8-1.9
		c1.6,0.7,2.4,2.1,2.9,3.7l0.1,0l4.8-3.1c0.6-0.4,1.2-0.8,1.9-1.2l0,0.1c-0.1,0.9-0.3,1.7-0.4,2.5c0.3-0.1,0.5-0.4,0.8-0.6
		c1.3-1.1,3.2-2.5,5.1-1.5c1,0.7,1.4,2.1,1.2,3.5l-0.4,2.2l-0.7,3.9c-0.1,0.5-0.2,1.1,0.2,1.5c0.3,0.3,0.7,0.4,1.2,0.4l0,0
		c-0.1,0.6-0.2,1.1-0.3,1.7L357.7,30.5L357.7,30.5z"/>
	<path class="st10" d="M331.4,17.4l-1.8,0c0.1-1,0.3-2.2-0.3-2.9c-0.6-0.9-1.7-1.3-2.8-1.2c-0.9,0.1-1.7,0.7-2,1.6
		c-0.2,0.7-0.1,1.5,0.2,2.1c0.8,1.4,2,2.5,3.1,3.7c1.6,1.9,3.6,3.7,3.3,6.5c-0.2,2.3-1.5,4.6-3.7,5.5c-1.4,0.6-3.3,0.6-4.7,0.1
		c-1-0.3-1.9-0.8-2.9-1c-0.3,0-0.7,0.1-0.8,0.4c-0.1,0.1-0.1,0.3-0.2,0.4c-0.5,0.2-0.9,0.4-1.4,0.5l-0.5-1.3l-1.8-5.2l0,0
		c0.6-0.2,1.3-0.4,1.9-0.6c0.8,2.3,2.9,4.2,5.5,4.3c1.2,0.1,2.3-0.4,3-1.3c0.7-0.9,0.7-2.4,0.1-3.4c-1.4-2.8-4.6-4.5-5.3-7.7
		c-0.3-1-0.2-2.2,0.1-3.1c0.6-1.8,2.2-3.3,4.1-3.6c0.8-0.2,1.8-0.2,2.6,0c0.9,0.2,1.7,0.6,2.6,0.7c0.5,0,0.9-0.2,1.1-0.6l0.1-0.2
		l1.7,0c0,0.1,0,0.3,0,0.4L331.4,17.4L331.4,17.4L331.4,17.4z"/>
	<path class="st10" d="M310.9,32.3c-0.2-0.3-0.5-0.5-0.8-0.5c-0.9-0.1-1.8,0.2-2.6,0.2c-1.3,0-2.5-0.2-3.6-0.8
		c-0.6,0.6-1,1.3-1.2,2.2c0,0.6,0.2,1.2,0.7,1.5c0.8,0.5,1.8,0.7,2.9,0.6c1.5-0.2,2.9-0.7,4.1-1.5c0.3-0.3,0.5-0.5,0.6-0.9
		C311.1,32.7,311,32.5,310.9,32.3L310.9,32.3z M311.5,19.9c-0.1-0.5-0.5-0.8-0.9-0.9c-0.4-0.1-0.8,0-1.1,0.2c-0.8,0.6-1,1.6-1.3,2.5
		c-0.1,1-0.4,2.2,0.2,3c0.3,0.3,0.6,0.5,1.1,0.5c0.6,0,1-0.4,1.3-0.8c0.3-0.6,0.5-1.2,0.6-1.9C311.5,21.7,311.7,20.7,311.5,19.9
		L311.5,19.9z M317.8,20.2c-0.9,0-1.8,0.3-2.2,1c-0.6,0.9-0.7,2-1.2,3c-0.9,1.7-2.6,2.9-4.6,3c-1,0.1-1.9-0.2-2.8-0.4
		c-0.3,0.4-0.3,1-0.1,1.5c0.4,0.6,1.2,0.5,1.9,0.5c1.6-0.1,3.3-0.4,5-0.1c0.8,0.2,1.7,0.7,1.8,1.7c0.1,1.3-0.7,2.3-1.5,3.3
		c-1.7,1.9-3.8,3.3-6.3,3.7c-2.7,0.5-5.6,0-7.7-1.5c-0.6-0.4-1-1-0.9-1.8c0.4-1.9,2-2.7,3.5-3.6c-0.8,0-0.8,0-0.8,0l-6,0l0,0
		l0.2-1.4c0.6-0.1,1.2-0.3,1.6-0.9l0.1-0.4l0.8-5c0-0.4,0-0.9-0.3-1.2c-0.3-0.3-0.8-0.4-1.2-0.3c-1.1,0.4-1.9,1.5-2.1,2.7l-0.6,3.8
		c0,0.3,0.1,0.6,0.3,0.8c0.2,0.2,0.5,0.3,0.8,0.4l0,0.1l-0.2,1.5h-6.6c0-0.5,0.2-1,0.2-1.5c0.6-0.1,1.2-0.2,1.4-0.7l0.1-0.4l0.7-4.3
		c0-0.3-0.1-0.6-0.4-0.7c-0.3-0.1-0.6-0.1-0.9,0.1l-0.1,0l-0.8-1.4l0.1-0.1l6.9-4.3h0l0,0.3c-0.2,1-0.4,2-0.5,3
		c0.3-0.2,0.4-0.4,0.7-0.6c1.2-1.2,2.5-2.4,4.3-2.4c0.9,0.1,1.7,0.5,2.1,1.3c0.2,0.5,0.2,1.1,0.2,1.7l-0.9,5.9l-0.2,1.4
		c0,0.4,0.2,0.7,0.5,0.9c0.2,0.1,0.6,0.2,0.9,0.2c0.2-0.7,0.5-1.4,1.2-1.9c0.4-0.2,0.8-0.4,1.2-0.6c-0.2-0.3-0.5-0.7-0.8-1
		c-1-1.3-0.9-3.6-0.1-5c0.8-1.6,2.4-2.7,4.2-3c1.8-0.3,3.7,0,5.1,1.2c0.4,0.4,0.8,0.8,1.2,1.2c0.6-1,1.5-2,2.7-2.3
		c0.5-0.1,0.9-0.2,1.4-0.2l0,0l-0.9,3.3C318.1,20.2,318,20.2,317.8,20.2L317.8,20.2z"/>
	<path class="st10" d="M285,16.3c-0.5-0.2-0.7-0.7-0.7-1.2c0-1.3,1.1-2.3,2.2-2.7c0.7-0.3,1.8-0.5,2.4,0.2c0.4,0.4,0.5,0.9,0.4,1.5
		c-0.1,0.6-0.5,1-0.9,1.5C287.6,16.3,286.2,16.8,285,16.3L285,16.3z"/>
	<path class="st10" d="M263.4,19.5c-0.2-0.4-0.7-0.7-1.2-0.7c-0.7,0-1.2,0.5-1.5,1.1c-0.7,1.4-1.1,2.9-1.3,4.4
		c0,1.1-0.4,2.3,0.2,3.2c0.3,0.5,0.9,0.7,1.4,0.6c0.7-0.1,1.2-0.6,1.5-1.2c0.3-0.7,0.5-1.5,0.7-2.3l0.3-1.4
		C263.7,22.1,264,20.6,263.4,19.5L263.4,19.5z M261.9,30c-1.3,0.3-2.8,0.2-3.8-0.5c-1.9-1.1-2.9-3.2-2.9-5.4c0-0.4,0-0.6,0.1-1
		c0-0.1,0.1-0.6,0.1-0.7c0.2-0.7,0.2-0.6,0.3-0.9c0.7-1.7,2.1-2.9,3.6-3.9c1.1-0.6,2.3-0.9,3.7-0.9c1.9,0.1,3.6,1.3,4.3,3
		c0.7,1.6,0.7,3.9-0.1,5.5l-0.5,1C265.5,27.9,263.9,29.6,261.9,30L261.9,30z"/>
	<path class="st10" d="M250.7,10.5c1,0.1,2.1,0.3,3,0.7c0,0,0.1,0,0.1,0c1.6,0.6,2.8,1.9,3.4,3.5c0.6,2.1-0.1,4.2-1.5,5.6
		c-0.9,0.8-2,1.4-3.2,1.7c0,0.3,0.1,0.7,0.1,1c0.5,2.8,1.9,5.3,3.9,7.3c2.5,2.5,6,4.3,9.8,3.5c0.8-0.3,1.7-0.9,1.8-1.9
		c0-0.5-0.1-1-0.5-1.3c-0.2-0.2-0.5-0.3-0.8-0.4l0,0c-0.4,0-0.7,0-1.1-0.1l0-0.1l0.3-1.5c0.3-0.1,0.7,0,1-0.2
		c0.2-0.1,0.5-0.3,0.6-0.6l0.3-1.6l1.6-9c0-0.2,0-0.4-0.1-0.5c-0.2-0.2-0.4-0.2-0.7-0.2c-0.2,0-0.3,0.1-0.5,0.1l-0.8-1.4l0,0l4-2.5
		l2.8-1.8l0.2-0.1l0,0l-0.1,0.5l-1.7,9.8l-1,6.2c0,0.5,0.2,0.8,0.6,1.1c0.2,0.1,0.4,0.2,0.7,0.2l0,0.1l-0.2,1.4
		c-1.1,0-2.2,0-3.3,0.1c0.9,0.4,1.9,1.1,2.1,2.1c0.3,1.2-0.3,2.3-1.2,3c-3,2.3-7.8,1.6-11.1,0.4c-3-1.2-5.6-3.1-7.7-5.7
		c-1.8-2.2-2.9-4.7-3.8-7.4c-0.5,0-1-0.1-1.4,0l-0.2,0.7l-0.8,4.6c0,0.6,0.5,1.1,1,1.3c0.3,0.1,0.5,0.1,0.8,0.2
		c-0.1,0.6-0.2,1.3-0.3,1.9l-0.1,0h-9.6c-0.1,0-0.2,0-0.2-0.1c0.1-0.7,0.2-1.4,0.3-2c1.1,0.1,2.4,0,3-1l0.1-0.5l2.8-15.1
		c0,0,0,0,0,0c-1.3-0.1-2.5,0.4-3.5,1.1c0.2,0.3,0.4,0.5,0.6,0.8c0.3,0.5,0.2,1.2-0.2,1.7c-0.5,0.7-1.5,1-2.5,0.8
		c-0.8-0.1-1.5-0.7-1.7-1.5c-0.3-1.4,0.4-2.6,1.5-3.3c0.9-0.7,2.1-0.9,3.2-1.2c2.8-0.6,5.9-0.8,8.9-0.6
		C249.9,10.4,250.3,10.4,250.7,10.5L250.7,10.5z M250.6,12.9c-0.8-0.2-1.8-0.3-2.7-0.3l-0.3,1.6l-1.1,5.9l0,0.4c1,0,2.1-0.1,3-0.4
		c0.4-0.2,0.8-0.4,1.2-0.6c1.2-0.8,2.1-2.2,2.1-3.7c0-0.2,0-0.4-0.1-0.7C252.4,14.1,251.6,13.2,250.6,12.9L250.6,12.9z"/>
	<path class="st10" d="M373,23.4l-3.8,1.8c0,0.2,0.1,0.5,0.2,0.7c0.3,1,1.1,2,2.3,2.1c1,0.1,1.8-0.4,2.3-1.2
		c-0.1-0.2-0.3-0.1-0.5-0.2c-0.3-0.2-0.6-0.6-0.6-1c0-0.7,0.5-1.3,1.1-1.6c0.6-0.2,1.4-0.1,1.8,0.4c0.5,0.5,0.7,1.5,0.4,2.2
		c-0.6,2.1-2.4,3.4-4.5,3.8c-2,0.3-3.9-0.3-5.1-1.9c-1.3-1.6-1.8-4-1.1-6.1c0.6-1.9,1.6-3.7,3.4-4.7c1.5-0.9,3.8-1.3,5.4-0.3
		c1.4,0.9,2.1,2.5,2.3,4.2L373,23.4L373,23.4z M372.5,21.6l0-0.2c-0.1-0.8-0.1-1.7-0.9-2.1c-0.4-0.2-1.1-0.2-1.5,0.1
		c-1.2,0.8-1.4,2.4-1.3,3.9l0.1,0L372.5,21.6L372.5,21.6z"/>
</g>
</svg>
