<?xml version="1.0" encoding="utf-8"?>
<!-- Generator: Adobe Illustrator 21.0.0, SVG Export Plug-In . SVG Version: 6.00 Build 0)  -->
<svg version="1.1" id="Capa_1" xmlns="http://www.w3.org/2000/svg" xmlns:xlink="http://www.w3.org/1999/xlink" x="0px" y="0px"
	 viewBox="0 0 146 32" style="enable-background:new 0 0 146 32;" xml:space="preserve">
<style type="text/css">
	.st0{fill-rule:evenodd;clip-rule:evenodd;fill:#231F20;}
	.st1{fill-rule:evenodd;clip-rule:evenodd;fill:#E82D32;}
</style>
<g>
	<polygon class="st0" points="63.7,23.1 63.7,23.2 63.7,23.1 	"/>
	<path class="st0" d="M139.4,17.7l-1.9,0.9c0,0.2,0,0.3,0.1,0.5c0.9,0.1,1.7-0.4,2.1-1.1L139.4,17.7L139.4,17.7z M126.1,15
		c-0.4,0.4-0.7,1-0.8,1.6l-0.5,3c0.2-0.1,0.4-0.3,0.6-0.5c0.2-0.4,0.2-0.8,0.3-1.2L126.1,15L126.1,15z M113.3,12.9
		c-0.3,0.3-0.6,0.7-0.8,1.1c-0.6,1.5-0.9,3.2-1.1,4.9l0,0.6c0.4-0.3,0.7-0.8,0.9-1.3c0.5-1.3,0.7-2.7,0.9-4.1
		C113.3,13.6,113.3,13.2,113.3,12.9L113.3,12.9z M105.4,13.8l-0.7,0l-0.1,0.1l-0.8,4.8l0.4-0.2l1.1-0.7
		C105,16.4,105,15.1,105.4,13.8L105.4,13.8z M97.7,15.8l0.5-2.9l-1.6-1.6c0.1-0.5,0.2-1,0.3-1.4L97,9.8l-1.5-1.5
		c0-0.6,0.1-1.2,0.1-1.8c-0.3,0-0.6,0-0.9,0c-0.9,0.1-1.7,0.7-2,1.6c-0.2,0.7-0.1,1.5,0.2,2.1c0.8,1.4,2,2.5,3.1,3.7
		C96.6,14.5,97.2,15.1,97.7,15.8L97.7,15.8z M91.6,16.4c-1-2-3-3.5-4.3-5.4l-0.7,2.5c-0.1,0-0.3,0-0.4,0c-0.9,0-1.8,0.3-2.2,1
		c-0.5,0.7-0.6,1.5-0.9,2.3l2.3,2.3c0.1,0.4,0.3,0.8,0.6,1.2c0.8,0.4,1.6,0.7,2.5,0.7c1.2,0.1,2.3-0.4,3-1.3
		C92.1,18.9,92.2,17.4,91.6,16.4L91.6,16.4z M82.6,21.8l-1-2.9c-0.4,0.4-0.7,0.6-1.2,0.9c0.2,0.1,0.5,0.3,0.7,0.5L82.6,21.8
		L82.6,21.8z M77.5,12.8c-0.5,0.6-0.7,1.4-0.9,2.2l-0.1,0.7c0.1-0.1,0.2-0.2,0.2-0.3c0.3-0.6,0.5-1.2,0.6-1.9
		C77.4,13.3,77.4,13.1,77.5,12.8L77.5,12.8z M75.7,25.3c-1.3,0-2.4-0.2-3.4-0.8c-0.5,0.5-0.9,1.2-1.1,1.9c0.4,0,0.7,0,1.1,0
		C73.5,26.2,74.7,25.9,75.7,25.3L75.7,25.3z M70.6,17.4c0.3-0.2,0.6-0.3,0.9-0.4c-0.2-0.3-0.5-0.6-0.7-0.9L70.6,17.4L70.6,17.4z
		 M64.3,15.1c-0.5,0.5-0.9,1.2-1,1.9l-0.4,2.5c0.3-0.1,0.5-0.3,0.7-0.6l0.1-0.4L64.3,15.1L64.3,15.1z M57.1,14.8L56.2,14l-1,5.7
		c0.4-0.1,0.9-0.3,1.1-0.7l0.1-0.4L57.1,14.8L57.1,14.8z M49.4,14.9l-0.8-0.8l-0.2,1.1l-0.7,4c0,0.1,0,0.3-0.1,0.4
		c0.4-0.1,0.8-0.4,1-0.8l0.1-0.4L49.4,14.9L49.4,14.9z M42.8,9.1L42,8.2l-1.1,6.2l-0.8,5c0.5-0.1,0.9-0.3,1.1-0.8l0.1-0.6L42.8,9.1
		L42.8,9.1z M33.9,23.4l-1.2-1.2c-0.7,0.6-1.5,1-2.5,1.2c-1.3,0.3-2.7,0.2-3.8-0.5c-0.5-0.3-0.9-0.6-1.2-1l-2.3-2.3
		c-1.1-1.1-1.8-2.7-1.8-4.4l-0.3,0.1c0,0.3,0.1,0.7,0.1,1c0.4,2.2,1.4,4.2,2.7,6c2.4,1.9,5.3,3.1,8.6,2.4
		C33,24.5,33.6,24.1,33.9,23.4L33.9,23.4z M27.6,18.9c0.4-0.2,0.7-0.6,0.9-1c0.3-0.7,0.5-1.5,0.7-2.3l0.3-1.4
		c0.1-0.6,0.2-1.2,0.2-1.8c-0.3,0.2-0.5,0.5-0.7,0.8c-0.7,1.4-1.1,2.9-1.3,4.4C27.7,18.1,27.7,18.5,27.6,18.9L27.6,18.9z M18.8,6.8
		c0-0.2,0-0.4-0.1-0.6C17.9,6,17.1,5.9,16.3,6L16,7.6l-0.7,3.6l0.2,0c0.4-0.2,0.8-0.4,1.2-0.6C17.9,9.7,18.8,8.4,18.8,6.8L18.8,6.8z
		 M8.6,6.7C8.4,6.8,8.2,6.9,8,7c0.1,0.2,0.3,0.4,0.4,0.5L8.6,6.7L8.6,6.7z M144,17.8c0.5,0.5,0.7,1.5,0.4,2.2
		c-0.6,2.1-2.4,3.4-4.5,3.8c-1.8,0.2-3.5-0.2-4.8-1.4l-2.2-2.3c-0.2-0.2-0.3-0.3-0.5-0.5c-0.2-0.2-0.3-0.4-0.5-0.7l-0.2,1.3
		c0,0.1-0.1,0.3-0.1,0.5l0,0l1.4,1.4l0,0c-0.1,0.6-0.2,1.1-0.3,1.7l-6.8,0l-0.6-0.6l-0.1,0.6l-0.1,0h-6.9l-1.6-1.6l-0.4,0.4
		c-1.1,0.9-2.4,1.4-3.9,1.2c-1.5-0.1-2.8-1-3.8-2l-0.1-0.1l0,0c-0.7,0.5-1.3,1-2.1,1.4c-1.5,0.8-3.3,1.5-5,0.9
		c-0.3-0.2-0.6-0.4-0.8-0.6L99,21.9c-0.5,1.7-1.7,3.3-3.4,3.9c-1.4,0.6-3.3,0.6-4.7,0.1c-1-0.3-1.9-0.8-2.9-1
		c-0.3,0-0.7,0.1-0.8,0.4c-0.1,0.1-0.1,0.3-0.2,0.4c-0.5,0.2-0.9,0.4-1.4,0.5l-1.9-1.9c-0.2,1-0.8,1.8-1.4,2.5
		c-1.7,1.8-3.8,3.3-6.3,3.7c-2.7,0.5-5.6,0-7.7-1.5c-0.1-0.1-0.2-0.2-0.4-0.3l-2.2-2.2c-0.4-0.4-0.7-1-0.6-1.6
		c0.1-0.5,0.3-0.9,0.5-1.3h-1.5l0,0l-0.4-0.4l0-0.1h-0.1l0,0l-0.1,0.5H57l-0.5-0.5l-0.1,0.5l-7.3,0L48.6,23l-0.1,0.5l-0.2,0
		l-6.8-0.1L41,22.9l-0.1,0.5c-1,0-1.8,0-2.8,0l0.9,1c0.3,0.3,0.6,0.7,0.7,1.2c0.2,1.2-0.3,2.3-1.2,3c-3,2.3-7.8,1.6-11.1,0.4
		c-2.5-1-4.6-2.4-6.5-4.3l-2.2-2.3c-0.5-0.5-0.9-0.9-1.3-1.4c-1.2-1.5-2.2-3.2-2.9-5l-0.1,0.6l-0.8,4.3l1.8,1.8
		c-0.1,0.6-0.2,1.3-0.3,1.9l-0.1,0H5.4c-0.1,0-0.1,0-0.2-0.1l-2.3-2.4c0.1-0.7,0.2-1.4,0.3-2c1.1,0.1,2.4,0,3-1l0.1-0.5L8,9.9
		c-0.5,0.4-1.3,0.6-2.1,0.4C5.4,10.3,5,10.1,4.7,9.7L2.4,7.5c-0.3-0.3-0.5-0.6-0.6-1C1.6,5.1,2.3,3.9,3.3,3.2C4.3,2.5,5.4,2.2,6.5,2
		c2.8-0.6,5.9-0.8,8.9-0.6c0.4,0,0.8,0.1,1.3,0.1c1,0.1,2.1,0.3,3,0.7c0,0,0.1,0,0.1,0c0.8,0.3,1.5,0.8,2.1,1.4l2.3,2.2
		c0.6,0.6,1.1,1.4,1.4,2.2c0,0.1,0.1,0.3,0.1,0.4c1-0.5,2.1-0.7,3.3-0.8c1.2,0,2.4,0.6,3.2,1.4l2.5,2.5l0.5-2.9l-1.2-1.2l-0.8-1.4
		l0,0l4-2.5l2.8-1.8l0.2-0.1l2.3,2.4l0,0l-0.1,0.5l-0.1,0.5l5.4-3.5l0.1,0l2.4,2.4c0,0.8-0.3,1.6-0.4,2.4l-0.8,4.6L52.6,9l-1.9-1.9
		c-0.3-0.2-0.4-0.6-0.4-1c0-1.3,1.1-2.3,2.2-2.7c0.7-0.2,1.8-0.4,2.4,0.2l2.4,2.4c0.4,0.4,0.5,0.9,0.4,1.5c-0.1,0.6-0.5,1-0.9,1.5
		c-0.2,0.2-0.5,0.4-0.8,0.6l0.9,0.9l0,0.4l-0.1,0.5L62,7.9h0l1.5,1.5c0.9-0.7,1.8-1.2,3-1.2c0.7,0.1,1.3,0.4,1.8,0.8l2.2,2.2
		l0.1-0.2c0.8-1.6,2.4-2.7,4.2-3c1.8-0.3,3.7,0,5.1,1.2l0.3,0.3l0.8,0.8c0.6-1,1.5-2,2.7-2.3c0.5-0.1,0.9-0.2,1.4-0.2L86.4,9
		l-0.1-0.3c-0.3-1-0.2-2.2,0.1-3.1c0.6-1.8,2.2-3.3,4.1-3.6c0.8-0.2,1.8-0.2,2.6,0c0.9,0.2,1.7,0.6,2.6,0.7c0.5,0,0.9-0.2,1.1-0.6
		l0.1-0.2l1.7,0l2.4,2.4c0,0.1,0,0.3,0,0.4l-0.5,3.2c1-0.6,1.9-1.2,2.9-1.8l2.3,2.4l0,0.3l-0.1,0.6l1.1,0l1,1
		c1.7-1.7,4.3-2.8,6.7-1.8c0.5,0.2,1,0.5,1.4,0.9l2.3,2.3L122,9c0.6-0.4,1.2-0.8,1.9-1.2l1.3,1.3c1.2-0.9,2.7-1.6,4.2-0.8
		c0.1,0.1,0.3,0.2,0.4,0.3l2.2,2.2c0.1,0.1,0.2,0.2,0.3,0.4c0.6-1,1.4-1.9,2.5-2.5c1.5-0.9,3.8-1.3,5.4-0.3c0.3,0.2,0.6,0.4,0.8,0.6
		l2.3,2.3c1,0.9,1.5,2.3,1.6,3.6l-2.5,1.2L144,17.8L144,17.8z"/>
	<path class="st1" d="M52.9,19.2c0.3,0.4,0.8,0.6,1.4,0.6l0,0.1L54,21.2l-7.3,0l0,0l0.2-1.4c0.7,0,1.5-0.2,1.8-0.9l0.1-0.4l0.7-3.9
		c0-0.3,0-0.5-0.2-0.7c-0.2-0.2-0.7-0.1-0.9,0c-0.3-0.5-0.6-1.1-0.8-1.6l0-0.1l6.4-3.9l0.5-0.3l0,0l0,0.4l-1.7,9.7
		C52.7,18.4,52.6,18.9,52.9,19.2L52.9,19.2z"/>
	<path class="st1" d="M46.7,9.7c-0.2,1.1-0.4,2.1-0.6,3.2l-0.7,4c-0.1,0.6-0.3,1.2-0.2,1.9c0.1,0.4,0.5,0.8,0.9,0.9
		c0.1,0,0.2,0,0.2,0.1l-0.2,1.4l-0.2,0l-6.8-0.1l0-0.1l0.2-1.5c0.7-0.1,1.5-0.2,1.7-0.9l0.1-0.6l1.6-9.3c0-0.4,0.1-0.8-0.3-1
		c-0.3-0.2-0.7-0.1-1,0l-0.1,0l-0.8-1.4l0-0.1l7.2-4.6l0.1,0c0,0.8-0.3,1.6-0.4,2.4L46.7,9.7L46.7,9.7z"/>
	<path class="st1" d="M113,10.7c-0.3-0.4-0.8-0.6-1.3-0.5c-0.8,0.1-1.2,0.8-1.5,1.5c-0.6,1.5-0.9,3.2-1.1,4.9c0,1-0.1,2.1,0.5,2.8
		c0.4,0.4,1,0.4,1.5,0.3c0.6-0.2,1-0.9,1.2-1.5c0.5-1.3,0.7-2.7,0.9-4.1C113.3,12.9,113.5,11.6,113,10.7L113,10.7z M123.7,21.5
		L123.7,21.5l0.2-1.7c0.6,0,1.1-0.2,1.4-0.7c0.2-0.4,0.2-0.8,0.3-1.2l0.7-4.6c0-0.5-0.2-0.9-0.6-1.1c-0.6-0.3-1.3-0.2-1.8,0.2
		c-0.6,0.4-0.9,1.1-1.1,1.8l-0.8,4.5c0,0.4,0.3,0.7,0.7,0.9c0.1,0,0.3,0,0.4,0.1c-0.1,0.6-0.2,1.2-0.3,1.8l-0.1,0H116
		c0-0.6,0.2-1.2,0.2-1.7l0,0c0.7,0,1.3,0,1.8-0.5l0.2-0.4c0.3-1.5,0.5-3.1,0.8-4.6c0-0.3-0.1-0.5-0.4-0.6c-0.6-0.2-1.2,0.3-1.6,0.7
		c-0.2,1.2-0.5,2.3-1,3.4c-0.5,1-1.1,1.8-2,2.7c-1.1,0.9-2.4,1.4-3.9,1.2c-1.6-0.1-2.9-1.1-4-2.2c-0.7,0.5-1.4,1-2.1,1.4
		c-1.5,0.8-3.3,1.5-5,0.9c-1.6-0.8-1.8-2.7-1.6-4.4l0.1-0.9l0.9-5l0,0c-0.6,0-1.2,0-1.8,0c0.1-0.5,0.2-1,0.3-1.4
		c2.1-1.3,4.1-2.7,6.2-4l0,0.3l-0.5,3l0.1,0l3.8,0v0.1l-0.9,2.4c-0.2,0-0.3-0.1-0.4-0.2l-0.4-0.1l-2.4,0l-0.1,0.1l-1,5.8
		c0,0.7,0.2,1.3,0.8,1.6c0.8,0.3,1.5-0.2,2.1-0.5l1.1-0.7c-0.6-2.7,0.2-5.6,2.1-7.4c1.7-1.7,4.3-2.9,6.8-1.9
		c1.6,0.7,2.4,2.1,2.9,3.7l0.1,0L122,9c0.6-0.4,1.2-0.8,1.9-1.2l0,0.1c-0.1,0.9-0.3,1.7-0.4,2.5c0.3-0.1,0.5-0.4,0.8-0.6
		c1.3-1.1,3.2-2.5,5.1-1.5c1,0.7,1.4,2.1,1.2,3.5l-0.4,2.2l-0.7,3.9c-0.1,0.5-0.2,1.1,0.2,1.5c0.3,0.3,0.7,0.4,1.2,0.4l0,0
		c-0.1,0.6-0.2,1.1-0.3,1.7L123.7,21.5L123.7,21.5z"/>
	<path class="st1" d="M97.4,8.4l-1.8,0c0.1-1,0.3-2.2-0.3-2.9c-0.6-0.9-1.7-1.3-2.8-1.2c-0.9,0.1-1.7,0.7-2,1.6
		c-0.2,0.7-0.1,1.5,0.2,2.1c0.8,1.4,2,2.5,3.1,3.7c1.6,1.9,3.6,3.7,3.3,6.5c-0.2,2.3-1.5,4.6-3.7,5.5c-1.4,0.6-3.3,0.6-4.7,0.1
		c-1-0.3-1.9-0.8-2.9-1c-0.3,0-0.7,0.1-0.8,0.4c-0.1,0.1-0.1,0.3-0.2,0.4c-0.5,0.2-0.9,0.4-1.4,0.5l-0.5-1.3l-1.8-5.2l0,0
		c0.6-0.2,1.3-0.4,1.9-0.6c0.8,2.3,2.9,4.2,5.5,4.3c1.2,0.1,2.3-0.4,3-1.3c0.7-0.9,0.7-2.4,0.1-3.4c-1.4-2.8-4.6-4.5-5.3-7.7
		c-0.3-1-0.2-2.2,0.1-3.1c0.6-1.8,2.2-3.3,4.1-3.6c0.8-0.2,1.8-0.2,2.6,0c0.9,0.2,1.7,0.6,2.6,0.7c0.5,0,0.9-0.2,1.1-0.6l0.1-0.2
		l1.7,0c0,0.1,0,0.3,0,0.4L97.4,8.4L97.4,8.4L97.4,8.4z"/>
	<path class="st1" d="M76.9,23.3c-0.2-0.3-0.5-0.5-0.8-0.5c-0.9-0.1-1.8,0.2-2.6,0.2c-1.3,0-2.5-0.2-3.6-0.8c-0.6,0.6-1,1.3-1.2,2.2
		c0,0.6,0.2,1.2,0.7,1.5c0.8,0.5,1.8,0.7,2.9,0.6c1.5-0.2,2.9-0.7,4.1-1.5c0.3-0.3,0.5-0.5,0.6-0.9C77.1,23.7,77,23.5,76.9,23.3
		L76.9,23.3z M77.5,10.8c-0.1-0.5-0.5-0.8-0.9-0.9c-0.4-0.1-0.8,0-1.1,0.2c-0.8,0.6-1,1.6-1.3,2.5c-0.1,1-0.4,2.2,0.2,3
		c0.3,0.3,0.6,0.5,1.1,0.5c0.6,0,1-0.4,1.3-0.8c0.3-0.6,0.5-1.2,0.6-1.9C77.5,12.7,77.7,11.7,77.5,10.8L77.5,10.8z M83.8,11.2
		c-0.9,0-1.8,0.3-2.2,1c-0.6,0.9-0.7,2-1.2,3c-0.9,1.7-2.6,2.9-4.6,3c-1,0.1-1.9-0.2-2.8-0.4c-0.3,0.4-0.3,1-0.1,1.5
		c0.4,0.6,1.2,0.5,1.9,0.5c1.6-0.1,3.3-0.4,5-0.1c0.8,0.2,1.7,0.7,1.8,1.7c0.1,1.3-0.7,2.3-1.5,3.3c-1.7,1.9-3.8,3.3-6.3,3.7
		c-2.7,0.5-5.6,0-7.7-1.5c-0.6-0.4-1-1-0.9-1.8c0.4-1.9,2-2.7,3.5-3.6c-0.8,0-0.8,0-0.8,0l-6,0l0,0l0.2-1.4c0.6-0.1,1.2-0.3,1.6-0.9
		l0.1-0.4l0.8-5c0-0.4,0-0.9-0.3-1.2C64,12,63.5,11.9,63.1,12c-1.1,0.4-1.9,1.5-2.1,2.7l-0.6,3.8c0,0.3,0.1,0.6,0.3,0.8
		c0.2,0.2,0.5,0.3,0.8,0.4l0,0.1l-0.2,1.5h-6.6c0-0.5,0.2-1,0.2-1.5c0.6-0.1,1.2-0.2,1.4-0.7l0.1-0.4l0.7-4.3c0-0.3-0.1-0.6-0.4-0.7
		c-0.3-0.1-0.6-0.1-0.9,0.1l-0.1,0L55,12.2l0.1-0.1L62,7.9h0l0,0.3c-0.2,1-0.4,2-0.5,3c0.3-0.2,0.4-0.4,0.7-0.6
		c1.2-1.2,2.5-2.4,4.3-2.4c0.9,0.1,1.7,0.5,2.1,1.3c0.2,0.5,0.2,1.1,0.2,1.7l-0.9,5.9l-0.2,1.4c0,0.4,0.2,0.7,0.5,0.9
		c0.2,0.1,0.6,0.2,0.9,0.2c0.2-0.7,0.5-1.4,1.2-1.9c0.4-0.2,0.8-0.4,1.2-0.6c-0.2-0.3-0.5-0.7-0.8-1c-1-1.3-0.9-3.6-0.1-5
		c0.8-1.6,2.4-2.7,4.2-3c1.8-0.3,3.7,0,5.1,1.2c0.4,0.4,0.8,0.8,1.2,1.2c0.6-1,1.5-2,2.7-2.3c0.5-0.1,0.9-0.2,1.4-0.2l0,0l-0.9,3.3
		C84.2,11.2,84,11.2,83.8,11.2L83.8,11.2z"/>
	<path class="st1" d="M51,7.3c-0.5-0.2-0.7-0.7-0.7-1.2c0-1.3,1.1-2.3,2.2-2.7c0.7-0.3,1.8-0.5,2.4,0.2c0.4,0.4,0.5,0.9,0.4,1.5
		c-0.1,0.6-0.5,1-0.9,1.5C53.6,7.3,52.2,7.8,51,7.3L51,7.3z"/>
	<path class="st1" d="M29.4,10.5c-0.2-0.4-0.7-0.7-1.2-0.7c-0.7,0-1.2,0.5-1.5,1.1c-0.7,1.4-1.1,2.9-1.3,4.4c0,1.1-0.4,2.3,0.2,3.2
		c0.3,0.5,0.9,0.7,1.4,0.6c0.7-0.1,1.2-0.6,1.5-1.2c0.3-0.7,0.5-1.5,0.7-2.3l0.3-1.4C29.7,13.1,30,11.6,29.4,10.5L29.4,10.5z
		 M27.9,21c-1.3,0.3-2.8,0.2-3.8-0.5c-1.9-1.1-2.9-3.2-2.9-5.4c0-0.4,0-0.6,0.1-1c0-0.1,0.1-0.6,0.1-0.7c0.2-0.7,0.2-0.6,0.3-0.9
		c0.7-1.7,2.1-2.9,3.6-3.9C26.4,8,27.6,7.7,29,7.7c1.9,0.1,3.6,1.3,4.3,3c0.7,1.6,0.7,3.9-0.1,5.5l-0.5,1
		C31.5,18.9,29.9,20.6,27.9,21L27.9,21z"/>
	<path class="st1" d="M16.7,1.4c1,0.1,2.1,0.3,3,0.7c0,0,0.1,0,0.1,0c1.6,0.6,2.8,1.9,3.4,3.5c0.6,2.1-0.1,4.2-1.5,5.6
		c-0.9,0.8-2,1.4-3.2,1.7c0,0.3,0.1,0.7,0.1,1c0.5,2.8,1.9,5.3,3.9,7.3c2.5,2.5,6,4.3,9.8,3.5c0.8-0.3,1.7-0.9,1.8-1.9
		c0-0.5-0.1-1-0.5-1.3c-0.2-0.2-0.5-0.3-0.8-0.4l0,0c-0.4,0-0.7,0-1.1-0.1l0-0.1l0.3-1.5c0.3-0.1,0.7,0,1-0.2
		c0.2-0.1,0.5-0.3,0.6-0.6l0.3-1.6l1.6-9c0-0.2,0-0.4-0.1-0.5c-0.2-0.2-0.4-0.2-0.7-0.2c-0.2,0-0.3,0.1-0.5,0.1l-0.8-1.4l0,0l4-2.5
		l2.8-1.8l0.2-0.1l0,0l-0.1,0.5l-1.7,9.8l-1,6.2c0,0.5,0.2,0.8,0.6,1.1c0.2,0.1,0.4,0.2,0.7,0.2l0,0.1l-0.2,1.4
		c-1.1,0-2.2,0-3.3,0.1c0.9,0.4,1.9,1.1,2.1,2.1c0.3,1.2-0.3,2.3-1.2,3c-3,2.3-7.8,1.6-11.1,0.4c-3-1.2-5.6-3.1-7.7-5.7
		c-1.8-2.2-2.9-4.7-3.8-7.4c-0.5,0-1-0.1-1.4,0L12,14.3l-0.8,4.6c0,0.6,0.5,1.1,1,1.3c0.3,0.1,0.5,0.1,0.8,0.2
		c-0.1,0.6-0.2,1.3-0.3,1.9l-0.1,0H3.1c-0.1,0-0.2,0-0.2-0.1c0.1-0.7,0.2-1.4,0.3-2c1.1,0.1,2.4,0,3-1l0.1-0.5L9.1,3.7c0,0,0,0,0,0
		C7.8,3.6,6.6,4,5.6,4.7c0.2,0.3,0.4,0.5,0.6,0.8C6.5,6,6.4,6.7,6,7.2C5.5,7.9,4.5,8.2,3.6,8C2.8,7.9,2,7.3,1.9,6.5
		C1.6,5.1,2.3,3.9,3.3,3.2C4.3,2.5,5.4,2.2,6.5,2c2.8-0.6,5.9-0.8,8.9-0.6C15.9,1.4,16.3,1.4,16.7,1.4L16.7,1.4z M16.6,3.9
		c-0.8-0.2-1.8-0.3-2.7-0.3l-0.3,1.6l-1.1,5.9l0,0.4c1,0,2.1-0.1,3-0.4c0.4-0.2,0.8-0.4,1.2-0.6c1.2-0.8,2.1-2.2,2.1-3.7
		c0-0.2,0-0.4-0.1-0.7C18.4,5.1,17.6,4.2,16.6,3.9L16.6,3.9z"/>
	<path class="st1" d="M139,14.4l-3.8,1.8c0,0.2,0.1,0.5,0.2,0.7c0.3,1,1.1,2,2.3,2.1c1,0.1,1.8-0.4,2.3-1.2
		c-0.1-0.2-0.3-0.1-0.5-0.2c-0.3-0.2-0.6-0.6-0.6-1c0-0.7,0.5-1.3,1.1-1.6c0.6-0.2,1.4-0.1,1.8,0.4c0.5,0.5,0.7,1.5,0.4,2.2
		c-0.6,2.1-2.4,3.4-4.5,3.8c-2,0.3-3.9-0.3-5.1-1.9c-1.3-1.6-1.8-4-1.1-6.1c0.6-1.9,1.6-3.7,3.4-4.7c1.5-0.9,3.8-1.3,5.4-0.3
		c1.4,0.9,2.1,2.5,2.3,4.2L139,14.4L139,14.4z M138.5,12.6l0-0.2c-0.1-0.8-0.1-1.7-0.9-2.1c-0.4-0.2-1.1-0.2-1.5,0.1
		c-1.2,0.8-1.4,2.4-1.3,3.9l0.1,0L138.5,12.6L138.5,12.6z"/>
</g>
</svg>
