<?xml version="1.0" encoding="utf-8"?>
<!-- Generator: Adobe Illustrator 20.1.0, SVG Export Plug-In . SVG Version: 6.00 Build 0)  -->
<svg version="1.1" id="Capa_1" xmlns="http://www.w3.org/2000/svg" xmlns:xlink="http://www.w3.org/1999/xlink" x="0px" y="0px"
	 viewBox="0 0 147.5 62" style="enable-background:new 0 0 147.5 62;" xml:space="preserve">
<style type="text/css">
	.st0{fill:#333333;}
</style>
<g>
	<g>
		<path class="st0" d="M7.1,50H8v2.5c0,0.4,0,0.6,0,0.8s0.1,0.3,0.3,0.4c0.1,0.1,0.3,0.2,0.6,0.2s0.5-0.1,0.6-0.2
			c0.1-0.1,0.2-0.2,0.2-0.4s0-0.4,0-0.8V50h0.9v2.4c0,0.5,0,0.9-0.1,1.2c0,0.2-0.1,0.4-0.3,0.6c-0.1,0.2-0.3,0.3-0.5,0.4
			c-0.2,0.1-0.5,0.1-0.9,0.1s-0.8,0-1-0.2c-0.2-0.1-0.4-0.2-0.5-0.4S7.1,53.8,7,53.6c-0.1-0.3-0.1-0.6-0.1-1.2V50H7.1z"/>
		<polygon class="st0" points="13.6,54.5 13.6,50 14.5,50 16.3,53 16.3,50 17.2,50 17.2,54.5 16.3,54.5 14.4,51.5 14.4,54.5 		"/>
		<rect x="20.1" y="50" class="st0" width="0.9" height="4.5"/>
		<polygon class="st0" points="25.5,54.5 23.9,50 24.9,50 26,53.3 27.1,50 28.1,50 26.5,54.5 		"/>
		<polygon class="st0" points="31,54.5 31,50 34.3,50 34.3,50.7 31.9,50.7 31.9,51.8 34.2,51.8 34.2,52.5 31.9,52.5 31.9,53.8 
			34.4,53.8 34.4,54.5 		"/>
		<path class="st0" d="M37.3,54.5V50h1.9c0.5,0,0.8,0,1.1,0.1c0.2,0.1,0.4,0.2,0.5,0.4C41,50.7,41,51,41,51.3s-0.1,0.6-0.3,0.8
			s-0.5,0.4-0.9,0.4c0.2,0.1,0.4,0.2,0.5,0.4c0.1,0.1,0.3,0.4,0.5,0.7l0.6,0.9h-1.1l-0.7-1c-0.2-0.4-0.4-0.6-0.5-0.7
			c-0.1-0.1-0.2-0.2-0.3-0.2s-0.3-0.1-0.5-0.1h-0.2v1.9L37.3,54.5L37.3,54.5z M38.2,51.9L38.2,51.9h0.7c0.4,0,0.7,0,0.8-0.1
			c0.1,0,0.2-0.1,0.3-0.2c0.1-0.1,0.1-0.2,0.1-0.3c0-0.2,0-0.3-0.1-0.4c-0.1-0.1-0.2-0.2-0.3-0.2s-0.3,0-0.7,0h-0.7L38.2,51.9
			L38.2,51.9z"/>
		<path class="st0" d="M44.3,53.1l0.9-0.1c0.1,0.3,0.2,0.5,0.3,0.7c0.2,0.1,0.4,0.2,0.7,0.2s0.5-0.1,0.7-0.2
			c0.1-0.1,0.2-0.3,0.2-0.4c0-0.1,0-0.2-0.1-0.3s-0.2-0.1-0.3-0.2c-0.1,0-0.4-0.1-0.7-0.2c-0.5-0.1-0.8-0.3-1-0.4
			c-0.3-0.3-0.4-0.6-0.4-0.9c0-0.2,0.1-0.4,0.2-0.7c0.1-0.2,0.3-0.4,0.6-0.5c0.2-0.1,0.5-0.2,0.9-0.2c0.6,0,1,0.1,1.3,0.4
			c0.3,0.3,0.4,0.6,0.5,1h-0.9c0-0.2-0.1-0.4-0.3-0.5c-0.1-0.1-0.3-0.2-0.6-0.2s-0.5,0.1-0.6,0.2c-0.1,0.1-0.1,0.2-0.1,0.3
			s0,0.2,0.1,0.3s0.4,0.2,0.8,0.3c0.4,0.1,0.8,0.2,1,0.3s0.4,0.3,0.5,0.5s0.2,0.4,0.2,0.7s-0.1,0.5-0.2,0.7
			c-0.1,0.2-0.3,0.4-0.6,0.5s-0.6,0.2-1,0.2c-0.6,0-1-0.1-1.3-0.4C44.5,53.9,44.4,53.6,44.3,53.1z"/>
		<path class="st0" d="M55.4,54.5h-1l-0.4-1h-1.8l-0.4,1h-1l1.8-4.5h1L55.4,54.5L55.4,54.5z M53.8,52.7L53.8,52.7L53.1,51l-0.6,1.7
			H53.8z"/>
		<polygon class="st0" points="58.3,54.5 58.3,50 59.2,50 59.2,53.8 61.5,53.8 61.5,54.5 		"/>
		<polygon class="st0" points="68.6,54.5 68.6,50 70,50 70.8,53.1 71.6,50 73,50 73,54.5 72.1,54.5 72.1,50.9 71.2,54.5 70.4,54.5 
			69.5,50.9 69.5,54.5 		"/>
		<path class="st0" d="M76.2,50h0.9v2.5c0,0.4,0,0.6,0,0.8s0.1,0.3,0.3,0.4c0.1,0.1,0.3,0.2,0.6,0.2c0.3,0,0.5-0.1,0.6-0.2
			c0.1-0.1,0.2-0.2,0.2-0.4s0-0.4,0-0.8V50h0.9v2.4c0,0.5,0,0.9-0.1,1.2c0,0.2-0.1,0.4-0.3,0.6c-0.1,0.2-0.3,0.3-0.5,0.4
			c-0.2,0.1-0.5,0.1-0.9,0.1s-0.8,0-1-0.2c-0.2-0.1-0.4-0.2-0.5-0.4s-0.2-0.3-0.3-0.5C76,53.3,76,53,76,52.4V50H76.2z"/>
		<path class="st0" d="M83,53.1l0.9-0.1c0.1,0.3,0.2,0.5,0.3,0.7c0.2,0.1,0.4,0.2,0.7,0.2c0.3,0,0.5-0.1,0.7-0.2
			c0.1-0.1,0.2-0.3,0.2-0.4c0-0.1,0-0.2-0.1-0.3s-0.2-0.1-0.3-0.2c-0.1,0-0.4-0.1-0.7-0.2c-0.5-0.1-0.8-0.3-1-0.4
			c-0.3-0.3-0.4-0.6-0.4-0.9c0-0.2,0.1-0.4,0.2-0.7c0.1-0.2,0.3-0.4,0.6-0.5c0.2-0.1,0.5-0.2,0.9-0.2c0.6,0,1,0.1,1.3,0.4
			c0.3,0.3,0.4,0.6,0.5,1h-0.9c0-0.2-0.1-0.4-0.3-0.5c-0.1-0.1-0.3-0.2-0.6-0.2c-0.3,0-0.5,0.1-0.6,0.2C84.1,50.9,84,51,84,51.1
			s0,0.2,0.1,0.3s0.4,0.2,0.8,0.3s0.8,0.2,1,0.3s0.4,0.3,0.5,0.5s0.2,0.4,0.2,0.7s-0.1,0.5-0.2,0.7s-0.3,0.4-0.6,0.5
			c-0.3,0.1-0.6,0.2-1,0.2c-0.6,0-1-0.1-1.3-0.4C83.2,53.9,83,53.6,83,53.1z"/>
		<rect x="89.8" y="50" class="st0" width="0.9" height="4.5"/>
		<path class="st0" d="M97,52.9l0.9,0.3c-0.1,0.5-0.4,0.9-0.7,1.1c-0.3,0.2-0.7,0.4-1.2,0.4c-0.6,0-1.1-0.2-1.5-0.6
			c-0.4-0.4-0.6-1-0.6-1.7c0-0.8,0.2-1.3,0.6-1.8c0.4-0.4,0.9-0.6,1.5-0.6s1,0.2,1.3,0.5c0.2,0.2,0.4,0.5,0.5,0.8L97,51.4
			c-0.1-0.2-0.2-0.4-0.3-0.6c-0.2-0.1-0.4-0.2-0.6-0.2c-0.3,0-0.6,0.1-0.8,0.4c-0.2,0.2-0.3,0.6-0.3,1.2c0,0.6,0.1,1,0.3,1.2
			c0.2,0.2,0.5,0.4,0.8,0.4c0.2,0,0.5-0.1,0.6-0.2C96.8,53.4,96.9,53.2,97,52.9z"/>
		<path class="st0" d="M106.2,52.9v-0.8h2v1.8c-0.2,0.2-0.5,0.4-0.8,0.5c-0.4,0.1-0.7,0.2-1.1,0.2c-0.5,0-0.9-0.1-1.2-0.3
			c-0.4-0.2-0.6-0.5-0.8-0.9c-0.2-0.4-0.3-0.8-0.3-1.2c0-0.5,0.1-0.9,0.3-1.3c0.2-0.4,0.5-0.7,0.9-0.8c0.3-0.2,0.7-0.2,1.1-0.2
			c0.6,0,1,0.1,1.3,0.4c0.3,0.2,0.5,0.6,0.6,1l-0.9,0.2c-0.1-0.2-0.2-0.4-0.4-0.5c-0.2-0.1-0.4-0.2-0.7-0.2c-0.4,0-0.7,0.1-1,0.4
			c-0.2,0.3-0.4,0.6-0.4,1.1s0.1,0.9,0.4,1.2c0.2,0.3,0.6,0.4,0.9,0.4c0.2,0,0.4,0,0.6-0.1s0.4-0.2,0.5-0.3v-0.6
			C107.2,52.9,106.2,52.9,106.2,52.9z"/>
		<path class="st0" d="M111.2,54.5V50h1.9c0.5,0,0.8,0,1.1,0.1c0.2,0.1,0.4,0.2,0.5,0.4s0.2,0.4,0.2,0.7s-0.1,0.6-0.3,0.8
			c-0.2,0.2-0.5,0.4-0.9,0.4c0.2,0.1,0.4,0.2,0.5,0.4c0.1,0.1,0.3,0.4,0.5,0.7l0.6,0.9h-1.1l-0.7-1c-0.2-0.4-0.4-0.6-0.5-0.7
			c-0.1-0.1-0.2-0.2-0.3-0.2c-0.1,0-0.3-0.1-0.5-0.1H112v1.9h-0.8V54.5z M112.1,51.9L112.1,51.9h0.7c0.4,0,0.7,0,0.8-0.1
			c0.1,0,0.2-0.1,0.3-0.2c0.1-0.1,0.1-0.2,0.1-0.3c0-0.2,0-0.3-0.1-0.4c-0.1-0.1-0.2-0.2-0.3-0.2c-0.1,0-0.3,0-0.7,0h-0.7v1.2H112.1
			z"/>
		<path class="st0" d="M118.3,52.3c0-0.5,0.1-0.9,0.2-1.2c0.1-0.2,0.2-0.4,0.4-0.6c0.2-0.2,0.4-0.3,0.6-0.4c0.3-0.1,0.6-0.2,1-0.2
			c0.7,0,1.2,0.2,1.6,0.6c0.4,0.4,0.6,1,0.6,1.7s-0.2,1.3-0.6,1.7s-0.9,0.6-1.6,0.6s-1.2-0.2-1.6-0.6
			C118.5,53.6,118.3,53,118.3,52.3L118.3,52.3z M119.2,52.2L119.2,52.2c0,0.5,0.1,0.9,0.4,1.2c0.2,0.3,0.5,0.4,0.9,0.4
			s0.7-0.1,0.9-0.4c0.2-0.3,0.4-0.7,0.4-1.2s-0.1-0.9-0.3-1.2c-0.2-0.3-0.5-0.4-0.9-0.4s-0.7,0.1-0.9,0.4
			C119.3,51.3,119.2,51.7,119.2,52.2z"/>
		<path class="st0" d="M125.7,50h0.9v2.5c0,0.4,0,0.6,0,0.8s0.1,0.3,0.3,0.4c0.1,0.1,0.3,0.2,0.6,0.2c0.3,0,0.5-0.1,0.6-0.2
			c0.1-0.1,0.2-0.2,0.2-0.4s0-0.4,0-0.8V50h0.9v2.4c0,0.5,0,0.9-0.1,1.2c0,0.2-0.1,0.4-0.3,0.6c-0.1,0.2-0.3,0.3-0.5,0.4
			c-0.2,0.1-0.5,0.1-0.9,0.1s-0.8,0-1-0.2c-0.2-0.1-0.4-0.2-0.5-0.4s-0.2-0.3-0.3-0.5c-0.1-0.3-0.1-0.6-0.1-1.2V50H125.7z"/>
		<path class="st0" d="M132.3,54.5V50h1.5c0.6,0,0.9,0,1.1,0.1c0.3,0.1,0.5,0.2,0.7,0.4s0.3,0.5,0.3,0.9c0,0.3-0.1,0.5-0.2,0.7
			c-0.1,0.2-0.2,0.3-0.4,0.4c-0.2,0.1-0.3,0.2-0.5,0.2s-0.5,0.1-0.9,0.1h-0.6v1.7L132.3,54.5L132.3,54.5z M133.2,50.7L133.2,50.7V52
			h0.5c0.4,0,0.6,0,0.7-0.1c0.1,0,0.2-0.1,0.3-0.2c0.1-0.1,0.1-0.2,0.1-0.4s0-0.3-0.1-0.4c-0.1-0.1-0.2-0.2-0.4-0.2
			c-0.1,0-0.3,0-0.7,0C133.6,50.7,133.2,50.7,133.2,50.7z"/>
		<path class="st0" d="M71,18.2c0.1-0.2,0.3-0.1,0.5-0.1c0.4,0.1,0.2-0.1,0.5,0.3c0.3,0.2,0.3-0.1,0.7,0.2c0.4,0.4,0.4,0.2,0.9,0.3
			l0,0V19h-0.1h-0.1h-0.1l0,0c-0.2-0.1-0.5-0.1-0.7,0l0,0v-0.1l-0.2-0.2h-0.1h-0.1h-0.1H72h-0.1l-0.1-0.1l-0.2-0.2l-0.2-0.1
			l-0.1-0.1L71,18.2L71,18.2L71,18.2L71,18.2L71,18.2z"/>
		<path class="st0" d="M82.9,30.3l-0.1-0.2v-0.2v-0.1l0,0H73l1.1,1h0.1l0.1,0.1l0.1,0.1l0.1,0.1c0.3,0.2,0.4,0.6,0.4,0.9v0.1
			l-0.1,0.1l-0.1,0.1l-0.1,0.2v0.3v0.4c0,0.3,0,0.9-0.3,1l0,0l0,0c0,0.8-0.3,1.7-0.8,2.3c-0.3,0.3-0.3,0.6-0.1,0.9
			c-0.2,0.1-0.4,1.1-0.4,1.3v0.1l0.1,0.2l0.1,0.1l0.1,0.1l0.2,0.1h0.1h0.1h0.1l0,0L73.6,39l-0.1-0.1v-0.1l0.1-0.1l0.2-0.1l0.3-0.2
			l0.2-0.2V38h-0.1h-0.1l0,0h0.1h0.2l0.1-0.1l0.2-0.1l0.2-0.2l0.2-0.3l0.2-0.3h0.2h0.2l0.1-0.1l0.1-0.1l0.2-0.1l0.2-0.1l0.3-0.1
			l0.5-0.1h0.1h0.1l0.1-0.1h0.1v-0.1v-0.1c-0.1-0.5,0.1-0.3,0.6-0.6c1-0.6,1.5-1.1,2.1-2.1l0.1-0.2l0.1-0.2l0.2-0.1l0.2-0.1l0.3-0.1
			l0.2-0.1h0.3h0.1h0.1l0.1-0.1l0.1-0.1V32l0.2-0.2c0.2-0.4,0.2-0.7,0.5-1l0.1-0.1l0.1-0.1l0.1-0.1L82.9,30.3h0.2H82.9L82.9,30.3z"
			/>
		<polygon class="st0" points="76,19.6 75.9,19.7 75.9,19.8 75.7,19.8 75.7,19.5 75.8,19.5 75.8,19.6 75.9,19.6 		"/>
		<path class="st0" d="M75.2,19.5c-0.4,0.1-0.8,0-1.1,0.2c-0.1-0.2-0.2-0.2-0.3-0.2l0.1-0.1v-0.1V19C74.4,18.8,74.8,19.4,75.2,19.5z
			"/>
		<path class="st0" d="M87.5,30.7c-5.6,16.7-28.1,17.2-33.7,0.2C59.7,45.9,81.7,45.8,87.5,30.7z"/>
		<path class="st0" d="M87.5,19.9c-2.4-7.6-8.8-12.8-16.9-12.8c-8.4,0-14.3,4.8-16.8,12.6c2.1-5.5,6.3-9,11.1-10.5
			c-0.1,0.2-0.2,0.3-0.2,0.3c-0.1,0.2-0.1,0.4-0.3,0.5c-0.4,0.2-0.6,0.9-0.8,1.2l-0.1,0.2v0.1l0,0v0.2c-0.2,0.6-0.8,1-1,1.5
			l-0.2,0.3l-0.1,0.3l-0.1,0.3L62,14.3v0.2l0,0c0.3,0.7,0.4,1.4,0.3,2.2l0,0l0,0h0.1l0.1,0.1l0.1,0.2l0.1,0.2l0.1,0.2l0.1,0.2
			l0.1,0.2V18l0.1,0.1l0,0c0.4-0.6-0.4-1.7-0.2-2.4l0,0l0.1-0.1h0.1c0.1,1.1,0.7,2.1,1.2,3l-0.1,0.1l-0.1,0.2V19l0.2,0.1l-0.1,0.3
			h0.1h0.1h0.1h0.1h0.1l0.1,0.1l0.1,0.1l0.2,0.2l0.2,0.2h0.1h0.1H69c0.1-0.5,0.2-0.9,0.5-1.3l0,0h-0.1h-0.3H69l-0.1-0.1l-0.1-0.1
			h-0.1c-0.2,0.1-0.3,0.6-0.4,0.7c-0.1,0.4-0.9,0.4-1.2,0.4c-0.3,0.1-0.2,0-0.4-0.2c-0.1-0.2-0.2-0.4-0.3-0.6
			c-0.6-1.3,0.7-3.2,2.1-2.5c0.8-0.6,1,0,1.7-0.3l0.3-0.1l0.2,0.1l0.1,0.2l0.1,0.2l0.1,0.3V17l0.2,0.2l0.3,0.2l0.1-0.4l-0.1-0.3
			l-0.1-0.3l-0.2-0.5l-0.1-0.2l0.1-0.2l0.2-0.2c0.3-0.2,1-0.6,1.2-1l0.1-0.2l0.1-0.2l0.2-0.3l0.1-0.1l0.1-0.1l0.1-0.1h0.1l0.2-0.1
			l0.1-0.1l0.1-0.1l0.1-0.1v-0.1v-0.1v-0.1l0,0l0,0H74h0.1h0.2h0.2l0.2-0.1l0.2-0.1l0.2-0.2L74.6,12h-0.1l-0.1-0.1l-0.1-0.1
			l-0.1-0.1L74,11.6v-0.2l0.1-0.1h0.2h0.2l0.3,0.1l0.3,0.1h0.3l0.2-0.1l0.2-0.2c-0.8-0.3-1.2-0.8-1.9-1.1l-0.1,0.1l-0.1,0.1h-0.2
			h-0.1L73.3,10l-0.1-0.1L73,9.8c-0.6-0.5-0.8,0-1.1-0.4l-0.1,0.2v0.3l0.1,0.1l0.1,0.1h0.1h0.1l0.1,0.1l0.1,0.1l0,0l0,0h-0.1h-0.1
			l-0.1,0.1L72,10.6V11v0.1v0.1l-0.1,0.1h-0.1h-0.1c-0.5-0.3-0.1-0.4-0.7-0.6c-0.4-0.2-1.1-0.1-1.5-0.4l0.1-0.1l0.1-0.1l0.1-0.1
			l0.1-0.1l0.2-0.1l0.2-0.2l0.2-0.2l0.3-0.1c0.9-0.5,2-0.6,3-0.4c0,0-0.1,0-0.2-0.1C79.4,9.5,85,13.3,87.5,19.9z"/>
		<path class="st0" d="M40.2,21.5h-2.8l0.4,0.5v3.9l-0.1,0.2l-0.1,0.2c-0.3,0.3-0.8,0.4-1.1,0.4h-0.3H36l-0.2-0.1l-0.2-0.1l-0.2-0.2
			l-0.1-0.2l-0.1-0.2V22l0.4-0.5h-2.8l0.4,0.5c0.3,3.6-1.2,6.2,3.3,6.2s3-2.5,3.3-6.2L40.2,21.5z"/>
		<polygon class="st0" points="49.8,21.5 47.5,21.5 47.9,22 47.9,25.4 44.6,21.5 42.5,21.5 42.9,22 42.9,27.6 42.5,28.1 44.8,28.1 
			44.4,27.6 44.4,24.3 47.9,28.1 49.4,28.1 49.4,22 		"/>
		<polygon class="st0" points="55.2,28.1 54.8,27.6 54.8,22 55.2,21.5 52.4,21.5 52.8,22 52.8,27.6 52.4,28.1 		"/>
		<polygon class="st0" points="64.4,21.5 62.1,21.5 62.5,22 60.8,25.7 59.2,22 59.7,21.5 56.9,21.5 59.9,28.1 61.3,28.1 		"/>
		<polygon class="st0" points="72.3,28.1 72.3,26.3 71.8,26.7 68.4,26.7 68.4,25.5 70.5,25.5 71,25.9 71,23.8 70.5,24.2 68.4,24.2 
			68.4,22.9 71.8,22.9 72.3,23.3 72.3,21.5 66.1,21.5 66.5,22 66.5,27.6 66.1,28.1 		"/>
		<path class="st0" d="M81.7,28.1l-1.8-2.6c0.9-0.3,1.5-1,1.5-2v-0.4l-0.1-0.4l-0.2-0.3l-0.2-0.3l-0.4-0.2L80,21.7l-0.5-0.1
			l-0.6-0.1h-4.1l0.4,0.5v5.6l-0.4,0.5h2.8l-0.4-0.5v-1.8H78l1.3,1.8l-0.4,0.5H81.7L81.7,28.1z M77.1,24.5L77.1,24.5v-1.6h1.7L79,23
			h0.2c0.3,0.1,0.4,0.4,0.4,0.7C79.3,24.8,77.8,24.6,77.1,24.5z"/>
		<path class="st0" d="M90,26.2c0-1.5-1.5-1.9-2.7-2.2c-0.4,0-1.9-0.6-1-1.1c0.7-0.4,2.7,0.3,3.4,0.6v-2.2l-0.5,0.5
			c-1.3-0.5-3.2-0.7-4.5,0.1c-0.4,0.3-0.7,0.8-0.6,1.3c-0.1,1.3,1.1,1.9,2.1,2.2l0.3,0.1l0.3,0.1l0.3,0.1l0.3,0.1l0.2,0.1l0.2,0.1
			l0.1,0.1v0.2c0,0.4-0.5,0.5-0.8,0.5c-1.1-0.1-2.2-0.4-3.1-1v2.4l0.5-0.6C86.3,28.4,90,28.9,90,26.2z"/>
		<path class="st0" d="M99.8,28.1l-3.2-6.6h-2.2l0.2,0.5l-2.9,6.1h2.4l-0.4-0.5l0.3-0.7h3.1l0.3,0.7L97,28.1H99.8L99.8,28.1z
			 M94.5,25.7L94.5,25.7l1.1-2.4l1.1,2.4H94.5z"/>
		<polygon class="st0" points="107.6,28.1 107.6,26.3 107.1,26.7 104,26.7 104,22 104.4,21.5 101.6,21.5 102,22 102,27.6 
			101.6,28.1 		"/>
		<path class="st0" d="M107.1,22.1L107.1,22.1l-0.2-0.1h-0.1h-0.1h-0.2l-0.2,0.1l-0.1,0.2v0.2v0.2l0.1,0.1l0.2,0.1h0.2h0.1h0.1h0.1
			l0.1-0.1v-0.1l-0.1,0.1l-0.1,0.1h-0.1h-0.1h-0.2l-0.1-0.1l-0.1-0.3c0.1-0.4,0.4-0.5,0.7-0.2L107.1,22.1L107.1,22.1z"/>
		<path class="st0" d="M105.8,22.4c0,1.2,1.8,1.3,1.8,0C107.6,21.2,105.8,21.3,105.8,22.4L105.8,22.4z M105.9,22.4L105.9,22.4
			c0.1-1.1,1.6-1.1,1.7,0C107.5,23.5,105.9,23.5,105.9,22.4z"/>
	</g>
</g>
</svg>
