<?xml version="1.0" encoding="utf-8"?>
<!-- Generator: Adobe Illustrator 21.0.0, SVG Export Plug-In . SVG Version: 6.00 Build 0)  -->
<svg version="1.1" id="Capa_1" xmlns="http://www.w3.org/2000/svg" xmlns:xlink="http://www.w3.org/1999/xlink" x="0px" y="0px"
	 viewBox="0 0 248.8 22" style="enable-background:new 0 0 248.8 22;" xml:space="preserve">
<g id="layer1_1_" transform="translate(-67.092411,-701.4412)">
	<path id="path13406_1_" d="M314,719.9c-0.7,0-1.3,0.6-1.3,1.4c0,0.8,0.6,1.4,1.3,1.4c0.7,0,1.3-0.6,1.3-1.4S314.7,719.9,314,719.9
		 M266.2,722.6h6.1v-0.5l-0.7-0.2c-0.6-0.2-0.9-0.5-0.9-1.3v-8.2h1.4c0.9,0,1.3,0.2,1.4,2l0.2,3.8c0.1,3.5,1.1,4.4,2.8,4.4
		c1.7,0,2.2-1.2,2.2-2.8v-0.7H278v0.5c0,1.1-0.1,1.9-0.6,1.9c-0.4,0-0.4-0.3-0.5-1.7l-0.2-2.6c-0.2-3.5-0.7-4.8-3.3-5.3
		c2.5-0.7,4-2.5,4-5.1c0-3.4-2.7-5-5.2-5H262v0.5l0.6,0.1c1.1,0.2,1.1,0.8,1.1,3.2v11.9c0,2.7-0.8,4-2.5,4c-1.5,0-2.4-0.8-2.4-3.7
		v-14.2c0-0.8,0.3-1.1,0.9-1.2l0.8-0.2v-0.5h-6.3v0.5l0.7,0.2c0.6,0.2,0.8,0.4,0.8,1.3v14c0,3.2,1.8,4.9,4.6,4.9s4.2-1.7,4.2-5v-13
		c0-1.6,0.3-2.2,1.7-2.2c1.1,0,1.5,0.4,1.5,1.4v16.7c0,0.8-0.3,1.1-0.9,1.3l-0.7,0.2v0.6H266.2z M306.5,703.9c0-0.8,0.3-1.1,0.9-1.2
		l0.8-0.2v-0.6H302v0.5l0.7,0.2c0.6,0.2,0.9,0.4,0.9,1.3v16.8c0,0.8-0.3,1.3-1.3,1.3c-1.1,0-1.2-0.4-1.6-2.1l-3.8-18h-1.2l-3.7,17.4
		c-0.4,2-0.6,2.4-1.4,2.6l-0.5,0.2v0.5h4.3v-0.5l-0.6-0.1c-0.9-0.2-1.1-0.7-0.7-2.9l2.2-11.1l2.4,11.8c0.4,1.7,0.3,2-1,2.3l-0.6,0.1
		v0.5H312v-6.8h-0.6c-0.3,3.2-0.9,6.1-3.5,6.1h-1.2L306.5,703.9L306.5,703.9z M297.1,717v-0.8H293l-0.1,0.8H297.1z M280.4,704.3
		v14.4c0,2.2,0,3.2-1.1,3.4l-0.5,0.1v0.5h4.4v-0.5c-1.9-0.3-1.9-0.9-1.9-3.3v-13.6l-0.7-0.7l7.4,18.1h1.3V706c0-2.5,0-3,1.2-3.3
		l0.4-0.1v-0.5h-4.5v0.5l0.5,0.1c1.5,0.3,1.5,0.9,1.5,3.2v10.4l0.3-0.1l-5.6-14.2h-4.3v0.5l0.4,0.1
		C279.6,702.7,279.8,703.3,280.4,704.3 M270.7,702.6h1.2c1.2,0,2.3,0.8,2.3,4.7c0,4-0.8,4.4-2.5,4.4h-1V702.6z M250.7,712.1
		c0,8.7-0.7,9.9-2.3,9.9s-2.3-1.2-2.3-9.8c0-8.3,0.8-9.5,2.3-9.5C250,702.6,250.7,703.8,250.7,712.1 M254,712.3
		c0-5.7-1.8-10.5-5.6-10.5s-5.5,4.7-5.5,10.5s1.8,10.5,5.5,10.5C252.3,722.8,254,718,254,712.3 M241.1,703.9c0-0.8,0.2-1.1,0.8-1.3
		l0.7-0.2v-0.5h-6.2v0.5l0.8,0.2c0.6,0.2,0.9,0.4,0.9,1.2v14.4c0,2-0.2,3.6-1.7,3.6c-1,0-1.7-0.8-1.7-1.3c0.1-0.9,1.7-0.9,1.8-2.4
		c0.1-1.1-0.6-1.5-1.2-1.6c-0.9-0.1-2.1,0.7-2.1,2.2c0,2,1.3,3.8,3.5,3.8c2.5,0,4.4-1.7,4.4-4.9V703.9L241.1,703.9z M140.9,703.9
		c0-0.8,0.3-1.1,0.9-1.2l0.8-0.2v-0.6h-6.2v0.5l0.7,0.2c0.6,0.2,0.9,0.4,0.9,1.3v16.8c0,0.8-0.3,1.3-1.3,1.3c-1.1,0-1.3-0.4-1.7-2.1
		l-3.8-18H130l-3.7,17.4c-0.4,2-0.6,2.4-1.4,2.6l-0.5,0.2v0.5h4.3v-0.5l-0.6-0.1c-0.9-0.2-1.1-0.7-0.7-2.9l2.2-11.2l2.4,11.9
		c0.3,1.7,0.3,2-1,2.3l-0.6,0.1v0.5h15.9v-6.8h-0.6c-0.3,3.2-0.9,6.1-3.5,6.1H141L140.9,703.9L140.9,703.9z M224.5,702.6h0.7
		c1.9,0,2.5,3,2.7,6.1h0.6v-6.8h-10.9v6.8h0.6c0.2-3.2,0.8-6.1,2.7-6.1h0.7v18c0,0.8-0.3,1.1-0.9,1.3l-0.8,0.2v0.5h6.5v-0.5
		l-0.9-0.2c-0.6-0.2-0.9-0.3-0.9-1.3L224.5,702.6L224.5,702.6z M210.7,712.2h0.9c1.4,0,1.7,0.5,2,3.8h0.6v-8.3h-0.6
		c-0.3,2.6-0.7,3.7-2,3.8h-1v-8.9h2.1c2.3,0,2.8,2.9,3.2,6.1h0.6v-6.8h-10.4v0.5l0.7,0.2c0.7,0.2,0.9,0.6,0.9,1.3v16.7
		c0,0.8-0.3,1.1-0.9,1.3l-0.7,0.2v0.5h10.7v-6.8h-0.6c-0.4,3.1-0.8,6.1-3.5,6.1h-2.1L210.7,712.2L210.7,712.2z M199.4,712.2h0.9
		c1.4,0,1.7,0.5,2,3.8h0.6v-8.3h-0.6c-0.3,2.6-0.7,3.7-2,3.8h-1v-8.9h2.1c2.3,0,2.8,3,3.2,6.1h0.6v-6.8h-10.7v0.5l1,0.2
		c0.7,0.2,0.9,0.6,0.9,1.3v16.7c0,0.8-0.3,1.1-0.9,1.3l-0.7,0.2v0.5h10.7v-6.8h-0.6c-0.4,3.1-0.8,6.1-3.5,6.1h-2.1v-9.7H199.4z
		 M187.1,702.6h0.9c1.2,0,2.3,0.8,2.3,4.7s-0.8,4.4-2.5,4.4h-0.7V702.6z M182.5,722.6h6.1v-0.5l-0.7-0.2c-0.6-0.2-0.9-0.5-0.9-1.3
		v-8.2h1.1c0.9,0,1.3,0.4,1.4,2l0.1,3.8c0.1,3.5,1.1,4.4,2.8,4.4s2.2-1.2,2.2-2.8v-0.7H194v0.5c0,1.1-0.1,1.9-0.6,1.9
		c-0.4,0-0.4-0.3-0.5-1.7l-0.2-2.6c-0.2-3.6-0.7-4.8-3.3-5.3c2.5-0.7,4-2.5,4-5.1c0-3.4-2.7-5-5.2-5h-5.7v0.5l0.7,0.2
		c0.6,0.2,0.9,0.4,0.9,1.3v16.7c0,0.8-0.3,1.1-0.9,1.3l-0.7,0.2V722.6L182.5,722.6z M177.9,702.6h0.7c1.9,0,2.5,3,2.7,6.1h0.6v-6.8
		H171v6.8h0.6c0.2-3.2,0.8-6.1,2.7-6.1h0.7v18c0,0.8-0.3,1.1-0.9,1.3l-0.8,0.2v0.5h6.3v-0.5l-0.8-0.2c-0.8-0.2-0.9-0.8-0.9-1.3
		L177.9,702.6L177.9,702.6z M171,717.2c0-6.2-6.8-7.8-6.8-12.2c0-1,0.4-2.4,1.9-2.4c2.2,0,3,2.8,3.3,6.2h0.6V702h-0.4
		c-0.2,0.7-0.4,1-0.8,1c-0.7,0-1.1-1.1-2.7-1.1c-2.6,0-4.3,2.1-4.3,4.9c0,5.1,6.8,7.2,6.8,11.9c0,2.1-1,3.3-2.3,3.3
		c-2,0-3.3-2.4-3.7-6.2H162v6.8h0.4c0.3-1,0.7-1.1,1-1.1c0.6,0,1.2,1.2,2.9,1.2C169,722.7,171,720.4,171,717.2 M151.3,703.9
		c0-0.8,0.3-1.1,0.9-1.2l0.8-0.2v-0.6h-6.2v0.5l0.7,0.2c0.6,0.2,0.9,0.4,0.9,1.3v16.7c0,0.8-0.3,1.1-0.9,1.3l-0.7,0.2v0.5h9.8v-6.8
		H156c-0.3,3.2-0.9,6.1-3.5,6.1h-1.2V703.9z M131.5,717v-0.8h-4.1l-0.1,0.8H131.5L131.5,717z M114.1,722.7h1.2l2.8-14.8h-0.4
		l3.1,14.8h1.1l3.7-17.4c0.4-1.8,0.6-2.5,1.3-2.6l0.6-0.1v-0.5h-4.2v0.5l0.6,0.1c0.9,0.2,1.1,0.7,0.7,2.9l-2.4,11.7h0.4l-2.4-12.3
		c-0.2-1.2-0.4-2.1,0.6-2.3l0.7-0.1v-0.5h-5.8v0.5l0.4,0.1c0.6,0.1,0.7,0.5,0.9,1.7l0.9,4.5l-0.2-2.7l-2.1,10.9h0.3l-2.4-12
		c-0.3-1.2-0.4-2.2,0.6-2.3l0.5-0.1v-0.5h-5.9v0.5l0.6,0.1c0.5,0.2,0.8,0.4,1.2,2.1L114.1,722.7L114.1,722.7z M98.1,712.2H99
		c1.4,0,1.7,0.5,2,3.8h0.6v-8.3H101c-0.3,2.6-0.7,3.7-2,3.8h-1v-8.9h2.1c2.3,0,2.8,3,3.2,6.1h0.6v-6.8H93.5v0.5l0.7,0.2
		c0.7,0.2,0.9,0.6,0.9,1.3v16.7c0,0.8-0.3,1.1-0.9,1.3l-0.7,0.2v0.5h10.7v-6.8h-0.6c-0.4,3.1-0.8,6.1-3.5,6.1H98L98.1,712.2
		L98.1,712.2z M79.2,722.6h6.2v-0.5l-0.7-0.2c-0.5-0.1-0.9-0.5-0.9-1.3v-8.2h4.5v8.2c0,0.8-0.4,1.2-0.9,1.3l-0.7,0.2v0.5h6.2v-0.5
		l-0.7-0.2c-0.6-0.2-0.9-0.5-0.9-1.3v-16.7c0-0.8,0.3-1.1,0.9-1.3l0.7-0.2v-0.5h-6.2v0.5l0.7,0.2c0.5,0.2,0.9,0.4,0.9,1.2v7.7h-4.5
		v-7.7c0-0.8,0.3-1.1,0.9-1.2l0.7-0.2v-0.5h-6.2v0.5l0.7,0.2c0.6,0.2,0.9,0.4,0.9,1.3v16.7c0,0.8-0.3,1.1-0.9,1.3l-0.7,0.2V722.6
		L79.2,722.6z M74.6,702.6h0.7c1.9,0,2.5,3,2.7,6.1h0.6v-6.8h-11v6.8h0.6c0.2-3.2,0.8-6.1,2.7-6.1h0.7v18c0,0.8-0.3,1.1-0.9,1.3
		l-0.8,0.2v0.5h6.5v-0.5l-0.9-0.2c-0.6-0.2-0.9-0.3-0.9-1.3L74.6,702.6L74.6,702.6z"/>
</g>
</svg>
