<?xml version="1.0" encoding="utf-8"?>
<!-- Generator: Adobe Illustrator 21.0.0, SVG Export Plug-In . SVG Version: 6.00 Build 0)  -->
<svg version="1.1" id="Capa_1" xmlns="http://www.w3.org/2000/svg" xmlns:xlink="http://www.w3.org/1999/xlink" x="0px" y="0px"
	 viewBox="0 0 68.4 29.7" style="enable-background:new 0 0 68.4 29.7;" xml:space="preserve">
<g>
	<g>
		<path d="M52.6,0.6L52.6,0.6L52.6,0.6L52.6,0.6c-0.4,0-0.6,0.2-0.6,0.6c-0.2,2-0.3,4.1-0.6,6l0,0l0,0l0,0l0,0c0.2,0,0.3,0,0.4,0.1
			l0,0c0.3-2,1.1-4.9,1.2-5.8c0-0.1,0.1-0.3,0.1-0.4C53.1,0.8,52.9,0.7,52.6,0.6z"/>
		<path d="M33,1.4c0,1.1,0,2.1,0,3.2c-1.3,0-2.5,0-3.8,0l0,0c0-1.1,0-2.1,0.1-3.2c-0.4,0.1-0.7,0.1-1.1,0c0.1,2.3,0.1,4.5,0,6.8
			c0.4-0.1,0.7-0.1,1.1,0l0,0l0,0c-0.1-1.1-0.1-2.1-0.1-3.2l0,0c1.3,0,2.5,0,3.8,0c0,1,0,2.1-0.1,3.2l0,0l0,0c0.4-0.1,0.8-0.1,1.1,0
			c0-2.2,0-4.5,0.1-6.8C33.7,1.5,33.3,1.5,33,1.4z"/>
		<path d="M24.9,1.4L24.9,1.4L24.9,1.4c-0.3,0.1-0.5,0.1-0.8,0l0,0c-0.9,2.3-2,4.9-2.9,6.8l0,0l0,0l0,0l0,0l0,0l0,0
			c0.4-0.1,0.8-0.1,1.1,0l0,0l0,0c0.2-0.6,0.5-1.3,0.8-2l0,0c0.9,0,1.9,0,2.8,0l0,0c0.3,0.7,0.5,1.3,0.8,2l0,0
			c0.4-0.1,0.8-0.1,1.1,0l0,0C27.1,6.9,25.8,3.6,24.9,1.4z M24.5,2.6c0.4,1,0.8,2.1,1.2,3.1l0,0c-0.8,0-1.6,0-2.4,0l0,0
			C23.8,4.5,24.3,3.3,24.5,2.6z"/>
		<path d="M22.9,0.5L22.9,0.5L22.9,0.5c-0.4,0.1-0.8,0.1-1.1,0c-0.3,0.6-1.5,2.5-2.3,3.8c-0.8-1.3-1.7-2.7-2.3-3.8
			c-0.5,0.1-0.7,0.1-1.1,0c0.9,1.4,2.4,4,2.9,4.9L18.9,9c0,0,0.3-0.1,0.5-0.1C19.7,9,20,9.1,20,9.1l-0.1-3.6
			C20.9,3.8,22.4,1.1,22.9,0.5z"/>
		<path d="M38.1,1.3c-2.4,0-3.7,1.5-3.7,3.5c0,2.2,1.4,3.5,3.6,3.5c2.5,0,3.7-1.5,3.7-3.4C41.7,2.7,40.3,1.3,38.1,1.3z M38.1,7.9
			c-1.6,0-2.5-1.1-2.5-3.1c0-2.2,1.2-3.1,2.5-3.1c0,0,0,0,0.1,0c1.5,0,2.5,1,2.5,3.1C40.6,6.9,39.5,7.9,38.1,7.9z"/>
		<path d="M46.3,0.9c-2.4,0-4.2,1.4-4.2,3.9c0,2.1,1.2,3.9,4.2,3.9c2.6,0,4.2-1.4,4.2-3.9C50.6,2.5,49,0.9,46.3,0.9z M43.3,4.8
			c0-2.7,1.6-3.4,3.1-3.4c1.8,0,3.1,1.1,3.1,3.5c0,2.6-1.6,3.5-3.1,3.5C44.7,8.3,43.3,7.3,43.3,4.8z"/>
		<path d="M51.3,8c-0.4,0-0.5,0.3-0.5,0.6s0.3,0.5,0.6,0.5c0.2,0,0.5-0.1,0.5-0.6C51.9,8.2,51.6,8,51.3,8z"/>
	</g>
	<g>
		<polygon points="0.5,12.5 6.9,12.5 6.9,28.7 9.8,28.7 9.8,12.5 16,12.5 16,11.4 0.5,11.4 		"/>
		<polygon points="18.9,11.4 18.6,11.4 18.6,28.7 21.5,28.7 21.5,28.7 30.7,28.7 30.7,27.6 21.5,27.6 21.5,19.9 27.6,19.9 
			27.6,18.7 21.5,18.7 21.5,12.5 30.7,12.5 30.7,11.4 		"/>
		<polygon points="64.7,11.4 64.7,19.3 55.9,19.3 55.9,11.4 53.1,11.4 53.1,28.7 55.9,28.7 55.9,20.5 64.7,20.5 64.7,28.7 
			67.6,28.7 67.6,11.4 		"/>
		<path d="M42.8,27.9c-3.7,0-6.8-3.5-6.8-7.8s3-7.8,6.8-7.8c1.8,0,3.5,0.8,4.7,2.2l1.1-0.8C46.9,12,44.7,11,42.2,11
			c-1.3,0-2.6,0.3-3.7,0.8c-3.5,1.2-6.1,4.5-6.1,8.4c0,4.9,4,8.9,8.9,8.9c0.2,0,0.4,0,0.5,0c0.2,0,0.4,0,0.5,0c2.8,0,5.4-1.3,7-3.4
			l-1.1-0.9C46.9,26.6,45,27.9,42.8,27.9z"/>
	</g>
</g>
</svg>
