<svg xmlns="http://www.w3.org/2000/svg" viewBox="0 0 152 40" enable-background="new 0 0 152 40"><path fill="#fff" d="M26.9 11.9c-1.1 0-2 .9-2 2v8.6c0 1.1.9 2.1 2 2.1s2.1-.9 2.1-2.1V14c-.1-1.2-1-2.1-2.1-2.1zm-7.5-7.7l1.4-2.6c.1-.1 0-.3-.1-.4-.1-.1-.3 0-.4.1L18.9 4c-1.2-.5-2.6-.8-4-.8s-2.8.3-4 .8L9.3 1.3c-.1-.2-.3-.2-.4-.2-.1.1-.2.3-.1.4l1.4 2.6c-2.8 1.4-4.7 4.2-4.7 7.4h18.6c0-3.1-1.9-5.9-4.7-7.3zm-8.8 4c-.4 0-.8-.4-.8-.8s.3-.8.8-.8c.4 0 .8.4.8.8-.1.5-.4.8-.8.8zm8.4 0c-.4 0-.8-.4-.8-.8s.3-.8.8-.8c.4 0 .8.4.8.8 0 .5-.3.8-.8.8zM5.6 25.7c0 1.2 1 2.2 2.2 2.2h1.5v4.6c0 1.1.9 2.1 2 2.1s2.1-.9 2.1-2.1v-4.6h2.8v4.6c0 1.1.9 2.1 2.1 2.1 1.1 0 2.1-.9 2.1-2.1v-4.6h1.5c1.2 0 2.2-1 2.2-2.2V12.3H5.6v13.4zM2.7 11.9c-1.1 0-2.1.9-2.1 2v8.6c0 1.1.9 2.1 2.1 2.1 1.1 0 2-.9 2-2.1V14c.1-1.2-.9-2.1-2-2.1zm118.8 9.5c-.7 0-1.4.1-1.9.4-.6.3-1 .7-1.5 1.3h-.1l-.2-1.5h-1.3v15.6h1.6v-4.4c0-.6 0-1.2-.1-1.8h.1c.4.5.9.9 1.5 1.2.6.3 1.2.4 1.9.4 1.4 0 2.5-.5 3.3-1.5.8-1 1.2-2.3 1.2-4.1 0-1.8-.4-3.1-1.2-4.1-.7-1-1.8-1.5-3.3-1.5zm2 8.6c-.5.8-1.3 1.1-2.2 1.1-1.1 0-1.9-.3-2.4-1-.5-.6-.8-1.7-.8-3.2v-.4c0-1.3.3-2.3.8-2.9.5-.6 1.3-.9 2.4-.9 1 0 1.7.4 2.2 1.1.5.7.8 1.7.8 3.1 0 1.4-.2 2.4-.8 3.1zm4.6 2.3h1.6V17.1h-1.6v15.2zm8.5-10.9c-.6 0-1.3.1-1.9.2-.6.2-1.2.4-1.7.7l.5 1.2c1.1-.5 2.1-.8 3-.8.8 0 1.4.2 1.7.6.4.4.5 1 .5 1.9v.7l-1.8.1c-3.5.1-5.2 1.2-5.2 3.4 0 1 .3 1.8.9 2.3.6.5 1.4.8 2.5.8.8 0 1.5-.1 2-.4.5-.2 1.1-.7 1.6-1.4h.1l.3 1.5h1.2V25c0-1.3-.3-2.2-.9-2.7-.6-.6-1.6-.9-2.8-.9zm2.1 6.6c0 1-.3 1.8-.9 2.3-.6.6-1.4.8-2.4.8-.6 0-1.1-.2-1.5-.5-.4-.3-.5-.8-.5-1.3 0-.8.3-1.3.9-1.7.6-.4 1.5-.6 2.8-.6l1.6-.1V28zm10.9-6.4c-1.5 4.2-2.4 6.6-2.7 7.4-.3.8-.4 1.4-.5 1.7h-.1c-.1-.6-.4-1.6-1-3l-2.4-6.1h-1.7l4.3 10.8-.6 1.5c-.5 1.3-1.3 1.9-2.4 1.9-.4 0-.8 0-1.2-.1V37c.5.1 1 .2 1.5.2.9 0 1.6-.3 2.2-.8.6-.5 1.1-1.4 1.6-2.6l4.6-12.2h-1.6zm-55.4.2h-4.6c-1.2 0-2.7.2-4 1.2-1 .8-1.4 2-1.4 3 0 1.8 1.3 3.5 3.7 3.5h.7c-.1.3-.2.5-.2.9 0 .7.4 1.1.7 1.5-1 .1-2.9.2-4.3 1-1.3.8-1.7 1.9-1.7 2.7 0 1.7 1.6 3.2 4.8 3.2 3.9 0 5.9-2.1 5.9-4.2 0-1.6-.9-2.3-1.9-3.1l-.8-.6c-.2-.2-.6-.5-.6-1s.3-.8.6-1.1c.9-.7 1.9-1.5 1.9-3.2 0-1.7-1.1-2.6-1.6-3h1.4l1.4-.8zm-1.9 13.7c0 1.4-1.1 2.4-3.3 2.4-2.4 0-4-1.1-4-2.7s1.4-2.1 1.9-2.3c.9-.3 2.2-.4 2.4-.4h.5c1.7 1.3 2.5 1.9 2.5 3zm-1.8-7.2c-.4.4-1 .6-1.5.6-1.9 0-2.8-2.5-2.8-4 0-.6.1-1.2.5-1.7.4-.4 1-.7 1.6-.7 1.9 0 2.8 2.5 2.8 4.1-.1.5-.1 1.2-.6 1.7zm-12.9-6.8c-3.4 0-5.8 2.5-5.8 5.4 0 2.5 1.9 5.3 5.5 5.3 3.7 0 5.7-2.8 5.7-5.4-.1-2.8-2.1-5.3-5.4-5.3zm2.5 8.9c-.5.7-1.4 1.1-2.3 1.1-2.7 0-3.8-3.7-3.8-5.9 0-1 .2-2 1-2.7.5-.5 1.3-.8 2-.8 2.8 0 3.7 3.8 3.7 5.7 0 1-.1 1.9-.6 2.6zm-14.7-8.9c-3.4 0-5.8 2.5-5.8 5.4 0 2.5 1.9 5.3 5.5 5.3 3.7 0 5.7-2.8 5.7-5.4 0-2.8-2.1-5.3-5.4-5.3zm2.5 8.9c-.5.7-1.4 1.1-2.3 1.1-2.7 0-3.8-3.7-3.8-5.9 0-1 .2-2 1-2.7.5-.5 1.3-.8 2-.8 2.8 0 3.7 3.8 3.7 5.7.1 1-.1 1.9-.6 2.6zm-15.7-2.3l3.4-.2v3.6c-.7.3-1.4.6-2.9.6-4.9 0-8-4-8-8.2 0-3.9 2.7-6.6 6.2-6.6 2.7 0 4.1 1.4 4.8 2.1l-.6.9.9-.3 1.9-1.8c-.5-.3-1.3-.9-3-1.4-1.1-.3-2.2-.5-3.5-.5-5.8 0-9.1 4.1-9.1 8.4 0 3.6 2.4 8.2 8.6 8.2 1.2 0 2.4-.2 3.7-.4l3.2-.7v-3.9c0-.2.1-.2.2-.4l.6-.6H54l-1.8 1.2zm45.4 2V17.3c.1-.8.3-.9 1-1.3h-3.2l-1.7.8h1.7v13.9c0 .4-.1.5-.6 1.2h4l.8-.5c-.4 0-.8-.1-1.2-.1-.6-.2-.8-.3-.8-1.2zm3.9-3.5l1.7-.1 5.3-2.1c-.2-.5-.4-1.5-1.6-2.2-.7-.4-1.5-.6-2.3-.6-2.3 0-5.1 1.7-5.1 5.2 0 1.7.7 3.6 2.3 4.7 1.1.8 2.3.9 3 .9.7 0 1.4-.1 2.2-.4.2-.1.5-.3.7-.4l1.2-1.1c-.8.4-1.6.8-2.7.8-2.2-.2-4.1-1.9-4.7-4.7zm0-1.3c0-2.4 1.7-3.1 2.6-3.1 1.2 0 2.2 1 2.2 1.9 0 .3-.2.4-.6.6l-4.1 1.8c-.1-.4-.1-.8-.1-1.2zm7.7-3.7h.5v1.5h.2v-1.5h.5v-.2h-1.2v.2zm2.2 1.2l-.4-1.3h-.3v1.6h.2v-1.5l.5 1.5h.1l.5-1.5v1.5h.2v-1.6h-.3l-.5 1.3zM46.9 10.2c.9 0 1.9-.2 2.4-.4V6.1h-2.7v1.3h1.1v1.5c-.1.1-.4.1-.8.1-1.3 0-2.3-.9-2.3-2.3 0-1.5 1-2.3 2.4-2.3.8 0 1.3.1 1.7.3l.3-1.3c-.4-.2-1.1-.3-2-.3-2.4 0-4.1 1.4-4.1 3.7 0 1 .4 2 1 2.6.7.5 1.7.8 3 .8zM56 8.8h-3V7.1h2.6V5.8H53V4.3h2.8V3h-4.4v7.1H56V8.8zm4.9 1.3V4.4h2V3h-5.5v1.4h1.9v5.8h1.6zM69.2 3h-1.6v7.1h1.6V3zm3.6 7.1h1.6V4.4h2V3h-5.5v1.4h1.9v5.7zm11.2.1c2.1 0 3.5-1.4 3.5-3.7 0-2-1.2-3.6-3.4-3.6-2.1 0-3.5 1.6-3.5 3.7 0 2 1.3 3.6 3.4 3.6zm.1-6c1.1 0 1.7 1.1 1.7 2.4 0 1.4-.6 2.4-1.7 2.4s-1.8-1-1.8-2.4c.1-1.4.7-2.4 1.8-2.4zM90.9 8c0-1.2 0-2.2-.1-3.1.4.8.8 1.8 1.2 2.5l1.5 2.7h1.7V3h-1.5v2.1c0 1.1 0 2 .1 3-.3-.8-.7-1.7-1.2-2.4L91.3 3h-1.9v7.1h1.5V8z"/></svg>