<svg xmlns="http://www.w3.org/2000/svg" viewBox="0 0 152 40" enable-background="new 0 0 152 40"><path fill="#fff" d="M26.4 18.6c0-4.3 3.5-6.3 3.7-6.4-2-2.9-5.1-3.3-6.2-3.3-2.6-.3-5.1 1.6-6.5 1.6C16 10.5 14 9 11.8 9c-2.8 0-5.5 1.7-7 4.2-3 5.2-.8 12.8 2.1 17 1.4 2.1 3.1 4.4 5.3 4.3 2.2-.1 3-1.4 5.6-1.4 2.6 0 3.3 1.4 5.6 1.3 2.3 0 3.8-2.1 5.2-4.1 1.7-2.4 2.3-4.7 2.4-4.8-.1-.1-4.6-1.7-4.6-6.9zM22.1 6.1c1.2-1.4 2-3.4 1.7-5.4-1.7.1-3.8 1.2-5 2.6-1.1 1.2-2 3.3-1.8 5.2 2 .1 3.9-1 5.1-2.4zm26.3 10.4l-5.7 17.6h2.9l1.6-5.2H53l1.7 5.2h3L52 16.5h-3.6zm-.7 10.3l1.5-4.6c.4-1.5.7-2.6.8-3.3h.1c.4 1.7.7 2.9.9 3.3l1.5 4.6h-4.8zM67 21.2c-1.9 0-3.4.8-4.3 2.3h-.1l-.2-2H60c.1 1.4.1 2.8.1 4.2v13.7h2.8v-6.7h.1c.7 1.2 1.9 1.8 3.6 1.8 1.6 0 2.9-.6 3.9-1.7 1.2-1.3 1.8-3 1.8-5.1 0-1.9-.5-3.5-1.5-4.7-1-1.2-2.3-1.8-3.8-1.8zm1.5 9.8c-.6.8-1.4 1.2-2.5 1.2-.9 0-1.6-.3-2.2-1-.6-.6-.9-1.4-.9-2.3v-2.1c0-.2 0-.5.1-.9.2-.8.5-1.4 1.1-1.8.6-.5 1.2-.7 1.9-.7 1 0 1.9.4 2.5 1.3.6.8.8 1.8.8 3.1.1 1.3-.2 2.4-.8 3.2zm13.2-9.8c-1.9 0-3.4.8-4.3 2.3h-.1l-.2-2h-2.5c.1 1.4.1 2.8.1 4.2v13.7h2.8v-6.7h.1c.7 1.2 1.9 1.8 3.6 1.8 1.6 0 2.9-.6 3.9-1.7 1.2-1.3 1.8-3 1.8-5.1 0-1.9-.5-3.5-1.5-4.7-1-1.2-2.2-1.8-3.7-1.8zm1.4 9.8c-.6.8-1.4 1.2-2.5 1.2-.9 0-1.6-.3-2.2-1-.6-.6-.9-1.4-.9-2.3v-2.1c0-.2 0-.5.1-.9.2-.8.5-1.4 1.1-1.8.6-.5 1.2-.7 1.9-.7 1 0 1.9.4 2.5 1.3.6.8.8 1.8.8 3.1.1 1.3-.2 2.4-.8 3.2zm15.8-7c-1.2-.5-2.1-.9-2.6-1.4-.5-.5-.8-1-.8-1.7 0-.6.2-1.2.7-1.6.6-.5 1.3-.7 2.3-.7 1.3 0 2.4.3 3.4.8l.7-2.3c-1.1-.6-2.4-.8-4-.8-1.8 0-3.2.5-4.3 1.4-1.1.9-1.6 2.1-1.6 3.6 0 2.2 1.5 3.9 4.6 5.1 1.1.4 2 .9 2.4 1.4.5.5.7 1.1.7 1.8 0 .8-.3 1.4-.9 1.9-.6.5-1.4.7-2.5.7-1.5 0-2.9-.4-4.1-1.1l-.7 2.4c1.2.7 2.7 1.1 4.6 1.1 2.1 0 3.7-.5 4.8-1.5 1-.9 1.6-2.2 1.6-3.7 0-1.2-.4-2.2-1.1-3.1-.6-1-1.7-1.7-3.2-2.3zm10.7-5.7l-2.8.8v2.3h-1.9v2.1h1.9V30c0 1.6.3 2.7.9 3.4.6.7 1.5 1 2.6 1 .9 0 1.6-.1 2.2-.3l-.1-2.1c-.3.1-.8.1-1.3.1-1.1 0-1.7-.8-1.7-2.4v-6.2h3.1v-2.1h-3.1v-3.1zm11 2.9c-1.9 0-3.5.6-4.6 1.9-1.1 1.3-1.7 2.9-1.7 4.8s.6 3.4 1.7 4.7c1.1 1.2 2.6 1.9 4.5 1.9s3.5-.6 4.7-1.9c1.1-1.3 1.7-2.9 1.7-4.8s-.5-3.5-1.6-4.7c-1.3-1.3-2.8-1.9-4.7-1.9zm2.4 9.6c-.6 1-1.5 1.5-2.5 1.5-1.1 0-2-.5-2.6-1.5-.5-.8-.8-1.8-.8-3s.3-2.2.8-3.1c.6-1 1.5-1.5 2.6-1.5s1.9.5 2.5 1.5c.5.8.8 1.8.8 3 0 1.3-.2 2.3-.8 3.1zm10.2-8.9c-.6.5-1.1 1.2-1.4 2h-.1l-.1-2.4h-2.5c.1 1.2.1 2.5.1 4v8.7h2.8v-6.7c0-1 .2-1.8.7-2.5.5-.8 1.3-1.1 2.3-1.1.3 0 .6 0 .9.1v-2.7c-.2 0-.4-.1-.7-.1-.7 0-1.4.2-2 .7zm15.4 5.3c0-1.6-.4-2.9-1.1-4-.9-1.4-2.3-2-4.2-2-1.9 0-3.4.7-4.5 2s-1.6 2.9-1.6 4.8c0 2 .6 3.5 1.7 4.7 1.1 1.2 2.7 1.7 4.7 1.7 1.6 0 3.1-.3 4.3-.8l-.4-2c-1 .4-2.2.6-3.4.6-1.1 0-2.1-.3-2.8-.9-.8-.7-1.2-1.6-1.2-2.9h8.5v-1.2zm-8.6-.7c.1-.9.4-1.6.8-2.2.6-.8 1.3-1.2 2.3-1.2 1 0 1.8.4 2.3 1.2.4.6.6 1.3.5 2.2H140zM50.1 9.2c.9-.8 1.4-2 1.4-3.5 0-1.4-.4-2.5-1.3-3.2-.8-.7-1.9-1-3.4-1-.9 0-1.7.1-2.4.2v8.5c.6.1 1.2.1 2 .1 1.6 0 2.9-.4 3.7-1.1zm-4.3-6.5c.3-.1.7-.1 1.1-.1 1 0 1.8.3 2.4.8.5.5.8 1.3.8 2.3 0 1.1-.3 2-.9 2.6-.6.6-1.4.9-2.5.9h-.9V2.7zm10.5 1.1c-1 0-1.7.3-2.3.9-.6.6-.8 1.4-.8 2.4 0 .9.3 1.7.8 2.3.5.6 1.3.9 2.2.9 1 0 1.7-.3 2.3-1 .5-.5.8-1.3.8-2.3 0-.9-.3-1.7-.8-2.3-.5-.6-1.3-.9-2.2-.9zm1.2 4.8c-.3.5-.7.8-1.2.8s-1-.2-1.3-.7c-.2-.4-.4-.9-.4-1.5s.1-1.1.4-1.5c.3-.5.7-.7 1.3-.7.5 0 1 .2 1.2.7.2.4.4.9.4 1.5 0 .5-.2 1-.4 1.4zM69.7 4zm-5.9 6.2l.9-2.7c.2-.7.4-1.3.5-2 .1.7.3 1.3.5 2l.8 2.7h1.3l2-6.2h-1.4l-.8 2.9c-.2.7-.3 1.4-.4 2.1-.1-.7-.3-1.3-.5-2.1L65.8 4h-1.1l-.9 3c-.2.8-.4 1.5-.5 2-.1-.6-.3-1.3-.4-2l-.7-3h-1.4l1.8 6.2h1.2zm11.8-3.6v3.6H77V6.5c0-.9-.2-1.6-.7-2.1-.4-.4-.9-.6-1.5-.6-.5 0-.9.1-1.3.4-.3.2-.6.5-.7.8l-.1-1h-1.2c0 .6.1 1.2.1 1.8v4.5H73V6.5c0-.4.1-.8.4-1.1.3-.3.6-.5 1-.5.7.1 1.2.6 1.2 1.7zm5.2-5.5h-1.4v9.1h1.4V1.1zM86 3.8c-1 0-1.7.3-2.3.9-.6.6-.8 1.4-.8 2.4 0 .9.3 1.7.8 2.3.5.6 1.3.9 2.2.9 1 0 1.7-.3 2.3-1 .5-.5.8-1.3.8-2.3 0-.9-.3-1.7-.8-2.3-.6-.6-1.3-.9-2.2-.9zm1.2 4.8c-.3.5-.7.8-1.2.8s-1-.2-1.3-.7c-.2-.4-.4-.9-.4-1.5s.1-1.1.4-1.5c.3-.5.7-.7 1.3-.7.5 0 1 .2 1.2.7.2.4.4.9.4 1.5 0 .5-.2 1-.4 1.4zm7.1.9l.1.7h1.3c-.1-.4-.1-.9-.1-1.5V6.4c0-1.7-.8-2.6-2.5-2.6-.8 0-1.6.2-2.1.5l.3.9c.5-.3 1-.5 1.6-.5.9 0 1.3.4 1.3 1.2V6c-1.2 0-2.1.2-2.7.6-.6.4-1 1-1 1.7 0 .5.2.9.5 1.3.4.4.8.6 1.4.6.9.2 1.5-.1 1.9-.7zM92 8.4c0-.9.8-1.3 2.3-1.3v1.2c-.1.3-.2.5-.5.7-.3.2-.5.3-.9.3-.3 0-.5-.1-.7-.2-.1-.2-.2-.4-.2-.7zm11.6-7.3h-1.4v3.6c-.3-.6-.9-.8-1.8-.8-.8 0-1.4.3-1.9.9-.5.6-.8 1.4-.8 2.5 0 .9.2 1.7.7 2.3.5.6 1.1.9 1.9.9.9 0 1.6-.4 2-1.1l.1 1h1.2V1.1zm-1.4 6.5c0 .4-.1.8-.4 1.1-.3.3-.6.5-1.1.5-.5 0-.9-.2-1.2-.6-.3-.4-.4-.9-.4-1.5s.2-1.2.4-1.6c.3-.4.7-.6 1.2-.6.4 0 .7.1.9.3.3.2.4.5.5.8v1.6zm10.2 2.8c1 0 1.7-.3 2.3-1 .5-.6.8-1.4.8-2.4 0-.9-.3-1.7-.8-2.3-.6-.6-1.3-.9-2.2-.9-1 0-1.7.3-2.3.9-.6.6-.8 1.4-.8 2.4 0 .9.3 1.7.8 2.3.6.7 1.3 1 2.2 1zm-1.2-4.8c.3-.5.7-.7 1.3-.7.5 0 1 .2 1.2.7.2.4.4.9.4 1.5s-.1 1.1-.4 1.5c-.3.5-.7.8-1.3.8-.5 0-1-.2-1.3-.7-.2-.4-.4-.9-.4-1.5.1-.7.3-1.2.5-1.6zm6.4 4.6h1.4V6.5c0-.4.1-.8.4-1.1.3-.3.6-.5 1-.5.8 0 1.3.6 1.3 1.7v3.6h1.4V6.5c0-.9-.2-1.6-.7-2.1-.4-.4-.9-.6-1.5-.6-.5 0-.9.1-1.3.4-.3.2-.6.5-.7.8l-.1-1h-1.2v6.2zm11.9-2c0 .8.2 1.4.5 1.7.3.3.7.5 1.3.5.4 0 .8-.1 1.1-.2V9.1c-.2 0-.4.1-.6.1-.5 0-.8-.4-.8-1.2V5h1.5V4H131V2.4l-1.4.4V4h-.9v1h.9v3.2zm8.9-1.5v3.6h1.4V6.5c0-.9-.2-1.6-.7-2.1-.4-.4-.9-.6-1.4-.6-.8 0-1.4.3-1.9 1V1.1h-1.4v9.1h1.4V6.5c0-.2 0-.4.1-.5.2-.6.7-1 1.3-1 .8 0 1.2.5 1.2 1.7zm6.5 3.6c.8 0 1.5-.1 2.1-.4l-.2-1c-.5.2-1.1.3-1.7.3-.6 0-1-.1-1.4-.4-.4-.3-.6-.8-.6-1.4h4.2c0-.2.1-.4.1-.6 0-.8-.2-1.4-.6-2-.5-.7-1.1-1-2-1-.9 0-1.6.3-2.2 1-.5.6-.8 1.4-.8 2.4s.3 1.7.8 2.3c.6.5 1.4.8 2.3.8zm-1.3-4.9c.3-.4.7-.6 1.1-.6.5 0 .9.2 1.1.6.2.3.3.7.3 1.1h-2.9c0-.5.1-.8.4-1.1z"/></svg>