<svg xmlns="http://www.w3.org/2000/svg" viewBox="0 0 24 24" enable-background="new 0 0 24 24"><path fill="#fff" d="M20.3 21.1C19 23 17.8 24 16.6 24c-.5 0-1.2-.2-2-.5-.9-.3-1.6-.5-2.2-.5-.6 0-1.3.2-2 .5-.9.3-1.5.5-2 .5-1.5 0-2.9-1.3-4.3-3.7C2.7 17.8 2 15.4 2 13c0-2.2.5-4 1.6-5.4 1.1-1.4 2.4-2 4.1-2 .7 0 1.5.1 2.6.4 1 .3 1.7.4 2 .4.4 0 1.1-.2 2.1-.5s1.8-.5 2.5-.5c1.2 0 2.2.3 3.1.9.5.3 1 .8 1.5 1.4-.9.8-1.5 1.3-1.8 1.8-.6.9-.9 1.9-.9 3 0 1.2.3 2.3 1 3.2.7 1 1.4 1.6 2.3 1.8-.4 1.2-1 2.4-1.8 3.6zM16.2 2.6c-.3.7-.7 1.4-1.3 2-.5.5-1 .9-1.6 1-.3.1-.8.2-1.5.2 0-1.4.4-2.7 1.1-3.7.7-1 1.9-1.7 3.6-2.1 0 .1.1.2.1.3v.3c0 .6-.1 1.3-.4 2z"/></svg>