<svg xmlns="http://www.w3.org/2000/svg" viewBox="0 0 228.8 84.8" enable-background="new 0 0 228.8 84.8"><path fill-rule="evenodd" clip-rule="evenodd" fill="#00B0A2" d="M225.4 64.9c-6.3 8.5-12.1 9.3-17.7-1.3-2.2-3.5-4.6-9.5-10.3-10.4 3.2-.8 6.8-2.5 9-3.8 10.4-6 9.6-16.4 6.2-21.9-3.1-5.2-16.1-14.5-33.2.7V15.9c-.3-5.6-.9-12.7-11.5-15.4-8.1-2.1-19.4 4.4-19.3 4.7.3 1.9 1.4 7.4 1.4 7.4 2.4-1 8-2.6 9.2-2.1 1.6.6 3 2.3 3 5.9V66l-4.3 3.2c-3.9 2.9-8.6 4.6-13 4.6-5.6 0-10.1-2.7-12.7-7.6 14-7.1 22.7-15.7 24.3-24.3.9-4.5-.2-8.7-3.1-12-2.4-2.7-6.7-4.2-11.6-4.2-3.6 0-9.2.8-15.6 4.9-14.8 9.4-16.2 25.1-13 35.7 0 0 .2.6.6 1.5l-.2.2-.7.5c-9.5 7.1-23.8 8-29.6-4 29.6-14.8 31.2-31.7 24-39.9-4.5-5.1-16.9-7.3-29.6.8-16.7 10.4-18.2 28-14 40.1C56 70.9 47 73.6 38 70c-20.1-7.9-21.4-42.3-4.8-54.8 3.6-2.7 8.2-4 13.1-3.8.8 0 1.7.1 2.6.2.6.1.9.5 1 .9v.1c0 .1-.1.4-.3.9-2.9 6.6.5 12.7 4.7 14 3.8 1.2 11.7.1 12.5-8.9.6-7.1-4.3-12.3-12.4-14.8-3.5-1.1-7.9-2-12.8-2.1-12.7-.2-25.5 5.9-33.2 16.1-18.7 24.5-5.6 67.1 33.5 66.1 11.4-.3 19-5 24.5-9.2.5-.4 1.1-.8 1.5-1.3.3.5.4.6.8 1.1 4.4 5.9 12.7 10.6 23.7 10.3 7.5-.2 16.3-2.6 25.1-9.6l.1-.1.2-.2c.1.2.2.3.3.5l.2.2c.1.1.2.3.3.4 4.5 5.5 12 8.8 20.3 8.8h.8c7.6-.2 16.1-3.8 22.5-9V83h17.3V58.1c3.7-.6 6.2 1.2 7.1 2.3 1.9 2.3 3.7 5.7 4.9 8.4 14.4 31.6 36.6 7.3 37.4 1.7-.1.1-3.1-6.1-3.5-5.6zM79.9 57.5c-.7-1.2-6.2-15.1 2.9-23.9 5.5-5.4 12.6-3.5 11 6.5C91.5 51.4 80.1 57 79.9 57.5zm48.7 1.6c-1.2-2.6-4.4-13.5 2.7-20.5 1.6-1.6 3.5-2.5 5.2-2.5 1.1 0 2.1.4 2.8 1.3.8 1 1.7 2.9 1 6.6-1.7 8.5-9.1 13.3-11.5 14.9 0 .1-.1.2-.2.2zm50.8-9V39.4c9.9-11.9 16.9-6.5 17.2-1.8.4 5.2-4.1 11.8-17.2 12.5z"/></svg>