<?xml version="1.0" encoding="utf-8"?>
<!-- Generator: Adobe Illustrator 20.1.0, SVG Export Plug-In . SVG Version: 6.00 Build 0)  -->
<svg version="1.1" id="Capa_1" xmlns="http://www.w3.org/2000/svg" xmlns:xlink="http://www.w3.org/1999/xlink" x="0px" y="0px"
	 viewBox="0 0 45 45" style="enable-background:new 0 0 45 45;" xml:space="preserve">
<style type="text/css">
	.st0{fill:#3333FF;}
	.st1{fill:#FFFFFF;}
</style>
<circle class="st0" cx="22.5" cy="22.5" r="17.5"/>
<g>
	<path class="st1" d="M30.1,12.9h-15C14,12.9,13,13.8,13,15v15c0,1.1,0.9,2.1,2.1,2.1h15c1.1,0,2.1-0.9,2.1-2.1V15
		C32.2,13.9,31.3,12.9,30.1,12.9z M19.2,20.7c0.1-0.2,0.2-0.3,0.3-0.4l0,0c0.1-0.1,0.1-0.2,0.2-0.3l0,0c0.1-0.1,0.2-0.2,0.2-0.3l0,0
		c0,0,0.1,0,0.1-0.1l0,0l0.1-0.1l0,0c0,0,0.1,0,0.1-0.1c0,0,0,0,0.1,0c0,0,0.1,0,0.1-0.1c0,0,0.1,0,0.1-0.1c0,0,0,0,0.1,0
		c0,0,0,0,0.1,0c0,0,0,0,0.1,0c0,0,0.1,0,0.1-0.1c0,0,0,0,0.1,0h0.1c0,0,0,0,0.1,0h0.1l0,0h0.1c0,0,0,0,0.1,0h0.1l0,0
		c0.1,0,0.1,0,0.2,0l0,0h0.1l0,0c0.1,0,0.1,0,0.2,0l0,0h0.1l0,0c0.1,0,0.1,0,0.2,0s0.1,0,0.2,0l0,0h0.1l0,0c0.1,0,0.1,0,0.2,0l0,0
		H23l0,0c0.1,0,0.1,0,0.2,0l0,0h0.1c0,0,0,0,0.1,0h0.1l0,0h0.1c0,0,0,0,0.1,0h0.1c0,0,0,0,0.1,0c0,0,0.1,0,0.1,0.1c0,0,0,0,0.1,0
		c0,0,0,0,0.1,0c0,0,0,0,0.1,0c0,0,0.1,0,0.1,0.1c0,0,0.1,0,0.1,0.1c0,0,0,0,0.1,0c0,0,0.1,0,0.1,0.1l0,0l0.1,0.1l0,0
		c0,0,0.1,0,0.1,0.1l0,0c0.1,0.1,0.2,0.2,0.2,0.3l0,0c0.1,0.1,0.2,0.2,0.2,0.3l0,0c0.1,0.1,0.2,0.3,0.3,0.4c0.3,0.5,0.4,1.2,0.4,1.8
		c0,2.2-1.8,3.9-3.9,3.9c-2.2,0-3.9-1.8-3.9-3.9C18.7,21.8,18.9,21.2,19.2,20.7z M30,28.6c0,0.7-0.5,1.2-1.2,1.2H16.5
		c-0.7,0-1.2-0.5-1.2-1.2v-8H17c-0.2,0.6-0.3,1.2-0.3,1.8c0,3.3,2.7,6,6,6s6-2.7,6-6c0-0.6-0.1-1.2-0.3-1.8H30V28.6z M30,17.6
		c0,0.5-0.4,1-1,1h-1.5c-0.5,0-1-0.4-1-1V16c0-0.5,0.4-1,1-1H29c0.5,0,1,0.4,1,1V17.6z"/>
</g>
</svg>
