<?xml version="1.0" encoding="utf-8"?>
<!-- Generator: Adobe Illustrator 20.1.0, SVG Export Plug-In . SVG Version: 6.00 Build 0)  -->
<svg version="1.1" id="Capa_1" xmlns="http://www.w3.org/2000/svg" xmlns:xlink="http://www.w3.org/1999/xlink" x="0px" y="0px"
	 viewBox="0 0 45 45" style="enable-background:new 0 0 45 45;" xml:space="preserve">
<style type="text/css">
	.st0{fill:#3333FF;}
	.st1{fill:#FFFFFF;}
</style>
<circle class="st0" cx="22.5" cy="22.5" r="17.5"/>
<g>
	<path class="st1" d="M13.4,14.7c0,0,3.2,4.3,8.9,4.6c0,0-0.8-2.5,1.6-4.5c2.3-1.9,5.2-0.3,5.8,0.4c0,0,1.6-0.3,2.8-1
		c0,0-0.4,1.5-1.8,2.4c0,0,1.6-0.2,2.4-0.7c0,0-0.8,1.3-2.2,2.2c0,0,0.6,5.4-4,9.8S14.7,31.4,12,29.1c0,0,3.7,0.4,6.3-1.8
		c0,0-3.1-0.1-4-2.9c0,0,1.5,0.1,1.8-0.2c0,0-3.3-0.8-3.4-4.3c0,0,1,0.5,1.9,0.5C14.7,20.5,11.5,18.2,13.4,14.7z"/>
</g>
</svg>
