<?xml version="1.0" encoding="utf-8"?>
<!-- Generator: Adobe Illustrator 20.1.0, SVG Export Plug-In . SVG Version: 6.00 Build 0)  -->
<svg version="1.1" id="Capa_1" xmlns="http://www.w3.org/2000/svg" xmlns:xlink="http://www.w3.org/1999/xlink" x="0px" y="0px"
	 viewBox="0 0 45 45" style="enable-background:new 0 0 45 45;" xml:space="preserve">
<style type="text/css">
	.st0{fill:#3333FF;}
	.st1{fill:#FFFFFF;}
</style>
<circle class="st0" cx="22.5" cy="22.5" r="17.5"/>
<g>
	<path class="st1" d="M33.7,17.7c-0.4-1.4-0.8-2.2-1.3-2.7s-1.6-0.6-9.9-0.6s-9.4,0.1-9.9,0.6s-1,1.3-1.3,2.7
		c-0.4,1.4-0.4,4.8-0.4,4.8c0,4.5,0.8,6.7,1.8,7.5s9.8,0.6,9.8,0.6s8.7,0.2,9.8-0.6c1-0.8,1.8-3,1.8-7.5
		C34.1,22.5,34.1,19.1,33.7,17.7z M20.1,26.8v-8.5l6.5,4.3L20.1,26.8z"/>
</g>
</svg>
