<?xml version="1.0" encoding="utf-8"?>
<!-- Generator: Adobe Illustrator 21.0.0, SVG Export Plug-In . SVG Version: 6.00 Build 0)  -->
<svg version="1.1" id="Capa_1" xmlns="http://www.w3.org/2000/svg" xmlns:xlink="http://www.w3.org/1999/xlink" x="0px" y="0px"
	 viewBox="0 0 155 155" style="enable-background:new 0 0 155 155;" xml:space="preserve">
<style type="text/css">
	.st0{fill:#2E37FE;}
</style>
<g>
	<g>
		<defs>
			<path id="SVGID_1_" d="M5,78.4c0,39.7,32.2,71.9,71.9,71.9c39.7,0,71.9-32.2,71.9-71.9S116.6,6.5,76.9,6.5
				C37.2,6.5,5,38.7,5,78.4"/>
		</defs>
		<clipPath id="SVGID_2_">
			<use xlink:href="#SVGID_1_"  style="overflow:visible;"/>
		</clipPath>
		<linearGradient id="SVGID_3_" gradientUnits="userSpaceOnUse" x1="3.9912" y1="78.3794" x2="149.8482" y2="78.3794">
			<stop  offset="0" style="stop-color:#19EFFF"/>
			<stop  offset="0.9007" style="stop-color:#0096FF"/>
		</linearGradient>
		<use xlink:href="#SVGID_1_"  style="overflow:visible;fill:none;stroke:url(#SVGID_3_);stroke-width:2;stroke-miterlimit:10;"/>
	</g>
	<path class="st0" d="M50.4,47.2L50.4,47.2c-0.7,0-1.4,0.3-1.9,0.8c-0.5,0.5-0.8,1.2-0.8,1.9v41c0,1.5,1.2,2.7,2.7,2.7
		c6.4,0,17,1.3,24.4,9V59.8c0-0.5-0.1-1-0.4-1.4C68.4,48.7,56.8,47.3,50.4,47.2"/>
	<path class="st0" d="M106.2,91V50c0-0.7-0.3-1.4-0.8-1.9c-0.5-0.5-1.2-0.8-1.9-0.8h0c-6.4,0-18,1.5-24,11.2
		c-0.2,0.4-0.4,0.9-0.4,1.4v42.9c7.4-7.7,18-9,24.4-9C104.9,93.7,106.2,92.5,106.2,91"/>
	<path class="st0" d="M112.4,56.7h-2V91c0,3.8-3.1,7-7,7c-5.4,0-14.3,1.1-20.6,7c10.9-2.7,22.4-0.9,28.9,0.6c0.8,0.2,1.7,0,2.3-0.5
		c0.7-0.5,1-1.3,1-2.1V59.4C115.1,57.9,113.9,56.7,112.4,56.7"/>
	<path class="st0" d="M43.4,91V56.7h-2c-1.5,0-2.7,1.2-2.7,2.7v43.4c0,0.8,0.4,1.6,1,2.1c0.7,0.5,1.5,0.7,2.3,0.5
		c6.5-1.5,18-3.2,28.9-0.6c-6.3-6-15.2-7-20.6-7C46.6,97.9,43.4,94.8,43.4,91"/>
</g>
</svg>
