<?xml version="1.0" encoding="utf-8"?>
<!-- Generator: Adobe Illustrator 21.0.0, SVG Export Plug-In . SVG Version: 6.00 Build 0)  -->
<svg version="1.1" id="Capa_1" xmlns="http://www.w3.org/2000/svg" xmlns:xlink="http://www.w3.org/1999/xlink" x="0px" y="0px"
	 viewBox="0 0 155 155" style="enable-background:new 0 0 155 155;" xml:space="preserve">
<style type="text/css">
	.st0{fill:none;stroke:url(#SVGID_3_);stroke-width:2;stroke-miterlimit:10;}
	.st1{fill:#2E37FE;}
</style>
<g>
	<g>
		<defs>
			<path id="SVGID_1_" d="M6.8,79.8c0,39.7,32.2,71.9,71.9,71.9c39.7,0,71.9-32.2,71.9-71.9S118.4,7.9,78.7,7.9
				C39,7.9,6.8,40.1,6.8,79.8"/>
		</defs>
		<clipPath id="SVGID_2_">
			<use xlink:href="#SVGID_1_"  style="overflow:visible;"/>
		</clipPath>
	</g>
	<g>
		<linearGradient id="SVGID_3_" gradientUnits="userSpaceOnUse" x1="5.7627" y1="79.8265" x2="151.6197" y2="79.8265">
			<stop  offset="0" style="stop-color:#19EFFF"/>
			<stop  offset="0.9007" style="stop-color:#0096FF"/>
		</linearGradient>
		<circle class="st0" cx="78.7" cy="79.8" r="71.9"/>
	</g>
	<path class="st1" d="M77.2,83.8H71l2.1,7.3L69,103.1c-0.5,1.5,0.3,3.2,1.8,3.8c1.5,0.5,3.2-0.3,3.8-1.8l4.5-12.8
		c0.2-0.6,0.2-1.2,0.1-1.8L77.2,83.8z"/>
	<path class="st1" d="M85.1,83.8h-6.7l3.4,6.7l-0.4,13.4c-0.1,1.6,1.2,3,2.9,3.1c0,0,0.1,0,0.1,0c1.6,0,2.9-1.3,3-2.9l0.5-14.2
		c0-0.5-0.1-1-0.3-1.4L85.1,83.8z"/>
	<path class="st1" d="M87.7,53.7c0,2.8-2.3,5.1-5.1,5.1c-2.8,0-5.1-2.3-5.1-5.1c0-2.8,2.3-5.1,5.1-5.1
		C85.4,48.7,87.7,50.9,87.7,53.7"/>
	<path class="st1" d="M60.4,81.5h19.4l-4.2-2.1c-0.4-0.2-0.7-0.4-1.1-0.7H60.4c-5.7,0-10.3,4.6-10.3,10.3v15.2h-2.2
		c-0.8,0-1.4,0.6-1.4,1.4c0,0.8,0.6,1.4,1.4,1.4H55c0.8,0,1.4-0.6,1.4-1.4c0-0.8-0.6-1.4-1.4-1.4h-2.2V89.1
		C52.8,84.9,56.2,81.5,60.4,81.5"/>
	<path class="st1" d="M87.8,77.1L80,73.3l-1.3-9.5l3.2,7.7l2.5,1.2l1.2-8c0.3-1.7-0.9-3.2-2.5-3.5l-6.8-1c-1.7-0.3-3.2,0.9-3.5,2.5
		l-2.1,13.6H73c-0.2-0.7-0.2-1.1-0.2-1.4l1-10.2l1.4,10.5c0.1,0.8,0.6,1.6,1.4,1.9c5.6,2.7,2.4,1.1,9,4.4c1.1,0.6,2.5,0.2,3.2-0.9
		C89.6,79.4,89.2,77.8,87.8,77.1"/>
	<path class="st1" d="M109.5,104.3h-2.2V89.1c0-5.7-4.6-10.3-10.3-10.3h-5.3c0.1,0.9,0,1.9-0.4,2.8h5.7c4.2,0,7.6,3.4,7.6,7.6v15.2
		h-2.1c-0.8,0-1.4,0.6-1.4,1.4c0,0.8,0.6,1.4,1.4,1.4h7.1c0.8,0,1.4-0.6,1.4-1.4C110.8,104.9,110.2,104.3,109.5,104.3"/>
</g>
</svg>
