<?xml version="1.0" encoding="utf-8"?>
<!-- Generator: Adobe Illustrator 21.0.0, SVG Export Plug-In . SVG Version: 6.00 Build 0)  -->
<svg version="1.1" id="Capa_1" xmlns="http://www.w3.org/2000/svg" xmlns:xlink="http://www.w3.org/1999/xlink" x="0px" y="0px"
	 viewBox="0 0 155 155" style="enable-background:new 0 0 155 155;" xml:space="preserve">
<style type="text/css">
	.st0{fill:none;stroke:url(#SVGID_3_);stroke-width:2;stroke-miterlimit:10;}
	.st1{fill:#2E37FE;}
</style>
<g>
	<g>
		<defs>
			<path id="SVGID_1_" d="M6.4,78.5c0,39.7,32.2,71.9,71.9,71.9c39.7,0,71.9-32.2,71.9-71.9S118.1,6.6,78.3,6.6
				C38.6,6.6,6.4,38.8,6.4,78.5"/>
		</defs>
		<clipPath id="SVGID_2_">
			<use xlink:href="#SVGID_1_"  style="overflow:visible;"/>
		</clipPath>
	</g>
	<g>
		<linearGradient id="SVGID_3_" gradientUnits="userSpaceOnUse" x1="5.4142" y1="78.4876" x2="151.2707" y2="78.4876">
			<stop  offset="0" style="stop-color:#19EFFF"/>
			<stop  offset="0.9007" style="stop-color:#0096FF"/>
		</linearGradient>
		<circle class="st0" cx="78.3" cy="78.5" r="71.9"/>
	</g>
	<path class="st1" d="M89.9,61.6c0,7.9-6.4,14.3-14.3,14.3s-14.3-6.4-14.3-14.3c0-7.9,6.4-14.3,14.3-14.3S89.9,53.7,89.9,61.6"/>
	<path class="st1" d="M92,93.3c0,1.2-1,2.1-2.1,2.1c-1.2,0-2.1-1-2.1-2.1c0-1.2,1-2.1,2.1-2.1C91,91.2,92,92.2,92,93.3"/>
	<path class="st1" d="M64.8,85.3c-1-1-2.2-1.6-3.5-1.6c-1.3,0-2.6,0.6-3.6,1.6C59.6,84.9,62,84.8,64.8,85.3"/>
	<path class="st1" d="M109.3,100.5c-1.7-10.8-8.4-19.9-17.6-24.9c0.4,3.1,0.9,8.2-0.2,12.8c2,0.7,3.5,2.6,3.5,4.9
		c0,2.8-2.3,5.2-5.2,5.2c-2.8,0-5.2-2.3-5.2-5.2c0-2.5,1.7-4.5,4-5c1.4-5.4,0.3-12.3-0.1-14.1c-0.4-0.2-0.7-0.3-1.1-0.4
		c-3.1,3-7.3,4.9-12,4.9c-4.6,0-8.7-1.8-11.8-4.8c-0.5,1-1.4,3.5-1.2,7.2c4.6,0.9,8,6.1,8,12.5c0,2.4-0.5,4.7-1.4,6.6
		c-0.5,1.4-2.6,2-3.5,2c-1.4,0-2.6-1.2-2.6-2.6c0-1.4,1.2-2.6,2.6-2.6c0.4,0,1,0.1,1.7,0.3c1.1-3.5,0.3-7.1-0.3-8.5
		c-5.1-2.2-9.9-0.7-11.6,0c-0.5,1.4-1.4,4.6-0.3,8.5c0.6-0.3,1.2-0.4,1.7-0.4c1.4,0,2.6,1.2,2.6,2.6s-1.2,2.6-2.6,2.6
		c-0.9,0-3-0.6-3.5-1.9c-1-2-1.4-4.3-1.4-6.8c0-6.3,3.4-11.5,7.9-12.4c-0.1-2.4,0.2-4.5,0.6-5.9c-9.8,4.9-16.9,14.2-18.6,25.4
		c-0.4,2.7,1.7,5.2,4.5,5.2h58.5C107.6,105.7,109.7,103.2,109.3,100.5"/>
</g>
</svg>
