<?xml version="1.0" encoding="utf-8"?>
<!-- Generator: Adobe Illustrator 21.0.0, SVG Export Plug-In . SVG Version: 6.00 Build 0)  -->
<svg version="1.1" id="Capa_1" xmlns="http://www.w3.org/2000/svg" xmlns:xlink="http://www.w3.org/1999/xlink" x="0px" y="0px"
	 viewBox="0 0 155 155" style="enable-background:new 0 0 155 155;" xml:space="preserve">
<style type="text/css">
	.st0{fill:none;stroke:url(#SVGID_3_);stroke-width:2;stroke-miterlimit:10;}
	.st1{fill:#2E37FE;}
</style>
<g>
	<g>
		<defs>
			<path id="SVGID_1_" d="M6.1,78.4c0,39.7,32.2,71.9,71.9,71.9s71.9-32.2,71.9-71.9S117.7,6.5,78,6.5S6.1,38.7,6.1,78.4"/>
		</defs>
		<clipPath id="SVGID_2_">
			<use xlink:href="#SVGID_1_"  style="overflow:visible;"/>
		</clipPath>
	</g>
	<g>
		<linearGradient id="SVGID_3_" gradientUnits="userSpaceOnUse" x1="5.0774" y1="78.3794" x2="150.9343" y2="78.3794">
			<stop  offset="0" style="stop-color:#19EFFF"/>
			<stop  offset="0.9007" style="stop-color:#0096FF"/>
		</linearGradient>
		<circle class="st0" cx="78" cy="78.4" r="71.9"/>
	</g>
	<path class="st1" d="M112.2,101.4h-0.9c-0.5,0-0.5-0.6-0.5-0.6V61.2c0-1-0.8-1.8-1.8-1.8H95c-0.5,0-0.5-0.5-0.5-0.5v-7.7
		c0-0.1,0-0.2,0.3-0.2c0.6,0,1-0.5,1-1v-1.8c0-0.6-0.5-1-1-1H62.2c-0.6,0-1,0.5-1,1V50c0,0.6,0.5,1,1,1c0.3,0,0.3,0.3,0.3,0.3v7.3
		c0,0,0,0.7-0.4,0.7H46.9c-1,0-1.8,0.8-1.8,1.8V101c0,0.4-0.2,0.4-0.6,0.4h-0.7c-0.6,0-1,0.5-1,1v2.1c0,0.6,0.5,1,1,1h68.5
		c0.6,0,1-0.5,1-1v-2.1C113.2,101.9,112.8,101.4,112.2,101.4 M82.4,68.1h6c0.4,0,0.8,0.4,0.8,0.8v6c0,0.4-0.4,0.8-0.8,0.8h-6
		c-0.4,0-0.8-0.4-0.8-0.8v-6C81.6,68.4,81.9,68.1,82.4,68.1 M81.6,64.3v-6c0-0.4,0.4-0.8,0.8-0.8h6c0.4,0,0.8,0.4,0.8,0.8v6
		c0,0.4-0.4,0.8-0.8,0.8h-6C81.9,65.1,81.6,64.7,81.6,64.3 M82.4,78.3h6c0.4,0,0.8,0.4,0.8,0.8v6c0,0.4-0.4,0.8-0.8,0.8h-6
		c-0.4,0-0.8-0.4-0.8-0.8v-6C81.6,78.6,81.9,78.3,82.4,78.3 M83.3,90.4c0.4,0,0.8,0.4,0.8,0.8v9.4c0,0.4-0.4,0.8-0.8,0.8h-9.4
		c-0.4,0-0.8-0.4-0.8-0.8v-9.4c0-0.4,0.4-0.8,0.8-0.8H83.3z M75.5,64.3c0,0.4-0.4,0.8-0.8,0.8h-6c-0.4,0-0.8-0.4-0.8-0.8v-6
		c0-0.4,0.4-0.8,0.8-0.8h6c0.4,0,0.8,0.4,0.8,0.8V64.3z M68.6,68.1h6c0.4,0,0.8,0.4,0.8,0.8v6c0,0.4-0.4,0.8-0.8,0.8h-6
		c-0.4,0-0.8-0.4-0.8-0.8v-6C67.8,68.4,68.2,68.1,68.6,68.1 M68.6,78.3h6c0.4,0,0.8,0.4,0.8,0.8v6c0,0.4-0.4,0.8-0.8,0.8h-6
		c-0.4,0-0.8-0.4-0.8-0.8v-6C67.8,78.6,68.2,78.3,68.6,78.3 M96.9,68.7c0-0.4,0.4-0.8,0.8-0.8h6c0.4,0,0.8,0.4,0.8,0.8v6
		c0,0.4-0.4,0.8-0.8,0.8h-6c-0.4,0-0.8-0.4-0.8-0.8V68.7z M96.9,79.3c0-0.4,0.4-0.8,0.8-0.8h6c0.4,0,0.8,0.4,0.8,0.8v6
		c0,0.4-0.4,0.8-0.8,0.8h-6c-0.4,0-0.8-0.4-0.8-0.8V79.3z M96.9,89.5c0-0.4,0.4-0.8,0.8-0.8h6c0.4,0,0.8,0.4,0.8,0.8v6
		c0,0.4-0.4,0.8-0.8,0.8h-6c-0.4,0-0.8-0.4-0.8-0.8V89.5z M51.4,68.7c0-0.4,0.4-0.8,0.8-0.8h6c0.4,0,0.8,0.4,0.8,0.8v6
		c0,0.4-0.4,0.8-0.8,0.8h-6c-0.4,0-0.8-0.4-0.8-0.8V68.7z M51.4,79.3c0-0.4,0.4-0.8,0.8-0.8h6c0.4,0,0.8,0.4,0.8,0.8v6
		c0,0.4-0.4,0.8-0.8,0.8h-6c-0.4,0-0.8-0.4-0.8-0.8V79.3z M51.4,89.5c0-0.4,0.4-0.8,0.8-0.8h6c0.4,0,0.8,0.4,0.8,0.8v6
		c0,0.4-0.4,0.8-0.8,0.8h-6c-0.4,0-0.8-0.4-0.8-0.8V89.5z"/>
</g>
</svg>
