<?xml version="1.0" encoding="utf-8"?>
<!-- Generator: Adobe Illustrator 21.0.0, SVG Export Plug-In . SVG Version: 6.00 Build 0)  -->
<svg version="1.1" id="Capa_1" xmlns="http://www.w3.org/2000/svg" xmlns:xlink="http://www.w3.org/1999/xlink" x="0px" y="0px"
	 viewBox="0 0 155 155" style="enable-background:new 0 0 155 155;" xml:space="preserve">
<style type="text/css">
	.st0{fill:#2E37FE;}
	.st1{fill:#FFFFFF;}
</style>
<g>
	<circle class="st0" cx="77.4" cy="78.5" r="71.9"/>
	<g>
		<path class="st1" d="M96.3,68.4c-1.2,0-2.2,1-2.2,2.3h0v6.8c0,1.3-1,2.3-2.3,2.3c-1.3,0-2.3-1-2.3-2.3V66.9c0-1.3-1-2.3-2.2-2.3
			c-1.2,0-2.2,1-2.2,2.3v7.6c0,1.3-1,2.3-2.3,2.3c-1.3,0-2.3-1-2.3-2.3V63.9c0-1.3-1-2.3-2.2-2.3c-1.2,0-2.2,1-2.2,2.3v7.6
			c0,1.3-1,2.3-2.3,2.3c-1.3,0-2.3-1-2.3-2.3V49.7c0-1.3-1-2.3-2.2-2.3c-1.2,0-2.2,1-2.2,2.3v33.7c0,1-0.6,1.8-1.5,2.2
			c-0.9,0.3-1.9,0.1-2.6-0.6l-9-10.3c-0.4-0.4-1-0.6-1.6-0.6c-0.6,0-1.2,0.2-1.6,0.6c-0.9,0.9-0.3,2.5,0.4,3.7
			c2.6,4.6,5.4,8.9,8,12.7c1.9,2.9,3.7,5.6,5.1,8c0.9,1.5,2.7,5.3,3.7,7.3h26.3c1.6-5.3,4.6-15.8,4.6-19.7V70.7
			C98.5,69.5,97.5,68.4,96.3,68.4z"/>
	</g>
</g>
</svg>
