<?xml version="1.0" encoding="utf-8"?>
<!-- Generator: Adobe Illustrator 21.0.0, SVG Export Plug-In . SVG Version: 6.00 Build 0)  -->
<svg version="1.1" id="Capa_1" xmlns="http://www.w3.org/2000/svg" xmlns:xlink="http://www.w3.org/1999/xlink" x="0px" y="0px"
	 viewBox="0 0 395 393" style="enable-background:new 0 0 395 393;" xml:space="preserve">
<style type="text/css">
	.st0{fill:#2E37FE;}
	.st1{fill:#0086FF;}
	.st2{fill:#212ED6;}
	.st3{fill:url(#SVGID_1_);}
</style>
<path class="st0" d="M280.5,199.5l-5.2-6.5c-2.7-5.1-11.1-8.8-11.1-8.8c-3.3-1.6-8.5-28.7-8.5-28.7c-1.6-19.3-11.4-30.5-11.4-30.5
	c-0.6-5.1-4.3-18.5-4.3-18.5V87.6c-3.6-21.2-25.9-17.5-25.9-17.5l-12.3-9V50.5c0,0,1.9-3.2,2.2-5.2c0,0,5.1-8.7,1.4-12.2
	c0,0,1.7-19-14.5-19.9l0,0c-16.3,0.9-14.5,19.9-14.5,19.9c-3.6,3.5,1.4,12.2,1.4,12.2c0.3,2.1,2.2,5.2,2.2,5.2v10.6l-12.3,9
	c0,0-22.3-3.6-25.9,17.5v18.8c0,0-3.6,13.4-4.3,18.5c0,0-9.8,11.2-11.4,30.5c0,0-5.2,27.2-8.5,28.7c0,0-8.4,3.8-11.1,8.8l-5.2,6.5
	c0,0-1.6,3.5,1.6,4.2c0,0,1.6-0.1,5.7-5.1l2.2-2.4c0,0-1.6,8.1-6.2,13.3c0,0-2.4,5.2-0.6,7.1c0,0,3.2,0.3,4.1-2.4l3.9-6.5l-3,10.7
	c0,0-0.8,2.8,1.1,3.6c0,0,2.2,0.5,3.5-2.2l3.9-9.6l-0.9,9.8c0,0-0.8,1,1.1,2.1c0,0,2.5,0.8,3.5-4.5l1.9-7.6l0.8-1.4l1.4,9.5
	c0,0,0.3,0.9,1.9,0.9c0,0,1.6-0.5,1.4-3.8l0.2-11.6c0,0,4.6-9.4,4.1-18.4l6.3-18.5c0,0,12.8-20.5,11.4-32.4l7.6-18.8
	c0,0,3.2,12.8,5.4,15.6l0.2,13.3c0,0-3.6,23.5-3,25.3c0,0-4.1,18.2-4.7,26.7c0,0-0.9,26.5-0.3,30.3c0,0,1.1,15,4.6,24.3
	c0,0-1.3,22.6-0.5,25c0,0-3.8,24.3-1.6,33.5l5.1,33.2c0,0-0.9,11.5-0.3,13.9l-5.8,8.4c0,0-0.6,3.5-0.5,7.3c0,0,8.2,3.6,11.4,2.7
	c0,0,4.6,2.5,7,0.2c0,0,3.8-5.1,2.2-8.8v-3.5c0,0,1.1-6.3,0.3-8.4c0,0,1.7-3.8-1.7-12.5c0,0-0.8-7.7,0-11.7l3.9-15.3
	c0,0,3.9-19.3-0.8-28.4l0.6-6.5c0,0,5.2-13.3,3.6-23.5c0,0,5.8-29.3,7-45.1h1.4c1.2,15.8,7,45.1,7,45.1c-1.6,10.3,3.6,23.5,3.6,23.5
	l0.6,6.5c-4.7,9.2-0.8,28.4-0.8,28.4l3.9,15.3c0.8,3.9,0,11.7,0,11.7c-3.5,8.7-1.7,12.5-1.7,12.5c-0.8,2.1,0.3,8.4,0.3,8.4v3.5
	c-1.6,3.8,2.2,8.8,2.2,8.8c2.4,2.4,7-0.2,7-0.2c3.2,0.9,11.4-2.7,11.4-2.7c0.2-3.8-0.5-7.3-0.5-7.3l-5.8-8.4
	c0.6-2.4-0.3-13.9-0.3-13.9l5.1-33.2c2.2-9.2-1.6-33.5-1.6-33.5c0.8-2.4-0.5-25-0.5-25c3.5-9.3,4.6-24.3,4.6-24.3
	c0.6-3.8-0.3-30.3-0.3-30.3c-0.6-8.5-4.7-26.7-4.7-26.7c0.6-1.7-3-25.3-3-25.3l0.2-13.3c2.2-2.8,5.4-15.6,5.4-15.6l7.6,18.8
	c-1.4,11.8,11.4,32.4,11.4,32.4l6.3,18.5c-0.5,9,4.1,18.4,4.1,18.4l0.2,11.6c-0.2,3.3,1.4,3.8,1.4,3.8c1.6,0,1.9-0.9,1.9-0.9
	l1.4-9.5l0.8,1.4l1.9,7.6c0.9,5.2,3.5,4.5,3.5,4.5c1.9-1.1,1.1-2.1,1.1-2.1l-0.9-9.8l3.9,9.6c1.3,2.7,3.5,2.2,3.5,2.2
	c1.9-0.8,1.1-3.6,1.1-3.6l-3-10.7l3.9,6.5c0.9,2.7,4.1,2.4,4.1,2.4c1.7-1.9-0.6-7.1-0.6-7.1c-4.6-5.2-6.2-13.3-6.2-13.3l2.2,2.4
	c4.1,5.1,5.7,5.1,5.7,5.1C282,202.9,280.5,199.5,280.5,199.5z"/>
<g>
	<path class="st1" d="M186.4,25.3C186.3,25.3,186.3,25.2,186.4,25.3C186.3,25.2,186.4,27.6,186.4,25.3z"/>
	<path class="st2" d="M119.8,184.1l18.1-48c1.4-2.3,1.5-12.4,1.5-12.4c0.8-4.5,2.3-12.5,2.3-12.5c2.5-3.5,3.2-15.1,3.2-15.1
		c0.8-24.9,24.9-21.7,24.9-21.7c15.5-0.5,19.2,3.3,19.2,3.3c0.8,2.1,2.2,2.1,2.2,2.1c0.8-2-2.2-6.8-2.2-6.8l-3-10.4
		c-1.2-4.1,2.1-8,4.5-7.8c2.4,0.2,2.4-0.9,2.4-0.9h-3.9c-4.1-0.3-4.4-2.7-4.4-2.7c-1.8-5.3,2.9-6.2,2.9-6.2l7.2-0.4
		c0.8,0.9,1.5,0,1.5,0c-0.2-1.4-2.9-2.3-2.9-2.3h-6.8l-1.5-0.9c-1.8-0.6-1.2-4.7-1.2-4.7c0-2-0.8-2.1-0.8-2.1
		c-2.1-0.9-1.1-3.6-1.1-3.6l6.6-0.8c0.3-1-1.8-4.3-2.2-4.9c0,2.3-0.1-0.1-0.1-0.1s0,0,0.1,0.1c0-0.7,0-1.8-0.1-3.6
		c-0.2-7.5,7.8-6.9,7.8-6.9l-1.5-1.3c-0.7-0.1-1.5-0.2-2.3-0.3c-16.3,0.9-14.5,19.9-14.5,19.9c-3.6,3.5,1.4,12.2,1.4,12.2
		c0.3,2.1,2.2,5.2,2.2,5.2v10.6l-12.3,9c0,0-22.3-3.6-25.9,17.5v18.8c0,0-3.6,13.4-4.3,18.5c0,0-9.8,11.2-11.4,30.5
		c0,0-5.2,27.2-8.5,28.7C118.9,185.1,119.8,184.1,119.8,184.1z"/>
</g>
<g>
	<g>
		<path class="st2" d="M165.7,276.9c1.4-2.7-1.9-4.4-1.9-4.4c-1.8-11.8,3.3-14.5,3.3-14.5c2.6-2.9-0.5-12.7-0.5-12.7
			c-5.7-13.3-7.7-39.2-7.7-39.2c-1.2-37.7,6.7-35.5,6.7-35.5c4.3,1.7,4.3-2.6,4.3-2.6c-7.1-13.7-2-21.6-2-21.6
			c-2.7-2.4,1.1-8.3,1.1-8.3c-3.3-2.7-1.8-9.5-1.8-9.5c-2.6-1.4-0.6-6.9-0.6-6.9c-4.1-10.1,11.5-7.7,11.5-7.7l-1.5-1.1
			c-19.3-5.4-16.3-20.2-16.3-20.2c-2.6-1.7-3,10.3-3,10.3c0,8.6-4.1,21.1-4.1,21.1l-3.3,9.5l0.6,4.2c0.1-1.2,0.1-2.4,0-3.5l7.6-18.8
			c0,0,3.2,12.8,5.4,15.6l0.2,13.3c0,0-3.6,23.5-3,25.3c0,0-4.1,18.2-4.7,26.7c0,0-0.9,26.5-0.3,30.3c0,0,1.1,15,4.6,24.3
			c0,0-1.3,22.6-0.5,25c0,0-3.8,24.3-1.6,33.5l5.1,33.2l-1.6-44.9C160.7,288.5,164.3,279.6,165.7,276.9z"/>
	</g>
</g>
<g>
	<g>
		<path class="st2" d="M202.9,36.7c0.3,0.6,1.3-2.6,1.3-2.6s1.4-1,1.6,2.7l-4.3,12.8l-3.3,3l-1.3-0.3c0,0-1.1,0.5-0.7,1l2.3,0.8h2.5
			v7.5c0,0-2,6.9-2.8,8.2c0,0-0.6,1,0.8,1l4.6-5.4l4.4,4.7l-4.5,5.2c0,0-0.3,0.1,0.3,0.5l11.6-2.3c0,0,9.3-1.1,14.3,4.3
			c0,0,10.5,8.7,5.1,22.8c0,0-1.8,1.4,0.7,3.6c0,0,7,11.6,7.9,22.3c0,0-2,5.7-3.8,6.3c0,0-0.9,0.9,0.3,2.1l2,1.6
			c0,0,1.1,1.2,1.1-2.1c0,0,0.1-1.9,2-0.2c0,0,7.8,2.4,14.1,39.7c0,0,0.3,11.1,1.8,12l8.6,2.6l3.2,1.2c-3.5-3.4-8.5-5.7-8.5-5.7
			c-3.3-1.6-8.5-28.7-8.5-28.7c-1.6-19.3-11.4-30.5-11.4-30.5c-0.6-5.1-4.3-18.5-4.3-18.5V87.6c-3.6-21.2-25.9-17.5-25.9-17.5
			l-12.3-9V50.5c0,0,1.9-3.2,2.2-5.2c0,0,5.1-8.7,1.4-12.2c0,0,0.3-3.6-0.7-7.8l-0.5-0.1C204.2,25.2,202.6,36.1,202.9,36.7z"/>
	</g>
</g>
<g>
	<g>
		<path class="st2" d="M222.4,96.7c0,0-5.5,13.1-9.5,13.6c0,0-1.1,1.1,0.8,2.1c0,0,5.8,2.6,3.8,7.1c0,0-1.5,1.8,0,3.7
			c0,0-0.3,14.1-4.9,17.3c0,0-1.2,1.2,1.1,2.6c0,0,8.8,9.1,0.5,27.3c0,0-0.5,1.1,2.4,2.2c0,0,4.4,0.9,5.8,15.7l3.8,36.4
			c0.3-7.4-0.5-28.2-0.5-28.2c-0.6-8.5-4.7-26.7-4.7-26.7c0.6-1.7-3-25.3-3-25.3l0.2-13.3c2.2-2.8,5.4-15.6,5.4-15.6
			S224.6,95.4,222.4,96.7z"/>
	</g>
</g>
<path class="st2" d="M187.3,113.1c0,0-2.1-1.5,0-1.7h10.9c0,0,1.6,0,0,1.7c0,0-5.8,3.8-5.6,8.3c0,0-0.9,0.9-1.7-0.7
	C190.9,120.7,189.1,113.7,187.3,113.1z"/>
<path class="st2" d="M186.3,127.4c0,0-2.5,1-1,2.9c0,0,0.3,1,4.4,0.5c0,0,8.6-3.5,13.1,0.9c0,0,2.2,0.3,1.3-1.3
	C204.1,130.4,199.1,124.3,186.3,127.4z"/>
<path class="st2" d="M185.8,156.3c0,0-3.2-1.7,0.6-2.4h12.6l-8,4L185.8,156.3z"/>
<path class="st2" d="M172,177.3l4.6-4.5l5.5,14.6c0,0,1,1.3,0,1.4c0,0-6.7-9.4-8.7-10.1C173.3,178.7,170.6,178.7,172,177.3z"/>
<path class="st1" d="M209.8,176.1c0,0-4.1,4-4.7,4.3c0,0-2.5,2.2-0.8,3.1l5.5-5.8C209.8,177.7,210.6,177.5,209.8,176.1z"/>
<g>
	<g>
		<path class="st2" d="M209,367.4c-2.8-1.8,0-4.5,0-4.5l3.5-4.9c0.1-1.5-3.1-3.6-3.1-3.6c-2.4-4.1,0.5-17,0.5-17
			c0.6-10.7-3.7-26.8-3.7-26.8c-2.8-18,1.5-23.6,1.5-23.6c3-1.8,4.7,7.6,4.7,7.6c4.1-8.6-7.7-22.6-7.7-22.6l3.3-5.6
			c0.6-3.3-3.8-6.8-3.8-6.8l-0.5-16.1c-9-22.3-3.2-52.3-3.2-52.3c-6.2,10.2-18,6-18,6c1.7,2.6,2.9,19.3,2.9,19.3
			c1.8,23.7-9.6,48-9.6,48c-3.4,3.1-0.8,8.6-0.8,8.6c-8.1,6.8-6,7-6,7c9.5,12.5,6.3,39.2,6.3,39.2c-2.4,3.1-1.4,24.6-1.4,24.6
			c1.8,4.3-0.2,16.2-0.2,16.2c-1.2,1.6,1,6.6,1,6.6c0,5.9-6.3,5.9-6.3,5.9c-2.4,0.9-0.8,1.5-0.8,1.5l1.3,1.2c1.5,0.6,4.3,1.4,6-0.3
			c0,0,3.8-5.1,2.2-8.8v-3.5c0,0,1.1-6.3,0.3-8.4c0,0,1.7-3.8-1.7-12.5c0,0-0.8-7.7,0-11.7l3.9-15.3c0,0,3.9-19.3-0.8-28.4l0.6-6.5
			c0,0,5.2-13.3,3.6-23.5c0,0,5.8-29.3,7-45.1h1.4c1.2,15.8,7,45.1,7,45.1c-1.6,10.3,3.6,23.5,3.6,23.5l0.6,6.5
			c-4.7,9.2-0.8,28.4-0.8,28.4l3.9,15.3c0.8,3.9,0,11.7,0,11.7c-3.5,8.7-1.7,12.5-1.7,12.5c-0.8,2.1,0.3,8.4,0.3,8.4v3.5
			c-1.2,2.8,0.6,6.3,1.6,7.9C204.9,371.2,209,367.4,209,367.4z"/>
	</g>
</g>
<linearGradient id="SVGID_1_" gradientUnits="userSpaceOnUse" x1="5.763" y1="195.3464" x2="385.7032" y2="195.3464">
	<stop  offset="0" style="stop-color:#19EFFF"/>
	<stop  offset="0.9007" style="stop-color:#0096FF"/>
</linearGradient>
<path class="st3" d="M358.9,291c1.6-2.8,3.2-5.7,4.7-8.5c3.1-5.7,6-11.5,8.5-17.5c1.3-2.2,2.2-4.6,2.7-6.9c0.2-0.4,0.3-0.8,0.5-1.2
	c3.7-10.4,6.5-21.1,8.2-32c0.1-0.6,0.2-1.1,0.3-1.7c1.3-9,2-18,2-27.1c0-3.1-0.1-6.2-0.2-9.4c0-0.1,0-0.1,0-0.2
	c0-0.8-0.1-1.7-0.2-2.5c-0.8-12-2.7-23.9-5.8-35.5c-0.2-0.8-0.4-1.5-0.6-2.3c-3-10.6-6.9-21-11.7-31c-0.2-0.5-0.5-0.9-0.7-1.4
	c-0.6-1.6-1.4-3.1-2.4-4.6c-4.8-9-10.4-17.6-16.7-25.7c-1.3-2.6-3.3-5.2-5.8-7.3l0,0.1c-1.7-2-3.5-4-5.2-5.9
	c-4.4-4.8-9-9.4-13.8-13.8c-1.7-2.2-4.1-4.3-6.9-6.2l-0.1,0.2c-7.1-5.8-14.7-11.1-22.6-15.9c-2.1-1.8-5-3.3-8.1-4.8l-0.1,0.1
	c-2.5-1.4-5-2.7-7.6-3.9c-0.7-0.3-1.4-0.7-2.1-1c-0.1,0-0.2-0.1-0.3-0.1l0.1-0.1c0,0,0,0,0,0l0,0c0,0,0,0,0,0
	c-8.8-4.1-17.9-7.6-27.3-10.3c-3.7-1.1-7.4-2.1-11.2-3C225,8.8,213.9,7.3,204,6.7c-4.2-0.8-7.8-1.3-10.1-1.3c-1,0-1.8,0.1-2.4,0.3
	c-0.2,0.1-0.4,0.2-0.6,0.4c-0.2-0.2-0.4-0.3-0.6-0.4c-0.6-0.2-1.4-0.3-2.4-0.3c-4.8,0-14.4,2.3-25,4.1c-18.5,3.2-38.4,7.7-56,15.3
	l0.2,0.4l-0.2-0.4c-10.4,4.9-20.3,10.9-29.5,17.7c-0.4,0.2-0.8,0.5-1.3,0.7l0.1,0.2C67,50.4,58.5,58.2,50.9,66.7
	c-0.4,0.3-0.7,0.5-1.1,0.7l0.2,0.3C42.2,76.4,35.2,86,29.3,96.1c-0.1,0.1-0.2,0.2-0.4,0.3l0.1,0.1c-6,10.4-11,21.4-14.7,32.9
	c-3.7,11.4-6.1,23.2-7.5,35.2c0,0,0,0,0,0l0,0c-0.8,6.9-1.1,13.8-1.1,20.7c0,5.3,0.2,10.7,0.7,16c0,0,0,0,0,0l0,0
	c2,24.8,8.7,49.5,19.6,72.2c21.6,44.8,58.7,81.1,101.3,99.2c10.1,4.3,20.4,7.4,30.8,9.5c0.1,0,0.2,0.1,0.3,0.1l0,0
	c4,0.8,8.1,1.4,12.1,1.9c2.3,0.3,4.6,0.5,6.9,0.6c0.2,0,0.5,0,0.7,0c0.1,0,0.2,0,0.3,0c1.2,0.2,2.7,0.2,4.3,0.2c0,0,0.1,0,0.1,0
	c0.3,0,0.5,0,0.8,0c0,0,0,0,0.1,0c0.5,0,1,0,1.4,0c0.1,0,0.2,0,0.2,0c0.4,0,0.9,0,1.3,0c0.2,0,0.3,0,0.5,0c0.4,0,0.7,0.1,1.1,0.1
	c0,0,0,0,0,0c0.1,0,0.1,0,0.2,0c0.1,0,0.1,0,0.1,0c0,0,0,0,0,0s0,0,0,0c0,0,0.1,0,0.3,0c0,0,0.1,0,0.1,0c0.1,0,0.1,0,0.1,0
	c0,0,0,0,0.1,0c0,0,0,0,0.1,0c0.1,0,0.3,0,0.5-0.1c0.2,0,0.4,0,0.5,0.1c0,0,0,0,0.1,0c0,0,0,0,0,0c0,0,0,0,0,0c0,0,0,0,0,0
	c0,0,0,0,0,0c0,0,0,0,0,0c0.5,0,0.8,0.1,1.1,0.1c0.1,0,0.2,0,0.2,0c0,0,0.2,0,0.3-0.2c0,0,0.1,0,0.1,0l0,0.1h0
	c0.6,0.1,1.1,0.1,1.7,0.1c0.4,0,0.7,0,1.1,0c0.3,0,0.7,0,1,0c0.7,0,1.4,0,2.3-0.1c0,0,0,0,0,0l0,0l0,0c12.7-0.6,29.4-3.1,47.3-7.8
	c10.5-2.8,20.5-5.9,28.2-10.2c7.5-3.4,14.7-7.3,21.7-11.6c4-2.2,7.5-4.5,10.5-7c5.8-4.1,11.3-8.6,16.5-13.3
	c6.8-4.5,12-9.5,14.9-14.9c6.2-6.9,11.8-14.2,16.9-21.9C356.2,296.1,357.8,293.6,358.9,291z M321.9,334.7c-0.5,0.3-0.9,0.6-1.4,0.9
	c5.7-5,11.1-10.2,16.2-15.8c0,0.1-0.1,0.1-0.1,0.2C332,325.1,327.1,330,321.9,334.7z M305.3,348c-1.4,1-2.9,2-4.3,3
	c2.1-1.5,4.2-3.1,6.2-4.7C306.6,346.9,306,347.4,305.3,348z M245.4,376.6c-0.9,0.2-1.9,0.5-2.8,0.7c5.7-2,11.2-4.5,16.6-7.4
	c3.6-1.1,7.2-2.2,10.7-3.5C262,370.5,253.8,373.9,245.4,376.6C245.4,376.5,245.4,376.5,245.4,376.6z M21.1,190.8
	c5.6-3.6,11.9-7.1,18.8-10.6c0.5,12.2,1.9,24.5,4.3,36.7c-6.6,3.3-12.7,6.7-17.9,10.2C23.5,215.1,21.8,202.9,21.1,190.8z
	 M25.4,227.6c-4.6,3.1-8.6,6.3-11.8,9.7c-3.1-11.7-5.2-23.7-6.2-35.7c3.6-3.6,7.9-7,12.9-10.3C20.9,203.5,22.7,215.6,25.4,227.6z
	 M20.7,178.8c0-8.4,0.5-16.7,1.5-24.9c5.7-3.6,12.1-7.1,19.1-10.5c-1.1,9-1.7,18.1-1.7,27.3c0,2.8,0.1,5.7,0.2,8.5
	c-6.9,3.5-13.2,6.9-18.8,10.6C20.8,186.1,20.7,182.5,20.7,178.8z M30,96.7c4.1-3.2,8.6-6.3,13.5-9.2c-5.7,9.7-10.5,20.1-14.2,30.9
	c-5.1,3.1-9.7,6.3-13.6,9.7C19.4,117.1,24.2,106.6,30,96.7z M277,27c0.5,0.2,1.1,0.5,1.6,0.8c4.8,2.4,9.5,5,14.1,7.8
	c1.1,1,2,2,2.6,3c-9-6.2-18.5-11.5-28.3-16c1.2,0.4,2.3,0.9,3.5,1.4c1.7,0.8,3.4,1.5,5.1,2.3C276,26.5,276.5,26.8,277,27z
	 M378.4,157c-0.1,0.5-0.3,1-0.5,1.5c-2.6-11.6-6.4-23-11.2-34c0.5-1.3,0.7-2.6,0.8-3.9C372.5,132.4,376.1,144.6,378.4,157z
	 M378.6,148.7c0.3,1.3,0.4,2.6,0.4,3.8c0,0.7-0.1,1.5-0.2,2.2c-0.8-4.3-1.8-8.5-3-12.7c0.9,1.4,1.6,2.9,2.1,4.4
	C378.2,147.2,378.4,147.9,378.6,148.7z M381.9,176.4c1.3,2.4,2.2,4.9,2.5,7.6c0.1,0.9,0.1,1.8,0.2,2.7c0,2.8-0.6,5.7-1.9,8.3
	c0-1.4-0.1-2.8-0.2-4.2C382.5,186,382.3,181.2,381.9,176.4z M382.8,223c-0.1,0.6-0.2,1.1-0.3,1.7c-0.4,2-1.1,4-2,5.8
	c0.8-5.1,1.4-10.3,1.8-15.4c0.5,1.7,0.7,3.5,0.7,5.3C383,221.3,382.9,222.2,382.8,223z M375.2,250.5c-0.2-1.6-0.6-3.1-1.1-4.5
	c0.8-2.7,1.6-5.4,2.3-8.1c0.9-1,1.7-2,2.4-3C377.8,240.2,376.6,245.4,375.2,250.5z M373.9,257.8L373.9,257.8L373.9,257.8
	L373.9,257.8z M344.2,306.7c4.8-7.1,9.1-14.5,12.7-22.2c0.8-1.4,1.6-2.7,2.3-4.1c0.2,1.1,0.3,2.1,0.3,3.2c0,1.9-0.3,3.8-1,5.7
	c-2.4,3.9-4.9,7.7-7.5,11.4C349.1,302.7,346.8,304.7,344.2,306.7z M40.6,170.7c0-9.4,0.6-18.6,1.8-27.7c7.5-3.7,15.5-7.2,23.8-10.6
	c-1,9-1.5,18.3-1.5,27.6c0,2.7,0,5.4,0.1,8c-8.5,3.5-16.5,7.1-24,10.8C40.6,176.1,40.6,173.4,40.6,170.7z M163.8,25.7
	c-2.2,5.4-3.8,11.5-5,18.2c-7.5,2.2-15.2,4.5-23.1,6.9c2.6-7.4,5.8-14.1,9.6-20C151.6,29,157.8,27.3,163.8,25.7z M195.1,17.2
	c1.6,4.2,3.3,9,5.2,14.4c-5.9,1.8-12.1,3.6-18.5,5.5c-0.1-2.8-0.2-5.4-0.2-7.9c0-3,0.1-5.8,0.3-8.4
	C186.7,19.6,191.1,18.4,195.1,17.2z M365.8,124.6c-1.1,3-3.2,5.9-6,8.8c-4.4-11.4-9.8-22.5-16.1-32.9c2.2-2.4,3.7-4.9,4.6-7.4
	C355.1,103.1,361,113.6,365.8,124.6z M377.3,160c-1.6,3.2-4.1,6.4-7.2,9.5c-2.3-11.9-5.6-23.7-9.9-35.2c2.7-2.8,4.8-5.6,6.1-8.6
	C371.1,136.8,374.8,148.3,377.3,160z M373.1,245.9c-3.2,10.2-7.4,20.1-12.3,29.6c4.1-10.1,7.2-20.7,9.3-31.5c1.8-1.5,3.5-3.1,5-4.7
	C374.5,241.5,373.8,243.7,373.1,245.9z M336.5,312c-2.7,1.7-5.6,3.4-8.7,5c6.2-8.8,11.6-18.3,15.9-28.2c5.3-3,10.2-6.1,14.5-9.3
	c-0.7,1.6-1.4,3.1-2.1,4.6C350.3,293.9,343.8,303.3,336.5,312z M310.7,342.3c-0.8,0.7-1.6,1.3-2.4,2c-8.2,6.1-16.9,11.7-26,16.4
	c0.3-0.3,0.5-0.6,0.8-0.9c6-3.9,11.7-8.1,17.2-12.8c0.2-0.2,0.5-0.4,0.7-0.5c0.7-0.3,1.4-0.6,2.1-0.9c2.7-1.2,5.3-2.4,7.8-3.7
	C310.8,342.1,310.7,342.2,310.7,342.3z M285,357.2c1.5-0.9,2.9-1.8,4.3-2.7c-1.6,1.1-3.1,2.2-4.7,3.3
	C284.7,357.6,284.9,357.4,285,357.2z M213.7,380c-3.3,0.7-6.6,1.3-9.5,1.8c2.9-2,5.4-4.8,7.2-8.1c4.9-1.2,10-2.5,15.4-3.9
	C223.1,374,218.6,377.5,213.7,380z M190.3,384.2c-0.6-0.4-1.9-1.5-3.5-4.2c2.8-0.8,6-1.6,9.5-2.5c-0.4,2-1.5,3.5-2.6,4.6
	c-0.6,0.6-1.2,1.1-1.7,1.4c-0.2,0.2-0.4,0.3-0.6,0.5C191.1,384.1,190.7,384.1,190.3,384.2z M155.9,377.9c0.8-0.7,1.9-1.4,3.3-2.2
	c3.1,2,6.2,3.8,9.4,5.2c-1.1-0.2-2.2-0.4-3.3-0.6c-2.2-0.4-4.4-0.9-6.7-1.3C157.7,378.6,156.8,378.3,155.9,377.9z M65.5,159.9
	c0-9.5,0.5-18.8,1.6-28c8.8-3.6,17.9-7,27.4-10.5c-0.6,7.6-0.9,15.3-0.9,23c0,4,0.1,8.1,0.2,12.2c-9.8,3.6-19.3,7.2-28.2,10.9
	C65.6,165,65.5,162.5,65.5,159.9z M263.8,23.8c-5.3-2.7-10.7-5.1-16.1-7.3c2.5,0.7,5.1,1.4,7.6,2.2c1.6,0.6,3.1,1.2,4.7,1.8
	C261.5,21.6,262.8,22.7,263.8,23.8z M320.8,70.4c-1.9,2.4-4.6,4.7-7.8,6.9c-6.9-9.4-14.4-18.2-22.4-26.1c2.1-1.7,3.8-3.6,4.9-5.4
	C304.6,53.2,313,61.4,320.8,70.4z M296,45c0.6-1.2,0.9-2.4,0.9-3.6c0-0.2,0-0.4,0-0.5c9.6,6.8,18.7,14.4,27.1,22.8
	c-0.2,1.9-1.1,4-2.6,6C313.6,60.7,305.1,52.4,296,45z M372.7,207.2c-4,3.6-8.9,7-14.4,10.4c0-1.2,0-2.4,0-3.6
	c0-10.9-0.8-21.8-2.5-32.7c5.2-3.3,9.8-6.6,13.6-10c2.1,11.9,3.2,23.9,3.2,35.9C372.7,207.2,372.7,207.2,372.7,207.2z M344.2,287.5
	c4.4-10.4,7.7-21.3,10.1-32.5c5.5-3.2,10.5-6.6,14.7-10c-2.3,11.3-5.6,22.3-10.1,32.9C354.6,281.2,349.7,284.4,344.2,287.5z
	 M211.9,372.6c2.2-4.3,3.9-9.4,5.1-15.1c6.7-1.9,13.7-3.9,20.8-6c-2.8,6.5-6.1,12.2-10,17C222.3,370,217,371.4,211.9,372.6z
	 M197.4,376.3c0.2-1.8,0.3-3.8,0.3-5.9c0-2.3-0.1-4.7-0.3-7.3c6-1.7,12.2-3.5,18.6-5.3c-1.3,5.7-3,10.8-5.2,15.1
	C206.1,374.1,201.6,375.2,197.4,376.3z M94.5,144.5c0-7.9,0.3-15.7,1-23.4c9.9-3.6,19.8-7,29.8-10.3c-0.1,2.9-0.1,5.8-0.1,8.7
	c0,8.4,0.3,17.1,0.9,25.9c-10.5,3.5-21,7.2-31.3,10.9C94.6,152.4,94.5,148.5,94.5,144.5z M100.7,88.2C109.9,85,119,82,128,79.1
	c-1.5,9.9-2.3,20.2-2.7,30.9c-9.9,3.3-19.9,6.7-29.7,10.2C96.6,109.2,98.3,98.5,100.7,88.2z M156.3,70.1c-0.1,3.2-0.2,6.4-0.2,9.7
	c0,6.5,0.2,13.1,0.5,19.9c-10.1,3.2-20.3,6.5-30.5,9.8c0.3-10.7,1.2-21,2.7-30.9C138.2,75.8,147.3,72.9,156.3,70.1z M183.3,61.9
	c1.1,9,2.5,18.4,4,28.3c-9.8,3.1-19.8,6.2-29.8,9.4c-0.3-6.7-0.5-13.3-0.5-19.7c0-3.4,0.1-6.7,0.2-10
	C166.1,67.1,174.8,64.5,183.3,61.9z M237.5,15.1c-1.9-0.8-3.9-1.5-5.8-2.2c0,0,0,0,0,0c0.1,0.1,0.3,0.1,0.5,0.2l0-0.1
	c1.5,0.3,3.1,0.7,4.6,1C237.2,14.3,237.4,14.7,237.5,15.1z M289.3,51.2c-2.8,2.1-6.2,4.1-10,6.1c-6.6-8-13.6-15.4-21-22
	c2.5-1.4,4.7-2.9,6.3-4.4C273.2,36.7,281.5,43.6,289.3,51.2z M312.3,77.8c-3.8,2.6-8.3,5.2-13.4,7.7c-5.9-9.8-12.3-19-19.2-27.5
	c3.9-2,7.3-4,10.1-6.2C297.9,59.7,305.4,68.4,312.3,77.8z M331.6,109.2c-4.7,3.1-10.1,6.1-16.1,9c-4.7-11.2-10.2-21.9-16.1-32
	c5-2.5,9.5-5,13.4-7.7C319.8,88.1,326.1,98.4,331.6,109.2z M346.2,144.1c-5.4,3.4-11.5,6.7-18.2,10c-3.3-12.1-7.4-23.8-12.1-35
	c6-2.9,11.4-5.9,16.2-9C337.6,120.9,342.3,132.3,346.2,144.1z M355,180.9c-5.9,3.6-12.4,7.1-19.5,10.6c-1.6-12.2-4-24.5-7.3-36.5
	c6.7-3.2,12.8-6.6,18.2-10C350.3,156.7,353.1,168.8,355,180.9z M323.6,297.9c4.2-10.2,7.4-20.9,9.7-32c7.1-3.3,13.8-6.7,19.9-10.3
	c-2.4,11.2-5.8,22.2-10.3,32.6C336.9,291.6,330.4,294.8,323.6,297.9z M299.6,307.9c3.7-10,6.5-20.4,8.5-31.2
	c8.5-3.3,16.6-6.7,24.2-10.3c-2.3,11.1-5.6,21.8-9.8,32.1C315.1,301.7,307.5,304.9,299.6,307.9z M273.4,317.2
	c2.9-9.6,5-19.7,6.4-30.1c9.3-3.3,18.4-6.6,27.3-10.1c-2,10.8-4.9,21.3-8.6,31.3C290.4,311.4,282,314.3,273.4,317.2z M246.3,325.9
	c1.8-9.1,2.9-18.7,3.5-28.7c9.8-3.2,19.5-6.4,29-9.7c-1.4,10.4-3.6,20.5-6.5,30.1C263.8,320.4,255.1,323.2,246.3,325.9z
	 M126.1,119.6c0-3,0-6,0.1-9c10.2-3.4,20.4-6.7,30.5-9.9c0.6,10.8,1.5,22.1,2.8,33.8c-10.9,3.5-21.8,7-32.6,10.7
	C126.4,136.4,126.1,127.9,126.1,119.6z M228.8,47.4c4.3,7.8,8.4,16.3,12.4,25.3c-7.7,2.7-15.8,5.4-24.4,8.2
	c-2.7-9.4-5.4-18.4-8.1-26.8C215.8,51.7,222.6,49.5,228.8,47.4z M212.4,11.1c0.5-0.4,0.8-0.9,0.9-1.3c0,0,0,0,0,0
	c7,2,14.1,5.1,21.1,9.1c-1.6,1-3.7,2.1-6.2,3.1C223,17.5,217.7,13.8,212.4,11.1z M218.7,10.4c1.9,0.3,3.8,0.7,5.7,1
	c4.4,1.2,8.7,2.8,13.1,4.6c-0.3,0.7-1,1.5-2.1,2.3c-5.8-3.4-11.7-6.1-17.6-8.1C218,10.3,218.3,10.3,218.7,10.4z M235.3,19.4
	c7.3,4.3,14.5,9.6,21.4,15.7c-3.1,1.7-6.8,3.3-11,5c-5.5-6.6-11.1-12.6-16.7-17.5C231.5,21.5,233.7,20.4,235.3,19.4z M336.5,229.4
	c-7.7,3.7-16.1,7.2-24.9,10.8c0-1.9,0.1-3.8,0.1-5.7c0-10.2-0.6-20.5-1.7-30.9c8.8-3.6,17.1-7.2,24.8-10.8c1.2,10,1.9,20,1.9,30
	C336.6,224.9,336.6,227.2,336.5,229.4z M219.7,334.1c0.2-4.1,0.3-8.3,0.3-12.6c0-4.8-0.1-9.7-0.3-14.7c9.6-3,19.4-6.1,29.2-9.3
	c-0.6,10.1-1.8,19.7-3.6,28.7C236.7,328.9,228.1,331.6,219.7,334.1z M194.9,341.6c-1.1-8.1-2.5-16.7-4.1-25.8
	c9.2-2.9,18.5-5.8,28-8.7c0.2,4.9,0.3,9.8,0.3,14.5c0,4.4-0.1,8.7-0.3,12.9C210.7,336.8,202.7,339.2,194.9,341.6z M193.1,124.7
	c2,11.8,4.1,23.7,6.3,35.9c-11.4,3.7-22.8,7.3-34.1,10.9c-1.8-12.3-3.4-24.4-4.7-36.4C171.4,131.6,182.3,128.1,193.1,124.7z
	 M278.3,94.6c-7.5,3-15.5,6-23.8,8.9c-3.8-10.7-7.8-20.8-12-30.4c7.2-2.5,14-5,20.3-7.6C268.2,74.6,273.4,84.3,278.3,94.6z
	 M310.8,240.5c-9.2,3.7-18.8,7.3-28.6,10.8c0-11.9-0.7-24-2-36.4c10-3.6,19.7-7.2,29-11c1.1,10.3,1.7,20.4,1.7,30.5
	C310.8,236.5,310.8,238.5,310.8,240.5z M249.5,278.5c0,6.2-0.2,12.2-0.5,18c-9.9,3.2-19.6,6.3-29.3,9.3c-0.5-10.2-1.3-20.9-2.4-32
	c10.5-3.3,21.2-6.8,31.9-10.3C249.4,268.6,249.5,273.6,249.5,278.5z M253.9,104.6c3.9,11.1,7.5,22.5,10.8,34.2
	c-9.7,3.5-19.9,6.9-30.5,10.4c-2.6-11.9-5.4-23.7-8.3-35.1C235.6,110.9,245,107.8,253.9,104.6z M241.7,188c11-3.6,21.6-7.3,31.9-11
	c2.4,12.5,4.3,25,5.6,37.3c-10.4,3.7-21.1,7.4-32.1,11C245.7,213,243.9,200.6,241.7,188z M241.6,187.2c-2.1-12.5-4.6-24.9-7.2-37
	c10.6-3.5,20.8-7,30.5-10.4c3.3,11.9,6.1,24.1,8.5,36.5C263.2,179.9,252.5,183.5,241.6,187.2z M240.7,187.4
	c-11.3,3.8-22.6,7.5-33.9,11.1c-2.1-12.6-4.2-25.1-6.4-37.4c11.1-3.5,22.1-7.1,33.1-10.8C236.1,162.5,238.6,174.9,240.7,187.4z
	 M240.9,188.3c2.1,12.5,4,25,5.4,37.3c-11.2,3.7-22.5,7.4-33.6,10.9c-1.7-12.2-3.7-24.7-5.7-37.2
	C218.2,195.8,229.6,192.1,240.9,188.3z M246.3,226.6c1.4,12.2,2.3,24.2,2.8,36c-10.8,3.6-21.5,7-32,10.3
	c-1.2-11.6-2.7-23.4-4.4-35.4C223.9,233.9,235.1,230.3,246.3,226.6z M250,262.3c-0.5-11.8-1.5-23.8-2.8-36c11-3.7,21.7-7.3,32.1-11
	c1.3,12.3,2,24.4,2,36.2c0,0.1,0,0.1,0,0.2C271.1,255.2,260.7,258.7,250,262.3z M280.1,214c-1.3-12.3-3.2-24.8-5.6-37.2
	c9.9-3.5,19.3-7.1,28.4-10.7c2.8,12.3,4.9,24.7,6.2,37C299.8,206.8,290.1,210.4,280.1,214z M274.3,175.9
	c-2.4-12.4-5.3-24.6-8.5-36.5c9.3-3.3,18.2-6.7,26.7-10c4,11.6,7.4,23.6,10.2,35.8C293.6,168.8,284.1,172.4,274.3,175.9z
	 M265.5,138.5c-3.2-11.7-6.8-23.1-10.8-34.2c8.4-3,16.4-6,23.9-9c5,10.6,9.5,21.7,13.4,33.1C283.7,131.9,274.8,135.2,265.5,138.5z
	 M253.6,103.8c-8.9,3.1-18.2,6.3-28,9.5c-2.8-11.1-5.7-21.6-8.6-31.6c8.6-2.8,16.8-5.5,24.5-8.2C245.8,83,249.8,93.1,253.6,103.8z
	 M225,114.4c2.9,11.4,5.7,23.2,8.3,35.1c-10.9,3.6-22,7.2-33,10.7c-2.1-12.1-4.2-24.1-6.3-35.9C204.4,121.1,214.8,117.8,225,114.4z
	 M199.6,161.4c2.2,12.3,4.3,24.8,6.4,37.4c-11.6,3.7-23.1,7.4-34.5,11.1c-2.2-12.6-4.2-25.1-6.1-37.5
	C176.8,168.7,188.2,165.1,199.6,161.4z M206.1,199.7c2.1,12.6,4,25,5.7,37.2c-11.3,3.6-22.5,7.2-33.5,10.7
	c-2.2-12.1-4.5-24.4-6.6-36.9C183,207.1,194.5,203.4,206.1,199.7z M211.9,237.8c1.7,12,3.2,23.8,4.3,35.4
	c-10.6,3.4-21.1,6.7-31.4,9.9c-2.1-11.3-4.3-22.8-6.5-34.6C189.4,245,200.6,241.4,211.9,237.8z M216.4,274.1c1.1,11.2,2,21.9,2.4,32
	c-9.5,3-18.9,5.9-28.1,8.7c-1.7-9.7-3.6-20.1-5.6-30.9C195.3,280.7,205.7,277.4,216.4,274.1z M250.1,263.2c10.6-3.5,21-7,31.2-10.7
	c0,11.6-0.8,23-2.2,33.9c-9.5,3.3-19.3,6.6-29.1,9.8c0.3-5.8,0.5-11.7,0.5-17.7C250.4,273.5,250.2,268.4,250.1,263.2z M282.1,252.2
	c9.8-3.5,19.4-7.1,28.6-10.7c-0.3,11.8-1.4,23.4-3.5,34.6c-8.9,3.5-18,6.8-27.3,10.1C281.4,275.2,282.1,263.8,282.1,252.2z
	 M311.6,241.1c8.8-3.5,17.1-7.1,24.9-10.7c-0.4,11.9-1.7,23.6-4,35c-7.6,3.5-15.7,6.9-24.2,10.3
	C310.2,264.4,311.3,252.9,311.6,241.1z M309.9,202.7c-1.4-12.3-3.5-24.7-6.2-37c8.5-3.4,16.5-6.9,23.7-10.4
	c3.3,12.1,5.7,24.3,7.2,36.6C327,195.5,318.7,199.1,309.9,202.7z M303.5,164.8c-2.8-12.2-6.2-24.2-10.2-35.8
	c7.9-3.2,15.2-6.3,21.9-9.5c4.7,11.2,8.8,22.9,12.1,35C319.9,157.9,312,161.4,303.5,164.8z M292.9,128.2c-4-11.4-8.5-22.5-13.4-33.1
	c7-2.8,13.4-5.6,19.1-8.4c6,10.1,11.4,20.8,16.1,32C308.1,121.8,300.8,125,292.9,128.2z M279.1,94.2c-4.8-10.3-10.1-20-15.6-29
	c5.7-2.3,10.9-4.6,15.4-6.9c6.9,8.5,13.3,17.7,19.2,27.5C292.5,88.7,286.1,91.4,279.1,94.2z M263.1,64.5
	c-5.3-8.6-10.9-16.5-16.7-23.7c4.2-1.8,8-3.4,11.1-5.1c7.4,6.6,14.4,13.9,21,22C273.9,60,268.8,62.2,263.1,64.5z M245.5,41.2
	c5.8,7.2,11.4,15.1,16.8,23.7c-6.3,2.5-13,5-20.2,7.5c-4-9-8.1-17.4-12.4-25.3C235.3,45.1,240.6,43.2,245.5,41.2z M224.8,113.6
	c-10.2,3.4-20.5,6.7-30.9,10c-2-11.4-3.8-22.3-5.5-32.8c9.4-3,18.7-5.9,27.8-8.8C219.1,92,222,102.5,224.8,113.6z M193,123.8
	c-10.8,3.4-21.7,6.9-32.5,10.4c-1.3-11.7-2.2-22.9-2.8-33.8c10-3.2,20-6.3,29.9-9.4C189.2,101.5,191,112.4,193,123.8z M159.7,135.4
	c1.3,12,2.9,24.2,4.7,36.4c-11.3,3.6-22.5,7.3-33.6,11.1c-1.7-12.3-3-24.6-3.8-36.8C137.9,142.4,148.8,138.9,159.7,135.4z
	 M164.5,172.7c1.8,12.4,3.9,24.9,6.1,37.5c-11.3,3.6-22.4,7.3-33.4,11c-2.4-12.5-4.6-25-6.3-37.4C142,180,153.2,176.3,164.5,172.7z
	 M170.8,211c2.2,12.5,4.4,24.8,6.6,36.9c-10.8,3.5-21.5,7-31.9,10.4c-2.9-11.8-5.6-23.9-8.1-36.3C148.3,218.3,159.5,214.7,170.8,211
	z M177.6,248.8c2.2,11.8,4.4,23.3,6.5,34.6c-10,3.2-19.8,6.3-29.3,9.5c-3.2-10.9-6.2-22.1-9.1-33.6
	C156.1,255.7,166.7,252.3,177.6,248.8z M184.2,284.2c2,10.8,3.9,21.1,5.6,30.9c-8.9,2.8-17.5,5.5-25.6,8.1
	c-3.1-9.3-6.2-19.1-9.2-29.6C164.4,290.6,174.2,287.4,184.2,284.2z M190,316c1.6,9.1,3,17.7,4.1,25.8c-7.4,2.2-14.4,4.4-21,6.5
	c-2.8-7.5-5.7-15.6-8.6-24.2C172.6,321.5,181.1,318.8,190,316z M194.2,342.7c1,7.3,1.8,14,2.2,19.8c-5.7,1.6-11,3.2-15.9,4.7
	c-2.3-5.2-4.7-11.2-7.2-18C179.9,347,186.9,344.9,194.2,342.7z M195.1,342.4c7.7-2.3,15.6-4.7,23.7-7.1c-0.4,7.9-1.2,15.1-2.6,21.6
	c-6.5,1.9-12.9,3.6-18.9,5.4C196.9,356.4,196.1,349.8,195.1,342.4z M219.7,335c8.3-2.5,16.8-5.1,25.4-7.8c-1.7,8.4-4,16.3-6.9,23.3
	c-7.2,2.1-14.3,4.1-21.1,6.1C218.5,350.1,219.3,342.9,219.7,335z M353.5,254.4c-6.1,3.6-12.8,7.1-20,10.4c2.3-11.4,3.6-23.1,3.9-35
	c7.2-3.4,13.9-7,20-10.7C357.2,231.2,355.8,243,353.5,254.4z M357.5,218.2c-6.1,3.7-12.8,7.2-20,10.7c0.1-2.1,0.1-4.1,0.1-6.2
	c0-10.1-0.7-20.2-1.9-30.4c7.1-3.4,13.6-6.9,19.5-10.5c1.6,10.7,2.4,21.5,2.4,32.2C357.5,215.4,357.5,216.8,357.5,218.2z
	 M257.6,34.6c-7-6.2-14.2-11.5-21.5-15.8c1-0.8,1.7-1.6,2.1-2.5c8.7,3.7,17.3,8.4,25.6,14C262.2,31.8,260.1,33.2,257.6,34.6z
	 M207,8.6l0.1-0.2c1.8,0.3,3.5,0.7,5.3,1.2c0,0.3-0.3,0.7-1,1.1c-1.9-0.9-3.8-1.7-5.7-2.3C206.2,8.4,206.6,8.5,207,8.6z M211.5,11.6
	c5.3,2.6,10.6,6.3,15.9,10.7c-3.1,1.3-6.6,2.6-10.5,4c-3.5-4.9-7-9.1-10.5-12.5C208.3,13.1,210.1,12.4,211.5,11.6z M228.1,23
	c5.7,4.9,11.3,10.8,16.8,17.5c-4.8,1.9-10,3.9-15.7,5.8c-3.9-7.2-7.9-13.6-11.8-19.2C221.3,25.7,224.9,24.4,228.1,23z M228.4,46.6
	c-6.2,2.1-12.8,4.3-19.9,6.6c-2.5-7.7-4.8-14.7-6.9-21c5.5-1.7,10.5-3.3,15-4.8C220.5,33,224.4,39.4,228.4,46.6z M207.8,54.3
	c2.7,8.4,5.4,17.4,8.1,26.8c-9.1,2.9-18.3,5.9-27.7,8.8c-1.6-9.9-2.9-19.3-4-28.3C192.3,59.1,200.2,56.7,207.8,54.3z M126.1,146.4
	c0.8,12.2,2.1,24.5,3.8,36.8c-10.7,3.6-21.3,7.3-31.6,11.1c-1.8-12.4-3-24.8-3.5-36.9C105.1,153.5,115.6,149.9,126.1,146.4z
	 M130,184c1.7,12.4,3.9,24.9,6.3,37.4c-10.5,3.5-20.8,7.1-30.8,10.8c-2.9-12.3-5.3-24.8-7.1-37.1C108.8,191.3,119.4,187.7,130,184z
	 M136.5,222.3c2.5,12.4,5.2,24.5,8.1,36.3c-9.9,3.3-19.6,6.6-29,10c-3.7-11.5-7-23.4-9.9-35.6C115.8,229.4,126,225.8,136.5,222.3z
	 M144.8,259.5c2.9,11.5,5.9,22.8,9.1,33.6c-8.9,3-17.6,5.9-26,8.9c-4.3-10.4-8.3-21.3-12-32.5C125.3,266.1,134.9,262.8,144.8,259.5z
	 M154.1,294c3.1,10.4,6.1,20.3,9.2,29.6c-7.7,2.5-15.1,5-22,7.5c-4.5-8.7-8.9-18.1-13-28.1C136.6,299.9,145.2,296.9,154.1,294z
	 M163.6,324.4c2.9,8.6,5.7,16.7,8.6,24.2c-6.1,2-11.9,3.9-17.3,5.8c-4.5-6.9-8.9-14.4-13.2-22.6
	C148.6,329.3,155.9,326.9,163.6,324.4z M172.5,349.4c2.6,6.8,5,12.8,7.2,18c-4.3,1.3-8.3,2.6-11.9,3.9c-4.1-4.5-8.2-10-12.4-16.2
	C160.7,353.2,166.4,351.3,172.5,349.4z M180.1,368.2c1.9,4.3,3.7,8.1,5.4,11.2c-2.4,0.7-4.4,1.3-6.2,1.9c-3.6-2.2-7.3-5.4-10.9-9.3
	C172,370.8,175.8,369.5,180.1,368.2z M179.3,382.3c0.3,0.2,0.7,0.4,1,0.6c-0.6-0.1-1.2-0.2-1.8-0.3
	C178.8,382.5,179,382.4,179.3,382.3z M188.6,384.1c-0.9-0.1-2-0.3-3.1-0.4c-0.6-0.1-1.3-0.2-2-0.3c-1-0.4-2.1-0.9-3.2-1.5
	c1.6-0.6,3.5-1.1,5.6-1.7c1.1,1.9,2.1,3.2,2.9,3.9C188.8,384.1,188.7,384.1,188.6,384.1z M186.4,379.2c-1.7-3.1-3.5-6.9-5.4-11.2
	c4.8-1.5,10-3,15.6-4.6c0.2,2.5,0.3,4.8,0.3,7c0,2.2-0.1,4.2-0.3,6.1C192.7,377.5,189.3,378.4,186.4,379.2z M246.2,326.9
	c8.7-2.7,17.4-5.5,25.9-8.3c-2.8,8.9-6.3,17.3-10.5,24.8c-7.4,2.4-14.8,4.6-22.2,6.8C242.2,343.1,244.5,335.3,246.2,326.9z
	 M273.1,318.2c8.5-2.8,16.9-5.8,24.9-8.8c-3.6,9.4-8.3,18.2-13.8,26.3c-7,2.5-14.2,4.9-21.5,7.3
	C266.9,335.4,270.4,327.1,273.1,318.2z M299.2,309c7.9-3,15.5-6.1,22.7-9.3c-4.2,9.7-9.4,18.9-15.5,27.4c-6.6,2.8-13.5,5.5-20.7,8.1
	C291.1,327.1,295.6,318.3,299.2,309z M323.1,299.1c6.7-3,13.1-6.2,19.2-9.6c-4.4,10-9.9,19.6-16.3,28.4c-1.6,0.8-3.2,1.7-4.9,2.5
	c-4.2,2-8.6,4.1-13.2,6C313.9,318,319.1,308.8,323.1,299.1z M354.5,253.8c2.3-11.5,3.6-23.2,3.8-35.1c5.4-3.3,10.3-6.7,14.4-10.3
	c-0.1,11.8-1.2,23.6-3.5,35.1C365.1,247.1,360.1,250.5,354.5,253.8z M355.8,180.4c-1.9-12.1-4.7-24.2-8.6-36c4.7-3,8.9-6.2,12.2-9.4
	c4.3,11.4,7.6,23.2,9.9,35.2C365.6,173.7,361,177.1,355.8,180.4z M347,143.6c-3.9-11.8-8.6-23.2-14.1-34c4-2.7,7.6-5.5,10.3-8.3
	c6.2,10.4,11.6,21.5,16,32.9C355.9,137.3,351.7,140.5,347,143.6z M332.4,108.7c-5.6-10.8-11.9-21.1-18.8-30.7c3.2-2.2,5.9-4.6,7.8-7
	c7.8,9.1,14.9,18.9,21.2,29.3C340,103.3,336.5,106,332.4,108.7z M290,50.6c-7.8-7.6-16.1-14.5-24.8-20.5c0.7-0.8,1.1-1.8,1.1-2.8
	c0-0.5-0.1-0.9-0.2-1.4c0.2,0.1,0.4,0.2,0.6,0.3c9.9,5.4,19.3,11.7,28.2,18.9C293.8,47.1,292.1,48.9,290,50.6z M265.3,27.4
	c0,0.8-0.3,1.6-0.9,2.3c-8.4-5.7-17.1-10.5-26-14.2c0,0,0-0.1,0-0.1c0-0.4-0.1-0.7-0.3-1.1c0.3,0.1,0.6,0.1,0.9,0.2
	c8.7,2.8,17.3,6.5,25.7,10.9C265.1,26.1,265.3,26.7,265.3,27.4z M200,7.7c3.4,0.6,7,1.8,10.5,3.4c-1.3,0.7-3,1.3-4.8,1.9
	c-2.8-2.6-6-4.3-8.5-5.3c-0.2-0.1-0.4-0.1-0.5-0.2C197.7,7.6,198.8,7.7,200,7.7z M205.4,14.1c3.6,3.4,7.1,7.6,10.6,12.5
	c-4.5,1.5-9.4,3.1-14.8,4.7c-1.9-5.4-3.6-10.2-5.2-14.4C199.6,15.9,202.7,15,205.4,14.1z M207.6,53.4c-7.6,2.4-15.4,4.8-23.5,7.3
	c-1-8.3-1.8-15.9-2.2-22.7c6.5-1.9,12.7-3.7,18.7-5.6C202.8,38.7,205.1,45.7,207.6,53.4z M183.2,61c-8.5,2.6-17.2,5.2-26,7.9
	c0.3-8.8,1-16.9,2.3-24.4c7.4-2.2,14.6-4.2,21.5-6.3C181.4,45.2,182.2,52.7,183.2,61z M156.3,69.2c-9,2.8-18.1,5.6-27.2,8.6
	c1.5-9.3,3.5-18,6.2-26c7.9-2.4,15.7-4.7,23.3-7C157.3,52.3,156.7,60.5,156.3,69.2z M128.1,78.1c-9,2.9-18.1,5.9-27.1,9.1
	c2.4-9.7,5.8-19,9.9-27.6c7.9-2.6,15.7-5.1,23.4-7.5C131.6,60.1,129.6,68.9,128.1,78.1z M100,87.5c-8.8,3.1-17.4,6.2-25.7,9.5
	c3.1-10.2,7.3-20,12.4-29c7.4-2.7,15.1-5.4,23-8C105.6,68.6,102.3,77.8,100,87.5z M99.7,88.6c-2.4,10.3-4.1,21-5.1,32
	c-9.5,3.4-18.7,6.9-27.4,10.4c1.4-11.3,3.6-22.3,6.7-32.8C82.3,94.8,90.9,91.7,99.7,88.6z M93.9,157.6c0.5,12.1,1.7,24.5,3.5,36.9
	c-9.9,3.6-19.3,7.2-28.1,10.9c-2-12.3-3.2-24.7-3.6-36.9C74.6,164.8,84.1,161.2,93.9,157.6z M97.5,195.4c1.8,12.3,4.2,24.7,7.1,37.1
	c-9.5,3.5-18.5,6.9-27,10.4c-3.4-12.1-6.2-24.3-8.2-36.6C78.3,202.7,87.7,199.1,97.5,195.4z M104.9,233.4
	c2.9,12.2,6.2,24.1,9.9,35.6c-8.8,3.2-17.1,6.3-24.8,9.5c-4.6-11.2-8.6-22.8-12.1-34.7C86.3,240.3,95.3,236.9,104.9,233.4z
	 M115.1,269.8c3.7,11.2,7.7,22.1,12,32.5c-7.8,2.8-15,5.5-21.6,8.3c-5.5-9.9-10.5-20.4-15.1-31.3C98,276.2,106.3,273,115.1,269.8z
	 M127.4,303.2c4.2,10,8.5,19.4,13,28.1c-6.4,2.3-12.3,4.5-17.6,6.8c-6-8.1-11.6-17.1-16.9-26.6C112.4,308.7,119.7,306,127.4,303.2z
	 M140.8,332.1c4.3,8.1,8.7,15.7,13.2,22.6c-4.8,1.7-9.1,3.4-12.9,5c-6.2-6.2-12.1-13.2-17.8-20.9
	C128.6,336.6,134.5,334.4,140.8,332.1z M154.5,355.4c4.1,6.2,8.2,11.7,12.3,16.2c-3,1.1-5.6,2.1-7.7,3.1
	c-5.9-3.9-11.7-8.7-17.4-14.4C145.5,358.7,149.8,357.1,154.5,355.4z M167.5,372.3c3.6,3.9,7.2,7.1,10.8,9.4
	c-0.5,0.2-0.8,0.4-1.1,0.7c-1.5-0.2-3-0.5-4.6-0.8c-4.2-1.5-8.3-3.7-12.5-6.4C162.1,374.3,164.6,373.4,167.5,372.3z M165,381.1
	c0.1,0.1,0.3,0.1,0.4,0.2c-0.2-0.1-0.5-0.2-0.7-0.2C164.8,381.1,164.9,381.1,165,381.1z M170.4,382.1c0.7,0.1,1.3,0.2,2,0.4
	c0.6,0.2,1.2,0.4,1.8,0.6C172.9,382.8,171.6,382.5,170.4,382.1z M194.6,382.5c1.2-1.2,2.4-2.9,2.7-5.3c4-1,8.3-2.1,12.9-3.2
	c-2.2,3.6-5.1,6.5-8.4,8.3c-3.4,0.6-6.3,1.1-8.6,1.5C193.7,383.4,194.1,383,194.6,382.5z M238.9,351.2c7.3-2.2,14.7-4.4,21.9-6.7
	c-4.1,7.2-8.9,13.6-14.3,19c0,0,0,0,0,0c-5.8,1.6-11.6,3.2-17.4,4.7C233,363.3,236.3,357.6,238.9,351.2z M262.2,344.1
	c7.2-2.3,14.3-4.7,21.2-7.2c-5.6,8-12,15.3-19.1,21.5c-5.3,1.6-10.7,3.1-16.1,4.6C253.5,357.6,258.2,351.2,262.2,344.1z
	 M284.8,336.4c7.1-2.6,14-5.2,20.6-7.9c-6.5,8.8-13.9,16.9-22.1,23.9c-5.5,1.9-11.2,3.7-16.9,5.5
	C273.2,351.6,279.4,344.4,284.8,336.4z M307,327.8c5.1-2.2,10-4.4,14.6-6.6c1.1-0.5,2.2-1.1,3.3-1.6c-7.2,9.6-15.4,18.5-24.4,26.3
	c-4.7,2-9.7,3.9-14.9,5.8C293.5,344.5,300.7,336.6,307,327.8z M304.1,344.2c3.2-2.4,6.3-4.9,9.3-7.5c-0.3,1.3-0.9,2.6-1.6,3.8
	C309.4,341.8,306.8,343,304.1,344.2z M308.4,339.7c6.7-6.5,12.8-13.5,18.3-21.1c2.8-1.5,5.5-3,8-4.5
	C326.7,323.4,317.9,332,308.4,339.7z M370.4,242.6c2.2-11.5,3.2-23.2,3.3-35c3.1-2.8,5.7-5.7,7.7-8.6c-0.6,13-2.5,26-5.9,38.5
	C374,239.3,372.3,241,370.4,242.6z M381.5,197.2c-1.9,3.2-4.6,6.2-7.8,9.2c0-12-1.2-24-3.3-35.9c3.1-3,5.6-6,7.4-9.2
	c2.1,9.7,3.4,19.6,3.9,29.5C381.6,193,381.5,195.1,381.5,197.2z M343.2,99.7C337,89.3,329.8,79.5,322,70.4c1.5-1.9,2.4-3.9,2.8-5.9
	c8.4,8.5,16.1,17.8,22.9,27.7C347,94.7,345.5,97.2,343.2,99.7z M296.6,39.6c-0.3-0.8-0.6-1.5-1.1-2.2c9.4,5.9,18.3,12.7,26.5,20.1
	c1.1,1.6,1.8,3.3,2,4.9C315.5,54,306.3,46.4,296.6,39.6z M295.8,40.1c0.1,0.4,0.2,0.8,0.2,1.3c0,1-0.3,2-0.8,3
	c-8.9-7.2-18.4-13.6-28.2-18.9c-0.5-0.3-1.1-0.6-1.6-0.8c-0.5-0.9-1.3-1.9-2.2-2.8c0.5,0.2,1,0.4,1.4,0.6
	C275.5,27.4,285.9,33.3,295.8,40.1z M192.9,7.5C193,7.5,193,7.5,192.9,7.5C193,7.5,193,7.5,192.9,7.5c0.1,0,0.1,0,0.1,0l0,0
	c0,0,0,0,0,0c0,0,0,0,0,0c0,0,0,0,0,0c0,0,0,0,0,0c0,0,0,0,0.1,0c0.1,0,0.1,0,0.3,0c-0.4,0.1-0.9,0.3-1.5,0.4
	c-0.1-0.1-0.2-0.3-0.2-0.4C192,7.5,192.4,7.5,192.9,7.5z M195,8c2.4,0.8,6.2,2.4,9.6,5.4c-2.6,0.9-5.6,1.7-9,2.7
	c-1.1-2.8-2.1-5.1-2.9-6.7c-0.1-0.3-0.2-0.5-0.4-0.7C193.5,8.5,194.4,8.2,195,8z M181,37.4c-6.9,2-14,4.1-21.3,6.2
	c1.2-6.7,2.9-12.8,5.1-18.2c5.7-1.5,11.2-3,16.2-4.3c-0.2,2.5-0.3,5.2-0.3,8.1C180.8,31.8,180.9,34.5,181,37.4z M134.6,51.1
	c-7.6,2.3-15.4,4.8-23.2,7.4c4-8.1,8.8-15.5,14.1-22c6.2-1.9,12.4-3.7,18.4-5.4C140.3,37.1,137.2,43.8,134.6,51.1z M110.3,58.9
	c-0.1,0-0.2,0.1-0.3,0.1c-7.7,2.6-15.3,5.2-22.6,7.8c4.9-8.6,10.7-16.6,17.1-23.6c6.4-2.1,12.9-4.2,19.6-6.2
	C118.8,43.5,114.2,50.9,110.3,58.9z M124,36.1c-6.2,1.9-12.3,3.8-18.3,5.8c6.2-6.6,12.9-12.4,20.2-17.2c5-1.4,10-2.8,15.1-4.1
	c-5.7,4.2-11,9.3-15.9,15.2C124.7,35.9,124.3,36,124,36.1z M103.9,42.5c-6.2,2.1-12.3,4.3-18.1,6.5c6.9-7.1,14.5-13.5,22.7-18.9
	c4.8-1.6,9.7-3.1,14.6-4.6C116.2,30.3,109.8,36,103.9,42.5z M102.7,43.8c-6.3,7.1-11.9,15-16.7,23.5c-7.3,2.7-14.2,5.4-20.8,8.3
	c5.6-9.1,12-17.5,19.2-25.1C90.3,48.2,96.4,46,102.7,43.8z M85.4,68.5c-5,9-9.1,18.8-12.1,28.9c-7.9,3.1-15.5,6.4-22.8,9.8
	c3.6-10.7,8.3-20.8,14-30.3C71,74,78.1,71.2,85.4,68.5z M50.1,108.4c7.3-3.4,14.9-6.7,22.9-9.9c-3.1,10.6-5.3,21.6-6.6,32.8
	c-8.3,3.4-16.3,6.9-23.8,10.6C44,130.4,46.5,119.2,50.1,108.4z M64.8,168.9c0.4,12.2,1.7,24.6,3.7,36.9c-8.3,3.5-16.2,7-23.4,10.6
	c-2.3-12.2-3.7-24.5-4.2-36.7C48.3,176,56.3,172.4,64.8,168.9z M68.6,206.7c2,12.3,4.8,24.5,8.3,36.6c-7.9,3.3-15.2,6.6-22,10
	c-4.1-11.8-7.3-23.8-9.7-36C52.4,213.7,60.3,210.2,68.6,206.7z M77.1,244.1c3.5,12,7.5,23.6,12.1,34.7c-7.1,3-13.7,6-19.7,9
	c-5.4-10.7-10.2-22-14.3-33.7C61.9,250.7,69.2,247.4,77.1,244.1z M89.5,279.7c4.5,10.9,9.6,21.4,15.1,31.3
	c-6.1,2.5-11.7,5.1-16.7,7.7c-6.6-9.3-12.6-19.4-18.1-30C75.8,285.6,82.4,282.6,89.5,279.7z M105,311.8c5.3,9.6,11,18.5,16.9,26.6
	c-4.7,2-9,4-12.8,6.1c-7.4-7.6-14.3-16-20.8-25.1C93.4,316.8,99,314.3,105,311.8z M131.2,364.9c-1.6,1.1-2.8,2.3-3.6,3.6
	c-9.1-4.9-17.8-10.9-26.2-17.6c1.9-1.7,4.5-3.5,7.6-5.2C116.1,352.8,123.5,359.3,131.2,364.9z M109.8,345.2c3.7-2.1,7.9-4,12.7-6
	c5.7,7.7,11.6,14.7,17.7,20.9c-3.2,1.4-5.9,2.8-8.3,4.3C124.3,358.8,116.9,352.3,109.8,345.2z M140.9,360.7
	c5.7,5.7,11.5,10.6,17.4,14.5c-1.4,0.7-2.5,1.5-3.3,2.3c-7.5-3.2-15-7.5-22.2-12.6C135,363.5,137.8,362.1,140.9,360.7z M158.2,379.8
	c1.6,0.6,3.2,1.2,4.8,1.7c-2.3-0.6-4.6-1.3-6.8-2.1C156.9,379.5,157.5,379.6,158.2,379.8z M197.9,383.8c-0.9,0.2-1.9,0.4-2.8,0.5
	C195.9,384.2,196.9,384,197.9,383.8z M202.1,383.1c2.5-0.4,5.3-1,8.2-1.5c-3.4,1.4-7,2.2-10.6,2.6
	C200.6,383.9,201.3,383.5,202.1,383.1z M214,380.8c0.2,0,0.4-0.1,0.5-0.1c3.2-0.6,6.4-1.3,9.7-2c-5.5,2.3-11.2,4-17,4.8
	C209.6,382.8,211.8,381.9,214,380.8z M216.6,379.4c4.4-2.6,8.3-6,11.7-10.1c5.6-1.5,11.3-3,16.9-4.5c-5.2,5-11.1,9.1-17.4,12.2
	C224.1,377.9,220.3,378.7,216.6,379.4z M247.1,364.3c5.2-1.4,10.5-2.9,15.6-4.5c-6.4,5.5-13.3,10.1-20.5,13.8
	c-3.7,0.9-7.4,1.8-11,2.6C237,373.1,242.3,369.1,247.1,364.3z M264.8,359.2c5.6-1.7,11.2-3.5,16.6-5.3c-7,5.8-14.6,10.9-22.5,15.1
	c-4.4,1.3-8.7,2.5-13.1,3.7C252.5,369,258.9,364.5,264.8,359.2z M283.7,353.1c4.7-1.7,9.3-3.4,13.7-5.2c-4.2,3-8.6,5.8-13,8.5
	l0.2,0.4l-0.4-0.2c-0.5,0.9-1.1,1.7-1.8,2.5c-2.5,1.6-5,3.1-7.6,4.6c-4,1.5-8,2.8-12,4.1C270.3,363.6,277.3,358.7,283.7,353.1z
	 M280.1,361.7C280.1,361.7,280,361.8,280.1,361.7c-0.1,0.1-0.2,0.1-0.2,0.1C279.9,361.8,280,361.7,280.1,361.7z M276.7,364
	c0.3-0.1,0.7-0.3,1-0.4c-1.1,0.8-2.2,1.6-3.5,2.3c-4.2,2-8.5,3.9-12.9,5.6c4.8-2.1,9.5-4.5,14-7C275.8,364.3,276.2,364.2,276.7,364z
	 M280,362.9c0.6-0.3,1.2-0.6,1.8-0.9c0,0,0.1,0,0.1,0c-0.7,0.4-1.4,0.7-2.1,1.1C279.9,363,279.9,363,280,362.9z M314.3,339.2
	c-0.4,0.2-0.7,0.4-1.1,0.6c0.6-1.3,1.1-2.7,1.3-4.1c8.1-7.1,15.7-14.8,22.6-23.1c0.6-0.4,1.2-0.8,1.8-1.2c0,0.4,0,0.8-0.1,1.2
	C331.6,322.3,323.4,331.2,314.3,339.2z M339.8,310.9c0.2-0.1,0.4-0.3,0.6-0.4c-0.2,0.3-0.4,0.6-0.6,0.8
	C339.8,311.2,339.8,311,339.8,310.9C339.8,310.9,339.8,310.9,339.8,310.9z M339.8,309.8c0-0.1,0-0.3,0-0.4h0c4-4.9,7.7-10,11.1-15.3
	c-2.7,4.9-5.7,9.6-8.9,14.2C341.2,308.8,340.5,309.3,339.8,309.8z M359.9,279.2c0.3-0.6,0.6-1.2,0.9-1.7c2.9-2.3,5.4-4.8,7.5-7.3
	c-1.7,4-3.5,8-5.5,11.8c-0.9,1.6-1.7,3.1-2.6,4.6c0.2-1,0.3-2,0.3-3.1C360.4,282.1,360.2,280.7,359.9,279.2z M369.6,267.2
	c-2.1,2.8-4.6,5.5-7.6,8.1c4.6-9,8.5-18.3,11.7-27.9c0.6,1.8,0.9,3.7,0.9,5.6C373,257.8,371.4,262.6,369.6,267.2z M379.2,232.8
	c-0.7,1.1-1.5,2.1-2.3,3.2c2-7.8,3.5-15.7,4.4-23.7c0.1,0.2,0.2,0.4,0.3,0.6C381.1,219.6,380.3,226.2,379.2,232.8z M381.5,210.7
	l-0.1,0c0.1-1.4,0.3-2.7,0.4-4.1c0,1.4-0.1,2.9-0.2,4.3C381.6,210.8,381.6,210.8,381.5,210.7z M378.3,160.1
	C378.3,160.1,378.3,160,378.3,160.1c0.2-0.5,0.3-0.8,0.5-1.2c0.9,5,1.5,10,2,15C380.1,169.3,379.3,164.7,378.3,160.1z M366.7,119.8
	c0,1.2-0.2,2.4-0.5,3.6c-4.9-11-10.8-21.5-17.6-31.3c0.2-0.8,0.3-1.6,0.3-2.4c0-0.9-0.1-1.7-0.3-2.6c4.6,6.4,8.7,13,12.4,19.9
	c2,3.8,3.9,7.7,5.6,11.7C366.7,119,366.7,119.4,366.7,119.8z M347,84.8c0.7,1.6,1.1,3.2,1.1,4.8c0,0.5,0,0.9-0.1,1.4
	c-6.9-9.9-14.6-19.1-23-27.6c0-0.1,0-0.2,0-0.3c0-1.2-0.3-2.5-0.8-3.6c3.9,3.6,7.6,7.3,11.2,11.2C339.4,75.2,343.3,79.9,347,84.8z
	 M194.8,16.4c-3.9,1.1-8.2,2.3-12.7,3.5c0.4-3.9,1.4-7.2,2.7-9.5c2.5-0.5,4.7-1,6.7-1.5C192.3,10.5,193.6,13,194.8,16.4z
	 M181.2,20.1c-5,1.3-10.3,2.7-15.9,4.2c2.1-4.6,4.8-8.5,8-11.5c3.8-0.8,7.2-1.6,10.3-2.2C182.4,13.1,181.6,16.5,181.2,20.1z
	 M164.2,24.7c-5.9,1.6-11.9,3.2-18.1,5c3.6-5.3,8-9.9,12.8-13.5c4.4-1,8.7-2,12.8-2.9C168.7,16.3,166.1,20.2,164.2,24.7z M144.7,30
	c-5.9,1.7-12,3.4-18.1,5.3c5.1-6,10.7-11.1,16.7-15.3c4.7-1.2,9.2-2.3,13.5-3.3C152.2,20.3,148.1,24.9,144.7,30z M145.4,18.5
	c5.6-3.6,11.5-6.4,17.6-8.1c2.3-0.4,4.6-0.8,6.8-1.3c-4,1.5-7.8,3.6-11.4,6.2C154.3,16.3,149.9,17.4,145.4,18.5z M142.9,19.2
	c-0.4,0.1-0.7,0.2-1,0.3c-4.5,1.2-9,2.4-13.5,3.6c6.7-4.2,13.8-7.6,21.2-10.1l0-0.1c2.6-0.5,5.2-1,7.8-1.5
	C152.3,13.4,147.4,16,142.9,19.2z M125.4,23.9c-4.7,1.4-9.4,2.8-14,4.3c7.5-4.7,15.3-8.7,23.6-11.7l0-0.1c2.9-0.8,5.8-1.5,8.8-2.1
	C137.4,16.8,131.2,20,125.4,23.9z M108.1,29.3c-4.2,1.4-8.3,2.9-12.3,4.5c7.8-5.1,16.1-9.6,24.8-13.2l0-0.1c2.7-0.9,5.3-1.7,8-2.5
	C121.4,21.2,114.6,24.9,108.1,29.3z M105.3,31.2c-7.7,5.4-14.9,11.7-21.5,18.6c-5.5,2.2-10.8,4.5-15.8,7c7.3-7.6,15.4-14.4,24-20.4
	C96.4,34.5,100.8,32.8,105.3,31.2z M82.4,51.3c-7,7.6-13.2,16-18.6,24.9C57.5,79,51.6,81.9,46.1,85c5.9-9.5,12.7-18.3,20.2-26.4
	C71.4,56,76.8,53.6,82.4,51.3z M63,77.6c-5.6,9.5-10.2,19.6-13.7,30.2c-6.7,3.2-13,6.5-18.7,9.8c3.7-10.9,8.7-21.3,14.6-31.1
	C50.7,83.4,56.6,80.4,63,77.6z M49,109c-3.5,10.8-5.9,22-7.4,33.4c-6.9,3.4-13.4,6.9-19.1,10.5c1.5-11.6,4.1-22.9,7.7-33.9
	C35.8,115.5,42.2,112.2,49,109z M44.3,217.8c2.4,12.1,5.6,24.2,9.7,36c-6.1,3.1-11.7,6.2-16.4,9.5C33,251.8,29.2,240,26.4,228
	C31.7,224.5,37.7,221.1,44.3,217.8z M37.2,264.5c4.7,11.4,10.3,22.3,16.6,32.6c-3.4,2.5-6.2,5-8.2,7.7c-7.1-9.8-13.3-20.3-18.6-31.3
	C29.6,270.4,33.1,267.4,37.2,264.5z M38,264c4.7-3.2,10.2-6.4,16.3-9.5c4.1,11.7,8.9,23,14.3,33.7c-5.3,2.8-10.1,5.5-14.1,8.3
	C48.3,286.3,42.7,275.4,38,264z M69.1,289.1c5.4,10.6,11.5,20.7,18.1,30.1c-4.3,2.3-8,4.5-11.1,6.9c-7.6-8.8-14.6-18.4-20.9-28.7
	C59,294.6,63.7,291.8,69.1,289.1z M87.6,319.9c6.4,9.1,13.4,17.5,20.8,25.1c-3,1.7-5.7,3.5-7.7,5.3c-8.5-7-16.6-14.9-24.1-23.5
	C79.6,324.4,83.3,322.1,87.6,319.9z M100.1,350.9c-1.5,1.4-2.5,2.9-3,4.4c-9.5-6.4-18.5-13.8-26.9-21.9c1.2-2.1,3.2-4.1,5.7-6.1
	C83.4,335.9,91.5,343.8,100.1,350.9z M100.8,351.4c8.4,6.8,17.2,12.8,26.4,17.8c-0.3,0.6-0.5,1.3-0.5,1.9c0,0.2,0,0.3,0.1,0.5
	c-10-4.3-19.6-9.6-28.9-15.8C98.3,354.4,99.3,352.9,100.8,351.4z M131.9,365.4c7.1,5.1,14.4,9.3,21.8,12.5
	c-3.9-0.8-7.8-1.7-11.9-2.7c-4.5-1.9-9-4-13.4-6.3C129.1,367.7,130.3,366.5,131.9,365.4z M151,378.2c1.1,0.5,2.3,1,3.4,1.4
	c-2.1-0.6-4.3-1.3-6.4-2.1C149,377.8,150,378,151,378.2z M146.1,377.8c-1.7-0.6-3.4-1.2-5.1-1.9c0.2,0,0.3,0.1,0.5,0.1
	C143.1,376.7,144.6,377.3,146.1,377.8z M207.3,383.6L207.3,383.6c-0.1,0.1-0.1,0.1-0.2,0.1C207.1,383.6,207.2,383.6,207.3,383.6z
	 M228.2,377.9c3.4-0.7,6.7-1.5,10.2-2.3c-6.3,2.9-12.9,5.1-19.7,6.5l0,0.1c-0.8,0.1-1.6,0.2-2.3,0.4
	C220.5,381.3,224.4,379.8,228.2,377.9z M242.5,374.5c4-1,8-2.1,12-3.2c-7.3,3.5-14.9,6.4-22.8,8.4l0,0c-1.3,0.3-2.6,0.5-3.9,0.8
	C232.9,378.9,237.8,376.9,242.5,374.5z M323.8,331.4c5.3-5.3,10.2-11,14.8-17c-0.2,0.9-0.4,1.9-0.8,2.8
	C333.4,322.2,328.7,326.9,323.8,331.4z M339.7,313c1-1.3,2-2.7,2.9-4.1c2-1.4,3.8-2.9,5.5-4.3c-2.8,3.8-5.8,7.5-9,11
	C339.4,314.8,339.6,313.9,339.7,313z M375.3,253.8c0-0.2,0-0.4,0-0.7c1.9-6.6,3.5-13.3,4.7-20c0.1-0.1,0.1-0.2,0.2-0.3
	c0.5-0.8,0.9-1.6,1.3-2.4C380,238.4,377.9,246.2,375.3,253.8z M384.8,196c0,7-0.4,14-1.2,21c-0.2-1.5-0.6-2.9-1.2-4.3
	c0.2-3.8,0.4-7.6,0.4-11.4c0-1.5,0-3-0.1-4.4c0.1-0.1,0.1-0.2,0.2-0.3c0.8-1.5,1.4-3,1.8-4.6C384.8,193.3,384.8,194.7,384.8,196z
	 M382,174.9l-0.2,0.1c-0.5-6-1.3-12-2.4-17.9c0.3-1.1,0.5-2.2,0.5-3.3c1.9,8.2,3.3,16.6,4.1,24.9C383.5,177.4,382.8,176.1,382,174.9
	z M376.5,141.3c-0.3-0.5-0.7-1.1-1.1-1.6l-0.1,0.1c-2.1-7.3-4.7-14.5-7.7-21.4c0-0.1,0-0.2,0-0.2C371,125.6,374,133.4,376.5,141.3z
	 M193.8,6.2c0.7,0,1.6,0.1,2.6,0.2c0,0,0,0-0.1,0c-0.2,0-0.4,0-0.7,0c0,0-0.1,0-0.1,0c-0.3,0-0.5,0-0.8,0c-0.6,0-1.1,0-1.7,0.1
	c0,0-0.1,0-0.1,0l0,0l0,0c0,0-0.1,0-0.1,0V6.3c0,0-0.1,0-0.1,0c0,0-0.1,0-0.3,0.1c-0.1,0-0.2,0-0.3,0c-0.1,0-0.2,0-0.3,0.1v0
	c-0.1,0-0.1,0-0.1,0c0.1,0,0.1-0.1,0.3-0.1C192.2,6.3,192.9,6.2,193.8,6.2z M189.9,6.5c0.4,0.2,0.5,0.3,0.5,0.6h0.4c0,0,0,0.1,0,0.1
	l-0.2,0.2c0.1,0.1,0.2,0.3,0.5,0.7c-1.7,0.4-3.6,0.8-5.6,1.2c1-1.4,2.2-2.2,3.4-2.2c0,0,0,0,0,0l0.1-0.9c-0.1,0-0.1,0-0.1,0
	c-1.9,0.1-3.5,1.3-4.7,3.3c-2.9,0.6-6,1.3-9.5,2c2.7-2.2,5.7-3.7,8.8-4.2l-0.1-0.9c-3.8,0.6-7.4,2.6-10.5,5.4c-0.1,0-0.2,0-0.3,0.1
	c-3.8,0.8-7.7,1.7-11.8,2.7c4.3-2.9,9-5.1,13.9-6.3l-0.1-0.4c5.7-1.1,10.5-2,13.3-2C188.8,6.2,189.5,6.3,189.9,6.5z M107.3,25.6
	c1.2-0.5,2.4-1,3.6-1.5c-6.7,3.3-13.1,7.2-19.2,11.4c-2.9,1.2-5.6,2.5-8.3,3.9C90.9,34.2,98.9,29.6,107.3,25.6z M77.8,43.3
	c3.3-1.8,6.7-3.6,10.3-5.2c-8,5.9-15.5,12.5-22.3,19.8c-4.2,2.1-8.1,4.4-11.9,6.7C61.2,56.8,69.3,49.7,77.8,43.3z M51.5,67.3
	c3.9-2.6,8.1-5.1,12.5-7.5c-7.3,8-13.8,16.8-19.5,26.1c-4.8,2.7-9.2,5.6-13.3,8.7C37.1,84.9,43.9,75.8,51.5,67.3z M15.2,129.7
	c4-3.5,8.6-6.8,13.8-10c-3.6,10.9-6.1,22.2-7.5,33.8c-5.1,3.3-9.7,6.6-13.5,10.2C9.2,152.1,11.7,140.7,15.2,129.7z M6.7,185.3
	c0-6.8,0.4-13.6,1.1-20.3c3.8-3.6,8.4-7,13.5-10.4c-1,8-1.5,16.1-1.5,24.2c0,3.8,0.1,7.7,0.3,11.5c-4.9,3.2-9.3,6.6-12.9,10.1
	C6.9,195.4,6.7,190.4,6.7,185.3z M13.9,238.3c3.2-3.4,7.1-6.6,11.8-9.8c2.8,12,6.5,23.8,11.2,35.2c-4.1,2.9-7.6,5.8-10.3,8.9
	C21.3,261.6,17.1,250.1,13.9,238.3z M46.2,305.6c2-2.6,4.8-5.2,8.2-7.7c6.3,10.2,13.3,19.8,21,28.7c-2.5,2-4.4,4-5.7,6.1
	C61.1,324.4,53.2,315.3,46.2,305.6z M127.8,372.1c-0.2-0.3-0.2-0.6-0.2-1c0-0.4,0.1-0.9,0.4-1.4c2.8,1.5,5.7,2.9,8.6,4.2
	c-0.2-0.1-0.4-0.1-0.7-0.2l-0.1,0.4l-0.2,0.4c2.2,1,4.5,2,6.7,2.8C137.4,375.8,132.6,374.1,127.8,372.1z M310.2,344.3
	c0.3-0.3,0.5-0.6,0.8-1c1.8-1.4,3.6-2.8,5.4-4.3c0.5-0.3,0.9-0.5,1.4-0.8C315.3,340.3,312.8,342.4,310.2,344.3z M328.6,329.6
	c1.6-1.6,3.2-3.1,4.7-4.8C331.9,326.5,330.4,328.1,328.6,329.6z M338.6,317.7c0.2-0.3,0.5-0.5,0.7-0.8
	C339,317.2,338.8,317.5,338.6,317.7C338.6,317.7,338.6,317.7,338.6,317.7z"/>
</svg>
