<?xml version="1.0" encoding="utf-8"?>
<!-- Generator: Adobe Illustrator 21.0.0, SVG Export Plug-In . SVG Version: 6.00 Build 0)  -->
<svg version="1.1" id="Capa_1" xmlns="http://www.w3.org/2000/svg" xmlns:xlink="http://www.w3.org/1999/xlink" x="0px" y="0px"
	 viewBox="0 0 155 155" style="enable-background:new 0 0 155 155;" xml:space="preserve">
<style type="text/css">
	.st0{fill:#2E37FE;}
	.st1{fill:#FFFFFF;}
</style>
<g>
	<circle class="st0" cx="78.5" cy="78.5" r="71.9"/>
	<g>
		<g>
			<path class="st1" d="M103,89.3c-3.6,20.5-17.5,29-24.2,29c-6.7,0-11.1-10.4-11.6-11.6c-0.3-0.7,0-1.4,0.6-1.8
				c0.6-0.4,1.4-0.3,1.9,0.3c0,0,2.5,2.8,5.8,2.8c0.4,0,0.7,0,1.1-0.1c0.7-0.1,1.2-0.6,1.7-1.4c2.7-4.9,1-18.9-2.2-27.3
				c-3-7.9-8.1-9.6-11.8-9.6c-2.3,0-4,0.7-4.1,0.7c-0.4,0.2-0.9,0.1-1.3-0.1c-0.3-0.2-6.4-4-5.2-13.6c0.9-7.1,10.2-15.1,21.3-15.1
				c4.3,0,8.3,1.2,12,3.5C101.3,53.7,106.6,68.7,103,89.3L103,89.3z M73.7,97.7c0,0-0.9-0.1-2.7-0.5l3.2-5.1
				c0.4-0.7,0.2-1.6-0.5-2.1c-0.7-0.4-1.6-0.2-2.1,0.5L68,96.3c-0.2-0.1-0.3-0.1-0.5-0.2c-2.8-1.1-4.1-2.9-4.6-3.7
				c0.2-0.7,0.6-2,1.4-3.9c0.1-0.1,0.5-0.5,1.4-1c0.8-0.5,4.3-0.7,7.1-0.5c0.8,0,1.5-0.6,1.6-1.4c0-0.8-0.6-1.5-1.4-1.6
				c-1.1-0.1-4-0.2-6.3,0.2c1.8-2.5,4.2-4.7,4.2-4.7c0.6-0.6,0.6-1.5,0.1-2.1c-0.6-0.6-1.5-0.6-2.1-0.1c-0.2,0.2-4.8,4.5-6.6,8.6
				c-0.2,0.5-0.4,0.9-0.6,1.4c-0.6,1.6-1.1,2.8-1.4,3.7c-1.7-0.3-4.7-0.6-7.2-0.2c-0.3-2.2-0.6-5.6-0.1-7.6c0.6-2.4,1.2-2.7,4.9-3.6
				c4.1-1,8.1-5.3,8.3-5.5c0.6-0.6,0.5-1.5-0.1-2.1c-0.6-0.6-1.5-0.5-2.1,0.1c-1,1.1-4.1,4-6.8,4.6c-3.9,0.9-6.1,1.7-7,5.9
				c-0.6,2.7-0.2,6.8,0.1,8.9c-4.2,1.3-10.2,4-10.5,4.1c-0.8,0.3-1.1,1.2-0.8,2c0.3,0.8,1.2,1.1,2,0.8c0.1,0,8.9-3.9,12.2-4.5
				c2.5-0.5,5.9,0,7.3,0.2c0.7,1.3,2.5,3.7,6.1,5c0.6,0.2,1.2,0.4,1.7,0.6c0,0,0,0,0,0c3.4,1.1,5.2,1.2,5.3,1.2c0,0,0,0,0,0
				c0.8,0,1.5-0.6,1.5-1.4C75.2,98.5,74.5,97.8,73.7,97.7L73.7,97.7z M73.7,97.7"/>
		</g>
	</g>
</g>
</svg>
