<?xml version="1.0" encoding="utf-8"?>
<!-- Generator: Adobe Illustrator 21.0.0, SVG Export Plug-In . SVG Version: 6.00 Build 0)  -->
<svg version="1.1" id="Capa_1" xmlns="http://www.w3.org/2000/svg" xmlns:xlink="http://www.w3.org/1999/xlink" x="0px" y="0px"
	 viewBox="0 0 155 155" style="enable-background:new 0 0 155 155;" xml:space="preserve">
<style type="text/css">
	.st0{fill:#2E37FE;}
	.st1{fill:#FFFFFF;}
</style>
<g>
	<circle class="st0" cx="79" cy="76.6" r="71.9"/>
</g>
<g>
	<path class="st1" d="M48.9,104.7c0,0,64.5-63.6,67.9-66.5c6.3-5.4,12,1.6,7.6,6.7c-2.6,3-50.9,46.7-52.8,48.4
		c-1.9,1.7-5.4,2.7-8.3,6.3c-3.4,4.2-3.8,7.5-3.8,7.5s-4.9,9.9-22,13.6c0,0,4.3-8.5,6.7-11C46.8,106.8,48.9,104.7,48.9,104.7z"/>
	<path class="st0" d="M62.9,98L51.1,109c-0.5,0.5-1.4,0.5-1.9-0.1l-0.1-0.1c-0.5-0.5-0.5-1.4,0.1-1.9L61,96c0.5-0.5,1.4-0.5,1.9,0.1
		l0.1,0.1C63.5,96.6,63.4,97.5,62.9,98z"/>
	<g>
		<path class="st0" d="M73,89.7l-5.2-1.1c-0.2,0-0.3-0.2-0.3-0.4l0,0c0-0.2,0.2-0.3,0.4-0.3l5.2,1.1c0.2,0,0.3,0.2,0.3,0.4l0,0
			C73.4,89.6,73.2,89.7,73,89.7z"/>
		<path class="st0" d="M69.2,86.5c0-0.2,0.2-0.3,0.4-0.3l5.3,1.1c0.2,0,0.3,0.2,0.3,0.4l0,0c0,0.2-0.2,0.3-0.4,0.3L69.5,87
			C69.3,86.9,69.2,86.7,69.2,86.5L69.2,86.5z"/>
		<path class="st0" d="M70.9,84.9c0-0.2,0.2-0.3,0.4-0.3l5.4,1.2c0.2,0,0.3,0.2,0.3,0.4l0,0c0,0.2-0.2,0.3-0.4,0.3l-5.4-1.2
			C70.9,85.3,70.8,85.1,70.9,84.9L70.9,84.9z"/>
		<path class="st0" d="M72.5,83.3c0-0.2,0.2-0.3,0.4-0.3l5.5,1.2c0.2,0,0.3,0.2,0.3,0.4l0,0c0,0.2-0.2,0.3-0.4,0.3l-5.5-1.2
			C72.6,83.7,72.5,83.5,72.5,83.3L72.5,83.3z"/>
		<path class="st0" d="M74.1,81.7c0-0.2,0.2-0.3,0.4-0.3l5.6,1.2c0.2,0,0.3,0.2,0.3,0.4l0,0c0,0.2-0.2,0.3-0.4,0.3l-5.6-1.2
			C74.2,82.1,74.1,81.9,74.1,81.7L74.1,81.7z"/>
		<path class="st0" d="M75.8,80.1c0-0.2,0.2-0.3,0.4-0.3l5.7,1.2c0.2,0,0.3,0.2,0.3,0.4l0,0c0,0.2-0.2,0.3-0.4,0.3L76,80.5
			C75.8,80.4,75.7,80.3,75.8,80.1L75.8,80.1z"/>
		<path class="st0" d="M77.4,78.4c0-0.2,0.2-0.3,0.4-0.3l5.8,1.2c0.2,0,0.3,0.2,0.3,0.4l0,0c0,0.2-0.2,0.3-0.4,0.3l-5.8-1.2
			C77.5,78.8,77.3,78.6,77.4,78.4L77.4,78.4z"/>
		<path class="st0" d="M79,76.8c0-0.2,0.2-0.3,0.4-0.3l5.9,1.3c0.2,0,0.3,0.2,0.3,0.4l0,0c0,0.2-0.2,0.3-0.4,0.3l-5.9-1.3
			C79.1,77.2,79,77,79,76.8L79,76.8z"/>
		<path class="st0" d="M86.9,76.9l-6-1.3c-0.2,0-0.3-0.2-0.3-0.4l0,0c0-0.2,0.2-0.3,0.4-0.3l6,1.3c0.2,0,0.3,0.2,0.3,0.4l0,0
			C87.3,76.8,87.1,76.9,86.9,76.9z"/>
	</g>
</g>
</svg>
