<?xml version="1.0" encoding="utf-8"?>
<!-- Generator: Adobe Illustrator 21.0.0, SVG Export Plug-In . SVG Version: 6.00 Build 0)  -->
<svg version="1.1" id="Capa_1" xmlns="http://www.w3.org/2000/svg" xmlns:xlink="http://www.w3.org/1999/xlink" x="0px" y="0px"
	 viewBox="0 0 207 207" style="enable-background:new 0 0 207 207;" xml:space="preserve">
<style type="text/css">
	.st0{fill:none;stroke:url(#SVGID_1_);stroke-width:2;stroke-miterlimit:10;}
	.st1{fill:#E20613;}
	.st2{enable-background:new    ;}
</style>
<g>
	
		<linearGradient id="SVGID_1_" gradientUnits="userSpaceOnUse" x1="5.2" y1="105.7" x2="201.2" y2="105.7" gradientTransform="matrix(1 0 0 -1 0 207.7)">
		<stop  offset="0" style="stop-color:#19EFFF"/>
		<stop  offset="0.9007" style="stop-color:#0096FF"/>
	</linearGradient>
	<circle class="st0" cx="103.2" cy="102" r="97"/>
	<polygon class="st1" points="155.4,69 155.4,86.1 171.4,86.1 171.4,69 178.2,69 163.7,54.3 149.1,69 	"/>
	<g>
		<path class="st1" d="M176.1,122.5c0-0.9,0.7-1.6,1.6-1.6s1.6,0.7,1.6,1.6s-0.7,1.6-1.6,1.6S176.1,123.3,176.1,122.5"/>
		<path class="st1" d="M168.4,122.5c0-0.9,0.7-1.6,1.6-1.6s1.6,0.7,1.6,1.6s-0.7,1.6-1.6,1.6S168.4,123.3,168.4,122.5"/>
		<path class="st1" d="M160.7,122.5c0-0.9,0.7-1.6,1.6-1.6c0.9,0,1.6,0.7,1.6,1.6s-0.7,1.6-1.6,1.6
			C161.4,124,160.7,123.3,160.7,122.5"/>
		<path class="st1" d="M153,122.5c0-0.9,0.7-1.6,1.6-1.6s1.6,0.7,1.6,1.6s-0.7,1.6-1.6,1.6S153,123.3,153,122.5"/>
		<path class="st1" d="M145.3,122.5c0-0.9,0.7-1.6,1.6-1.6c0.9,0,1.6,0.7,1.6,1.6s-0.7,1.6-1.6,1.6C146,124,145.3,123.3,145.3,122.5
			"/>
		<path class="st1" d="M137.7,122.5c0-0.9,0.7-1.6,1.6-1.6s1.6,0.7,1.6,1.6s-0.7,1.6-1.6,1.6S137.7,123.3,137.7,122.5"/>
		<path class="st1" d="M130,122.5c0-0.9,0.7-1.6,1.6-1.6s1.6,0.7,1.6,1.6s-0.7,1.6-1.6,1.6S130,123.3,130,122.5"/>
		<path class="st1" d="M122.3,122.5c0-0.9,0.7-1.6,1.6-1.6s1.6,0.7,1.6,1.6s-0.7,1.6-1.6,1.6S122.3,123.3,122.3,122.5"/>
		<path class="st1" d="M114.6,122.5c0-0.9,0.7-1.6,1.6-1.6s1.6,0.7,1.6,1.6s-0.7,1.6-1.6,1.6C115.3,124,114.6,123.3,114.6,122.5"/>
		<path class="st1" d="M106.9,122.5c0-0.9,0.7-1.6,1.6-1.6s1.6,0.7,1.6,1.6s-0.7,1.6-1.6,1.6C107.6,124,106.9,123.3,106.9,122.5"/>
		<path class="st1" d="M176.1,128.7c0-0.9,0.7-1.6,1.6-1.6s1.6,0.7,1.6,1.6c0,0.9-0.7,1.6-1.6,1.6S176.1,129.6,176.1,128.7"/>
		<path class="st1" d="M168.4,128.7c0-0.9,0.7-1.6,1.6-1.6s1.6,0.7,1.6,1.6c0,0.9-0.7,1.6-1.6,1.6S168.4,129.6,168.4,128.7"/>
		<path class="st1" d="M160.7,128.7c0-0.9,0.7-1.6,1.6-1.6c0.9,0,1.6,0.7,1.6,1.6c0,0.9-0.7,1.6-1.6,1.6S160.7,129.6,160.7,128.7"/>
		<path class="st1" d="M153,128.7c0-0.9,0.7-1.6,1.6-1.6s1.6,0.7,1.6,1.6c0,0.9-0.7,1.6-1.6,1.6S153,129.6,153,128.7"/>
		<path class="st1" d="M145.3,128.7c0-0.9,0.7-1.6,1.6-1.6c0.9,0,1.6,0.7,1.6,1.6c0,0.9-0.7,1.6-1.6,1.6S145.3,129.6,145.3,128.7"/>
		<path class="st1" d="M137.7,128.7c0-0.9,0.7-1.6,1.6-1.6s1.6,0.7,1.6,1.6c0,0.9-0.7,1.6-1.6,1.6S137.7,129.6,137.7,128.7"/>
		<path class="st1" d="M130,128.7c0-0.9,0.7-1.6,1.6-1.6s1.6,0.7,1.6,1.6c0,0.9-0.7,1.6-1.6,1.6S130,129.6,130,128.7"/>
		<path class="st1" d="M122.3,128.7c0-0.9,0.7-1.6,1.6-1.6s1.6,0.7,1.6,1.6c0,0.9-0.7,1.6-1.6,1.6S122.3,129.6,122.3,128.7"/>
		<path class="st1" d="M114.6,128.7c0-0.9,0.7-1.6,1.6-1.6s1.6,0.7,1.6,1.6c0,0.9-0.7,1.6-1.6,1.6
			C115.3,130.3,114.6,129.6,114.6,128.7"/>
		<path class="st1" d="M106.9,128.7c0-0.9,0.7-1.6,1.6-1.6s1.6,0.7,1.6,1.6c0,0.9-0.7,1.6-1.6,1.6S106.9,129.6,106.9,128.7"/>
		<path class="st1" d="M176.1,135c0-0.9,0.7-1.6,1.6-1.6s1.6,0.7,1.6,1.6c0,0.9-0.7,1.6-1.6,1.6S176.1,135.8,176.1,135"/>
		<path class="st1" d="M168.4,135c0-0.9,0.7-1.6,1.6-1.6s1.6,0.7,1.6,1.6c0,0.9-0.7,1.6-1.6,1.6S168.4,135.8,168.4,135"/>
		<path class="st1" d="M160.7,135c0-0.9,0.7-1.6,1.6-1.6c0.9,0,1.6,0.7,1.6,1.6c0,0.9-0.7,1.6-1.6,1.6
			C161.4,136.5,160.7,135.8,160.7,135"/>
		<path class="st1" d="M153,135c0-0.9,0.7-1.6,1.6-1.6s1.6,0.7,1.6,1.6c0,0.9-0.7,1.6-1.6,1.6S153,135.8,153,135"/>
		<path class="st1" d="M145.3,135c0-0.9,0.7-1.6,1.6-1.6c0.9,0,1.6,0.7,1.6,1.6c0,0.9-0.7,1.6-1.6,1.6
			C146,136.5,145.3,135.8,145.3,135"/>
		<path class="st1" d="M137.7,135c0-0.9,0.7-1.6,1.6-1.6s1.6,0.7,1.6,1.6c0,0.9-0.7,1.6-1.6,1.6S137.7,135.8,137.7,135"/>
		<path class="st1" d="M130,135c0-0.9,0.7-1.6,1.6-1.6s1.6,0.7,1.6,1.6c0,0.9-0.7,1.6-1.6,1.6S130,135.8,130,135"/>
		<path class="st1" d="M122.3,135c0-0.9,0.7-1.6,1.6-1.6s1.6,0.7,1.6,1.6c0,0.9-0.7,1.6-1.6,1.6S122.3,135.8,122.3,135"/>
		<path class="st1" d="M114.6,135c0-0.9,0.7-1.6,1.6-1.6s1.6,0.7,1.6,1.6c0,0.9-0.7,1.6-1.6,1.6C115.3,136.5,114.6,135.8,114.6,135"
			/>
		<path class="st1" d="M106.9,135c0-0.9,0.7-1.6,1.6-1.6s1.6,0.7,1.6,1.6c0,0.9-0.7,1.6-1.6,1.6C107.6,136.5,106.9,135.8,106.9,135"
			/>
		<path class="st1" d="M176.1,141.2c0-0.9,0.7-1.6,1.6-1.6s1.6,0.7,1.6,1.6c0,0.9-0.7,1.6-1.6,1.6S176.1,142.1,176.1,141.2"/>
		<path class="st1" d="M168.4,141.2c0-0.9,0.7-1.6,1.6-1.6s1.6,0.7,1.6,1.6c0,0.9-0.7,1.6-1.6,1.6S168.4,142.1,168.4,141.2"/>
		<path class="st1" d="M160.7,141.2c0-0.9,0.7-1.6,1.6-1.6c0.9,0,1.6,0.7,1.6,1.6c0,0.9-0.7,1.6-1.6,1.6S160.7,142.1,160.7,141.2"/>
		<path class="st1" d="M153,141.2c0-0.9,0.7-1.6,1.6-1.6s1.6,0.7,1.6,1.6c0,0.9-0.7,1.6-1.6,1.6S153,142.1,153,141.2"/>
		<path class="st1" d="M145.3,141.2c0-0.9,0.7-1.6,1.6-1.6c0.9,0,1.6,0.7,1.6,1.6c0,0.9-0.7,1.6-1.6,1.6S145.3,142.1,145.3,141.2"/>
		<path class="st1" d="M137.7,141.2c0-0.9,0.7-1.6,1.6-1.6s1.6,0.7,1.6,1.6c0,0.9-0.7,1.6-1.6,1.6S137.7,142.1,137.7,141.2"/>
		<path class="st1" d="M130,141.2c0-0.9,0.7-1.6,1.6-1.6s1.6,0.7,1.6,1.6c0,0.9-0.7,1.6-1.6,1.6S130,142.1,130,141.2"/>
		<path class="st1" d="M122.3,141.2c0-0.9,0.7-1.6,1.6-1.6s1.6,0.7,1.6,1.6c0,0.9-0.7,1.6-1.6,1.6S122.3,142.1,122.3,141.2"/>
		<path class="st1" d="M114.6,141.2c0-0.9,0.7-1.6,1.6-1.6s1.6,0.7,1.6,1.6c0,0.9-0.7,1.6-1.6,1.6
			C115.3,142.8,114.6,142.1,114.6,141.2"/>
		<path class="st1" d="M106.9,141.2c0-0.9,0.7-1.6,1.6-1.6s1.6,0.7,1.6,1.6c0,0.9-0.7,1.6-1.6,1.6S106.9,142.1,106.9,141.2"/>
		<path class="st1" d="M176.1,115.5c0-0.9,0.7-1.6,1.6-1.6s1.6,0.7,1.6,1.6s-0.7,1.6-1.6,1.6S176.1,116.3,176.1,115.5"/>
		<path class="st1" d="M168.4,115.5c0-0.9,0.7-1.6,1.6-1.6s1.6,0.7,1.6,1.6s-0.7,1.6-1.6,1.6S168.4,116.3,168.4,115.5"/>
		<path class="st1" d="M160.7,115.5c0-0.9,0.7-1.6,1.6-1.6c0.9,0,1.6,0.7,1.6,1.6s-0.7,1.6-1.6,1.6
			C161.4,117,160.7,116.3,160.7,115.5"/>
		<path class="st1" d="M153,115.5c0-0.9,0.7-1.6,1.6-1.6s1.6,0.7,1.6,1.6s-0.7,1.6-1.6,1.6S153,116.3,153,115.5"/>
		<path class="st1" d="M145.3,115.5c0-0.9,0.7-1.6,1.6-1.6c0.9,0,1.6,0.7,1.6,1.6s-0.7,1.6-1.6,1.6C146,117,145.3,116.3,145.3,115.5
			"/>
		<path class="st1" d="M137.7,115.5c0-0.9,0.7-1.6,1.6-1.6s1.6,0.7,1.6,1.6s-0.7,1.6-1.6,1.6S137.7,116.3,137.7,115.5"/>
		<path class="st1" d="M130,115.5c0-0.9,0.7-1.6,1.6-1.6s1.6,0.7,1.6,1.6s-0.7,1.6-1.6,1.6S130,116.3,130,115.5"/>
		<path class="st1" d="M122.3,115.5c0-0.9,0.7-1.6,1.6-1.6s1.6,0.7,1.6,1.6s-0.7,1.6-1.6,1.6S122.3,116.3,122.3,115.5"/>
		<path class="st1" d="M114.6,115.5c0-0.9,0.7-1.6,1.6-1.6s1.6,0.7,1.6,1.6s-0.7,1.6-1.6,1.6C115.3,117,114.6,116.3,114.6,115.5"/>
		<path class="st1" d="M106.9,115.5c0-0.9,0.7-1.6,1.6-1.6s1.6,0.7,1.6,1.6s-0.7,1.6-1.6,1.6C107.6,117,106.9,116.3,106.9,115.5"/>
		<path class="st1" d="M176.1,108.5c0-0.9,0.7-1.6,1.6-1.6s1.6,0.7,1.6,1.6s-0.7,1.6-1.6,1.6S176.1,109.4,176.1,108.5"/>
		<path class="st1" d="M168.4,108.5c0-0.9,0.7-1.6,1.6-1.6s1.6,0.7,1.6,1.6s-0.7,1.6-1.6,1.6S168.4,109.4,168.4,108.5"/>
		<path class="st1" d="M160.7,108.5c0-0.9,0.7-1.6,1.6-1.6c0.9,0,1.6,0.7,1.6,1.6s-0.7,1.6-1.6,1.6S160.7,109.4,160.7,108.5"/>
		<path class="st1" d="M153,108.5c0-0.9,0.7-1.6,1.6-1.6s1.6,0.7,1.6,1.6s-0.7,1.6-1.6,1.6S153,109.4,153,108.5"/>
		<path class="st1" d="M145.3,108.5c0-0.9,0.7-1.6,1.6-1.6c0.9,0,1.6,0.7,1.6,1.6s-0.7,1.6-1.6,1.6S145.3,109.4,145.3,108.5"/>
		<path class="st1" d="M137.7,108.5c0-0.9,0.7-1.6,1.6-1.6s1.6,0.7,1.6,1.6s-0.7,1.6-1.6,1.6S137.7,109.4,137.7,108.5"/>
		<path class="st1" d="M130,108.5c0-0.9,0.7-1.6,1.6-1.6s1.6,0.7,1.6,1.6s-0.7,1.6-1.6,1.6S130,109.4,130,108.5"/>
		<path class="st1" d="M122.3,108.5c0-0.9,0.7-1.6,1.6-1.6s1.6,0.7,1.6,1.6s-0.7,1.6-1.6,1.6S122.3,109.4,122.3,108.5"/>
		<path class="st1" d="M114.6,108.5c0-0.9,0.7-1.6,1.6-1.6s1.6,0.7,1.6,1.6s-0.7,1.6-1.6,1.6C115.3,110.1,114.6,109.4,114.6,108.5"
			/>
		<path class="st1" d="M106.9,108.5c0-0.9,0.7-1.6,1.6-1.6s1.6,0.7,1.6,1.6s-0.7,1.6-1.6,1.6S106.9,109.4,106.9,108.5"/>
		<path class="st1" d="M176.1,101.5c0-0.9,0.7-1.6,1.6-1.6s1.6,0.7,1.6,1.6s-0.7,1.6-1.6,1.6S176.1,102.4,176.1,101.5"/>
		<path class="st1" d="M168.4,101.5c0-0.9,0.7-1.6,1.6-1.6s1.6,0.7,1.6,1.6s-0.7,1.6-1.6,1.6S168.4,102.4,168.4,101.5"/>
		<path class="st1" d="M160.7,101.5c0-0.9,0.7-1.6,1.6-1.6c0.9,0,1.6,0.7,1.6,1.6s-0.7,1.6-1.6,1.6S160.7,102.4,160.7,101.5"/>
		<path class="st1" d="M153,101.5c0-0.9,0.7-1.6,1.6-1.6s1.6,0.7,1.6,1.6s-0.7,1.6-1.6,1.6S153,102.4,153,101.5"/>
		<path class="st1" d="M145.3,101.5c0-0.9,0.7-1.6,1.6-1.6c0.9,0,1.6,0.7,1.6,1.6s-0.7,1.6-1.6,1.6S145.3,102.4,145.3,101.5"/>
		<path class="st1" d="M137.7,101.5c0-0.9,0.7-1.6,1.6-1.6s1.6,0.7,1.6,1.6s-0.7,1.6-1.6,1.6S137.7,102.4,137.7,101.5"/>
		<path class="st1" d="M130,101.5c0-0.9,0.7-1.6,1.6-1.6s1.6,0.7,1.6,1.6s-0.7,1.6-1.6,1.6S130,102.4,130,101.5"/>
		<path class="st1" d="M122.3,101.5c0-0.9,0.7-1.6,1.6-1.6s1.6,0.7,1.6,1.6s-0.7,1.6-1.6,1.6S122.3,102.4,122.3,101.5"/>
		<path class="st1" d="M114.6,101.5c0-0.9,0.7-1.6,1.6-1.6s1.6,0.7,1.6,1.6s-0.7,1.6-1.6,1.6C115.3,103.1,114.6,102.4,114.6,101.5"
			/>
		<path class="st1" d="M106.9,101.5c0-0.9,0.7-1.6,1.6-1.6s1.6,0.7,1.6,1.6s-0.7,1.6-1.6,1.6S106.9,102.4,106.9,101.5"/>
		<path class="st1" d="M176.1,94.5c0-0.9,0.7-1.6,1.6-1.6s1.6,0.7,1.6,1.6s-0.7,1.6-1.6,1.6S176.1,95.4,176.1,94.5"/>
		<path class="st1" d="M168.4,94.5c0-0.9,0.7-1.6,1.6-1.6s1.6,0.7,1.6,1.6s-0.7,1.6-1.6,1.6S168.4,95.4,168.4,94.5"/>
		<path class="st1" d="M160.7,94.5c0-0.9,0.7-1.6,1.6-1.6c0.9,0,1.6,0.7,1.6,1.6s-0.7,1.6-1.6,1.6S160.7,95.4,160.7,94.5"/>
		<path class="st1" d="M153,94.5c0-0.9,0.7-1.6,1.6-1.6s1.6,0.7,1.6,1.6s-0.7,1.6-1.6,1.6S153,95.4,153,94.5"/>
	</g>
	<g class="st2">
		<path class="st1" d="M109.3,81l7.4-16.8h-10.4v-3.9h15.5v3.1L114.1,81H109.3z"/>
	</g>
	<g class="st2">
		<path class="st1" d="M120.9,78.8c0-1.4,1.1-2.5,2.5-2.5s2.5,1.1,2.5,2.5c0,1.4-1.1,2.5-2.5,2.5S120.9,80.2,120.9,78.8z"/>
		<path class="st1" d="M128.9,78.3l2.5-3.1c1.4,1.5,3.3,2.3,5.5,2.3c2.5,0,3.8-1.4,3.8-3.1c0-1.8-1.4-3.1-3.7-3.1
			c-1.7,0-3.1,0.5-4.3,1.7l-3.1-0.8V60.3h14.2v3.9h-9.8v5.1c1-1,2.7-1.7,4.6-1.7c3.5,0,6.6,2.5,6.6,6.7c0,4.4-3.3,7.2-8.3,7.2
			C133.3,81.4,130.7,80.2,128.9,78.3z"/>
	</g>
	<g class="st2">
		<path class="st1" d="M112.4,95.8v-5l-2,5h-0.7l-2-5v5h-1.5v-7.1h2.1l1.7,4.3l1.7-4.3h2.1v7.1H112.4z"/>
		<path class="st1" d="M115.3,95.8v-7.1h1.5v7.1H115.3z"/>
		<path class="st1" d="M118.2,95.8v-7.1h1.5v5.7h3v1.3H118.2z"/>
		<path class="st1" d="M123.7,95.8v-7.1h1.5v5.7h3v1.3H123.7z"/>
		<path class="st1" d="M129.3,95.8v-7.1h1.5v7.1H129.3z"/>
		<path class="st1" d="M131.9,92.3c0-2.1,1.6-3.7,3.7-3.7c2.1,0,3.7,1.5,3.7,3.7s-1.6,3.7-3.7,3.7C133.4,95.9,131.9,94.4,131.9,92.3
			z M137.7,92.3c0-1.3-0.8-2.3-2.2-2.3c-1.3,0-2.1,1-2.1,2.3c0,1.3,0.8,2.3,2.1,2.3C136.9,94.6,137.7,93.6,137.7,92.3z"/>
		<path class="st1" d="M145.2,95.8l-3.4-4.6v4.6h-1.5v-7.1h1.5l3.3,4.4v-4.4h1.5v7.1H145.2z"/>
	</g>
	<g>
		<path class="st1" d="M92.5,122.5c0-0.9,0.7-1.6,1.6-1.6s1.6,0.7,1.6,1.6s-0.7,1.6-1.6,1.6S92.5,123.3,92.5,122.5"/>
		<path class="st1" d="M84.8,122.5c0-0.9,0.7-1.6,1.6-1.6s1.6,0.7,1.6,1.6s-0.7,1.6-1.6,1.6C85.5,124,84.8,123.3,84.8,122.5"/>
		<path class="st1" d="M77.1,122.5c0-0.9,0.7-1.6,1.6-1.6s1.6,0.7,1.6,1.6s-0.7,1.6-1.6,1.6C77.8,124,77.1,123.3,77.1,122.5"/>
		<path class="st1" d="M69.4,122.5c0-0.9,0.7-1.6,1.6-1.6s1.6,0.7,1.6,1.6s-0.7,1.6-1.6,1.6S69.4,123.3,69.4,122.5"/>
		<path class="st1" d="M61.7,122.5c0-0.9,0.7-1.6,1.6-1.6s1.6,0.7,1.6,1.6s-0.7,1.6-1.6,1.6C62.4,124,61.7,123.3,61.7,122.5"/>
		<path class="st1" d="M54.1,122.5c0-0.9,0.7-1.6,1.6-1.6c0.9,0,1.6,0.7,1.6,1.6s-0.7,1.6-1.6,1.6C54.8,124,54.1,123.3,54.1,122.5"
			/>
		<path class="st1" d="M46.4,122.5c0-0.9,0.7-1.6,1.6-1.6c0.9,0,1.6,0.7,1.6,1.6s-0.7,1.6-1.6,1.6C47.1,124,46.4,123.3,46.4,122.5"
			/>
		<path class="st1" d="M38.7,122.5c0-0.9,0.7-1.6,1.6-1.6c0.9,0,1.6,0.7,1.6,1.6s-0.7,1.6-1.6,1.6C39.4,124,38.7,123.3,38.7,122.5"
			/>
		<path class="st1" d="M31,122.5c0-0.9,0.7-1.6,1.6-1.6c0.9,0,1.6,0.7,1.6,1.6s-0.7,1.6-1.6,1.6C31.7,124,31,123.3,31,122.5"/>
		<path class="st1" d="M23.3,122.5c0-0.9,0.7-1.6,1.6-1.6s1.6,0.7,1.6,1.6s-0.7,1.6-1.6,1.6C24,124,23.3,123.3,23.3,122.5"/>
		<path class="st1" d="M92.5,128.7c0-0.9,0.7-1.6,1.6-1.6s1.6,0.7,1.6,1.6c0,0.9-0.7,1.6-1.6,1.6S92.5,129.6,92.5,128.7"/>
		<path class="st1" d="M84.8,128.7c0-0.9,0.7-1.6,1.6-1.6s1.6,0.7,1.6,1.6c0,0.9-0.7,1.6-1.6,1.6S84.8,129.6,84.8,128.7"/>
		<path class="st1" d="M77.1,128.7c0-0.9,0.7-1.6,1.6-1.6s1.6,0.7,1.6,1.6c0,0.9-0.7,1.6-1.6,1.6C77.8,130.3,77.1,129.6,77.1,128.7"
			/>
		<path class="st1" d="M69.4,128.7c0-0.9,0.7-1.6,1.6-1.6s1.6,0.7,1.6,1.6c0,0.9-0.7,1.6-1.6,1.6S69.4,129.6,69.4,128.7"/>
		<path class="st1" d="M61.7,128.7c0-0.9,0.7-1.6,1.6-1.6s1.6,0.7,1.6,1.6c0,0.9-0.7,1.6-1.6,1.6S61.7,129.6,61.7,128.7"/>
		<path class="st1" d="M54.1,128.7c0-0.9,0.7-1.6,1.6-1.6c0.9,0,1.6,0.7,1.6,1.6c0,0.9-0.7,1.6-1.6,1.6S54.1,129.6,54.1,128.7"/>
		<path class="st1" d="M46.4,128.7c0-0.9,0.7-1.6,1.6-1.6c0.9,0,1.6,0.7,1.6,1.6c0,0.9-0.7,1.6-1.6,1.6
			C47.1,130.3,46.4,129.6,46.4,128.7"/>
		<path class="st1" d="M38.7,128.7c0-0.9,0.7-1.6,1.6-1.6c0.9,0,1.6,0.7,1.6,1.6c0,0.9-0.7,1.6-1.6,1.6S38.7,129.6,38.7,128.7"/>
		<path class="st1" d="M31,128.7c0-0.9,0.7-1.6,1.6-1.6c0.9,0,1.6,0.7,1.6,1.6c0,0.9-0.7,1.6-1.6,1.6S31,129.6,31,128.7"/>
		<path class="st1" d="M23.3,128.7c0-0.9,0.7-1.6,1.6-1.6s1.6,0.7,1.6,1.6c0,0.9-0.7,1.6-1.6,1.6S23.3,129.6,23.3,128.7"/>
		<path class="st1" d="M92.5,135c0-0.9,0.7-1.6,1.6-1.6s1.6,0.7,1.6,1.6c0,0.9-0.7,1.6-1.6,1.6S92.5,135.8,92.5,135"/>
		<path class="st1" d="M84.8,135c0-0.9,0.7-1.6,1.6-1.6s1.6,0.7,1.6,1.6c0,0.9-0.7,1.6-1.6,1.6C85.5,136.5,84.8,135.8,84.8,135"/>
		<path class="st1" d="M77.1,135c0-0.9,0.7-1.6,1.6-1.6s1.6,0.7,1.6,1.6c0,0.9-0.7,1.6-1.6,1.6C77.8,136.5,77.1,135.8,77.1,135"/>
		<path class="st1" d="M69.4,135c0-0.9,0.7-1.6,1.6-1.6s1.6,0.7,1.6,1.6c0,0.9-0.7,1.6-1.6,1.6S69.4,135.8,69.4,135"/>
		<path class="st1" d="M61.7,135c0-0.9,0.7-1.6,1.6-1.6s1.6,0.7,1.6,1.6c0,0.9-0.7,1.6-1.6,1.6C62.4,136.5,61.7,135.8,61.7,135"/>
		<path class="st1" d="M54.1,135c0-0.9,0.7-1.6,1.6-1.6c0.9,0,1.6,0.7,1.6,1.6c0,0.9-0.7,1.6-1.6,1.6
			C54.8,136.5,54.1,135.8,54.1,135"/>
		<path class="st1" d="M46.4,135c0-0.9,0.7-1.6,1.6-1.6c0.9,0,1.6,0.7,1.6,1.6c0,0.9-0.7,1.6-1.6,1.6
			C47.1,136.5,46.4,135.8,46.4,135"/>
		<path class="st1" d="M38.7,135c0-0.9,0.7-1.6,1.6-1.6c0.9,0,1.6,0.7,1.6,1.6c0,0.9-0.7,1.6-1.6,1.6
			C39.4,136.5,38.7,135.8,38.7,135"/>
		<path class="st1" d="M31,135c0-0.9,0.7-1.6,1.6-1.6c0.9,0,1.6,0.7,1.6,1.6c0,0.9-0.7,1.6-1.6,1.6C31.7,136.5,31,135.8,31,135"/>
		<path class="st1" d="M23.3,135c0-0.9,0.7-1.6,1.6-1.6s1.6,0.7,1.6,1.6c0,0.9-0.7,1.6-1.6,1.6C24,136.5,23.3,135.8,23.3,135"/>
		<path class="st1" d="M92.5,141.2c0-0.9,0.7-1.6,1.6-1.6s1.6,0.7,1.6,1.6c0,0.9-0.7,1.6-1.6,1.6S92.5,142.1,92.5,141.2"/>
		<path class="st1" d="M84.8,141.2c0-0.9,0.7-1.6,1.6-1.6s1.6,0.7,1.6,1.6c0,0.9-0.7,1.6-1.6,1.6S84.8,142.1,84.8,141.2"/>
		<path class="st1" d="M77.1,141.2c0-0.9,0.7-1.6,1.6-1.6s1.6,0.7,1.6,1.6c0,0.9-0.7,1.6-1.6,1.6C77.8,142.8,77.1,142.1,77.1,141.2"
			/>
		<path class="st1" d="M69.4,141.2c0-0.9,0.7-1.6,1.6-1.6s1.6,0.7,1.6,1.6c0,0.9-0.7,1.6-1.6,1.6S69.4,142.1,69.4,141.2"/>
		<path class="st1" d="M61.7,141.2c0-0.9,0.7-1.6,1.6-1.6s1.6,0.7,1.6,1.6c0,0.9-0.7,1.6-1.6,1.6S61.7,142.1,61.7,141.2"/>
		<path class="st1" d="M54.1,141.2c0-0.9,0.7-1.6,1.6-1.6c0.9,0,1.6,0.7,1.6,1.6c0,0.9-0.7,1.6-1.6,1.6S54.1,142.1,54.1,141.2"/>
		<path class="st1" d="M46.4,141.2c0-0.9,0.7-1.6,1.6-1.6c0.9,0,1.6,0.7,1.6,1.6c0,0.9-0.7,1.6-1.6,1.6
			C47.1,142.8,46.4,142.1,46.4,141.2"/>
		<path class="st1" d="M38.7,141.2c0-0.9,0.7-1.6,1.6-1.6c0.9,0,1.6,0.7,1.6,1.6c0,0.9-0.7,1.6-1.6,1.6S38.7,142.1,38.7,141.2"/>
		<path class="st1" d="M31,141.2c0-0.9,0.7-1.6,1.6-1.6c0.9,0,1.6,0.7,1.6,1.6c0,0.9-0.7,1.6-1.6,1.6S31,142.1,31,141.2"/>
		<path class="st1" d="M23.3,141.2c0-0.9,0.7-1.6,1.6-1.6s1.6,0.7,1.6,1.6c0,0.9-0.7,1.6-1.6,1.6S23.3,142.1,23.3,141.2"/>
		<path class="st1" d="M92.5,115.5c0-0.9,0.7-1.6,1.6-1.6s1.6,0.7,1.6,1.6s-0.7,1.6-1.6,1.6S92.5,116.3,92.5,115.5"/>
		<path class="st1" d="M84.8,115.5c0-0.9,0.7-1.6,1.6-1.6s1.6,0.7,1.6,1.6s-0.7,1.6-1.6,1.6C85.5,117,84.8,116.3,84.8,115.5"/>
		<path class="st1" d="M77.1,115.5c0-0.9,0.7-1.6,1.6-1.6s1.6,0.7,1.6,1.6s-0.7,1.6-1.6,1.6C77.8,117,77.1,116.3,77.1,115.5"/>
	</g>
	<g class="st2">
		<path class="st1" d="M29.1,116v-5l-2,5h-0.7l-2-5v5h-1.5V109H25l1.7,4.3l1.7-4.3h2.1v7.1H29.1z"/>
		<path class="st1" d="M32,116V109h1.5v7.1H32z"/>
		<path class="st1" d="M34.9,116V109h1.5v5.7h3v1.3H34.9z"/>
		<path class="st1" d="M40.4,116V109h1.5v5.7h3v1.3H40.4z"/>
		<path class="st1" d="M46,116V109h1.5v7.1H46z"/>
		<path class="st1" d="M48.5,112.5c0-2.1,1.6-3.7,3.7-3.7c2.1,0,3.7,1.5,3.7,3.7s-1.6,3.7-3.7,3.7C50.1,116.2,48.5,114.6,48.5,112.5
			z M54.4,112.5c0-1.3-0.8-2.3-2.2-2.3c-1.3,0-2.1,1-2.1,2.3c0,1.3,0.8,2.3,2.1,2.3C53.5,114.8,54.4,113.8,54.4,112.5z"/>
		<path class="st1" d="M61.9,116l-3.4-4.6v4.6H57V109h1.5l3.3,4.4V109h1.5v7.1H61.9z"/>
	</g>
	<g class="st2">
		<path class="st1" d="M30.4,101.3V97h-9.9v-3.5l8.2-12.9h6.1v12.5h2.7V97h-2.7v4.3H30.4z M30.4,84.5l-5.6,8.6h5.6V84.5z"/>
		<path class="st1" d="M39.7,99.1c0-1.4,1.1-2.5,2.5-2.5s2.5,1.1,2.5,2.5c0,1.4-1.1,2.5-2.5,2.5S39.7,100.4,39.7,99.1z"/>
		<path class="st1" d="M46.8,98.3l2.3-2.9c1.4,1.5,3.7,2.4,5.7,2.4c2.5,0,3.9-1.1,3.9-2.6c0-1.6-1.3-2.4-4.2-2.4
			c-0.9,0-2.3,0-2.6,0.1v-4c0.4,0,1.8,0,2.6,0c2.3,0,3.8-0.7,3.8-2.2c0-1.6-1.7-2.4-3.8-2.4c-2,0-3.8,0.7-5.2,2.1l-2.2-2.8
			c1.7-1.9,4.3-3.3,7.9-3.3c4.8,0,7.8,2.2,7.8,5.6c0,2.6-2.2,4.3-4.5,4.7c2.1,0.2,4.8,1.9,4.8,5c0,3.6-3.2,6.1-8.2,6.1
			C51.2,101.6,48.4,100.2,46.8,98.3z"/>
	</g>
</g>
</svg>
