<?xml version="1.0" encoding="utf-8"?>
<!-- Generator: Adobe Illustrator 21.0.0, SVG Export Plug-In . SVG Version: 6.00 Build 0)  -->
<svg version="1.1" id="Capa_1" xmlns="http://www.w3.org/2000/svg" xmlns:xlink="http://www.w3.org/1999/xlink" x="0px" y="0px"
	 viewBox="0 0 151.3 151.3" style="enable-background:new 0 0 151.3 151.3;" xml:space="preserve">
<style type="text/css">
	.st0{clip-path:url(#SVGID_2_);fill:#2E37FE;}
	.st1{fill:none;stroke:#FFFFFF;stroke-width:2;stroke-linecap:round;stroke-linejoin:round;stroke-miterlimit:10;}
</style>
<g>
	<g>
		<defs>
			<path id="SVGID_1_" d="M4.2,75.8c0,39.7,32.2,71.9,71.9,71.9c39.7,0,71.9-32.2,71.9-71.9c0-39.7-32.2-71.9-71.9-71.9
				C36.4,3.9,4.2,36.1,4.2,75.8"/>
		</defs>
		<clipPath id="SVGID_2_">
			<use xlink:href="#SVGID_1_"  style="overflow:visible;"/>
		</clipPath>
		<rect x="4.2" y="3.9" class="st0" width="143.9" height="143.9"/>
	</g>
	<g>
		<polyline class="st1" points="62.3,67.3 49.9,62.6 89.9,47.2 130,62.6 89.9,77.9 73.6,71.7 		"/>
		<line class="st1" x1="59.9" y1="76" x2="59.9" y2="67.8"/>
		<path class="st1" d="M120,67.8v23.2c-18,8.5-38.8,8.9-57.1,1.3"/>
		<polyline class="st1" points="89.7,63 67,69.2 49.6,111.5 		"/>
		<circle class="st1" cx="47.7" cy="114.6" r="2.9"/>
		<line class="st1" x1="36.8" y1="46.3" x2="67" y2="46.3"/>
		<line class="st1" x1="20.9" y1="81.3" x2="51.1" y2="81.3"/>
		<line class="st1" x1="33.6" y1="68.5" x2="46.4" y2="68.5"/>
	</g>
</g>
</svg>
