<?xml version="1.0" encoding="utf-8"?>
<!-- Generator: Adobe Illustrator 21.0.0, SVG Export Plug-In . SVG Version: 6.00 Build 0)  -->
<svg version="1.1" id="Capa_1" xmlns="http://www.w3.org/2000/svg" xmlns:xlink="http://www.w3.org/1999/xlink" x="0px" y="0px"
	 viewBox="0 0 207 207" style="enable-background:new 0 0 207 207;" xml:space="preserve">
<style type="text/css">
	.st0{fill:none;stroke:url(#SVGID_1_);stroke-width:2;stroke-miterlimit:10;}
	.st1{fill:#E20613;}
	.st2{fill:#2E37FE;}
	.st3{enable-background:new    ;}
	.st4{fill:#FFFFFF;}
	.st5{fill:none;stroke:#FFFFFF;stroke-width:2;stroke-miterlimit:10;}
	.st6{fill:none;stroke:#FFFFFF;stroke-width:2.268;stroke-miterlimit:10;}
</style>
<g>
	
		<linearGradient id="SVGID_1_" gradientUnits="userSpaceOnUse" x1="5.3" y1="689.7" x2="201.3" y2="689.7" gradientTransform="matrix(1 0 0 1 0 -585.7)">
		<stop  offset="0" style="stop-color:#19EFFF"/>
		<stop  offset="0.9007" style="stop-color:#0096FF"/>
	</linearGradient>
	<circle class="st0" cx="103.3" cy="104" r="97"/>
	<polygon class="st1" points="37,100.5 37,134.8 78.9,134.8 78.9,100.5 92.5,100.5 57.7,70.9 22.9,100.5 	"/>
	<polygon class="st2" points="167.9,109.7 167.9,75.4 122.4,75.4 122.4,109.7 109.7,109.7 144.6,139.4 179.4,109.7 	"/>
	<g>
		<g class="st3">
			<path class="st2" d="M29.5,150.2v-9.3h4.4c2,0,3.1,1.4,3.1,3c0,1.6-1.1,3-3.1,3h-2.4v3.3H29.5z M35,143.9c0-0.8-0.6-1.3-1.4-1.3
				h-2.1v2.5h2.1C34.4,145.1,35,144.6,35,143.9z"/>
		</g>
		<g class="st3">
			<path class="st2" d="M43.8,150.2l-0.6-1.6h-4l-0.6,1.6h-2.3l3.6-9.3h2.5l3.6,9.3H43.8z M41.2,142.8l-1.5,4h2.9L41.2,142.8z"/>
		</g>
		<g class="st3">
			<path class="st2" d="M78.2,150.2v-7.6h-2.7v-1.8h7.5v1.8h-2.7v7.6H78.2z"/>
		</g>
		<g class="st3">
			<path class="st2" d="M47.8,150.2v-7.6h-2.7v-1.8h7.5v1.8h-2.7v7.6H47.8z"/>
			<path class="st2" d="M53.8,150.2v-9.3h2v9.3H53.8z"/>
			<path class="st2" d="M57.6,150.2v-9.3h6.6v1.8h-4.6v2h4.5v1.8h-4.5v2.1h4.6v1.8H57.6z"/>
			<path class="st2" d="M72.2,150.2l-4.5-6.1v6.1h-2v-9.3h2l4.3,5.9v-5.9h2v9.3H72.2z"/>
		</g>
		<g class="st3">
			<path class="st2" d="M83.3,148.9l1.1-1.5c0.7,0.7,1.7,1.3,3,1.3c1.1,0,1.6-0.5,1.6-1c0-1.7-5.4-0.5-5.4-4c0-1.6,1.3-2.8,3.5-2.8
				c1.5,0,2.7,0.4,3.6,1.3l-1.1,1.5c-0.8-0.7-1.8-1-2.7-1c-0.9,0-1.3,0.4-1.3,0.9c0,1.5,5.4,0.5,5.4,4c0,1.7-1.2,3-3.7,3
				C85.5,150.4,84.2,149.8,83.3,148.9z"/>
		</g>
	</g>
	<path class="st4" d="M68.7,109.2c-3.9-7-8-15.9-8-15.9c-1,4.5-6,13.4-8.2,17.2c-0.1,0.1-0.1,0.2-0.2,0.3c-0.5,0.9-0.9,1.5-0.9,1.5
		h0.2c-0.4,1.1-0.6,2.3-0.6,3.5c0,5.6,4.5,10.1,10.1,10.1s10.1-4.5,10.1-10.1C71.1,113.2,70.2,110.9,68.7,109.2"/>
	<g>
		<g class="st3">
			<path class="st2" d="M69,67v-9.3h4.4c2,0,3.1,1.4,3.1,3c0,1.6-1.1,3-3.1,3H71V67H69z M74.4,60.7c0-0.8-0.6-1.3-1.4-1.3H71v2.5
				h2.1C73.9,61.9,74.4,61.4,74.4,60.7z"/>
			<path class="st2" d="M83,67l-1.8-3.3h-1.5V67h-2v-9.3h4.4c1.9,0,3.1,1.3,3.1,3c0,1.7-1,2.5-2,2.8l2.1,3.6H83z M83.2,60.7
				c0-0.8-0.6-1.3-1.4-1.3h-2.1v2.5h2.1C82.6,61.9,83.2,61.5,83.2,60.7z"/>
			<path class="st2" d="M86.3,62.3c0-2.8,2.1-4.8,4.9-4.8c2.8,0,4.9,2,4.9,4.8c0,2.8-2.1,4.8-4.9,4.8C88.3,67.2,86.3,65.2,86.3,62.3
				z M94,62.3c0-1.8-1.1-3.1-2.8-3.1c-1.7,0-2.8,1.3-2.8,3.1c0,1.7,1.1,3.1,2.8,3.1C92.9,65.4,94,64.1,94,62.3z"/>
			<path class="st2" d="M97.4,67v-9.3h6.6v1.8h-4.6v2h4.5v1.8h-4.5V67H97.4z"/>
			<path class="st2" d="M105.4,67v-9.3h6.6v1.8h-4.6v2h4.5v1.8h-4.5v2.1h4.6V67H105.4z"/>
			<path class="st2" d="M112.9,65.7l1.1-1.5c0.7,0.7,1.7,1.3,3,1.3c1.1,0,1.6-0.5,1.6-1c0-1.7-5.4-0.5-5.4-4c0-1.6,1.3-2.8,3.5-2.8
				c1.5,0,2.7,0.4,3.6,1.3l-1.1,1.5c-0.8-0.7-1.8-1-2.7-1c-0.9,0-1.3,0.4-1.3,0.9c0,1.5,5.4,0.5,5.4,4c0,1.7-1.2,3-3.7,3
				C115.1,67.2,113.8,66.6,112.9,65.7z"/>
			<path class="st2" d="M121.3,65.7l1.1-1.5c0.7,0.7,1.7,1.3,3,1.3c1.1,0,1.6-0.5,1.6-1c0-1.7-5.4-0.5-5.4-4c0-1.6,1.3-2.8,3.5-2.8
				c1.5,0,2.7,0.4,3.6,1.3l-1.1,1.5c-0.8-0.7-1.8-1-2.7-1c-0.9,0-1.3,0.4-1.3,0.9c0,1.5,5.4,0.5,5.4,4c0,1.7-1.2,3-3.7,3
				C123.5,67.2,122.2,66.6,121.3,65.7z"/>
			<path class="st2" d="M130.4,67v-9.3h2V67H130.4z"/>
			<path class="st2" d="M133.8,62.3c0-2.8,2.1-4.8,4.9-4.8c2.8,0,4.9,2,4.9,4.8c0,2.8-2.1,4.8-4.9,4.8
				C135.8,67.2,133.8,65.2,133.8,62.3z M141.5,62.3c0-1.8-1.1-3.1-2.8-3.1c-1.7,0-2.8,1.3-2.8,3.1c0,1.7,1.1,3.1,2.8,3.1
				C140.4,65.4,141.5,64.1,141.5,62.3z"/>
			<path class="st2" d="M151.4,67l-4.5-6.1V67h-2v-9.3h2l4.3,5.9v-5.9h2V67H151.4z"/>
			<path class="st2" d="M161.6,67l-0.6-1.6h-4l-0.6,1.6h-2.3l3.6-9.3h2.5l3.6,9.3H161.6z M159,59.7l-1.5,4h2.9L159,59.7z"/>
			<path class="st2" d="M164.7,67v-9.3h2v7.6h4V67H164.7z"/>
			<path class="st2" d="M171.4,65.7l1.1-1.5c0.7,0.7,1.7,1.3,3,1.3c1.1,0,1.6-0.5,1.6-1c0-1.7-5.4-0.5-5.4-4c0-1.6,1.3-2.8,3.5-2.8
				c1.5,0,2.7,0.4,3.6,1.3l-1.1,1.5c-0.8-0.7-1.8-1-2.7-1c-0.9,0-1.3,0.4-1.3,0.9c0,1.5,5.4,0.5,5.4,4c0,1.7-1.2,3-3.7,3
				C173.6,67.2,172.3,66.6,171.4,65.7z"/>
		</g>
	</g>
	<path class="st1" d="M58.2,103.4c0,0-2.7,4-2.5,6.3c0.1,2.2,0.6,3.3,1.3,3.4s2.8-2.1,2.8-3.6C59.8,108,58.2,103.4,58.2,103.4"/>
	<path class="st4" d="M52.4,101c-1.8-3.3-3.7-7.4-3.7-7.4c-0.5,2.1-2.8,6.3-3.8,8c0,0,0-0.1-0.1-0.1c-0.3,0.4-0.4,0.5-0.4,0.5h0.1
		c-0.2,0-0.3,1.3-0.3,1.9c0,2.6,2.1,4.8,4.7,4.8c2.6,0,4.7-2,4.7-4.6C53.5,102.8,53.1,101.8,52.4,101"/>
	<path class="st1" d="M47.5,98.3c0,0-1.3,1.9-1.2,2.9s0.3,1.5,0.6,1.6s1.3-1,1.3-1.7C48.3,100.5,47.5,98.3,47.5,98.3"/>
	<circle class="st5" cx="134.6" cy="87.5" r="2.3"/>
	<circle class="st5" cx="145.6" cy="87.5" r="2.3"/>
	<path class="st5" d="M148,88.6c0,0,1.8,0.6,2.3,1.4c0.4,0.9,0.9,1,0.4,2.8c-2.8,11.7-6.5,13.5-10,13.5h-1.1c-3.4,0-7.1-1.8-10-13.5
		c-0.4-1.8,0-2.1,0.4-2.9c0.4-0.9,2.3-1.4,2.3-1.4"/>
	<path class="st6" d="M158.8,109.5c-1.3,6.1-4,9.1-9.4,9.1s-9.8-3.6-9.8-12"/>
</g>
</svg>
