<?xml version="1.0" encoding="utf-8"?>
<!-- Generator: Adobe Illustrator 21.0.0, SVG Export Plug-In . SVG Version: 6.00 Build 0)  -->
<svg version="1.1" id="Capa_1" xmlns="http://www.w3.org/2000/svg" xmlns:xlink="http://www.w3.org/1999/xlink" x="0px" y="0px"
	 viewBox="0 0 151.3 151.3" style="enable-background:new 0 0 151.3 151.3;" xml:space="preserve">
<style type="text/css">
	.st0{clip-path:url(#SVGID_2_);fill:#2E37FE;}
	.st1{fill:#FFFFFF;}
	.st2{fill:#2E37FE;}
</style>
<g>
	<g>
		<defs>
			<path id="SVGID_1_" d="M4.4,76.8c0,39.7,32.2,71.9,71.9,71.9s71.9-32.2,71.9-71.9c0-39.7-32.2-71.9-71.9-71.9S4.4,37.1,4.4,76.8"
				/>
		</defs>
		<clipPath id="SVGID_2_">
			<use xlink:href="#SVGID_1_"  style="overflow:visible;"/>
		</clipPath>
		<rect x="4.4" y="4.9" class="st0" width="143.9" height="143.9"/>
	</g>
	<g>
		<g>
			<path class="st1" d="M71.4,103.8l-2.6-5.6c-0.7-1.4-2.2-3-3.5-3.6c-1.5-0.9-5.3-3.4-6.3-4.7l-2.7-3.4c2.7-1.5,4.6-4.4,4.6-7.7
				v-0.1c2-0.4,3.5-2.2,3.5-4.3c0-2.1-1.5-3.9-3.5-4.3v-1.8v0v-2.6c0-5.3-4.4-9.7-9.7-9.7h-3.5c-5.3,0-9.6,4.4-9.6,9.7v4.5
				c-2,0.4-3.5,2.2-3.5,4.3c0,2.1,1.5,3.9,3.5,4.3v0.1c0,3.3,1.9,6.2,4.6,7.7l-2.7,3.4c-1,1.3-4.9,3.8-6.3,4.7
				c-1.3,0.6-2.8,2.1-3.5,3.6l-2.6,5.6c-0.1,0.3-0.1,0.6,0.1,0.8c0.2,0.3,0.4,0.4,0.7,0.4h42c0.3,0,0.6-0.1,0.7-0.4
				C71.5,104.3,71.5,104,71.4,103.8z M62.7,74.3c0,1.1-0.7,2.1-1.8,2.5v-4.9C62.1,72.2,62.7,73.2,62.7,74.3z M47.8,57.7h3.5
				c4.3,0,7.9,3.6,7.9,7.9v2c-0.7,0.1-1.2,0.1-1.7-0.2c-1.8-0.9-2.7-3.8-2.7-3.8c-0.1-0.3-0.3-0.5-0.7-0.6c-0.3-0.1-0.6,0-0.9,0.3
				c-2.5,3-6.2,4.1-8.8,4.6c-1.9,0.3-3.6,0.4-4.5,0.4v-2.7C39.9,61.2,43.4,57.7,47.8,57.7z M36.4,74.3c0-1.1,0.7-2.1,1.8-2.5v4.9
				C37.1,76.5,36.4,75.5,36.4,74.3z M39.9,78.7V70c0.2,0,0.3,0,0.5,0c2.8,0,8.9-0.5,13.2-4.6c0.5,1.2,1.5,2.8,3.1,3.5
				c0.8,0.4,1.6,0.5,2.5,0.4v9.4c0,3.9-3.2,7-7,7h-5.2C43.1,85.7,39.9,82.6,39.9,78.7z M29.9,103.2l2-4.3c0.5-1.1,1.7-2.3,2.7-2.7
				c0,0,0.1,0,0.1-0.1c0.5-0.3,5.4-3.3,6.8-5.2l3-3.8c0,0,0,0,0,0c0.8,0.2,1.6,0.3,2.5,0.3h5.2c0.9,0,1.7-0.1,2.5-0.3c0,0,0,0,0,0
				l3,3.8c1.4,1.8,6.3,4.8,6.8,5.2c0,0,0.1,0,0.1,0.1c0.9,0.4,2.2,1.7,2.7,2.7l2,4.3H29.9z"/>
			<polygon class="st1" points="56.6,92.7 54.8,92.7 54.8,96.2 51.3,96.2 51.3,98 54.8,98 54.8,101.5 56.6,101.5 56.6,98 60.1,98 
				60.1,96.2 56.6,96.2 			"/>
		</g>
		<path class="st1" d="M125,103.5l-2.9-5.1c-0.7-1.3-2.4-2.7-3.8-3.3c-1.6-0.8-5.9-3.1-7.1-4.4l-2.5-2.7c4-0.6,6.9-1.4,7.1-1.4
			c0.4-0.1,0.6-0.5,0.6-0.9c0-0.1-2.1-13.2-2.1-16.5c0-7.1-5.8-12.9-12.9-12.9s-12.9,5.8-12.9,12.9c0,3.2-2.9,16.3-2.9,16.4
			c-0.1,0.4,0.2,0.9,0.6,1c0.2,0,3.1,0.7,7,1.3l-2.6,2.8c-1.2,1.2-5.4,3.5-7.1,4.4c-1.4,0.5-3.1,2-3.8,3.3l-2.9,5.1
			c-0.1,0.2-0.1,0.5,0,0.8c0.1,0.2,0.4,0.4,0.7,0.4h46.8c0.3,0,0.5-0.1,0.7-0.4C125.1,104,125.1,103.7,125,103.5z M101.4,57.9
			c6.2,0,11.3,5.1,11.3,11.3c0,0.4,0,0.9,0.1,1.5c-6.3-2-6.2-4.3-6.2-4.5c0.1-0.4-0.1-0.7-0.4-0.9c-0.3-0.2-0.8-0.1-1,0.2
			c-5.7,7.1-14,6.3-15.2,6.2c0.1-1,0.2-1.9,0.2-2.4C90.1,63,95.2,57.9,101.4,57.9z M89.6,73.2c0.3,0,1.1,0.1,2.1,0.1
			c3.1,0,8.9-0.8,13.5-5.6c0.7,1.4,2.6,3.2,7.5,4.7c0.1,0,0.1,0,0.2,0c0.5,4.3,1.4,10.7,1.8,12.8c-1.9,0.5-7.2,1.7-13,1.7
			c-5.8,0-12.2-1.3-14.4-1.7C87.8,83.1,89,77.4,89.6,73.2z M78.9,103l2.2-3.9c0.6-1,1.9-2.2,3-2.5c0,0,0.1,0,0.1,0
			c0.6-0.3,6-3,7.6-4.7l3.3-3.5c0,0,0.1-0.1,0.1-0.2c2.1,0.2,4.4,0.4,6.6,0.4c1.7,0,3.5-0.1,5-0.3c0,0,0,0,0,0l3.3,3.5
			c1.6,1.7,6.9,4.4,7.6,4.7c0,0,0.1,0,0.1,0c1.1,0.4,2.5,1.5,3,2.5l2.2,3.9L78.9,103L78.9,103z"/>
		<g>
			<polygon class="st2" points="111,61.7 113.1,50.6 89.7,50.6 91.7,61.7 			"/>
			<path class="st1" d="M111,63.3h1.8c-0.1-0.2-0.2-0.5-0.4-0.7l2.4-12.6c0-0.2,0-0.5-0.2-0.7c-0.2-0.2-0.4-0.3-0.6-0.3H88.7
				c-0.2,0-0.5,0.1-0.6,0.3c-0.2,0.2-0.2,0.4-0.2,0.7l2.4,12.6c-0.1,0.2-0.2,0.5-0.4,0.7h1.8H111z M89.7,50.6h23.4L111,61.7H91.7
				L89.7,50.6z"/>
		</g>
		<polygon class="st1" points="100.6,60.1 102.2,60.1 102.2,56.9 105.3,56.9 105.3,55.3 102.2,55.3 102.2,52.2 100.6,52.2 
			100.6,55.3 97.4,55.3 97.4,56.9 100.6,56.9 		"/>
	</g>
</g>
</svg>
