<?xml version="1.0" encoding="utf-8"?>
<!-- Generator: Adobe Illustrator 21.0.0, SVG Export Plug-In . SVG Version: 6.00 Build 0)  -->
<svg version="1.1" id="Capa_1" xmlns="http://www.w3.org/2000/svg" xmlns:xlink="http://www.w3.org/1999/xlink" x="0px" y="0px"
	 viewBox="0 0 207 207" style="enable-background:new 0 0 207 207;" xml:space="preserve">
<style type="text/css">
	.st0{fill:none;stroke:url(#SVGID_1_);stroke-width:2;stroke-miterlimit:10;}
	.st1{fill:#FFFFFF;}
	.st2{fill:none;stroke:#2E37FE;stroke-width:0.75;stroke-miterlimit:10;}
	.st3{fill:#0096FF;}
	.st4{fill:#2E37FE;}
	.st5{fill:#231F20;}
	.st6{fill:none;stroke:#161BFF;stroke-width:0.75;stroke-miterlimit:10;}
	.st7{fill:none;stroke:#2E37FE;stroke-miterlimit:10;}
	.st8{font-family:'ProximaNova-Bold';}
	.st9{font-size:12.2126px;}
</style>
<g>
	<linearGradient id="SVGID_1_" gradientUnits="userSpaceOnUse" x1="6.4976" y1="103.5337" x2="202.4116" y2="103.5337">
		<stop  offset="0" style="stop-color:#19EFFF"/>
		<stop  offset="0.9007" style="stop-color:#0096FF"/>
	</linearGradient>
	<circle class="st0" cx="104.5" cy="103.5" r="97"/>
	<path class="st1" d="M104.5,103H47.8c0-31.3,25.4-56.7,56.7-56.7V103z"/>
	<path class="st2" d="M104.5,103H47.8c0-31.3,25.4-56.7,56.7-56.7V103z"/>
	<path class="st3" d="M104.5,103l40.1,40.1c-22.1,22.1-58,22.1-80.2,0C53.3,132,47.8,118.6,47.8,103H104.5z"/>
	<path class="st4" d="M104.5,103l40.1,40.1c-22.1,22.1-58,22.1-80.2,0C53.3,132,47.8,118.6,47.8,103H104.5z"/>
	<path class="st5" d="M104.5,103V46.3c31.3,0,56.7,25.4,56.7,56.7c0,15.7-5.5,29-16.6,40.1L104.5,103z"/>
	<path class="st6" d="M104.5,103V46.3c31.3,0,56.7,25.4,56.7,56.7c0,15.7-5.5,29-16.6,40.1L104.5,103z"/>
	<path class="st1" d="M153.4,103c0,26.9-21.8,48.8-48.8,48.8S55.9,129.9,55.9,103s21.8-48.8,48.8-48.8S153.4,76,153.4,103"/>
	<path class="st7" d="M139.1,137.4c-8.8,8.8-21,14.3-34.5,14.3c-26.9,0-48.8-21.8-48.8-48.8"/>
	<path class="st2" d="M55.9,103c0-26.9,21.8-48.8,48.8-48.8S153.4,76,153.4,103c0,14-5.9,26.7-15.4,35.6"/>
	<g>
		<path class="st5" d="M118.5,132c-1.1-0.4-2-1.1-2.3-2.3c-0.1-0.3-0.1-0.6-0.1-0.9c0-1.9,0-3.7,0-5.7h-0.7c-2,0-4,0-6,0
			c-1.8,0-3.1-1.3-3.1-2.9c0-1.7,1.3-2.9,3.1-3c2.2,0,4.4,0,6.7,0v-7.1c-2.1-0.3-4.1-0.9-5.9-1.8c-6.8-3.5-10.9-9-11.6-16.7
			c-1-10.6,6-20,16.4-22.2c0.9-0.2,1.8-0.3,2.7-0.4h3c1.5,0.3,3,0.4,4.4,0.9c8.2,2.7,13.2,8.3,14.5,16.8c1.7,11-5.4,20.9-16.3,23.2
			c-0.3,0.1-0.7,0.1-1.1,0.2v7.1h0.7c2,0,4.1,0,6.1,0c1.7,0,3,1.3,3,2.9c0,1.7-1.3,2.9-3,3c-2.2,0-4.5,0-6.8,0v0.7
			c0,1.5-0.1,3,0,4.5c0.1,1.8-0.6,3.1-2.4,3.7H118.5z M104.3,89.6c0,8.1,6.6,14.8,14.8,14.8c8,0,14.7-6.6,14.8-14.6
			c0-8.2-6.5-14.9-14.7-14.9C111,74.9,104.4,81.5,104.3,89.6"/>
		<path class="st4" d="M87.6,143.1c-1.1-0.4-2-1.1-2.3-2.3c-0.1-0.3-0.1-0.6-0.1-0.9c0-1.9,0-3.7,0-5.7h-0.7c-2,0-4,0-6,0
			c-1.8,0-3.1-1.3-3.1-2.9c0-1.7,1.3-2.9,3.1-3c2.2,0,4.4,0,6.7,0v-7.1c-2.1-0.3-4.1-0.9-5.9-1.8c-6.8-3.5-10.9-9-11.6-16.7
			c-1-10.6,6-20,16.4-22.2c0.9-0.2,1.8-0.3,2.7-0.4h3c1.5,0.3,3,0.4,4.4,0.9c8.2,2.7,13.2,8.3,14.5,16.8c1.7,11-5.4,20.9-16.3,23.2
			c-0.3,0.1-0.7,0.1-1.1,0.2v7.1h0.7c2,0,4.1,0,6.1,0c1.7,0,3,1.3,3,2.9c0,1.7-1.3,2.9-3,3c-2.2,0-4.5,0-6.8,0v0.7
			c0,1.5-0.1,3,0,4.5c0.1,1.8-0.6,3.1-2.4,3.7H87.6z M73.4,100.7c0,8.1,6.6,14.8,14.8,14.8c8,0,14.7-6.6,14.8-14.6
			c0-8.2-6.5-14.9-14.7-14.9C80.1,86,73.5,92.5,73.4,100.7"/>
	</g>
	<text transform="matrix(1 0 0 1 76.6494 105.7057)" class="st4 st8 st9">50+</text>
</g>
</svg>
