<?xml version="1.0" encoding="utf-8"?>
<!-- Generator: Adobe Illustrator 21.0.0, SVG Export Plug-In . SVG Version: 6.00 Build 0)  -->
<svg version="1.1" id="Capa_1" xmlns="http://www.w3.org/2000/svg" xmlns:xlink="http://www.w3.org/1999/xlink" x="0px" y="0px"
	 viewBox="0 0 155 155" style="enable-background:new 0 0 155 155;" xml:space="preserve">
<style type="text/css">
	.st0{fill:none;stroke:url(#SVGID_1_);stroke-width:2;stroke-miterlimit:10;}
	.st1{fill:#2E37FE;}
</style>
<g>
	<linearGradient id="SVGID_1_" gradientUnits="userSpaceOnUse" x1="4.0815" y1="77.0347" x2="149.9386" y2="77.0347">
		<stop  offset="0" style="stop-color:#19EFFF"/>
		<stop  offset="0.9007" style="stop-color:#0096FF"/>
	</linearGradient>
	<circle class="st0" cx="77" cy="77" r="71.9"/>
	<path class="st1" d="M102.4,66.3H87.7V51.7c0-2.2-1.8-4-4-4H70.3c-2.2,0-4,1.8-4,4v14.7H51.6c-2.2,0-4,1.8-4,4v13.4
		c0,2.2,1.8,4,4,4h14.7v14.7c0,2.2,1.8,4,4,4h13.4c2.2,0,4-1.8,4-4V87.7h14.7c2.2,0,4-1.8,4-4V70.4
		C106.4,68.1,104.6,66.3,102.4,66.3z"/>
</g>
</svg>
