<?xml version="1.0" encoding="utf-8"?>
<!-- Generator: Adobe Illustrator 21.0.0, SVG Export Plug-In . SVG Version: 6.00 Build 0)  -->
<svg version="1.1" id="Capa_1" xmlns="http://www.w3.org/2000/svg" xmlns:xlink="http://www.w3.org/1999/xlink" x="0px" y="0px"
	 viewBox="0 0 155 155" style="enable-background:new 0 0 155 155;" xml:space="preserve">
<style type="text/css">
	.st0{fill:none;stroke:url(#SVGID_1_);stroke-width:2;stroke-miterlimit:10;}
	.st1{fill:#2E37FE;}
</style>
<g>
	<linearGradient id="SVGID_1_" gradientUnits="userSpaceOnUse" x1="4.7712" y1="78.0347" x2="150.6284" y2="78.0347">
		<stop  offset="0" style="stop-color:#19EFFF"/>
		<stop  offset="0.9007" style="stop-color:#0096FF"/>
	</linearGradient>
	<circle class="st0" cx="77.7" cy="78" r="71.9"/>
	<g>
		<g>
			<path class="st1" d="M85.2,57.2c-1.4-3.2-4.3-5.3-7.7-5.3c-3.4,0-6.3,2.2-7.7,5.3c2.5,0.1,5.1,0.2,7.7,0.2
				C80.2,57.4,82.7,57.3,85.2,57.2z"/>
		</g>
		<g>
			<path class="st1" d="M109.2,101.4H45.8c-5,0-9-4.6-9-10.2v-1.4h-1.5v5.4c0,4.9,3.6,9,7.9,9h68.5c4.3,0,7.9-4,7.9-9v-5.4h-1.5v1.4
				C118.2,96.9,114.2,101.4,109.2,101.4z"/>
			<path class="st1" d="M119.7,65.3c0-4.9-3.6-9-7.9-9h-1c-8.4,2.2-20.2,3.6-33.3,3.6s-24.9-1.4-33.3-3.6h-1c-4.3,0-7.9,4-7.9,9v5.4
				H37c0.9-4.6,4.5-8,8.8-8h63.4c4.3,0,7.9,3.4,8.8,8h1.7V65.3z"/>
			<path class="st1" d="M41.2,89.8h-2.9v1.4c0,4.7,3.4,8.6,7.6,8.6h63.4c4.2,0,7.6-3.8,7.6-8.6v-1.4h-2.9V70.7h2.6
				c-0.9-3.7-3.8-6.4-7.3-6.4H45.8c-3.5,0-6.5,2.7-7.3,6.4h2.6V89.8z"/>
		</g>
		<polygon class="st1" points="38.7,87.6 29.7,86 29.7,74.6 38.7,72.9 		"/>
		<polygon class="st1" points="125.7,86 116.7,87.6 116.7,72.9 125.7,74.6 		"/>
	</g>
</g>
</svg>
