<?xml version="1.0" encoding="utf-8"?>
<!-- Generator: Adobe Illustrator 21.0.0, SVG Export Plug-In . SVG Version: 6.00 Build 0)  -->
<svg version="1.1" id="Capa_1" xmlns="http://www.w3.org/2000/svg" xmlns:xlink="http://www.w3.org/1999/xlink" x="0px" y="0px"
	 viewBox="0 0 155 155" style="enable-background:new 0 0 155 155;" xml:space="preserve">
<style type="text/css">
	.st0{fill:none;stroke:url(#SVGID_1_);stroke-width:2;stroke-miterlimit:10;}
	.st1{fill:#2E37FE;}
</style>
<g>
	<linearGradient id="SVGID_1_" gradientUnits="userSpaceOnUse" x1="4.5374" y1="77.0347" x2="150.3945" y2="77.0347">
		<stop  offset="0" style="stop-color:#19EFFF"/>
		<stop  offset="0.9007" style="stop-color:#0096FF"/>
	</linearGradient>
	<circle class="st0" cx="77.5" cy="77" r="71.9"/>
	<g>
		<g>
			<g>
				<path class="st1" d="M72.7,63.9c3.4,0,6.2,2.8,6.2,6.2c0,3.4-2.8,6.2-6.2,6.2c-3.4,0-6.2-2.8-6.2-6.2
					C66.5,66.7,69.3,63.9,72.7,63.9L72.7,63.9z M72.7,63.9"/>
				<path class="st1" d="M49.6,100c0.3,3.3,3.2,4.6,8.1,3.9c4.7-0.7,7,1.4,7.6,4c0,0,0.2,1.4,0.3,2.9c0.1,1.2,1,2.1,2.2,2.1h28.7
					c1.2,0,2.2-1,2.2-2.2v-7.9c0-3.9,0.4-9.7,3.2-12.8c7.8-8.6,12.1-19.8,7.7-31.1c-5-13.1-19.1-19-32.5-17.3
					c-4.9,0.6-9.6,2.3-13.7,5c-7.5,5-12.8,13.2-13.5,22.2c-0.2,2.6,1,5.8,0.4,8.3c-0.1,0.5-0.8,2.9-6,8c-1.2,1.2-0.6,3.3,1.1,3.7
					c2.3,0.5,3.9,0.8,4.1,1C49.4,89.8,49.5,98.9,49.6,100L49.6,100z M84.9,62.3l0.4-0.9c-0.3-0.5-0.5-1.1-0.7-1.7l-0.9-0.4
					c-0.3-0.1-0.5-0.4-0.5-0.7v-2c0-0.3,0.2-0.6,0.5-0.7l0.9-0.4c0.2-0.6,0.4-1.1,0.7-1.7l-0.4-0.9c-0.1-0.3-0.1-0.6,0.2-0.9
					l1.4-1.4c0.2-0.2,0.6-0.3,0.9-0.2l0.9,0.4c0.5-0.3,1.1-0.5,1.7-0.7l0.4-0.9c0.1-0.3,0.4-0.5,0.7-0.5h2c0.3,0,0.6,0.2,0.7,0.5
					l0.4,0.9c0.6,0.2,1.1,0.4,1.7,0.7l0.9-0.4c0.3-0.1,0.6-0.1,0.9,0.2l0.7,0.7l0.7,0.7c0.2,0.2,0.3,0.6,0.2,0.9l-0.4,0.9
					c0.3,0.5,0.5,1.1,0.7,1.7l0.9,0.4c0.3,0.1,0.5,0.4,0.5,0.7v2c0,0.3-0.2,0.6-0.5,0.7l-0.9,0.4c-0.2,0.6-0.4,1.1-0.7,1.7l0.4,0.9
					c0.1,0.3,0.1,0.6-0.2,0.9l-1.4,1.4c-0.2,0.2-0.6,0.3-0.9,0.2l-0.9-0.4c-0.5,0.3-1.1,0.5-1.7,0.7l-0.4,0.9
					c-0.1,0.3-0.4,0.5-0.7,0.5h-2c-0.3,0-0.6-0.2-0.7-0.5L89.8,65c-0.6-0.2-1.1-0.4-1.7-0.7l-0.9,0.4c-0.3,0.1-0.6,0.1-0.9-0.2
					l-0.7-0.7L85,63.1C84.8,62.9,84.7,62.6,84.9,62.3L84.9,62.3z M60.8,68.8c0-0.4,0.3-0.8,0.7-1l1.2-0.5c0.2-0.8,0.5-1.6,0.9-2.3
					l-0.5-1.2c-0.2-0.4-0.1-0.9,0.2-1.2l1.9-1.9c0.3-0.3,0.8-0.4,1.2-0.2l1.2,0.5c0.7-0.4,1.5-0.7,2.3-0.9l0.5-1.2
					c0.2-0.4,0.6-0.7,1-0.7H74c0.4,0,0.8,0.3,1,0.7l0.5,1.2c0.8,0.2,1.6,0.5,2.3,0.9l1.2-0.5c0.4-0.2,0.9-0.1,1.2,0.2l1,1l1,1
					c0.3,0.3,0.4,0.8,0.2,1.2L81.9,65c0.4,0.7,0.7,1.5,0.9,2.3l1.2,0.5c0.4,0.2,0.7,0.6,0.7,1v2.7c0,0.4-0.3,0.8-0.7,1L82.8,73
					c-0.2,0.8-0.5,1.6-0.9,2.3l0.5,1.2c0.2,0.4,0.1,0.9-0.2,1.2l-1,1l-1,1c-0.3,0.3-0.8,0.4-1.2,0.2l-1.2-0.5
					c-0.7,0.4-1.5,0.7-2.3,0.9l-0.5,1.2c-0.2,0.4-0.6,0.7-1,0.7h-2.7c-0.4,0-0.8-0.3-1-0.7l-0.5-1.2c-0.8-0.2-1.6-0.5-2.3-0.9
					l-1.2,0.5c-0.4,0.2-0.9,0.1-1.2-0.2l-1-1l-1-1c-0.3-0.3-0.4-0.8-0.2-1.2l0.5-1.2c-0.4-0.7-0.7-1.5-0.9-2.3l-1.2-0.5
					c-0.4-0.2-0.7-0.6-0.7-1v-1.3L60.8,68.8z M60.8,68.8"/>
			</g>
			<path class="st1" d="M91.9,53.1c2.5,0,4.5,2,4.5,4.5c0,2.5-2,4.5-4.5,4.5c-2.5,0-4.5-2-4.5-4.5C87.3,55.2,89.4,53.1,91.9,53.1
				L91.9,53.1z M91.9,53.1"/>
		</g>
	</g>
</g>
</svg>
