<?xml version="1.0" encoding="utf-8"?>
<!-- Generator: Adobe Illustrator 20.1.0, SVG Export Plug-In . SVG Version: 6.00 Build 0)  -->
<svg version="1.1" id="Capa_1" xmlns="http://www.w3.org/2000/svg" xmlns:xlink="http://www.w3.org/1999/xlink" x="0px" y="0px"
	 viewBox="0 0 70 83" style="enable-background:new 0 0 70 83;" xml:space="preserve">
<style type="text/css">
	.st0{fill:#FFFFFF;}
</style>
<g>
	<path class="st0" d="M16.5,26.4h-2.6v17.4h0v18.3c0,1.4,1.1,2.5,2.5,2.5h5.4v11.3c0,2.5,2,4.5,4.5,4.5c2.5,0,4.5-2,4.5-4.5V64.6
		h8.4v11.3c0,2.5,2,4.5,4.5,4.5c2.5,0,4.5-2,4.5-4.5V64.6h5.4c1.4,0,2.5-1.1,2.5-2.5V43.8h0V26.4h-2.6H16.5z"/>
	<path class="st0" d="M63.1,24.9c-2.5,0-4.5,2-4.5,4.5v20.3c0,2.5,2,4.5,4.5,4.5c2.5,0,4.5-2,4.5-4.5V29.4
		C67.6,26.9,65.6,24.9,63.1,24.9z"/>
	<path class="st0" d="M7.2,24.9c-2.5,0-4.5,2-4.5,4.5v20.3c0,2.5,2,4.5,4.5,4.5c2.5,0,4.5-2,4.5-4.5V29.4
		C11.7,26.9,9.7,24.9,7.2,24.9z"/>
	<path class="st0" d="M45.3,8L49,2.9c0.1-0.1,0-0.3-0.2-0.5c-0.2-0.1-0.4-0.2-0.5-0.1l-3.7,5.3c-2.5-1-5.6-1.6-9.3-1.6
		c-3.8,0-6.9,0.6-9.4,1.6L22,2.3c-0.1-0.1-0.3-0.1-0.5,0.1c-0.2,0.1-0.3,0.4-0.2,0.5l3.6,5.1c-10.4,4.6-10.8,15.9-10.8,15.9h42
		C56.1,23.9,55.7,12.6,45.3,8z M25.9,17.2c-1.4,0-2.5-1.1-2.5-2.5c0-1.4,1.1-2.5,2.5-2.5c1.4,0,2.5,1.1,2.5,2.5
		C28.4,16.1,27.3,17.2,25.9,17.2z M44.3,17.2c-1.4,0-2.5-1.1-2.5-2.5c0-1.4,1.1-2.5,2.5-2.5c1.4,0,2.5,1.1,2.5,2.5
		C46.9,16.1,45.7,17.2,44.3,17.2z"/>
</g>
</svg>
