<?xml version="1.0" encoding="utf-8"?>
<!-- Generator: Adobe Illustrator 20.1.0, SVG Export Plug-In . SVG Version: 6.00 Build 0)  -->
<svg version="1.1" id="Capa_1" xmlns="http://www.w3.org/2000/svg" xmlns:xlink="http://www.w3.org/1999/xlink" x="0px" y="0px"
	 viewBox="0 0 70 70" style="enable-background:new 0 0 70 70;" xml:space="preserve">
<style type="text/css">
	.st0{fill-rule:evenodd;clip-rule:evenodd;fill:#FFFFFF;}
</style>
<g>
	<path class="st0" d="M63.1,50.2c-1.5,3.4-2.3,4.9-4.3,8c-2.8,4.2-6.7,9.5-11.5,9.5c-4.3,0-5.4-2.8-11.2-2.8s-7.1,2.8-11.4,2.8
		c-4.8,0-8.5-4.8-11.3-9C5.7,46.9,4.9,33,9.7,25.7c3.4-5.2,8.8-8.3,13.8-8.3c5.1,0,8.4,2.8,12.6,2.8c4.1,0,6.6-2.8,12.5-2.8
		c4.5,0,9.2,2.4,12.6,6.7C50.1,30.1,51.9,45.9,63.1,50.2"/>
	<path class="st0" d="M44.1,12.7C46.2,9.9,47.9,6,47.3,2c-3.5,0.2-7.6,2.5-10,5.4c-2.2,2.6-4,6.6-3.3,10.4
		C37.8,17.9,41.8,15.6,44.1,12.7"/>
</g>
</svg>
