<?xml version="1.0" encoding="utf-8"?>
<!-- Generator: Adobe Illustrator 20.1.0, SVG Export Plug-In . SVG Version: 6.00 Build 0)  -->
<svg version="1.1" id="Capa_1" xmlns="http://www.w3.org/2000/svg" xmlns:xlink="http://www.w3.org/1999/xlink" x="0px" y="0px"
	 viewBox="0 0 158 140.3" style="enable-background:new 0 0 158 140.3;" xml:space="preserve">
<style type="text/css">
	.st0{fill:#3333FF;}
</style>
<title>Mesa de trabajo 1</title>
<path class="st0" d="M113.3,2.1L50.7,72.8c-0.2,0.2-0.2,0.5,0,0.6c0.2,0.2,0.5,0.2,0.6,0l32.6-26.1c0.1-0.1,0.3-0.2,0.5-0.2
	l45.9-0.5c0.1,0,0.3,0.1,0.3,0.2c0,0.1,0,0.2-0.1,0.2L91.7,85.8c0,0-0.1,0.1-0.2,0.1H41.3c-0.1,0-0.2-0.1-0.2-0.2l-13.8-43
	c0-0.1,0-0.2,0.1-0.3L65.8,1.7c0.1-0.1,0.1-0.1,0.2-0.1h47.1c0.1,0,0.3,0.1,0.3,0.2C113.4,2,113.4,2.1,113.3,2.1z"/>
<path class="st0" d="M99.5,83.2h-0.9v-0.4h2.3v0.4h-0.9v2.5h-0.4L99.5,83.2z M101.5,82.8h0.4l1,1.6l1-1.6h0.4v2.9H104v-2.2l-1,1.5
	l0,0l-1-1.6v2.2h-0.4L101.5,82.8z"/>
<path class="st0" d="M1.2,123L1.2,123c0-8.2,6-14.9,14.5-14.9c4.2-0.1,8.2,1.5,11.1,4.5l-2.2,2.3c-2.3-2.5-5.6-3.9-9-3.9
	c-6.3,0-11.1,5.2-11.1,11.7v0.1c0,6.6,4.8,11.8,11.1,11.8c3.9,0,6.5-1.5,9.2-4.1l2.1,2.1c-3,3-6.2,5-11.4,5
	C7.3,137.6,1.2,131.2,1.2,123z"/>
<path class="st0" d="M44.9,108.6h20.7v2.9H48.1v9.8h15.6v2.9H48.1v10h17.6v2.9H44.9V108.6z"/>
<path class="st0" d="M84.5,108.6h20.7v2.9H87.7v9.8h15.6v2.9H87.7v10h17.6v2.9H84.5V108.6z"/>
<path class="st0" d="M124.1,108.6h3.2v17.1l16.4-17.1h4.2l-12.2,12.5l12.8,16.1h-4l-11-13.8l-6.1,6.2v7.7h-3.2L124.1,108.6z"/>
<path class="st0" d="M150.3,111.7L150.3,111.7c0-1.7,1.4-3.1,3.1-3.1c1.7,0,3.1,1.4,3.1,3.1l0,0c0,1.7-1.4,3.1-3.1,3.1
	C151.7,114.9,150.3,113.5,150.3,111.7z M156.3,111.7L156.3,111.7c0.1-1.6-1.1-2.9-2.7-3c-1.6-0.1-2.9,1.1-3,2.7c0,0.1,0,0.2,0,0.3
	l0,0c-0.1,1.6,1.1,2.9,2.7,3c1.6,0.1,2.9-1.1,3-2.7C156.3,112,156.3,111.9,156.3,111.7z M152.2,110h1.4c0.3,0,0.7,0.1,0.9,0.3
	c0.2,0.2,0.3,0.4,0.3,0.6l0,0c0,0.5-0.4,0.9-0.8,0.9l1,1.3h-0.6l-0.9-1.2h-0.8v1.2h-0.5L152.2,110z M153.6,111.6
	c0.4,0,0.8-0.2,0.8-0.6l0,0c0-0.3-0.3-0.6-0.7-0.6h-0.9v1.1L153.6,111.6z"/>
</svg>
