<?xml version="1.0" encoding="utf-8"?>
<!-- Generator: Adobe Illustrator 20.1.0, SVG Export Plug-In . SVG Version: 6.00 Build 0)  -->
<svg version="1.1" id="Capa_1" xmlns="http://www.w3.org/2000/svg" xmlns:xlink="http://www.w3.org/1999/xlink" x="0px" y="0px"
	 viewBox="0 0 130 130" style="enable-background:new 0 0 130 130;" xml:space="preserve">
<style type="text/css">
	.st0{fill:#2E37FE;}
	.st1{fill:#999999;}
</style>
<g>
	<path class="st0" d="M92.7,0.3L42.6,56.8c-0.3,0.3,0.2,0.8,0.5,0.5l26.1-20.9c0.1-0.1,0.2-0.1,0.4-0.2l36.7-0.4
		c0.2,0,0.3,0.2,0.1,0.4l-31.1,31c0,0-0.1,0.1-0.1,0.1l-40.2,0c-0.1,0-0.2-0.1-0.2-0.1L23.9,32.8c0-0.1,0-0.2,0-0.2L54.7,0
		c0,0,0.1-0.1,0.1-0.1l37.7,0C92.7-0.1,92.8,0.1,92.7,0.3z"/>
	<g>
		<path class="st0" d="M81.6,65.2h-0.8v-0.3h1.8v0.3H82v2h-0.3V65.2z M83.3,64.8h0.4l0.8,1.3l0.8-1.3h0.4v2.3h-0.3v-1.8l-0.8,1.3h0
			l-0.8-1.3v1.8h-0.3V64.8z"/>
	</g>
	<g>
		<path class="st0" d="M3,97L3,97c0-6.5,4.8-11.9,11.6-11.9c4.2,0,6.6,1.5,8.9,3.6l-1.8,1.9c-1.9-1.8-4.1-3.1-7.2-3.1
			c-5.1,0-8.9,4.1-8.9,9.4v0.1c0,5.3,3.8,9.4,8.9,9.4c3.1,0,5.2-1.2,7.4-3.3l1.7,1.7c-2.4,2.4-5,4-9.2,4C7.9,108.8,3,103.6,3,97z"/>
		<path class="st0" d="M38,85.5h16.5v2.4h-14v7.8H53V98H40.5v8h14.1v2.4H38V85.5z"/>
		<path class="st0" d="M69.7,85.5h16.5v2.4h-14v7.8h12.5V98H72.2v8h14.1v2.4H69.7V85.5z"/>
		<path class="st0" d="M101.4,85.5h2.6v13.7l13.1-13.7h3.3l-9.8,10l10.2,12.9h-3.2l-8.8-11.1l-4.9,4.9v6.1h-2.6V85.5z"/>
		<path class="st0" d="M122.3,88L122.3,88c0-1.4,1.1-2.5,2.5-2.5s2.5,1.1,2.5,2.5v0c0,1.4-1.1,2.5-2.5,2.5
			C123.4,90.5,122.3,89.4,122.3,88z M127.1,88L127.1,88c0-1.3-1-2.3-2.3-2.3c-1.3,0-2.3,1-2.3,2.3v0c0,1.2,1,2.3,2.3,2.3
			C126.1,90.3,127.1,89.3,127.1,88z M123.8,86.7h1.1c0.3,0,0.6,0.1,0.8,0.3c0.1,0.1,0.2,0.3,0.2,0.5v0c0,0.4-0.3,0.7-0.7,0.8l0.8,1
			h-0.5l-0.7-1h0h-0.6v1h-0.4V86.7z M125,87.9c0.4,0,0.6-0.2,0.6-0.5v0c0-0.3-0.2-0.4-0.6-0.4h-0.8v0.9H125z"/>
	</g>
	<g>
		<path class="st1" d="M20.6,117.9h1l4.2,9.2h-1.1l-1.1-2.4h-5l-1.1,2.4h-1.1L20.6,117.9z M23.2,123.8l-2.1-4.7l-2.1,4.7H23.2z"/>
		<path class="st1" d="M30.7,118h1l5.8,7.3V118h1v9.2h-0.8l-5.9-7.5v7.5h-1V118z"/>
		<path class="st1" d="M43.5,126.4c0.9,0,1.6-0.4,2.1-1l0.6,0.6c-0.7,0.8-1.5,1.3-2.8,1.3c-1.9,0-3.4-1.4-3.4-3.5
			c0-2,1.4-3.5,3.2-3.5c2,0,3.2,1.6,3.2,3.6c0,0.1,0,0.2,0,0.4h-5.4C41.2,125.6,42.3,126.4,43.5,126.4z M45.4,123.4
			c-0.1-1.2-0.8-2.3-2.2-2.3c-1.2,0-2.1,1-2.2,2.3H45.4z"/>
		<path class="st1" d="M47.3,120.4h1.1l1.8,5.4l1.8-5.5h0.8l1.8,5.5l1.8-5.4h1l-2.4,6.8h-0.9l-1.8-5.3l-1.8,5.3h-0.9L47.3,120.4z"/>
		<path class="st1" d="M62.4,118h3.9c1.1,0,2,0.3,2.6,0.9c0.4,0.4,0.7,1.1,0.7,1.8v0c0,1.5-1,2.4-2.5,2.7l2.8,3.7h-1.3l-2.7-3.6h0
			h-2.6v3.6h-1V118z M66.2,122.7c1.4,0,2.4-0.7,2.4-1.9v0c0-1.1-0.9-1.8-2.3-1.8h-2.8v3.7H66.2z"/>
		<path class="st1" d="M74.3,126.4c0.9,0,1.6-0.4,2.1-1L77,126c-0.7,0.8-1.5,1.3-2.8,1.3c-1.9,0-3.4-1.4-3.4-3.5
			c0-2,1.4-3.5,3.2-3.5c2,0,3.2,1.6,3.2,3.6c0,0.1,0,0.2,0,0.4h-5.4C72,125.6,73.1,126.4,74.3,126.4z M76.2,123.4
			c-0.1-1.2-0.8-2.3-2.2-2.3c-1.2,0-2.1,1-2.2,2.3H76.2z"/>
		<path class="st1" d="M78.1,125.2L78.1,125.2c0-1.5,1.2-2.2,2.9-2.2c0.9,0,1.5,0.1,2.1,0.3V123c0-1.2-0.7-1.8-2-1.8
			c-0.8,0-1.4,0.2-2.1,0.5l-0.3-0.8c0.7-0.3,1.5-0.6,2.5-0.6c1,0,1.7,0.3,2.2,0.7c0.5,0.5,0.7,1.1,0.7,2v4.1h-1v-1
			c-0.5,0.6-1.2,1.2-2.4,1.2C79.4,127.3,78.1,126.6,78.1,125.2z M83.1,124.7V124c-0.5-0.1-1.2-0.3-2-0.3c-1.3,0-2,0.5-2,1.4v0
			c0,0.9,0.8,1.3,1.7,1.3C82.1,126.5,83.1,125.7,83.1,124.7z"/>
		<path class="st1" d="M85.9,117.6h1v9.5h-1V117.6z"/>
		<path class="st1" d="M88.9,117.8H90v1.1h-1.2V117.8z M89,120.4h1v6.8h-1V120.4z"/>
		<path class="st1" d="M92.3,125.3v-4.1h-0.9v-0.9h0.9v-2h1v2h2.1v0.9h-2.1v3.9c0,0.8,0.5,1.1,1.1,1.1c0.3,0,0.6-0.1,1-0.2v0.9
			c-0.4,0.2-0.7,0.3-1.2,0.3C93.1,127.3,92.3,126.7,92.3,125.3z"/>
		<path class="st1" d="M96.4,128.9l0.3-0.8c0.3,0.2,0.6,0.2,1.1,0.2c0.6,0,1-0.3,1.4-1.3l-3.1-6.7h1.1l2.5,5.6l2.2-5.6h1.1l-2.8,7
			c-0.6,1.4-1.2,1.9-2.2,1.9C97.3,129.3,96.9,129.2,96.4,128.9z"/>
		<path class="st1" d="M104,117.8h-0.8v-0.3h1.8v0.3h-0.8v2H104V117.8z M105.6,117.4h0.4l0.8,1.3l0.8-1.3h0.4v2.3h-0.3V118l-0.8,1.3
			h0l-0.8-1.3v1.8h-0.3V117.4z"/>
	</g>
</g>
</svg>
