<?xml version="1.0" encoding="utf-8"?>
<!-- Generator: Adobe Illustrator 20.1.0, SVG Export Plug-In . SVG Version: 6.00 Build 0)  -->
<svg version="1.1" id="Capa_1" xmlns="http://www.w3.org/2000/svg" xmlns:xlink="http://www.w3.org/1999/xlink" x="0px" y="0px"
	 viewBox="0 0 232.5 71.7" style="enable-background:new 0 0 232.5 71.7;" xml:space="preserve">
<style type="text/css">
	.st0{fill:#FFFFFF;}
	.st1{fill:#FFFFFF;stroke:#FFFFFF;stroke-width:0.2;stroke-miterlimit:10;}
	.st2{fill:url(#SVGID_1_);}
	.st3{fill:url(#SVGID_2_);}
	.st4{fill:url(#SVGID_3_);}
	.st5{fill:url(#SVGID_4_);}
	.st6{opacity:0.2;enable-background:new    ;}
	.st7{opacity:0.12;enable-background:new    ;}
	.st8{opacity:0.25;fill:#FFFFFF;enable-background:new    ;}
</style>
<g>
	<g>
		<path d="M222.6,69.9H9.9c-4.7,0-8.5-3.8-8.5-8.5v-51c0-4.7,3.8-8.5,8.5-8.5h212.6c4.7,0,8.5,3.8,8.5,8.5v51
			C231.1,66,227.2,69.9,222.6,69.9z"/>
	</g>
	<g>
		<g>
			<path class="st0" d="M222.6,3.2c3.9,0,7.1,3.2,7.1,7.1v51c0,3.9-3.2,7.1-7.1,7.1H9.9c-3.9,0-7.1-3.2-7.1-7.1v-51
				c0-3.9,3.2-7.1,7.1-7.1L222.6,3.2 M222.6,1.8H9.9c-4.7,0-8.5,3.8-8.5,8.5v51c0,4.7,3.8,8.5,8.5,8.5h212.6c4.7,0,8.5-3.8,8.5-8.5
				v-51C231.1,5.6,227.2,1.8,222.6,1.8L222.6,1.8z"/>
		</g>
	</g>
	<g>
		<path class="st1" d="M82.1,19.2c0,1.4-0.4,2.6-1.3,3.4c-1,1-2.2,1.5-3.7,1.5s-2.7-0.5-3.8-1.5c-1-1-1.5-2.3-1.5-3.8
			s0.5-2.8,1.5-3.8s2.3-1.5,3.8-1.5c0.7,0,1.4,0.1,2.1,0.4c0.7,0.3,1.2,0.7,1.6,1.1l-0.9,1c-0.7-0.8-1.6-1.2-2.8-1.2
			c-1.1,0-2,0.4-2.8,1.1c-0.8,0.8-1.2,1.7-1.2,2.9s0.4,2.2,1.2,2.9c0.8,0.8,1.7,1.1,2.8,1.1c1.1,0,2.1-0.4,2.9-1.1
			c0.5-0.5,0.8-1.2,0.9-2.1h-3.7v-1.2H82C82.1,18.7,82.1,19,82.1,19.2z"/>
		<path class="st1" d="M89.9,15h-4.6v3.2h4.2v1.2h-4.2v3.2h4.6v1.3h-6V13.7h6V15z"/>
		<path class="st1" d="M95.5,23.9h-1.3v-9h-2.9v-1.3h7V15h-2.9v8.9H95.5z"/>
		<path class="st1" d="M103.4,23.9V13.7h1.3v10.2H103.4z"/>
		<path class="st1" d="M110.5,23.9h-1.3v-9h-2.9v-1.3h7V15h-2.9v8.9H110.5z"/>
		<path class="st1" d="M126.6,22.6c-1,1-2.3,1.5-3.7,1.5c-1.5,0-2.7-0.5-3.7-1.5s-1.5-2.3-1.5-3.8s0.5-2.8,1.5-3.8s2.2-1.5,3.7-1.5
			s2.7,0.5,3.7,1.6c1,1,1.5,2.3,1.5,3.8C128.1,20.3,127.6,21.6,126.6,22.6z M120.1,21.8c0.8,0.8,1.7,1.1,2.8,1.1
			c1.1,0,2-0.4,2.8-1.1c0.8-0.8,1.1-1.7,1.1-2.9s-0.4-2.2-1.1-2.9c-0.8-0.8-1.7-1.1-2.8-1.1c-1.1,0-2,0.4-2.8,1.1
			c-0.8,0.8-1.1,1.7-1.1,2.9S119.4,21,120.1,21.8z"/>
		<path class="st1" d="M130,23.9V13.7h1.6l5,7.9h0.1l-0.1-2v-6h1.3v10.2h-1.4l-5.2-8.3h-0.1l0.1,2v6.4H130z"/>
	</g>
	<path class="st0" d="M117.3,38.8c-4,0-7.3,3-7.3,7.2s3.3,7.2,7.3,7.2s7.3-3.1,7.3-7.2C124.6,41.9,121.3,38.8,117.3,38.8z
		 M117.3,50.4c-2.2,0-4.1-1.8-4.1-4.4c0-2.6,1.9-4.4,4.1-4.4s4.1,1.8,4.1,4.4C121.4,48.6,119.5,50.4,117.3,50.4z M101.5,38.8
		c-4,0-7.3,3-7.3,7.2s3.3,7.2,7.3,7.2s7.3-3.1,7.3-7.2C108.7,41.9,105.5,38.8,101.5,38.8z M101.5,50.4c-2.2,0-4.1-1.8-4.1-4.4
		c0-2.6,1.9-4.4,4.1-4.4s4.1,1.8,4.1,4.4C105.6,48.6,103.7,50.4,101.5,50.4z M82.6,41v3.1H90c-0.2,1.7-0.8,3-1.7,3.9
		c-1.1,1.1-2.7,2.2-5.7,2.2c-4.5,0-8.1-3.6-8.1-8.2s3.5-8.2,8.1-8.2c2.4,0,4.2,1,5.5,2.2l2.2-2.2c-1.8-1.8-4.3-3.1-7.7-3.1
		c-6.2,0-11.4,5-11.4,11.2s5.2,11.2,11.4,11.2c3.3,0,5.9-1.1,7.8-3.2c2-2,2.7-4.9,2.7-7.2c0-0.7-0.1-1.4-0.2-1.9H82.6V41z
		 M159.7,43.4c-0.6-1.6-2.4-4.6-6.2-4.6c-3.7,0-6.8,2.9-6.8,7.2c0,4.1,3.1,7.2,7.2,7.2c3.3,0,5.2-2,6-3.2l-2.5-1.6
		c-0.8,1.2-1.9,2-3.6,2c-1.6,0-2.8-0.7-3.5-2.2l9.7-4L159.7,43.4z M149.8,45.8c-0.1-2.8,2.2-4.2,3.8-4.2c1.3,0,2.3,0.6,2.7,1.5
		L149.8,45.8z M142,52.8h3.2V31.6H142V52.8z M136.8,40.4h-0.1c-0.7-0.8-2.1-1.6-3.8-1.6c-3.6,0-6.9,3.2-6.9,7.3s3.3,7.2,6.9,7.2
		c1.7,0,3.1-0.8,3.8-1.6h0.1v1c0,2.8-1.5,4.2-3.9,4.2c-1.9,0-3.2-1.4-3.6-2.6l-2.8,1.2c0.8,1.9,2.9,4.3,6.4,4.3
		c3.7,0,6.9-2.2,6.9-7.5v-13h-3L136.8,40.4L136.8,40.4z M133.1,50.4c-2.2,0-4-1.8-4-4.4c0-2.5,1.8-4.4,4-4.4s3.9,1.9,3.9,4.4
		C137,48.6,135.3,50.4,133.1,50.4z M174.6,31.6H167v21.3h3.2v-8.1h4.4c3.5,0,7-2.5,7-6.6S178.1,31.6,174.6,31.6z M174.7,41.8h-4.5
		v-7.3h4.5c2.4,0,3.7,2,3.7,3.6C178.4,39.8,177.1,41.8,174.7,41.8z M194.3,38.8c-2.3,0-4.7,1-5.7,3.3l2.8,1.2
		c0.6-1.2,1.7-1.6,2.9-1.6c1.6,0,3.3,1,3.3,2.7v0.2c-0.6-0.3-1.8-0.8-3.3-0.8c-3,0-6.1,1.7-6.1,4.8c0,2.8,2.5,4.7,5.3,4.7
		c2.1,0,3.3-1,4-2.1h0.1v1.6h3.1v-8.2C200.8,40.9,197.9,38.8,194.3,38.8z M193.9,50.4c-1,0-2.5-0.5-2.5-1.8c0-1.6,1.8-2.3,3.4-2.3
		c1.4,0,2.1,0.3,2.9,0.7C197.4,49,195.7,50.4,193.9,50.4z M211.9,39.2l-3.6,9.2h-0.1l-3.8-9.2H201l5.7,12.9l-3.2,7.2h3.3l8.7-20.1
		C215.5,39.2,211.9,39.2,211.9,39.2z M183.3,52.8h3.2V31.6h-3.2V52.8z"/>
	<g>
		
			<linearGradient id="SVGID_1_" gradientUnits="userSpaceOnUse" x1="38.4872" y1="340.5028" x2="9.9389" y2="369.0511" gradientTransform="matrix(1 0 0 1 0 -323.89)">
			<stop  offset="0" style="stop-color:#00A0FF"/>
			<stop  offset="6.574450e-03" style="stop-color:#00A1FF"/>
			<stop  offset="0.2601" style="stop-color:#00BEFF"/>
			<stop  offset="0.5122" style="stop-color:#00D2FF"/>
			<stop  offset="0.7604" style="stop-color:#00DFFF"/>
			<stop  offset="1" style="stop-color:#00E3FF"/>
		</linearGradient>
		<path class="st2" d="M19.2,14.6c-0.5,0.5-0.8,1.3-0.8,2.4v37.6c0,1.1,0.3,1.9,0.8,2.4l0.1,0.1L40.4,36v-0.2v-0.2L19.3,14.5
			L19.2,14.6z"/>
		
			<linearGradient id="SVGID_2_" gradientUnits="userSpaceOnUse" x1="58.974" y1="359.79" x2="17.813" y2="359.79" gradientTransform="matrix(1 0 0 1 0 -323.89)">
			<stop  offset="0" style="stop-color:#FFE000"/>
			<stop  offset="0.4087" style="stop-color:#FFBD00"/>
			<stop  offset="0.7754" style="stop-color:#FFA500"/>
			<stop  offset="1" style="stop-color:#FF9C00"/>
		</linearGradient>
		<path class="st3" d="M47.4,43.1l-7-7v-0.2v-0.2l7-7l0.2,0.1l8.3,4.7c2.4,1.4,2.4,3.6,0,4.9L47.6,43L47.4,43.1z"/>
		
			<linearGradient id="SVGID_3_" gradientUnits="userSpaceOnUse" x1="43.6562" y1="363.6338" x2="4.9423" y2="402.3477" gradientTransform="matrix(1 0 0 1 0 -323.89)">
			<stop  offset="0" style="stop-color:#FF3A44"/>
			<stop  offset="1" style="stop-color:#C31162"/>
		</linearGradient>
		<path class="st4" d="M47.6,43l-7.2-7.2L19.2,57c0.8,0.8,2.1,0.9,3.5,0.1L47.6,43"/>
		
			<linearGradient id="SVGID_4_" gradientUnits="userSpaceOnUse" x1="13.8717" y1="325.9618" x2="31.159" y2="343.2491" gradientTransform="matrix(1 0 0 1 0 -323.89)">
			<stop  offset="0" style="stop-color:#32A071"/>
			<stop  offset="6.850000e-02" style="stop-color:#2DA771"/>
			<stop  offset="0.4762" style="stop-color:#15CF74"/>
			<stop  offset="0.8009" style="stop-color:#06E775"/>
			<stop  offset="1" style="stop-color:#00F076"/>
		</linearGradient>
		<path class="st5" d="M47.6,28.6L22.7,14.5c-1.5-0.8-2.8-0.7-3.5,0.1l21.2,21.2L47.6,28.6z"/>
		<g>
			<path class="st6" d="M47.4,42.9l-24.7,14c-1.4,0.8-2.6,0.7-3.4,0l0,0L19.2,57l0,0l0.1,0.1l0,0c0.8,0.7,2,0.8,3.4,0L47.6,43
				L47.4,42.9z"/>
			<path class="st7" d="M19.2,56.8c-0.5-0.5-0.8-1.3-0.8-2.4v0.2c0,1.1,0.3,1.9,0.8,2.4l0.1-0.1L19.2,56.8z"/>
		</g>
		<path class="st7" d="M55.9,38l-8.5,4.8l0.2,0.2l8.3-4.7c1.2-0.7,1.8-1.6,1.8-2.5l0,0C57.6,36.6,57,37.4,55.9,38z"/>
		<path class="st8" d="M22.7,14.8l33.2,18.8c1.1,0.6,1.7,1.4,1.8,2.2l0,0c0-0.9-0.6-1.8-1.8-2.5L22.7,14.5c-2.4-1.4-4.3-0.2-4.3,2.5
			v0.2C18.4,14.6,20.3,13.4,22.7,14.8z"/>
	</g>
</g>
</svg>
