<?xml version="1.0" encoding="utf-8"?>
<!-- Generator: Adobe Illustrator 20.1.0, SVG Export Plug-In . SVG Version: 6.00 Build 0)  -->
<svg version="1.1" id="Capa_1" xmlns="http://www.w3.org/2000/svg" xmlns:xlink="http://www.w3.org/1999/xlink" x="0px" y="0px"
	 viewBox="0 0 232.5 71.7" style="enable-background:new 0 0 232.5 71.7;" xml:space="preserve">
<style type="text/css">
	.st0{fill:#FFFFFF;}
</style>
<g>
	<path class="st0" d="M223,69.9H9.3c-4.4,0-8.1-3.6-8.1-8.1v-52c0-4.4,3.6-8,8.1-8H223c4.4,0,8.2,3.6,8.2,8v52
		C231.2,66.3,227.5,69.9,223,69.9L223,69.9z"/>
	<path d="M229.6,61.8c0,3.6-2.9,6.5-6.5,6.5H9.3c-3.6,0-6.5-2.9-6.5-6.5v-52c0-3.6,2.9-6.5,6.5-6.5H223c3.6,0,6.5,2.9,6.5,6.5
		L229.6,61.8L229.6,61.8z"/>
	<g>
		<g>
			<path class="st0" d="M52.6,35.5c0-5.5,4.5-8.2,4.7-8.3c-2.6-3.8-6.6-4.3-8-4.3c-3.4-0.4-6.6,2-8.3,2s-4.4-2-7.2-1.9
				c-3.6,0.1-7.1,2.2-8.9,5.4c-3.9,6.7-1,16.5,2.7,21.9c1.8,2.6,4,5.6,6.8,5.5s3.8-1.8,7.1-1.8s4.3,1.8,7.2,1.7c3,0,4.8-2.7,6.6-5.3
				c2.1-3,3-6,3-6.2C58.3,44.2,52.6,42,52.6,35.5z"/>
			<path class="st0" d="M47.1,19.3c1.5-1.9,2.5-4.4,2.2-7c-2.2,0.1-4.8,1.5-6.4,3.3c-1.4,1.6-2.6,4.2-2.3,6.7
				C43.1,22.6,45.6,21.2,47.1,19.3z"/>
		</g>
	</g>
	<g>
		<path class="st0" d="M92.6,55.4h-3.9l-2.1-6.7h-7.4l-2,6.7h-3.8l7.3-22.7h4.5L92.6,55.4z M86,46l-1.9-5.9c-0.2-0.6-0.6-2-1.1-4.3
			h-0.1c-0.2,1-0.6,2.4-1.1,4.3L79.9,46H86z"/>
		<path class="st0" d="M111.4,47.1c0,2.8-0.8,5-2.3,6.6c-1.3,1.4-3,2.2-5,2.2c-2.2,0-3.7-0.8-4.6-2.3h-0.1v8.6h-3.6V44.5
			c0-1.7,0-3.5-0.1-5.4h3.2l0.2,2.6h0.1c1.2-2,3-2.9,5.5-2.9c1.9,0,3.5,0.8,4.8,2.3C110.8,42.6,111.4,44.6,111.4,47.1z M107.7,47.2
			c0-1.6-0.4-2.9-1.1-3.9c-0.8-1.1-1.8-1.6-3.2-1.6c-0.9,0-1.7,0.3-2.4,0.9c-0.7,0.6-1.2,1.4-1.4,2.3c-0.1,0.4-0.2,0.8-0.2,1.1v2.7
			c0,1.2,0.4,2.2,1.1,3s1.7,1.2,2.8,1.2c1.4,0,2.4-0.5,3.2-1.6C107.3,50.3,107.7,48.9,107.7,47.2z"/>
		<path class="st0" d="M130.2,47.1c0,2.8-0.8,5-2.3,6.6c-1.3,1.4-3,2.2-5,2.2c-2.2,0-3.7-0.8-4.6-2.3h-0.1v8.6h-3.6V44.5
			c0-1.7,0-3.5-0.1-5.4h3.2l0.2,2.6h0.1c1.2-2,3-2.9,5.5-2.9c1.9,0,3.5,0.8,4.8,2.3C129.6,42.6,130.2,44.6,130.2,47.1z M126.5,47.2
			c0-1.6-0.4-2.9-1.1-3.9c-0.8-1.1-1.8-1.6-3.2-1.6c-0.9,0-1.7,0.3-2.4,0.9c-0.7,0.6-1.2,1.4-1.4,2.3c-0.1,0.4-0.2,0.8-0.2,1.1v2.7
			c0,1.2,0.4,2.2,1.1,3s1.7,1.2,2.8,1.2c1.4,0,2.4-0.5,3.2-1.6C126.1,50.3,126.5,48.9,126.5,47.2z"/>
		<path class="st0" d="M151.2,49.1c0,1.9-0.7,3.5-2,4.7c-1.5,1.3-3.5,2-6.2,2c-2.4,0-4.4-0.5-5.9-1.4l0.8-3c1.6,1,3.3,1.4,5.2,1.4
			c1.4,0,2.4-0.3,3.2-0.9c0.8-0.6,1.1-1.4,1.1-2.5c0-0.9-0.3-1.7-0.9-2.3c-0.6-0.6-1.7-1.2-3.1-1.8c-4-1.5-6-3.6-6-6.5
			c0-1.9,0.7-3.4,2.1-4.6c1.4-1.2,3.2-1.8,5.5-1.8c2.1,0,3.8,0.4,5.1,1.1l-0.9,3c-1.3-0.7-2.7-1-4.3-1c-1.3,0-2.3,0.3-3,0.9
			c-0.6,0.6-0.9,1.2-0.9,2.1c0,0.9,0.3,1.6,1,2.2c0.6,0.5,1.7,1.1,3.3,1.7c2,0.8,3.4,1.7,4.3,2.8C150.8,46.2,151.2,47.5,151.2,49.1z
			"/>
		<path class="st0" d="M163.2,41.8h-4v7.9c0,2,0.7,3,2.1,3c0.6,0,1.2-0.1,1.6-0.2l0.1,2.8c-0.7,0.3-1.7,0.4-2.8,0.4
			c-1.4,0-2.6-0.4-3.4-1.3c-0.8-0.9-1.2-2.3-1.2-4.4v-8.2h-2.4v-2.7h2.4v-3l3.6-1.1v4.1h4L163.2,41.8z"/>
		<path class="st0" d="M181.3,47.1c0,2.5-0.7,4.6-2.2,6.2c-1.5,1.7-3.5,2.5-6,2.5c-2.4,0-4.3-0.8-5.7-2.4s-2.1-3.6-2.1-6
			c0-2.5,0.7-4.6,2.2-6.2c1.5-1.6,3.4-2.4,5.9-2.4c2.4,0,4.3,0.8,5.8,2.4C180.6,42.7,181.3,44.7,181.3,47.1z M177.5,47.2
			c0-1.5-0.3-2.8-1-3.9c-0.8-1.3-1.8-2-3.3-2s-2.6,0.7-3.3,2c-0.7,1.1-1,2.4-1,3.9s0.3,2.8,1,3.9c0.8,1.3,1.9,2,3.3,2
			c1.4,0,2.5-0.7,3.3-2C177.2,50.1,177.5,48.7,177.5,47.2z"/>
		<path class="st0" d="M193.1,42.3c-0.4-0.1-0.7-0.1-1.1-0.1c-1.3,0-2.3,0.5-3,1.4c-0.6,0.9-0.9,1.9-0.9,3.2v8.6h-3.6V44.2
			c0-1.9,0-3.6-0.1-5.1h3.2l0.1,3.1h0.1c0.4-1.1,1-1.9,1.8-2.6c0.8-0.6,1.7-0.9,2.6-0.9c0.3,0,0.6,0,0.9,0.1V42.3z"/>
		<path class="st0" d="M209.3,46.5c0,0.7,0,1.2-0.1,1.6h-10.9c0,1.6,0.6,2.8,1.6,3.7c0.9,0.8,2.1,1.1,3.6,1.1c1.6,0,3.1-0.3,4.4-0.8
			l0.6,2.5c-1.5,0.7-3.4,1-5.5,1c-2.5,0-4.5-0.7-6-2.2c-1.4-1.5-2.2-3.5-2.2-6s0.7-4.5,2-6.2c1.4-1.7,3.3-2.6,5.7-2.6
			s4.1,0.9,5.4,2.6C208.9,42.7,209.3,44.4,209.3,46.5z M205.9,45.5c0-1.1-0.2-2-0.7-2.8c-0.6-1-1.6-1.5-2.9-1.5
			c-1.2,0-2.2,0.5-2.9,1.5c-0.6,0.8-1,1.7-1.1,2.8H205.9L205.9,45.5z"/>
	</g>
	<g>
		<g>
			<path class="st0" d="M84.8,18.8c0,2-0.6,3.5-1.8,4.5c-1.1,0.9-2.7,1.4-4.7,1.4c-1,0-1.9,0-2.6-0.1v-11c0.9-0.2,2-0.2,3.1-0.2
				c2,0,3.4,0.4,4.4,1.3C84.3,15.7,84.8,17,84.8,18.8z M82.9,18.9c0-1.3-0.3-2.3-1-3s-1.7-1-3-1c-0.6,0-1,0-1.4,0.1v8.3
				c0.2,0,0.6,0,1.2,0c1.4,0,2.4-0.4,3.2-1.1C82.6,21.4,82.9,20.3,82.9,18.9z"/>
			<path class="st0" d="M94.8,20.6c0,1.2-0.4,2.2-1.1,3s-1.7,1.2-2.9,1.2c-1.2,0-2.1-0.4-2.8-1.2c-0.7-0.8-1-1.8-1-3
				s0.4-2.3,1.1-3.1c0.7-0.8,1.7-1.2,2.9-1.2c1.2,0,2.1,0.4,2.8,1.2C94.5,18.4,94.8,19.4,94.8,20.6z M92.9,20.6
				c0-0.7-0.2-1.4-0.5-1.9c-0.4-0.6-0.9-1-1.6-1s-1.3,0.3-1.6,1c-0.3,0.5-0.5,1.2-0.5,1.9c0,0.7,0.2,1.4,0.5,1.9
				c0.4,0.6,0.9,1,1.6,1s1.2-0.3,1.6-1C92.8,22,92.9,21.4,92.9,20.6z"/>
			<path class="st0" d="M108.2,16.6l-2.5,8H104l-1-3.5c-0.3-0.9-0.5-1.7-0.6-2.6l0,0c-0.2,0.9-0.4,1.7-0.6,2.6l-1.1,3.5H99l-2.4-8
				h1.8l0.9,3.8c0.2,0.9,0.4,1.8,0.5,2.6l0,0c0.1-0.7,0.4-1.5,0.7-2.6l1.1-3.8h1.5l1.1,3.8c0.3,0.9,0.5,1.8,0.6,2.6l0,0
				c0.1-0.8,0.3-1.7,0.5-2.6l1-3.8H108.2L108.2,16.6z"/>
			<path class="st0" d="M117.4,24.6h-1.8V20c0-1.4-0.5-2.1-1.6-2.1c-0.5,0-1,0.2-1.3,0.6s-0.5,0.8-0.5,1.4v4.8h-1.8V19
				c0-0.7,0-1.5-0.1-2.3h1.6L112,18l0,0c0.2-0.4,0.5-0.7,0.9-1c0.5-0.3,1-0.5,1.6-0.5c0.7,0,1.4,0.2,1.9,0.7
				c0.6,0.6,0.9,1.5,0.9,2.7v4.7H117.4z"/>
			<path class="st0" d="M122.4,24.6h-1.8V12.9h1.8V24.6z"/>
			<path class="st0" d="M132.9,20.6c0,1.2-0.4,2.2-1.1,3c-0.7,0.8-1.7,1.2-2.9,1.2s-2.1-0.4-2.8-1.2c-0.7-0.8-1-1.8-1-3
				s0.4-2.3,1.1-3.1c0.7-0.8,1.7-1.2,2.9-1.2c1.2,0,2.1,0.4,2.8,1.2C132.5,18.4,132.9,19.4,132.9,20.6z M131,20.6
				c0-0.7-0.2-1.4-0.5-1.9c-0.4-0.6-0.9-1-1.6-1c-0.7,0-1.3,0.3-1.6,1c-0.3,0.5-0.5,1.2-0.5,1.9c0,0.7,0.2,1.4,0.5,1.9
				c0.4,0.6,0.9,1,1.6,1s1.2-0.3,1.6-1C130.8,22,131,21.4,131,20.6z"/>
			<path class="st0" d="M141.5,24.6h-1.6l-0.1-0.9l0,0c-0.5,0.7-1.3,1.1-2.3,1.1c-0.8,0-1.4-0.2-1.8-0.7c-0.4-0.4-0.6-1-0.6-1.6
				c0-1,0.4-1.7,1.2-2.2s2-0.8,3.5-0.8v-0.1c0-1.1-0.6-1.6-1.7-1.6c-0.8,0-1.5,0.2-2.1,0.6l-0.4-1.2c0.7-0.5,1.7-0.7,2.8-0.7
				c2.1,0,3.2,1.1,3.2,3.3v3C141.4,23.5,141.4,24.2,141.5,24.6z M139.6,21.9v-1.2c-2,0-3,0.5-3,1.6c0,0.4,0.1,0.7,0.3,0.9
				s0.5,0.3,0.9,0.3s0.8-0.1,1.1-0.4c0.3-0.2,0.5-0.6,0.6-1C139.6,22.1,139.6,22,139.6,21.9z"/>
			<path class="st0" d="M151.6,24.6H150l-0.1-1.3l0,0c-0.5,1-1.4,1.5-2.6,1.5c-1,0-1.8-0.4-2.4-1.1c-0.6-0.8-1-1.7-1-3
				s0.3-2.4,1-3.2c0.7-0.7,1.5-1.1,2.5-1.1c1.1,0,1.8,0.4,2.3,1.1l0,0v-4.6h1.8v9.6C151.6,23.3,151.6,24,151.6,24.6z M149.8,21.3V20
				c0-0.2,0-0.4,0-0.6c-0.1-0.4-0.3-0.8-0.6-1.1c-0.3-0.3-0.7-0.4-1.2-0.4c-0.7,0-1.2,0.3-1.6,0.8c-0.4,0.5-0.6,1.2-0.6,2
				s0.2,1.4,0.5,1.9c0.4,0.5,0.9,0.8,1.6,0.8c0.6,0,1.1-0.2,1.4-0.7C149.6,22.3,149.8,21.8,149.8,21.3z"/>
			<path class="st0" d="M166.9,20.6c0,1.2-0.4,2.2-1.1,3c-0.7,0.8-1.7,1.2-2.9,1.2s-2.1-0.4-2.8-1.2c-0.7-0.8-1-1.8-1-3
				s0.4-2.3,1.1-3.1c0.7-0.8,1.7-1.2,2.9-1.2s2.1,0.4,2.8,1.2C166.6,18.4,166.9,19.4,166.9,20.6z M165.1,20.6c0-0.7-0.2-1.4-0.5-1.9
				c-0.4-0.6-0.9-1-1.6-1c-0.7,0-1.3,0.3-1.6,1c-0.3,0.5-0.5,1.2-0.5,1.9c0,0.7,0.2,1.4,0.5,1.9c0.4,0.6,0.9,1,1.6,1
				c0.7,0,1.2-0.3,1.6-1C164.9,22,165.1,21.4,165.1,20.6z"/>
			<path class="st0" d="M176.5,24.6h-1.8V20c0-1.4-0.5-2.1-1.6-2.1c-0.5,0-1,0.2-1.3,0.6s-0.5,0.8-0.5,1.4v4.8h-1.8V19
				c0-0.7,0-1.5-0.1-2.3h1.6l0.1,1.3l0,0c0.2-0.4,0.5-0.7,0.9-1c0.5-0.3,1-0.5,1.6-0.5c0.7,0,1.4,0.2,1.9,0.7
				c0.6,0.6,0.9,1.5,0.9,2.7v4.7H176.5z"/>
			<path class="st0" d="M188.5,18h-2v3.9c0,1,0.3,1.5,1,1.5c0.3,0,0.6,0,0.8-0.1v1.4c-0.4,0.1-0.8,0.2-1.4,0.2
				c-0.7,0-1.3-0.2-1.7-0.6s-0.6-1.2-0.6-2.2v-4h-1.2v-1.3h1.2v-1.5l1.7-0.5v2h2L188.5,18L188.5,18z"/>
			<path class="st0" d="M198,24.6h-1.8V20c0-1.4-0.5-2.2-1.6-2.2c-0.8,0-1.4,0.4-1.7,1.3c-0.1,0.2-0.1,0.4-0.1,0.6v4.8H191V12.9h1.8
				v4.8l0,0c0.6-0.9,1.4-1.3,2.4-1.3c0.7,0,1.4,0.2,1.8,0.7c0.6,0.6,0.9,1.5,0.9,2.7L198,24.6z"/>
			<path class="st0" d="M207.7,20.3c0,0.3,0,0.6-0.1,0.8h-5.4c0,0.8,0.3,1.4,0.8,1.8s1,0.6,1.8,0.6s1.5-0.1,2.2-0.4l0.3,1.2
				c-0.8,0.3-1.7,0.5-2.7,0.5c-1.2,0-2.2-0.4-2.9-1.1s-1.1-1.7-1.1-2.9c0-1.2,0.3-2.2,1-3c0.7-0.9,1.6-1.3,2.8-1.3s2,0.4,2.6,1.3
				C207.5,18.4,207.7,19.3,207.7,20.3z M206,19.8c0-0.5-0.1-1-0.3-1.4c-0.3-0.5-0.8-0.7-1.4-0.7c-0.6,0-1.1,0.2-1.4,0.7
				c-0.3,0.4-0.5,0.8-0.5,1.4H206z"/>
		</g>
	</g>
</g>
</svg>
