<?xml version="1.0" encoding="utf-8"?>
<!-- Generator: Adobe Illustrator 20.0.0, SVG Export Plug-In . SVG Version: 6.00 Build 0)  -->
<!DOCTYPE svg PUBLIC "-//W3C//DTD SVG 1.1//EN" "http://www.w3.org/Graphics/SVG/1.1/DTD/svg11.dtd">
<svg version="1.1" id="Capa_1" xmlns="http://www.w3.org/2000/svg" xmlns:xlink="http://www.w3.org/1999/xlink" x="0px" y="0px"
	 viewBox="0 0 45 45" style="enable-background:new 0 0 45 45;" xml:space="preserve">
<style type="text/css">
	.st0{fill:none;stroke:#FFFFFF;stroke-miterlimit:10;}
	.st1{fill:#FFFFFF;}
</style>
<g id="Capa_1_1_">
	<circle class="st0" cx="22.5" cy="22.5" r="17.5"/>
</g>
<g>
	<circle class="st1" cx="22.6" cy="19.6" r="1.8"/>
	<path class="st1" d="M22.5,13c-3.8,0-6.8,3.1-6.8,6.9c0,4.3,5.1,10.8,6.8,12.9c1.7-2.1,6.9-8.7,6.9-12.9C29.3,16.1,26.3,13,22.5,13
		z M22.6,23.4c-2.1,0-3.8-1.7-3.8-3.8c0-2.1,1.7-3.8,3.8-3.8c2.1,0,3.8,1.7,3.8,3.8C26.4,21.7,24.7,23.4,22.6,23.4z"/>
</g>
</svg>
