<?xml version="1.0" encoding="utf-8"?>
<!-- Generator: Adobe Illustrator 21.0.0, SVG Export Plug-In . SVG Version: 6.00 Build 0)  -->
<svg version="1.1" id="Capa_1" xmlns="http://www.w3.org/2000/svg" xmlns:xlink="http://www.w3.org/1999/xlink" x="0px" y="0px"
	 viewBox="0 0 185 64" style="enable-background:new 0 0 185 64;" xml:space="preserve">
<style type="text/css">
	.st0{fill:#FFFFFF;}
</style>
<g>
	<g>
		<path class="st0" d="M41.1,49.6c-4.2,0-8.4,0.2-12.5,0c-9.2-0.5-16.3-8.2-16.4-17.3c0-9.2,7.1-16.8,16.4-17.4
			c2.4-0.1,4.8-0.1,7.2-0.1c5.9,0,11.8-0.1,17.7,0.2c9,0.4,16.1,7.7,16.4,16.5c0.3,9.3-6,16.9-15.1,18.1c-1.4,0.2-2.7,0.2-4.1,0.3
			c-3.2,0-6.4,0-9.6,0C41.1,49.7,41.1,49.6,41.1,49.6z M41.1,38c1.9,0,3.8,0,5.7,0c2.1,0,4.2,0,6.3-0.1c2.9-0.2,5.1-2.5,5.3-5.3
			c0.2-2.9-1.7-5.4-4.6-6c-0.8-0.2-1.7-0.2-2.6-0.2c-6.7,0-13.4,0-20.1,0c-0.7,0-1.4,0-2,0.1c-2.8,0.3-4.9,2.5-5.2,5.3
			c-0.2,2.6,1.5,5.2,4.2,5.9C29,37.9,30,38,31,38C34.3,38.1,37.7,38,41.1,38z"/>
		<path class="st0" d="M84.7,32.4c0-4.5,3.3-7.8,7.7-7.8c4.3,0,7.6,3.3,7.7,7.7c0,4.5-3.3,7.8-7.6,7.8C88,40.2,84.7,36.9,84.7,32.4z
			 M96.6,32.5c0-2.5-1.8-4.4-4.2-4.4c-2.4,0-4.2,1.8-4.2,4.3c0,2.5,1.8,4.4,4.2,4.4C94.8,36.8,96.5,34.9,96.6,32.5z"/>
		<path class="st0" d="M132.6,39.8c-1,0-2,0-3,0c0-0.4-0.1-0.8-0.1-1.3c-0.2,0.1-0.4,0.2-0.5,0.3c-2.1,1.4-4.4,1.7-6.7,0.8
			c-2.5-1-3.7-3-3.8-5.6c-0.1-2.9-0.1-5.9-0.1-8.9c0-0.1,0-0.1,0.1-0.3c1.1,0,2.2,0,3.4,0c0,0.4,0,0.7,0,1c0,2.5,0,5,0.1,7.5
			c0.2,2.3,1.5,3.5,3.6,3.5c2.1-0.1,3.4-1.4,3.5-3.8c0.1-2.4,0-4.8,0.1-7.1c0-0.3,0-0.6,0-1c1.2,0,2.3,0,3.5,0
			C132.6,30,132.6,34.9,132.6,39.8z"/>
		<path class="st0" d="M144.2,25c1.3,0,2.4,0,3.6,0c0,0.3,0,0.7,0,1c0,2.5,0,5,0.1,7.5c0.2,2.7,2.3,4.1,4.7,3.3
			c1.4-0.5,2.2-1.5,2.3-2.9c0.1-1.8,0.1-3.7,0.1-5.5c0-1.1,0-2.2,0-3.3c1.2,0,2.3,0,3.4,0c0,4.9,0,9.8,0,14.8c-1,0-1.9,0-3,0
			c-0.1-0.4-0.1-0.8-0.2-1.2c-0.2,0.1-0.3,0.2-0.5,0.3c-2,1.4-4.2,1.7-6.5,1c-2.4-0.8-3.8-2.5-3.9-5C144.3,31.6,144.3,28.4,144.2,25
			z"/>
		<path class="st0" d="M173.5,26c-0.6,0.8-1.1,1.5-1.6,2.2c-1.1-0.3-2.1-0.7-3.1-0.9c-0.7-0.1-1.5,0.1-2.2,0.3
			c-0.4,0.1-0.7,0.7-0.8,1.1c0,0.3,0.4,0.9,0.7,1c0.6,0.3,1.4,0.5,2.1,0.7c1.1,0.3,2.2,0.6,3.2,1.1c1.5,0.7,2.5,2,2.5,3.8
			c0,1.8-0.9,3.2-2.4,4c-2.3,1.2-4.7,1.2-7.1,0.3c-1.1-0.4-2.2-1.1-3.3-1.7c0.7-1,1.3-1.8,2-2.6c1.5,1.1,3.2,1.8,5.1,1.7
			c0.6,0,1.2-0.2,1.7-0.5c1-0.6,1.1-1.7,0.1-2.3c-0.7-0.4-1.5-0.6-2.2-0.8c-1-0.3-2-0.5-3-0.9c-1.6-0.6-2.6-1.7-2.7-3.5
			c-0.1-1.7,0.7-3.1,2.2-4C167.1,23.7,171.2,24.1,173.5,26z"/>
		<path class="st0" d="M115.4,26.4c-0.7,0.9-1.4,1.8-2,2.6c-3.1-1.3-5.3-1-6.6,0.9c-1.1,1.7-0.9,4.3,0.5,5.7c1.6,1.6,3.9,1.6,6.2,0
			c0.8,0.8,1.6,1.5,2.4,2.3c-2,2.8-7.4,3.2-10.5,0.8c-3.3-2.6-3.9-8.2-1.1-11.5C107,24.1,112.4,23.7,115.4,26.4z"/>
		<path class="st0" d="M136.9,16.9c1.2,0,2.3,0,3.4,0c0,7.6,0,15.2,0,22.9c-1.1,0-2.2,0-3.4,0C136.9,32.2,136.9,24.6,136.9,16.9z"/>
	</g>
</g>
</svg>
